<svg width="463" height="523" viewBox="0 0 463 523" fill="none" xmlns="http://www.w3.org/2000/svg">
<path d="M383.027 481.078L355.872 439.755H280.163C278.198 430.387 275.308 418.651 271.276 406.869L358.181 405.609C379.536 394.229 391.179 380.157 398.811 357.28C398.855 357.145 398.9 357.01 398.944 356.875C399.814 354.243 400.491 351.289 400.495 348.493C400.496 345.47 399.709 342.632 397.517 340.588C395.669 338.865 393.348 338.186 390.88 338.186C387.308 338.186 383.423 339.607 380.2 341.337C377.365 342.858 374.624 344.559 371.999 346.423C369.502 346.71 367.855 346.939 367.855 346.939L371.446 344.168C372.651 343.239 373.127 341.641 372.629 340.205L370.681 334.583C370.272 333.406 369.283 332.534 368.063 332.286C366.681 332.006 364.99 331.465 363.661 331.095C363.418 331.028 363.168 330.994 362.92 330.994C362.154 330.994 361.409 331.308 360.92 331.859C360.854 331.597 360.71 331.313 360.477 331.002C359.592 329.822 354.038 327.757 350.739 327.757C349.46 327.757 345.427 332.185 343.067 334.544C340.939 336.673 338.442 343.693 338.442 343.693C328.458 345.863 319.654 346.649 312.14 346.649C292.416 346.651 281.585 341.233 281.585 341.233C281.521 341.038 281.457 340.83 281.391 340.614C287.893 335.637 294.497 330.796 301.144 326.014L303.774 326.977C306.61 331.806 311.927 334.575 317.149 336.598C320.868 338.041 324.765 339.247 328.746 339.247C328.893 339.247 329.042 339.245 329.189 339.242C333.324 339.147 337.594 337.536 340.081 334.229C340.793 333.279 341.364 332.11 341.16 330.94C340.957 329.793 340.059 328.911 339.128 328.197C339.081 328.161 339.035 328.126 338.989 328.092C338.971 328.078 338.954 328.065 338.935 328.051C333.741 324.181 327.091 322.678 320.603 322.678C320.454 322.678 320.302 322.68 320.154 322.682C314.005 322.746 307.953 324.043 301.955 325.43C311.89 318.29 321.915 311.268 331.824 304.092C341.983 302.011 352.275 299.849 361.511 295.133C370.767 290.405 378.994 282.725 382.059 272.794C382.615 270.993 382.975 269.058 382.973 267.164C382.971 264.916 382.463 262.727 381.171 260.899C381.162 260.887 381.154 260.875 381.146 260.864C381.144 260.86 381.14 260.857 381.139 260.855C381.132 260.845 381.125 260.835 381.118 260.826C381.117 260.823 381.113 260.82 381.112 260.816C381.105 260.808 381.098 260.798 381.091 260.789C381.09 260.786 381.086 260.783 381.085 260.779C381.078 260.771 381.071 260.762 381.064 260.754C381.063 260.749 381.059 260.745 381.058 260.742C381.051 260.734 381.044 260.725 381.037 260.715C381.036 260.713 381.032 260.71 381.031 260.707C381.022 260.695 381.014 260.685 381.005 260.673C381 260.666 380.995 260.658 380.988 260.651C380.987 260.647 380.983 260.644 380.98 260.641C380.973 260.631 380.966 260.622 380.96 260.614C380.958 260.612 380.958 260.61 380.956 260.609C378.566 257.501 374.47 256.394 370.401 256.394C369.261 256.394 368.122 256.482 367.024 256.636C356.146 258.163 346.271 264.576 339.432 273.174C332.593 281.77 328.628 292.41 326.873 303.256L328.569 303.552C320.679 309.244 312.725 314.851 304.809 320.509C296.727 326.286 288.656 332.124 280.736 338.158C280.459 337.009 280.173 335.713 279.879 334.286C280.778 331.117 281.484 327.908 281.785 324.629C282.344 318.568 281.389 312.163 278.011 307.124C278.006 307.119 278.003 307.114 277.999 307.108C277.989 307.092 277.979 307.077 277.969 307.064C277.962 307.053 277.957 307.045 277.95 307.035C277.942 307.023 277.935 307.013 277.927 307.001C277.92 306.989 277.911 306.979 277.905 306.969C277.898 306.959 277.891 306.949 277.884 306.939C277.876 306.927 277.867 306.915 277.859 306.903C277.854 306.895 277.847 306.885 277.84 306.876C277.832 306.864 277.823 306.851 277.815 306.839C277.81 306.831 277.803 306.822 277.798 306.814C277.788 306.802 277.78 306.788 277.771 306.775C277.766 306.768 277.759 306.76 277.754 306.753C277.746 306.739 277.736 306.726 277.725 306.712C277.72 306.706 277.715 306.699 277.71 306.69C277.702 306.677 277.692 306.663 277.682 306.65C277.676 306.641 277.671 306.635 277.665 306.626C277.656 306.613 277.646 306.601 277.638 306.589C277.622 306.569 277.609 306.547 277.594 306.526C277.114 305.868 276.55 305.204 275.771 304.959C275.547 304.888 275.317 304.856 275.087 304.856C275.084 304.856 275.082 304.856 275.079 304.856C275.074 304.856 275.068 304.856 275.062 304.856C274.793 304.858 274.525 304.9 274.258 304.974C271.342 290.941 267.503 275.873 262.082 264.899C256.371 246.734 247.471 237.646 239.311 233.165L239.382 233.133C249.349 227.832 257.608 219.375 262.673 209.287C262.68 209.274 262.687 209.26 262.694 209.247C262.706 209.221 262.719 209.198 262.731 209.171C262.751 209.132 262.771 209.093 262.79 209.054C264.825 204.951 266.361 200.444 266.366 195.904C266.368 195.063 266.317 194.222 266.207 193.38C266.205 193.365 266.202 193.348 266.2 193.333C266.192 193.272 266.184 193.211 266.173 193.151C265.721 190.208 263.89 186.965 260.951 186.956C260.947 186.956 260.944 186.956 260.94 186.956C260.927 186.956 260.915 186.956 260.903 186.956C258.701 186.977 257 188.823 255.66 190.571C246.322 202.772 240.377 217.544 238.65 232.81C232.444 229.572 226.733 228.954 223.274 228.954C221.132 228.954 219.852 229.19 219.852 229.19L219.862 229.366C219.565 229.2 219.266 229.043 218.967 228.896C218.602 230.185 218.22 231.391 217.82 232.526C217.806 223.327 217.805 212.625 217.862 206.975C220.152 205.133 222.25 203.086 224.11 200.833C228.933 199.024 234.767 195.341 237.117 183.864C238.076 181.007 238.209 177.252 238.137 174.452C238.193 172.602 238.184 170.621 238.103 168.497C237.75 159.238 235.561 152.452 232.519 147.481L232.37 141.971C239.64 121.428 228.99 102.313 209.565 97.4855C178.201 89.6918 180.479 91.0431 167.483 58.2381C162.468 45.5762 154.051 34.3078 143.455 25.7607C144.95 25.3553 146.453 24.9837 147.955 24.6459C156.38 22.7523 164.988 21.8335 173.603 21.8335C207.806 21.8335 242.079 36.323 265.114 61.7261C308.453 109.516 309.213 185.183 352.812 232.738C378.281 260.519 415.771 275.52 439.56 304.755C472.738 345.531 469.456 411.267 432.383 448.537C418.415 462.577 400.893 472.464 383.027 481.078ZM402.792 306.214C399.044 306.214 396.003 309.254 396.003 313.003C396.003 316.751 399.044 319.791 402.792 319.791C406.542 319.791 409.582 316.751 409.582 313.003C409.582 309.254 406.542 306.214 402.792 306.214ZM303.612 297.005C306.441 301.812 309.931 306.209 312.757 311.02L315.772 310.251C318.755 304.697 320.583 298.593 321.878 292.424C323.633 284.062 324.228 274.618 319.214 267.703C317.709 265.627 315.52 263.789 312.958 263.71C312.899 263.708 312.84 263.706 312.782 263.706C311.311 263.706 309.887 264.281 308.596 264.995C303.227 267.97 299.472 273.674 298.84 279.777C298.826 279.899 298.816 280.02 298.806 280.142C298.76 280.681 298.739 281.218 298.739 281.753C298.735 286.939 300.735 292.015 303.34 296.539C303.429 296.694 303.521 296.849 303.612 297.005ZM328.116 226.314C326.672 226.314 325.505 227.483 325.505 228.925C325.505 230.368 326.672 231.537 328.116 231.537C329.557 231.537 330.728 230.368 330.728 228.925C330.728 227.483 329.557 226.314 328.116 226.314ZM262.317 138.059C260.01 138.059 258.138 139.93 258.138 142.236C258.138 144.545 260.01 146.415 262.317 146.415C264.623 146.415 266.494 144.545 266.494 142.236C266.494 139.93 264.623 138.059 262.317 138.059ZM208.006 43.5391C203.967 43.5391 200.695 46.8109 200.695 50.8497C200.695 54.8867 203.967 58.1604 208.006 58.1604C212.043 58.1604 215.316 54.8867 215.316 50.8497C215.316 46.8109 212.043 43.5391 208.006 43.5391ZM268.197 398.47C264.896 390.072 260.979 381.935 256.364 374.919C260.018 376.351 264.716 376.946 270.102 376.946C276.041 376.946 282.817 376.223 289.955 375.099C282.21 382.412 274.369 390.628 268.197 398.47ZM149.271 394.595C147.345 394.023 145.487 393.496 143.7 393.021L150.401 386.822C146.953 386.111 143.46 385.837 139.941 385.837C138.193 385.837 136.44 385.905 134.681 386.02C131.759 382.922 128.72 379.869 125.675 376.939C126.009 376.944 126.342 376.946 126.671 376.946C138.477 376.946 146.978 374.084 148.436 365.826C149.073 362.22 149.803 358.72 150.6 355.313C153.934 358.152 157.22 361.052 160.439 364.024C160.568 364.431 160.699 364.836 160.829 365.236C161.106 365.218 161.392 365.199 161.686 365.181C162.416 365.863 163.142 366.547 163.865 367.236C158.53 374.549 153.625 384.216 149.271 394.595ZM322.446 393.366C321.684 393.366 320.936 393.236 320.274 392.869C316.753 390.918 319.037 385.619 321.263 382.266C324.294 377.707 326.537 372.631 327.885 367.326C334.238 365.922 340.204 364.652 345.427 363.76C345.427 363.76 349.629 363.122 355.59 362.105C355.258 362.532 354.93 362.963 354.607 363.395C345.876 375.106 338.559 390.628 324.179 393.19C323.613 393.291 323.025 393.366 322.446 393.366ZM95.1214 388.278C93.0218 387.912 90.9424 387.386 88.8901 386.665C78.7839 383.111 71.2844 375.542 65.2471 366.529C72.1086 368.017 79.5288 369.728 87.0169 371.329C88.3564 375.182 90.1772 378.869 92.434 382.266C93.5826 383.994 94.7464 386.241 95.1214 388.278ZM165.277 365.37C165.147 365.245 165.015 365.12 164.885 364.996C165.122 364.985 165.36 364.971 165.601 364.959C165.493 365.094 165.385 365.231 165.277 365.37ZM248.098 364.498C247.449 363.836 246.787 363.194 246.116 362.579C246.111 362.591 245.954 362.596 245.657 362.596C245.059 362.596 243.888 362.574 242.235 362.544C244.301 362.495 246.138 362.453 247.703 362.415C247.838 363.108 247.969 363.799 248.098 364.498ZM159.147 359.691C156.539 357.341 153.89 355.034 151.211 352.765C152.313 348.301 153.52 343.992 154.77 339.816C155.966 346.85 157.422 353.554 159.147 359.691ZM84.6318 346.649C77.1193 346.649 68.3139 345.863 58.3295 343.693C58.3295 343.693 55.8339 336.673 53.7061 334.544C51.5102 332.349 47.8679 328.366 46.3397 327.82C41.131 314.165 37.6558 299.905 39.9956 286.329C43.5138 289.897 47.7314 292.858 52.1884 295.133C61.4233 299.849 71.714 302.011 81.8734 304.092C89.5202 309.631 97.2312 315.079 104.92 320.558C107.19 322.176 109.461 323.798 111.726 325.426C105.734 324.041 99.6872 322.744 93.5454 322.682C93.3968 322.68 93.2448 322.678 93.0961 322.678C86.6081 322.678 79.9579 324.181 74.7638 328.051C74.7458 328.065 74.7274 328.078 74.7097 328.092C73.7305 328.825 72.7526 329.735 72.5402 330.94C72.5111 331.105 72.4979 331.269 72.4979 331.433C72.4979 332.435 73.0067 333.413 73.6195 334.229C76.1051 337.536 80.3751 339.147 84.5102 339.242C84.6571 339.245 84.8058 339.247 84.9544 339.247C88.9357 339.247 92.8326 338.041 96.5504 336.598C101.772 334.575 107.089 331.806 109.925 326.977L112.548 326.018C114.293 327.273 116.038 328.533 117.778 329.8C116.829 334.789 115.988 338.786 115.187 341.233C115.187 341.233 104.356 346.649 84.6318 346.649ZM351.035 342.512C351.035 342.512 348.082 342.512 349.854 338.382C351.624 334.249 351.797 335.151 354.28 334.84C355.84 334.644 359.023 334.337 360.355 333.288C360.374 334.68 362.239 335.384 365.494 336.315C368.446 340.446 359.002 342.217 359.002 342.217L351.035 342.512ZM118.258 327.251C107.273 319.273 96.14 311.494 85.1284 303.552L86.826 303.256C85.071 292.41 81.1065 281.77 74.2675 273.174C69.2186 266.826 62.514 261.669 54.9736 258.789C68.8708 244.524 88.5641 234.271 99.0994 217.047C106.625 204.742 108.57 190.688 107.753 176.222C113.988 190.247 123.291 201.774 136.925 209.542C136.337 211.338 136.058 213.306 136.06 215.187C136.06 215.542 136.07 215.892 136.09 216.24C136.092 216.272 136.093 216.304 136.095 216.336C136.676 225.582 141.061 234.167 146.558 241.668C142.524 244.987 138.855 249.529 135.621 254.484C135.619 254.48 135.617 254.477 135.615 254.472C135.617 254.477 135.617 254.482 135.619 254.487C132.442 259.354 129.683 264.612 127.408 269.488C126.825 268.924 126.222 268.384 125.595 267.87C126.129 268.571 126.66 269.271 127.183 269.973C122.648 279.784 120.106 287.917 120.106 287.917L125.979 289.942C122.584 303.079 120.188 316.889 118.258 327.251ZM97.9271 310.251L100.941 311.02C103.768 306.209 107.26 301.812 110.087 297.005C110.179 296.849 110.27 296.694 110.359 296.539C112.964 292.015 114.964 286.939 114.961 281.753C114.961 281.218 114.939 280.681 114.895 280.142C114.798 278.997 114.594 277.863 114.287 276.759C112.925 271.841 109.574 267.472 105.103 264.995C105.084 264.985 105.065 264.975 105.045 264.965C103.77 264.264 102.368 263.706 100.917 263.706C100.859 263.706 100.8 263.708 100.741 263.71C98.1788 263.789 95.9913 265.627 94.4863 267.703C89.4712 274.618 90.0658 284.062 91.8208 292.424C93.1181 298.593 94.944 304.697 97.9271 310.251ZM91.5505 235.192C89.532 235.192 87.8952 236.829 87.8952 238.847C87.8952 240.866 89.532 242.503 91.5505 242.503C93.5708 242.503 95.2059 240.866 95.2059 238.847C95.2059 236.829 93.5708 235.192 91.5505 235.192ZM178.582 232.702C177.302 231.233 176.569 230.273 176.569 230.273C176.147 230.459 175.719 230.653 175.292 230.854C172.238 226.766 168.983 222.827 165.544 219.059C169.243 219.599 173.044 219.873 176.863 219.873C178.099 219.873 179.339 219.844 180.577 219.787C180.147 224.471 179.407 228.856 178.582 232.702ZM96.2954 66.0791C97.9676 60.814 100.366 55.7871 103.663 51.0997C105.01 49.1842 106.478 47.3802 108.052 45.6809C109.819 46.9546 111.4 48.1201 112.623 49.1505C114.148 50.4359 115.709 51.946 116.011 53.9156C116.259 55.5304 115.597 57.1587 114.689 58.5151C110.82 64.2852 103.515 65.7446 96.2954 66.0791Z" fill="#F0FFF8"/>
<path d="M416.167 236.178C413.896 236.178 411.621 235.786 409.41 234.937L396.38 232.795C386.936 224.685 378.156 215.042 374.546 203.127C370.935 191.215 373.745 176.663 383.87 169.421C388.237 166.298 393.262 164.938 398.441 164.938C408.973 164.938 420.148 170.553 427.759 178.372C437.384 188.26 443.769 202.471 440.604 215.9C437.98 227.026 427.134 236.178 416.167 236.178Z" fill="#F1EDEB"/>
<path d="M410.172 522.385H8.82477L63.1244 439.755H355.872L410.172 522.385Z" fill="#922D3C"/>
<path d="M55.5179 405.609C34.0373 394.161 22.3841 379.991 14.7546 356.875C12.946 351.397 11.9622 344.522 16.1824 340.588C20.705 336.37 28.0501 338.411 33.4989 341.337C43.5019 346.705 52.3066 354.292 59.0916 363.395C67.823 375.106 75.1404 390.628 89.5201 393.19C90.8326 393.425 92.2599 393.515 93.4255 392.869C96.9457 390.918 94.6602 385.619 92.4339 382.266C88.3546 376.125 85.6993 369.042 84.7382 361.731C84.5642 360.41 84.4544 359.015 84.9831 357.792C85.75 356.014 87.6908 355.025 89.5843 354.617C96.4676 353.132 103.18 357.431 108.658 361.856C122.611 373.137 141.995 391.851 151.607 407.002L55.5179 405.609Z" fill="#9AD1B8"/>
<path d="M197.881 277.998C178.074 271.955 160.252 259.587 147.664 243.144C141.659 235.3 136.715 226.196 136.095 216.336C135.747 210.807 137.884 204.02 143.331 203.01C147.271 202.279 150.955 204.985 153.955 207.64C175.202 226.452 191.129 251.208 199.442 278.343L197.881 277.998Z" fill="#9AD1B8"/>
<path d="M81.9477 304.108C71.7635 302.021 61.4458 299.861 52.1884 295.133C42.9318 290.405 34.7064 282.725 31.6402 272.794C30.4235 268.857 30.1497 264.266 32.527 260.899C35.5214 256.664 41.5376 255.914 46.675 256.636C57.5535 258.163 67.4284 264.576 74.2675 273.174C81.1065 281.77 85.0709 292.41 86.826 303.256L81.9477 304.108Z" fill="#9AD1B8"/>
<path d="M97.927 310.251C94.9439 304.697 93.118 298.593 91.8207 292.424C90.0657 284.062 89.4711 274.618 94.4862 267.703C95.9912 265.627 98.1787 263.789 100.741 263.71C102.275 263.661 103.76 264.252 105.103 264.995C110.579 268.029 114.376 273.904 114.895 280.142C115.371 285.883 113.234 291.547 110.359 296.539C107.484 301.528 103.859 306.054 100.94 311.02L97.927 310.251Z" fill="#9AD1B8"/>
<path d="M113.216 325.773C106.738 324.264 100.197 322.751 93.5454 322.682C86.8952 322.611 80.0321 324.102 74.7096 328.092C73.7304 328.825 72.7526 329.735 72.5401 330.94C72.3342 332.11 72.9063 333.279 73.6194 334.229C76.105 337.536 80.375 339.147 84.5101 339.242C88.6451 339.337 92.694 338.095 96.5503 336.598C101.772 334.575 107.089 331.806 109.925 326.977L113.216 325.773Z" fill="#9AD1B8"/>
<path d="M136.632 342.975C134.571 336.989 132.496 330.933 131.914 324.629C131.333 318.327 132.389 311.65 136.105 306.527C136.585 305.868 137.149 305.204 137.928 304.959C138.864 304.665 139.877 305.043 140.727 305.533C144.228 307.552 146.345 311.369 147.466 315.253C150.297 325.036 147.472 336.245 140.343 343.521L136.632 342.975Z" fill="#9AD1B8"/>
<path d="M46.1768 268.737C49.2825 281.463 61.8885 289.307 71.7284 296.645C82.6622 304.797 93.8156 312.643 104.92 320.558C126.953 336.266 148.96 352.297 168.181 371.439C178.949 382.165 188.732 393.852 196.925 406.668C197.739 407.941 199.779 406.761 198.959 405.479C184.638 383.081 165.584 364.317 145.026 347.644C124.127 330.695 101.753 315.704 80.0305 299.854C73.9309 295.403 67.79 290.959 61.9334 286.194C56.0193 281.38 50.3132 275.754 48.4479 268.11C48.0883 266.639 45.8158 267.262 46.1768 268.737Z" fill="#9AD1B8"/>
<path d="M90.5167 379.087C89.1333 376.609 87.9644 374.01 87.0286 371.331C89.113 371.777 91.2025 372.213 93.2869 372.635C92.0572 374.657 91.1096 376.831 90.5167 379.087Z" fill="#BBE7D4"/>
<path d="M16.2741 340.504C16.9214 339.918 17.6248 339.457 18.3704 339.105C17.6241 339.457 16.9214 339.918 16.2741 340.504Z" fill="white"/>
<path d="M53.6902 404.616C33.493 393.406 22.3003 379.495 14.8892 357.28C14.8463 357.152 14.8034 357.024 14.7611 356.895C19.0744 357.933 24.0079 358.953 28.826 359.877C30.0164 362.944 31.5591 365.878 33.0423 368.518C38.916 378.969 46.6684 388.518 54.5565 397.501C55.5192 398.597 56.4945 399.719 57.4862 400.847C56.1079 401.999 54.8363 403.252 53.6902 404.616ZM27.0241 346.693C24.2217 346.342 18.7379 345.713 13.5115 345.445C13.9159 343.6 14.7493 341.924 16.1824 340.588C16.2135 340.56 16.2439 340.533 16.2741 340.504C16.9214 339.918 17.6241 339.457 18.3704 339.105C19.7376 338.462 21.248 338.186 22.8196 338.186C23.4702 338.186 24.1314 338.234 24.7964 338.321L24.1439 340.205C23.6464 341.641 24.1221 343.239 25.327 344.168L27.2563 345.657C27.1673 346 27.0899 346.347 27.0241 346.693Z" fill="#BBE7D4"/>
<path d="M175.216 230.89C175.221 230.856 175.228 230.822 175.233 230.786C175.252 230.81 175.268 230.834 175.285 230.857C175.263 230.868 175.238 230.88 175.216 230.89Z" fill="#BBE7D4"/>
<path d="M146.558 241.668C141.061 234.167 136.676 225.582 136.095 216.336C136.093 216.304 136.092 216.272 136.09 216.24C136.07 215.892 136.06 215.542 136.06 215.187C136.058 213.306 136.337 211.338 136.925 209.542C141.357 212.067 146.245 214.196 151.635 215.885C148.602 220.128 147.149 225.571 148.304 231.9C148.752 234.354 149.377 236.759 150.157 239.111C148.928 239.847 147.728 240.705 146.558 241.668Z" fill="#BBE7D4"/>
<path d="M81.8733 304.092C71.7139 302.011 61.4233 299.849 52.1883 295.133C42.9318 290.405 34.7063 282.725 31.6402 272.794C30.4241 268.857 30.1496 264.266 32.527 260.899C32.5356 260.889 32.5435 260.877 32.5519 260.865C32.5567 260.859 32.5606 260.852 32.5653 260.847C32.5692 260.842 32.5731 260.835 32.5764 260.832C32.5824 260.823 32.5876 260.815 32.5937 260.806C32.5955 260.805 32.5976 260.801 32.5996 260.799C34.5869 258.07 37.8523 256.84 41.304 256.509C41.0472 259.533 41.2288 262.663 41.9301 265.772C45.3005 280.72 60.4356 297.939 75.302 302.17C76.9628 302.643 78.6437 302.905 80.2805 302.937C80.8125 303.322 81.343 303.707 81.8733 304.092ZM85.1283 303.552C84.6993 303.241 84.2686 302.93 83.8378 302.619C84.7787 302.425 85.6857 302.14 86.5438 301.76C86.635 302.258 86.7465 302.755 86.8259 303.256L85.1283 303.552Z" fill="#BBE7D4"/>
<path d="M81.9476 304.108C81.9223 304.102 81.8986 304.097 81.8733 304.092C81.3429 303.707 80.8125 303.322 80.2804 302.937C80.3953 302.939 80.5085 302.94 80.6216 302.94C81.7213 302.94 82.8007 302.836 83.8378 302.619C84.2685 302.93 84.6992 303.241 85.1283 303.552L81.9476 304.108Z" fill="#BBE7D4"/>
<path d="M100.94 311.018L97.927 310.251C96.5351 307.658 95.4169 304.939 94.4676 302.153C95.1568 302.344 95.8645 302.444 96.5723 302.444C98.9962 302.444 101.412 301.283 103.032 298.689C109.597 288.16 107.464 275.576 103.462 264.237C104.005 264.445 104.537 264.688 105.045 264.965C105.065 264.975 105.084 264.985 105.103 264.995C109.574 267.472 112.925 271.841 114.286 276.758C114.594 277.863 114.798 278.997 114.895 280.142C114.938 280.681 114.96 281.218 114.96 281.753C114.964 286.939 112.964 292.015 110.359 296.538C110.27 296.694 110.178 296.849 110.087 297.005C107.26 301.812 103.768 306.209 100.94 311.018Z" fill="#BBE7D4"/>
<path d="M84.9476 339.247C84.8023 339.247 84.6554 339.245 84.5101 339.242C80.3751 339.147 76.105 337.536 73.6195 334.229C73.0066 333.413 72.4979 332.435 72.4979 331.433C72.4979 331.269 72.511 331.105 72.5401 330.94C72.7526 329.735 73.7304 328.825 74.7096 328.092C74.7274 328.078 74.7458 328.065 74.7637 328.051C75.7865 327.29 76.8777 326.646 78.0018 326.063C79.1453 328.489 81.0811 330.563 83.2263 332.21C86.7972 334.957 90.7025 336.472 94.7801 337.256C91.5995 338.389 88.3039 339.247 84.9476 339.247Z" fill="#BBE7D4"/>
<path d="M358.181 405.609C379.662 394.161 391.316 379.991 398.944 356.875C400.753 351.397 401.738 344.522 397.517 340.588C392.995 336.37 385.649 338.411 380.2 341.337C370.198 346.705 361.393 354.292 354.607 363.395C345.876 375.106 338.559 390.628 324.179 393.19C322.866 393.425 321.439 393.515 320.273 392.869C316.753 390.918 319.037 385.619 321.263 382.266C325.344 376.125 328 369.042 328.961 361.731C329.135 360.41 329.245 359.015 328.716 357.792C327.949 356.014 326.008 355.025 324.115 354.617C317.231 353.132 310.519 357.431 305.041 361.856C291.087 373.137 271.704 391.851 262.092 407.002L358.181 405.609Z" fill="#9AD1B8"/>
<path d="M239.382 233.133C249.425 227.792 257.734 219.245 262.79 209.054C265.202 204.193 266.912 198.762 266.207 193.38C265.812 190.362 263.945 186.928 260.903 186.957C258.701 186.977 257 188.823 255.66 190.571C246.184 202.951 240.203 217.978 238.576 233.484L239.382 233.133Z" fill="#9AD1B8"/>
<path d="M331.751 304.108C341.935 302.021 352.252 299.861 361.511 295.133C370.767 290.405 378.993 282.725 382.059 272.794C383.275 268.857 383.549 264.266 381.171 260.899C378.178 256.664 372.161 255.914 367.024 256.636C356.146 258.163 346.271 264.576 339.432 273.174C332.592 281.77 328.628 292.41 326.873 303.256L331.751 304.108Z" fill="#9AD1B8"/>
<path d="M315.772 310.251C318.755 304.697 320.583 298.593 321.878 292.424C323.633 284.062 324.228 274.618 319.214 267.703C317.709 265.627 315.52 263.789 312.958 263.71C311.424 263.661 309.939 264.252 308.596 264.995C303.12 268.029 299.323 273.904 298.806 280.142C298.328 285.883 300.465 291.547 303.34 296.539C306.215 301.528 309.84 306.054 312.757 311.02L315.772 310.251Z" fill="#9AD1B8"/>
<path d="M300.483 325.773C306.961 324.264 313.502 322.751 320.154 322.682C326.804 322.611 333.667 324.102 338.989 328.092C339.969 328.825 340.947 329.735 341.158 330.94C341.364 332.11 340.793 333.279 340.081 334.229C337.594 337.536 333.324 339.147 329.189 339.242C325.054 339.337 321.005 338.095 317.149 336.598C311.927 334.575 306.61 331.806 303.774 326.977L300.483 325.773Z" fill="#9AD1B8"/>
<path d="M277.067 342.975C279.127 336.989 281.205 330.933 281.784 324.629C282.366 318.327 281.312 311.65 277.594 306.527C277.114 305.868 276.55 305.204 275.771 304.959C274.835 304.665 273.823 305.043 272.974 305.533C269.471 307.552 267.354 311.369 266.231 315.253C263.401 325.036 266.227 336.245 273.356 343.521L277.067 342.975Z" fill="#9AD1B8"/>
<path d="M365.251 268.11C363.605 274.853 358.95 280.047 353.818 284.478C348.717 288.88 343.199 292.837 337.782 296.836C326.895 304.873 315.818 312.641 304.809 320.509C283.11 336.019 261.496 351.963 242.674 370.957C232.23 381.494 222.737 392.97 214.739 405.479C213.921 406.761 215.958 407.943 216.774 406.668C231.353 383.863 250.919 364.907 271.916 348.036C293.18 330.952 315.917 315.832 337.876 299.677C343.824 295.302 349.891 290.971 355.484 286.143C360.915 281.453 365.784 275.862 367.522 268.737C367.882 267.264 365.61 266.635 365.251 268.11Z" fill="#9AD1B8"/>
<path d="M239.98 224.675C241.41 217.979 243.65 211.459 246.623 205.294C247.78 208.204 243.963 216.162 243.175 217.993C242.199 220.267 241.105 222.478 239.98 224.675Z" fill="#BBE7D4"/>
<path d="M258.537 216.18C260.288 211.986 261.317 207.566 261.261 203.057C261.197 197.789 258.214 194.194 254.26 192.468C254.721 191.831 255.184 191.196 255.66 190.571C257 188.823 258.701 186.977 260.903 186.956C260.915 186.956 260.927 186.956 260.94 186.956C260.944 186.956 260.947 186.956 260.95 186.956C263.89 186.965 265.721 190.208 266.173 193.151C266.183 193.211 266.192 193.272 266.2 193.333C266.202 193.348 266.205 193.365 266.207 193.38C266.317 194.222 266.368 195.063 266.366 195.904C266.361 200.444 264.825 204.951 262.79 209.054C262.771 209.093 262.751 209.132 262.731 209.171C262.719 209.196 262.705 209.221 262.694 209.247C262.687 209.26 262.68 209.274 262.673 209.287C261.469 211.684 260.082 213.988 258.537 216.18Z" fill="#BBE7D4"/>
<path d="M323.182 379.087C322.267 375.608 320.512 372.329 318.177 369.488C321.478 368.755 324.726 368.025 327.88 367.328C326.832 371.427 325.246 375.39 323.182 379.087Z" fill="#BBE7D4"/>
<path d="M351.844 405.7C354.383 402.982 356.8 400.17 359.143 397.501C367.031 388.518 374.784 378.969 380.657 368.518C382.784 364.735 385.031 360.346 386.188 355.826C391.601 354.345 395.248 352.88 395.005 351.661C394.802 350.645 393.497 350.064 391.603 349.772C394.265 349.206 396.056 348.395 395.89 347.235C395.684 345.789 392.187 345.318 387.73 345.318C387.28 345.318 386.821 345.323 386.355 345.331C386.296 345.12 386.23 344.907 386.161 344.696C385.522 342.75 384.581 341.132 383.429 339.821C385.851 338.85 388.439 338.186 390.88 338.186C393.35 338.186 395.669 338.865 397.517 340.588C399.709 342.632 400.496 345.47 400.495 348.493C400.491 351.289 399.814 354.243 398.944 356.875C398.9 357.01 398.855 357.145 398.811 357.28C391.179 380.157 379.536 394.227 358.181 405.609L351.844 405.7Z" fill="#BBE7D4"/>
<path d="M331.824 304.092C332.354 303.707 332.886 303.322 333.417 302.937C335.055 302.905 336.736 302.643 338.396 302.17C353.264 297.939 368.399 280.72 371.769 265.772C372.472 262.663 372.651 259.533 372.396 256.509C375.766 256.833 378.958 258.012 380.956 260.609C380.958 260.61 380.958 260.612 380.96 260.614C380.966 260.622 380.973 260.631 380.98 260.641C380.983 260.644 380.987 260.647 380.988 260.651C380.993 260.658 381 260.666 381.005 260.673C381.014 260.685 381.022 260.695 381.031 260.707C381.032 260.71 381.036 260.713 381.037 260.715C381.044 260.725 381.051 260.734 381.058 260.742C381.059 260.745 381.063 260.749 381.064 260.754C381.071 260.762 381.078 260.771 381.085 260.779C381.086 260.783 381.09 260.786 381.091 260.789C381.098 260.798 381.105 260.808 381.112 260.816C381.113 260.82 381.117 260.823 381.118 260.826C381.125 260.835 381.132 260.845 381.139 260.855C381.14 260.857 381.144 260.86 381.145 260.864C381.154 260.875 381.162 260.887 381.171 260.899C382.463 262.727 382.971 264.916 382.973 267.164C382.975 269.058 382.615 270.993 382.059 272.794C378.994 282.725 370.767 290.405 361.511 295.133C352.274 299.849 341.982 302.011 331.824 304.092Z" fill="#BBE7D4"/>
<path d="M328.569 303.552L326.873 303.256C326.954 302.755 327.064 302.258 327.153 301.76C328.013 302.14 328.92 302.425 329.859 302.619C329.43 302.93 329 303.241 328.569 303.552Z" fill="#BBE7D4"/>
<path d="M331.751 304.108L328.569 303.552C329 303.241 329.43 302.93 329.859 302.619C330.898 302.836 331.978 302.94 333.077 302.94C333.19 302.94 333.304 302.939 333.417 302.937C332.886 303.322 332.354 303.707 331.824 304.092C331.8 304.097 331.777 304.102 331.751 304.108Z" fill="#BBE7D4"/>
<path d="M298.84 279.777C299.472 273.674 303.227 267.97 308.596 264.995C303.228 267.97 299.472 273.674 298.84 279.777Z" fill="#F6FBF6"/>
<path d="M312.757 311.018C309.931 306.209 306.441 301.812 303.612 297.005C303.52 296.849 303.429 296.694 303.34 296.538C300.735 292.015 298.735 286.939 298.738 281.753C298.738 281.218 298.76 280.681 298.806 280.142C298.816 280.02 298.826 279.899 298.84 279.777C299.472 273.674 303.228 267.97 308.596 264.995C309.122 264.706 309.674 264.453 310.238 264.237C306.237 275.576 304.102 288.16 310.667 298.689C312.287 301.283 314.703 302.444 317.127 302.444C317.834 302.444 318.542 302.344 319.231 302.153C318.282 304.939 317.164 307.658 315.772 310.251L312.757 311.018Z" fill="#BBE7D4"/>
<path d="M340.081 334.229C340.793 333.279 341.364 332.11 341.158 330.94C340.957 329.793 340.059 328.911 339.128 328.197C340.059 328.911 340.957 329.793 341.16 330.94C341.364 332.11 340.793 333.279 340.081 334.229ZM338.989 328.092C338.972 328.078 338.954 328.065 338.935 328.051C338.954 328.065 338.971 328.078 338.989 328.092Z" fill="#F6FBF6"/>
<path d="M328.751 339.247C325.395 339.247 322.099 338.389 318.919 337.256C322.996 336.472 326.902 334.957 330.473 332.21C332.618 330.563 334.554 328.489 335.697 326.063C336.82 326.646 337.912 327.29 338.935 328.051C338.954 328.065 338.972 328.078 338.989 328.092C339.035 328.126 339.08 328.161 339.128 328.197C340.059 328.911 340.957 329.793 341.158 330.94C341.364 332.11 340.793 333.279 340.08 334.229C337.594 337.536 333.324 339.147 329.189 339.242C329.044 339.245 328.897 339.247 328.751 339.247Z" fill="#BBE7D4"/>
<path d="M277.798 306.814C277.79 306.802 277.779 306.788 277.771 306.775C277.779 306.788 277.788 306.802 277.798 306.814ZM277.665 306.626C277.656 306.614 277.646 306.601 277.638 306.589C277.646 306.601 277.656 306.613 277.665 306.626Z" fill="#F6FBF6"/>
<path d="M281.455 315.952C279.928 314.903 278.168 314.084 276.166 313.592C276.099 313.575 276.031 313.558 275.964 313.543C275.43 310.761 274.864 307.89 274.258 304.974C274.525 304.9 274.793 304.858 275.062 304.856C275.068 304.856 275.073 304.856 275.079 304.856C275.082 304.856 275.084 304.856 275.087 304.856C275.317 304.856 275.546 304.888 275.771 304.959C276.55 305.204 277.114 305.868 277.594 306.526C277.609 306.547 277.622 306.569 277.638 306.589C277.646 306.601 277.656 306.614 277.665 306.626C277.67 306.635 277.676 306.641 277.682 306.65C277.692 306.663 277.702 306.677 277.71 306.69C277.715 306.699 277.72 306.705 277.725 306.712C277.736 306.726 277.746 306.739 277.754 306.753C277.759 306.76 277.766 306.768 277.771 306.775C277.779 306.788 277.79 306.802 277.798 306.814C277.803 306.822 277.81 306.83 277.815 306.839C277.823 306.851 277.832 306.864 277.84 306.876C277.847 306.885 277.854 306.895 277.859 306.903C277.867 306.915 277.876 306.927 277.884 306.939C277.891 306.949 277.898 306.959 277.904 306.969C277.911 306.979 277.92 306.989 277.926 307.001C277.935 307.013 277.942 307.023 277.95 307.035C277.957 307.045 277.962 307.053 277.969 307.064C277.979 307.079 277.989 307.092 277.999 307.107C278.002 307.114 278.006 307.119 278.011 307.124C279.786 309.773 280.888 312.8 281.455 315.952Z" fill="#BBE7D4"/>
<path d="M91.5505 242.503C89.532 242.503 87.8952 240.866 87.8952 238.847C87.8952 236.829 89.532 235.192 91.5505 235.192C93.5707 235.192 95.2058 236.829 95.2058 238.847C95.2058 240.866 93.5707 242.503 91.5505 242.503Z" fill="#C3DFCF"/>
<path d="M11.6521 326.058C8.76802 326.058 6.43024 323.72 6.43024 320.835C6.43024 317.952 8.76802 315.612 11.6521 315.612C14.5361 315.612 16.8746 317.952 16.8746 320.835C16.8746 323.72 14.5361 326.058 11.6521 326.058Z" fill="#C8E7D6"/>
<path d="M69.0957 128.137C63.9043 128.137 59.6966 123.929 59.6966 118.737C59.6966 113.546 63.9043 109.338 69.0957 109.338C74.2873 109.338 78.495 113.546 78.495 118.737C78.495 123.929 74.2873 128.137 69.0957 128.137Z" fill="#C8E7D6"/>
<path d="M262.317 146.415C260.01 146.415 258.138 144.545 258.138 142.236C258.138 139.931 260.01 138.059 262.317 138.059C264.623 138.059 266.494 139.931 266.494 142.236C266.494 144.545 264.623 146.415 262.317 146.415Z" fill="#C3DFCF"/>
<path d="M402.792 319.791C399.044 319.791 396.003 316.751 396.003 313.003C396.003 309.254 399.044 306.214 402.792 306.214C406.542 306.214 409.582 309.254 409.582 313.003C409.582 316.751 406.542 319.791 402.792 319.791Z" fill="#C3DFCF"/>
<path d="M328.116 231.537C326.672 231.537 325.505 230.368 325.505 228.925C325.505 227.483 326.672 226.314 328.116 226.314C329.557 226.314 330.728 227.483 330.728 228.925C330.728 230.368 329.557 231.537 328.116 231.537Z" fill="#C3DFCF"/>
<path d="M208.006 58.1605C203.967 58.1605 200.695 54.8869 200.695 50.8498C200.695 46.811 203.967 43.5392 208.006 43.5392C212.043 43.5392 215.316 46.811 215.316 50.8498C215.316 54.8869 212.043 58.1605 208.006 58.1605Z" fill="#C3DFCF"/>
<path d="M325.238 120.794L325.224 121.46L325.657 121.465C336.849 121.465 346.035 112.51 346.268 101.267L346.273 100.833C346.273 89.641 337.319 80.4571 326.076 80.224L325.642 80.2189C314.449 80.2206 305.265 89.1748 305.032 100.416L305.027 100.848C305.029 112.041 313.981 121.226 325.224 121.46L325.238 120.794L325.253 120.127C314.736 119.911 306.362 111.316 306.362 100.848L306.365 100.443C306.581 89.9298 315.176 81.5533 325.642 81.5533L326.049 81.5567C336.564 81.7729 344.94 90.3673 344.939 100.833L344.935 101.24C344.719 111.755 336.124 120.132 325.657 120.132L325.253 120.127L325.238 120.794Z" fill="#9AD1B8"/>
<path d="M310.745 83.9571C308.483 82.898 306.855 82.4521 305.598 82.447C304.465 82.4335 303.578 82.8744 303.1 83.5754C302.62 84.2662 302.515 85.0753 302.512 85.8219C302.512 86.4435 302.593 87.0398 302.664 87.5212C302.847 88.7053 303.507 89.6445 304.102 90.4603C312.468 101.835 325.312 108.882 338.162 114.347C340.349 115.274 342.798 116.205 345.266 116.21C346.34 116.21 347.418 116.027 348.454 115.578C349.165 115.267 349.913 114.801 350.374 114.009C350.644 113.539 350.769 113.031 350.768 112.538C350.764 111.609 350.362 110.762 349.842 110.012C349.315 109.262 348.65 108.598 348.011 108.051L347.145 109.063C347.722 109.558 348.317 110.159 348.749 110.777C349.185 111.396 349.438 112.021 349.435 112.538C349.433 112.816 349.371 113.073 349.217 113.343C348.982 113.762 348.496 114.108 347.925 114.353C347.077 114.72 346.192 114.875 345.266 114.875C343.145 114.88 340.829 114.036 338.684 113.12C325.912 107.693 313.299 100.727 305.176 89.6715C304.593 88.8843 304.095 88.104 303.983 87.3236C303.914 86.8624 303.845 86.327 303.846 85.8219C303.841 85.2104 303.956 84.6648 304.189 84.3422C304.424 84.028 304.748 83.795 305.598 83.7814C306.524 83.7764 308.015 84.1463 310.179 85.1648L310.745 83.9571Z" fill="#9AD1B8"/>
<path d="M67.5135 191.642L68.0393 191.652L68.0434 191.311C68.0427 182.48 60.9785 175.234 52.1086 175.05L51.7655 175.046C42.9357 175.048 35.6895 182.112 35.5061 190.982L35.502 191.323C35.5027 200.154 42.5668 207.4 51.4368 207.585L51.7794 207.588C60.6104 207.588 67.8566 200.522 68.0393 191.652L67.5135 191.642L66.9877 191.632C66.8174 199.928 60.0377 206.536 51.7794 206.536L51.4586 206.532C43.1627 206.362 36.5539 199.581 36.5546 191.323L36.5578 191.004C36.7287 182.708 43.5085 176.099 51.7655 176.099L52.0868 176.102C60.3827 176.273 66.9909 183.053 66.9909 191.311L66.9877 191.632L67.5135 191.642Z" fill="#9AD1B8"/>
<path d="M38.4515 203.078C37.6162 204.862 37.2632 206.147 37.26 207.139C37.2487 208.032 37.5972 208.731 38.1493 209.11C38.6958 209.488 39.3345 209.569 39.923 209.573C40.4131 209.573 40.8837 209.508 41.2624 209.453H41.2631C42.1988 209.307 42.9384 208.787 43.5823 208.319C52.5566 201.718 58.1163 191.583 62.4284 181.447C63.1588 179.72 63.893 177.788 63.8971 175.84C63.8971 174.994 63.7532 174.143 63.399 173.325C63.154 172.764 62.786 172.175 62.161 171.812C61.7909 171.597 61.389 171.499 61.0004 171.501C60.2674 171.504 59.5995 171.82 59.0083 172.232C58.4166 172.646 57.8913 173.173 57.4604 173.675L58.2589 174.361C58.6494 173.905 59.1246 173.435 59.6122 173.094C60.1004 172.749 60.5919 172.55 61.0004 172.553C61.2208 172.553 61.4226 172.602 61.6365 172.724C61.9664 172.91 62.2395 173.293 62.4336 173.744C62.7226 174.411 62.8446 175.111 62.8446 175.84C62.8486 177.514 62.1821 179.344 61.4596 181.034C57.1787 191.11 51.683 201.063 42.9595 207.471C42.3386 207.931 41.7236 208.324 41.1074 208.412C40.7432 208.466 40.3216 208.52 39.923 208.52C39.44 208.524 39.0098 208.434 38.7551 208.248C38.5076 208.064 38.3228 207.809 38.3124 207.139C38.3085 206.407 38.6 205.232 39.4037 203.524L38.4515 203.078Z" fill="#9AD1B8"/>
<path d="M245.914 370.826L244.321 380.733L171.003 389.864L164.907 375.729L245.914 370.826Z" fill="#F6857E"/>
<path d="M360.418 332.801C359.979 334.526 361.879 335.283 365.494 336.315C368.446 340.446 359.002 342.217 359.002 342.217L351.035 342.512C351.035 342.512 348.082 342.512 349.854 338.382C351.624 334.249 351.796 335.151 354.28 334.84C356.641 334.544 362.717 333.989 360.477 331.002C359.592 329.822 354.038 327.757 350.739 327.757C349.46 327.757 345.427 332.185 343.067 334.544C340.939 336.673 338.442 343.693 338.442 343.693C302.243 351.563 281.585 341.234 281.585 341.234C276.413 325.442 269.646 245.185 242.017 249.058C236.841 249.785 226.037 266.7 227.683 282.454C228.21 307.466 242.38 332.072 248.338 365.826C252.468 389.238 313.162 369.268 345.427 363.76C345.427 363.76 395.89 356.088 395.005 351.661C394.12 347.235 372.282 351.069 372.282 351.069C372.282 351.069 396.481 351.365 395.89 347.235C395.301 343.102 367.855 346.939 367.855 346.939L371.446 344.168C372.651 343.239 373.127 341.641 372.629 340.205L370.681 334.583C370.272 333.406 369.283 332.534 368.063 332.286C366.681 332.006 364.99 331.465 363.661 331.095C362.301 330.717 360.766 331.433 360.418 332.801Z" fill="#F6857E"/>
<path d="M232.37 141.971C239.64 121.428 228.99 102.313 209.565 97.4855C178.201 89.6917 180.479 91.0431 167.483 58.238C160.429 40.431 146.652 25.3806 129.538 16.7828C120.91 12.4485 110.687 9.73062 101.64 13.0971C71.0674 24.4718 102.976 41.0273 112.623 49.1504C114.148 50.4358 115.709 51.9459 116.011 53.9155C116.259 55.5303 115.597 57.1586 114.689 58.515C109.836 65.7547 99.574 66.2091 90.858 66.1669C82.1419 66.1264 71.7199 67.3527 67.7669 75.1211C64.0501 82.425 68.5139 91.3589 74.3784 97.0852C80.2433 102.811 87.6655 107.134 92.0117 114.083C96.3257 120.982 96.9795 129.459 97.9406 137.539C102.805 178.421 119.134 211.069 163.62 218.753C194.834 224.143 234.297 210.267 233.203 172.847L232.37 141.971Z" fill="#391015"/>
<path d="M232.027 134.971C237.863 138.638 240.681 127.147 241.464 123.799C243.235 116.237 243.667 108.046 241.061 100.617C238.993 94.722 235.112 89.2965 229.72 86.0263C224.031 82.577 217.399 82.3406 210.97 83.1936C203.688 84.1598 196.455 86.4317 189.048 86.0736C181.518 85.707 175.361 81.7189 171.513 75.3002C163.095 61.2498 167.427 44.0998 162.409 29.0732C157.72 15.0346 145.559 4.0112 131.195 0.567017C130.362 0.367691 130.007 1.64978 130.842 1.85078C143.524 4.89127 154.406 13.9502 159.738 25.8604C165.92 39.6641 162.338 55.4087 167.358 69.5013C169.238 74.7833 172.218 79.8339 176.768 83.2324C181.684 86.9047 187.766 87.7965 193.754 87.2982C206.646 86.2273 221.184 79.6599 232.301 89.5921C238.361 95.0075 241.306 102.972 241.551 110.972C241.689 115.561 241.032 120.137 239.902 124.578C239.28 127.02 236.992 136.518 232.699 133.821C231.971 133.365 231.302 134.515 232.027 134.971Z" fill="#391015"/>
<path d="M193.957 211.54C179.233 226.825 155.743 231.427 136.529 222.228C127.519 217.914 119.783 210.993 114.731 202.353C109.239 192.965 107.042 182.136 106.679 171.361C106.261 158.991 108.042 146.67 109.969 134.486C110.101 133.648 108.819 133.287 108.685 134.133C105.246 155.881 101.707 180.163 112.243 200.59C121.827 219.174 142.752 230.53 163.559 228.025C175.42 226.597 186.607 221.087 194.898 212.481C195.492 211.865 194.553 210.922 193.957 211.54Z" fill="#391015"/>
<path d="M180.819 167.273C180.655 168.013 179.918 168.474 179.184 168.283C176.113 167.489 169.186 165.033 166.142 172.82C163.066 180.691 169.65 187.232 174.245 188.669C175.572 189.083 178.608 190.147 179.266 191.37C181.297 195.13 180.92 202.128 180.969 210.981C181.077 230.535 174.261 247.717 174.261 247.717C174.261 247.717 212.298 272.867 217.864 249.072C217.864 249.072 217.693 203.176 217.972 203.01C222.676 200.211 239.378 201.877 238.103 168.497C236.921 137.579 215.298 134.268 209.691 133.856C204.962 133.508 188.994 130.505 180.819 167.273Z" fill="#F6857E"/>
<path d="M169.044 176.036C169.044 176.036 176.461 167.072 179.126 182.284L169.044 176.036Z" fill="#F25650"/>
<path d="M205.857 188.798C205.303 188.798 204.742 188.737 204.18 188.607C200.171 187.685 197.67 183.686 198.592 179.68C199.384 176.232 202.452 173.898 205.844 173.898C206.398 173.898 206.958 173.96 207.521 174.09C211.529 175.013 214.031 179.009 213.109 183.019C212.316 186.465 209.249 188.798 205.857 188.798Z" fill="#F46B6F"/>
<path d="M237.117 183.864C237.667 181.178 238.025 178.066 238.137 174.452C238.209 177.252 238.076 181.007 237.117 183.864Z" fill="#F68C90"/>
<path d="M236.914 184.421C233.762 182.982 231.948 179.484 232.755 175.975C233.377 173.271 235.397 171.252 237.877 170.508C237.877 170.508 238.076 172.161 238.137 174.452C238.025 178.067 237.667 181.178 237.117 183.864C237.052 184.055 236.986 184.239 236.914 184.421Z" fill="#F46B6F"/>
<path d="M219.016 181.404C219.034 181.436 219.529 182.228 220.57 183.026C221.608 183.821 223.208 184.619 225.38 184.619C225.892 184.619 226.436 184.575 227.009 184.477C228.848 184.163 230.196 183.058 231.081 182.054C231.966 181.049 232.404 180.131 232.416 180.107C232.52 179.886 232.426 179.62 232.204 179.516C231.983 179.411 231.718 179.504 231.613 179.727L231.544 179.86C231.204 180.511 229.581 183.159 226.86 183.602C226.335 183.691 225.841 183.73 225.38 183.73C223.429 183.73 222.034 183.026 221.108 182.32C220.649 181.968 220.308 181.615 220.086 181.354L219.84 181.041L219.782 180.958L219.769 180.936C219.641 180.729 219.367 180.664 219.157 180.794C218.95 180.923 218.885 181.196 219.016 181.404Z" fill="#040606"/>
<path d="M225.652 173.575L224.603 179.257L227.607 179.212C228.159 179.202 228.502 178.604 228.228 178.122L225.652 173.575Z" fill="#F25650"/>
<path d="M212.96 164.256C211.668 165.347 213.403 160.832 215.242 160.16C217.083 159.487 219.046 160.231 219.627 161.82C219.627 161.82 216.066 161.633 212.96 164.256Z" fill="#040606"/>
<path d="M234.519 161.874C235.985 162.719 233.475 158.584 231.546 158.249C229.613 157.915 227.814 158.996 227.526 160.663C227.526 160.663 230.995 159.846 234.519 161.874Z" fill="#040606"/>
<path d="M219.536 202.574C219.536 202.574 210.676 203.24 203.866 201.036C207.646 211.262 215.874 210.61 219.536 202.574Z" fill="#F25650"/>
<path d="M230.666 128.407C248.182 137.412 239.919 159.249 239.919 159.249C231.463 160.281 222.804 148.505 220.353 140.344L219.558 137.699C220.191 147.565 214.092 156.619 204.71 159.739L187.947 165.315L193.087 145.974L185.03 168.693L173.224 165.153C173.224 165.153 189.814 107.402 230.666 128.407Z" fill="#391015"/>
<path d="M216.762 174.8C217.63 175.097 218.61 175.42 219.619 175.421C220.608 175.43 221.647 175.073 222.455 174.09C222.61 173.901 222.585 173.622 222.397 173.465C222.208 173.308 221.928 173.335 221.772 173.523C221.117 174.298 220.421 174.526 219.619 174.534C218.806 174.536 217.904 174.256 217.051 173.96C216.82 173.881 216.566 174.004 216.487 174.236C216.408 174.469 216.531 174.72 216.762 174.8Z" fill="#040606"/>
<path d="M228.174 173.817C229.041 174.112 230.02 174.437 231.029 174.438C232.02 174.447 233.058 174.089 233.865 173.105C234.022 172.918 233.997 172.638 233.808 172.48C233.618 172.325 233.34 172.35 233.183 172.54C232.527 173.315 231.833 173.543 231.029 173.551C230.216 173.553 229.314 173.273 228.461 172.977C228.23 172.898 227.978 173.021 227.899 173.254C227.819 173.486 227.943 173.737 228.174 173.817Z" fill="#040606"/>
<path d="M219.852 229.19C219.852 229.19 256.446 222.403 265.89 281.426L223.394 288.507L219.852 229.19Z" fill="#6173C1"/>
<path d="M250.726 283.953C246.78 269.304 240.16 252.849 232.125 241.447C237.025 245.301 241.782 249.342 246.133 254.009C253.422 261.83 259.665 270.475 265.521 279.385C265.641 280.071 265.776 280.721 265.89 281.426L250.726 283.953Z" fill="#4158B1"/>
<path d="M218.967 228.897C238.149 238.339 253.907 285.314 254.66 306.562C255.419 327.97 253.495 362.286 253.495 362.286C253.495 362.286 181.883 363.84 160.829 365.236C149.26 329.991 147.771 270.473 154.928 243.258C154.928 243.258 166.49 234.722 176.569 230.273C176.569 230.273 207.2 270.448 218.967 228.897Z" fill="#6173C1"/>
<path d="M160.829 365.235C158.353 357.689 156.338 349.029 154.772 339.815C158.679 326.778 163.017 315.016 165.887 303.704L171.454 305.625C171.888 304.69 172.307 303.768 172.714 302.856C173.729 304.804 174.778 306.738 175.853 308.657C173.37 310.64 170.692 312.393 167.866 313.878C170.74 312.533 173.488 310.908 176.067 309.04C179.945 315.93 184.194 322.644 188.731 329.181C187.714 330.774 186.758 332.406 185.864 334.066C183.687 338.124 181.837 342.35 180.324 346.688C178.846 351.039 177.69 355.488 176.848 359.99C177.902 355.532 179.263 351.157 180.932 346.911C182.564 342.651 184.496 338.511 186.756 334.56C187.602 333.073 188.491 331.612 189.425 330.178C197.293 341.409 206.012 352.115 215.176 362.287C200.459 362.329 182.57 362.718 166.339 364.056C166.091 364.351 165.848 364.652 165.601 364.959C163.816 365.051 162.214 365.143 160.829 365.235Z" fill="#4158B1"/>
<path d="M36.3546 332.801C36.7928 334.526 34.8925 335.283 31.2773 336.315C28.3266 340.446 37.7699 342.217 37.7699 342.217L45.7387 342.512C45.7387 342.512 48.6895 342.512 46.9184 338.382C45.1481 334.249 44.9765 335.151 42.4923 334.84C40.1309 334.544 34.0552 333.989 36.2946 331.002C37.1801 329.822 42.7338 327.757 46.0329 327.757C47.3123 327.757 51.3451 332.185 53.7061 334.544C55.8339 336.673 58.3294 343.693 58.3294 343.693C94.5285 351.563 115.187 341.234 115.187 341.234C120.359 325.442 127.126 245.185 154.755 249.058C159.931 249.785 170.735 266.7 169.089 282.454C168.564 307.466 154.392 332.072 148.436 365.826C144.304 389.238 83.6115 369.268 51.3451 363.76C51.3451 363.76 0.881731 356.088 1.76668 351.661C2.65281 347.235 24.491 351.069 24.491 351.069C24.491 351.069 0.291201 351.365 0.881728 347.235C1.47158 343.102 28.9171 346.939 28.9171 346.939L25.327 344.168C24.1221 343.239 23.6464 341.641 24.1439 340.205L26.0923 334.583C26.4994 333.406 27.4899 332.534 28.7092 332.286C30.0909 332.006 31.7814 331.465 33.1109 331.095C34.4709 330.717 36.007 331.433 36.3546 332.801Z" fill="#F6857E"/>
<path d="M163.192 236.569C178.099 239.688 194.472 256.046 171.454 305.625L120.106 287.917C120.106 287.917 137.811 231.256 163.192 236.569Z" fill="#6173C1"/>
<path d="M166.339 364.056C143.715 391.205 128.146 463.02 128.146 463.02L283.595 459.276C283.595 459.276 274.643 388.746 246.116 362.579C246.088 362.635 242.429 362.537 236.375 362.439C221.414 362.198 191.832 361.954 166.339 364.056Z" fill="#FCDCCD"/>
<path d="M281.301 459.332C278.171 457.614 275.621 455.817 274.138 454.013C268.398 447.032 263.074 444.304 259.256 443.301C258.51 443.105 257.751 443.008 256.998 443.008C254.856 443.008 252.755 443.779 251.081 445.194C249.821 446.258 248.18 447.393 246.517 447.843L246.802 433.644C246.802 433.644 246.251 433.389 245.223 432.917L245.231 432.52L231.554 426.769C211.183 417.747 174.707 402.171 149.27 394.596C154.291 382.631 160.042 371.611 166.339 364.056C183.633 362.63 202.803 362.284 218.019 362.284C225.235 362.284 231.563 362.361 236.375 362.439C241.194 362.517 244.496 362.596 245.657 362.596C245.954 362.596 246.111 362.591 246.116 362.579C274.643 388.746 283.595 459.277 283.595 459.277L281.301 459.332Z" fill="#F9C8B2"/>
<path d="M154.323 300.049C154.378 299.957 154.433 299.866 154.487 299.773L154.527 299.787C154.46 299.876 154.392 299.962 154.323 300.049Z" fill="#F8A5A0"/>
<path d="M135.619 254.487C135.617 254.482 135.617 254.477 135.615 254.472C135.617 254.477 135.619 254.48 135.62 254.484L135.619 254.487Z" fill="#FFFDFD"/>
<path d="M154.527 299.787L154.487 299.773C156.642 296.05 156.823 291.596 155.87 287.566C154.895 283.399 152.975 279.458 150.433 276.003C147.948 272.466 144.972 269.26 142.264 265.801C139.565 262.364 137.021 258.658 135.619 254.487L135.62 254.484C137.528 258.431 140.21 261.87 143.051 265.152C145.901 268.441 148.872 271.669 151.51 275.226C154.058 278.863 156.063 282.954 156.873 287.36C157.258 289.556 157.348 291.824 156.971 294.027C156.579 296.104 155.784 298.121 154.527 299.787Z" fill="#8F9AD5"/>
<path d="M127.183 269.973C126.66 269.271 126.129 268.571 125.595 267.87C126.222 268.384 126.825 268.924 127.408 269.488C127.333 269.651 127.257 269.811 127.183 269.973Z" fill="#FFFDFD"/>
<path d="M139.169 292.201C138.32 289.997 137.472 287.821 136.509 285.699C135.533 283.586 134.517 281.5 133.374 279.482C132.257 277.446 131.016 275.487 129.73 273.546C128.916 272.335 128.062 271.151 127.183 269.973C127.257 269.811 127.333 269.651 127.408 269.489C128.526 270.568 129.567 271.728 130.55 272.938C132.058 274.772 133.364 276.767 134.536 278.833C135.68 280.914 136.69 283.074 137.46 285.321C138.24 287.559 138.855 289.855 139.169 292.201Z" fill="#8F9AD5"/>
<path d="M178.361 278.194C174.398 277.512 170.721 275.438 167.726 272.713C164.713 269.977 162.372 266.568 160.591 262.924C158.912 259.234 157.737 255.347 156.975 251.406C156.21 247.464 155.759 243.492 155.454 239.509C156.301 243.413 157.009 247.34 157.971 251.187C158.934 255.028 160.068 258.827 161.796 262.357C163.422 265.919 165.679 269.191 168.434 271.972C171.186 274.75 174.55 276.973 178.361 278.194Z" fill="#8F9AD5"/>
<path d="M255.035 301.01C254.748 300.934 254.459 300.863 254.17 300.793C254.169 300.778 254.167 300.763 254.165 300.748C254.456 300.832 254.746 300.918 255.035 301.01Z" fill="#F8A5A0"/>
<path d="M189.425 330.178C189.192 329.845 188.962 329.516 188.731 329.181C192.673 323.001 197.521 317.378 203.163 312.655C210.322 306.8 218.767 302.498 227.757 300.351C231.99 299.353 236.334 298.812 240.676 298.812C240.941 298.812 241.208 298.814 241.473 298.819C245.773 298.92 250.055 299.554 254.165 300.748C254.167 300.763 254.169 300.778 254.17 300.793C250.403 299.888 246.537 299.454 242.684 299.454C242.28 299.454 241.877 299.459 241.473 299.467C236.922 299.533 232.392 300.182 228.005 301.344C219.232 303.655 210.96 307.866 204.011 313.68C198.303 318.342 193.454 323.992 189.425 330.178Z" fill="#8F9AD5"/>
<path d="M176.848 359.99C177.69 355.488 178.846 351.039 180.324 346.688C181.837 342.35 183.687 338.124 185.864 334.066C186.758 332.406 187.714 330.774 188.731 329.181C188.962 329.516 189.192 329.845 189.425 330.178C188.491 331.612 187.602 333.073 186.756 334.56C184.496 338.511 182.564 342.651 180.932 346.911C179.263 351.157 177.902 355.532 176.848 359.99Z" fill="#7582CA"/>
<path d="M256.386 328.127C255.844 327.859 255.3 327.585 254.755 327.318C254.756 327.242 254.758 327.166 254.758 327.09C255.309 327.426 255.851 327.776 256.386 328.127Z" fill="#F8A5A0"/>
<path d="M215.705 357.502C215.244 355.063 216.281 352.544 217.806 350.613C219.362 348.657 221.483 347.218 223.642 346.068C225.794 344.879 228.049 343.967 230.086 342.745C232.128 341.548 233.922 339.989 235.387 338.147C236.875 336.333 238.029 334.239 238.758 332.002C239.128 330.889 239.382 329.671 239.909 328.482C240.409 327.281 241.348 326.2 242.475 325.545C243.85 324.725 245.402 324.367 246.942 324.367C247.937 324.367 248.927 324.516 249.861 324.79C251.623 325.318 253.228 326.154 254.758 327.09C254.758 327.166 254.756 327.242 254.755 327.318C253.118 326.516 251.457 325.774 249.704 325.418C248.966 325.244 248.202 325.153 247.446 325.153C245.861 325.153 244.299 325.55 243.025 326.404C242.084 327.033 241.397 327.904 240.961 328.943C240.515 329.987 240.284 331.168 239.912 332.365C239.174 334.762 237.981 337.016 236.422 338.982C234.835 340.923 232.867 342.566 230.696 343.791C228.531 345.012 226.281 345.96 224.107 346.98C221.936 348 219.892 349.254 218.303 351.036C216.69 352.753 215.556 355.042 215.705 357.502Z" fill="#8F9AD5"/>
<path d="M259.437 261.465C256.185 260.306 253.109 258.647 250.251 256.674C247.381 254.712 244.775 252.367 242.434 249.791C240.116 247.193 238.057 244.357 236.405 241.298C234.742 238.249 233.412 235.018 232.596 231.665C233.932 234.84 235.473 237.899 237.285 240.783C239.11 243.654 241.138 246.389 243.422 248.901C245.682 251.433 248.192 253.735 250.858 255.85C253.535 257.953 256.418 259.803 259.437 261.465Z" fill="#8F9AD5"/>
<path d="M176.067 309.04C175.996 308.912 175.924 308.785 175.853 308.657C177.081 307.677 178.261 306.641 179.39 305.554C182.837 302.299 185.81 298.571 188.217 294.503C189.428 292.464 190.584 290.365 191.969 288.375C193.339 286.389 194.955 284.478 197.035 283.078C198.073 282.384 199.22 281.846 200.415 281.466C201.614 281.112 202.837 280.919 204.055 280.803C206.489 280.6 208.886 280.696 211.223 280.583C213.549 280.48 215.86 280.108 217.796 278.965C219.735 277.835 221.21 276.009 222.146 273.919C224.046 269.686 224.215 264.848 224.279 260.127C224.347 255.374 224.188 250.616 223.833 245.869C223.519 241.119 222.995 236.38 222.26 231.667C223.208 236.341 223.948 241.062 224.478 245.812C224.97 250.565 225.24 255.345 225.298 260.127C225.385 264.874 225.225 269.85 223.247 274.419C222.26 276.674 220.632 278.76 218.441 280.056C216.249 281.377 213.698 281.784 211.289 281.911C208.862 282.014 206.482 281.892 204.161 282.071C203.004 282.171 201.866 282.345 200.771 282.655C199.688 282.993 198.656 283.465 197.704 284.086C193.859 286.654 191.65 291.046 189.091 295.039C186.533 299.115 183.412 302.841 179.831 306.033C178.623 307.094 177.366 308.097 176.067 309.04Z" fill="#8F9AD5"/>
<path d="M167.866 313.878C170.692 312.393 173.37 310.64 175.853 308.656C175.924 308.785 175.996 308.912 176.067 309.04C173.488 310.908 170.74 312.533 167.866 313.878Z" fill="#7582CA"/>
<path d="M313.252 476.908C316.086 476.416 313.182 471.155 306.596 469.178C296.059 466.016 279.107 460.06 274.138 454.013C268.398 447.032 263.074 444.304 259.256 443.301C256.388 442.547 253.344 443.28 251.081 445.194C249.545 446.491 247.446 447.893 245.425 448.032C243.045 448.194 240.182 447.584 240.182 447.584L241.395 479.688C241.395 479.688 300.461 479.131 313.252 476.908Z" fill="#F6857E"/>
<path d="M245.878 479.396C245.878 479.396 48.3819 476.504 47.0081 425.421C45.7387 378.221 124.237 389.433 132.499 390.616C163.454 395.038 246.802 433.644 246.802 433.644L245.878 479.396Z" fill="#FCDCCD"/>
<path d="M241.385 479.393C240.493 479.34 239.399 479.274 238.115 479.195C239.34 479.235 240.429 479.268 241.38 479.293L241.385 479.393Z" fill="#8B2A38"/>
<path d="M244.12 479.55C244.12 479.55 243.159 479.497 241.385 479.393L241.38 479.293C242.493 479.323 243.412 479.345 244.125 479.362L244.12 479.55Z" fill="#F57C73"/>
<path d="M245.223 432.917C242.872 431.84 238.027 429.637 231.554 426.769L245.231 432.52L245.223 432.917Z" fill="#EEBAA3"/>
<path d="M244.125 479.362C243.412 479.345 242.493 479.323 241.38 479.293C240.429 479.268 239.339 479.236 238.115 479.195C212.592 477.621 113.239 470.746 87.3242 457.788L193.291 410.681L231.554 426.769C238.027 429.637 242.871 431.84 245.223 432.917L244.125 479.362Z" fill="#FBCDB9"/>
<path d="M228.607 479.05L234.27 426.585L232.507 426.394L226.843 478.859" fill="white"/>
<path d="M184.439 476.786C184.439 476.786 373.553 470.335 367.995 419.536C363.865 381.761 301.892 389.131 272.381 399.469C242.871 409.806 182.079 437.242 182.079 437.242L184.439 476.786Z" fill="#FCDCCD"/>
<path d="M113.243 476.884C110.374 476.67 112.753 471.15 119.116 468.543C129.296 464.376 145.591 456.802 149.953 450.3C154.987 442.797 160.019 439.564 163.723 438.194C166.503 437.167 169.604 437.601 172.044 439.287C173.697 440.429 175.922 441.621 177.949 441.562C180.331 441.495 183.123 440.61 183.123 440.61L185.03 472.68C185.03 472.68 126.186 477.855 113.243 476.884Z" fill="#F6857E"/>
<path d="M191.425 433.392L195.359 474.511L197.126 474.342L193.192 433.223" fill="white"/>
</svg>
