<svg width="354" height="465" viewBox="0 0 354 465" fill="none" xmlns="http://www.w3.org/2000/svg">
<rect x="0.40332" y="0.150391" width="353.597" height="464.042" rx="10" fill="white"/>
<mask id="mask0_130_103" style="mask-type:alpha" maskUnits="userSpaceOnUse" x="0" y="0" width="354" height="465">
<rect x="0.40332" y="0.150391" width="353.597" height="464.042" rx="10" fill="#FEEBDE"/>
</mask>
<g mask="url(#mask0_130_103)">
<path d="M26.1254 74.9629C11.0156 86.877 -3.38954 99.6811 -16.9952 113.287C-26.0228 122.314 -34.698 131.694 -42.9935 141.399L-40.7319 143.333C-32.4869 133.687 -23.8642 124.364 -14.8913 115.391C-1.36878 101.868 12.9501 89.1398 27.9674 77.2993L26.1254 74.9629Z" fill="#8FC9AF"/>
<path d="M23.7985 98.4062C15.7481 97.7634 5.26248 98.3904 -2.66274 99.7747L-2.14941 102.705C5.48548 101.363 15.8628 100.748 23.5587 101.373L23.7985 98.4062Z" fill="#8FC9AF"/>
<path d="M9.1894 92.0566C11.916 85.724 13.3466 78.8465 13.374 71.9522L10.398 71.9406C10.3728 78.431 9.02317 84.9203 6.45647 90.8805L9.1894 92.0566Z" fill="#8FC9AF"/>
<path d="M26.6167 66.6771C40.1887 48.018 55.9497 30.9526 73.4737 15.9427C76.0846 13.7063 78.7565 11.4993 81.7903 9.88145C82.9106 9.2829 84.2812 8.76851 85.411 9.34917C86.6481 9.98453 86.9616 11.5919 87.0152 12.9815C87.2813 19.8243 84.7578 26.4462 82.0028 32.7167C76.3245 45.6449 69.0546 58.5489 57.3719 66.4783C52.5772 69.733 47.1987 72.0314 41.7371 73.9712C35.4718 76.197 29.0477 77.9758 22.5289 79.2918C23.4841 75.0189 24.0416 70.2179 26.6167 66.6771Z" fill="#8FC9AF"/>
<path d="M40.3632 106.888C50.8814 108.972 61.4575 111.061 72.1756 111.39C82.8937 111.719 93.859 110.207 103.449 105.411C104.385 104.943 105.464 104.007 104.999 103.07C104.814 102.698 104.426 102.478 104.059 102.278C100.483 100.336 96.9043 98.3945 93.3267 96.4516C89.5156 94.3825 85.6855 92.3049 81.6061 90.8322C71.921 87.3366 61.3292 87.4219 51.0666 88.2697C41.371 89.0702 26.3599 90.9406 20.7342 100.187C25.3522 104.66 34.2904 105.685 40.3632 106.888Z" fill="#8FC9AF"/>
<path d="M18.1098 67.7109C21.3813 53.7897 21.3949 39.1143 18.1476 25.1857C17.6122 22.8894 16.149 20.0439 13.8369 20.5067C13.1352 20.6466 12.5388 21.0958 11.9897 21.5545C6.87414 25.8369 3.63842 32.2873 3.26393 38.9481C2.99464 43.7701 4.15069 48.5427 5.14055 53.2711C5.90425 56.9129 6.57434 60.5746 7.14764 64.2511C7.56841 66.9356 7.18974 72.1911 8.82864 74.3875C13.2499 80.3109 17.2524 71.3558 18.1098 67.7109Z" fill="#8FC9AF"/>
<path d="M58.8383 142.724C61.8437 142.091 65.0205 141.155 66.9529 138.768C67.4831 138.114 67.9122 137.321 67.887 136.479C67.847 135.19 66.7888 134.188 65.7905 133.371C48.9923 119.602 26.1707 113.466 4.73247 116.953C-0.889029 117.868 -11.9753 122.632 -4.94842 128.91C0.440603 133.724 8.26064 137.04 14.973 139.469C28.9289 144.519 44.2912 145.788 58.8383 142.724Z" fill="#8FC9AF"/>
<path d="M-10.3869 86.4098C-7.49625 68.0957 -10.915 47.8419 -23.6865 34.4014C-24.5701 33.4715 -25.6904 32.509 -26.9601 32.6868C-27.7101 32.793 -28.3486 33.2927 -28.8525 33.8576C-30.8122 36.0508 -31.1762 39.255 -30.8838 42.1815C-30.5913 45.108 -29.7424 47.9702 -29.6435 50.9093C-29.5373 54.0704 -30.301 57.1946 -30.4314 60.3525C-30.6197 64.9105 -29.4889 69.4138 -28.2035 73.7898C-26.9917 77.9112 -25.6336 81.9895 -24.1335 86.0142C-23.1184 88.7398 -21.5143 96.0307 -19.2295 97.8863C-14.1992 101.968 -10.9518 89.9895 -10.3869 86.4098Z" fill="#8FC9AF"/>
<path d="M22.8549 79.22C29.2601 77.9104 35.5769 76.1589 41.737 73.9709C47.1986 72.0312 52.5771 69.7327 57.3718 66.4781C69.0545 58.5486 76.3244 45.6446 82.0027 32.7165C84.7577 26.4459 87.2813 19.824 87.0151 12.9812C86.9615 11.5916 86.648 9.9843 85.4109 9.34894C85.2563 9.27004 85.0954 9.2143 84.9323 9.17327C79.8999 14.1426 75.587 19.9345 71.2394 25.5528C56.4851 44.6201 40.2864 62.5649 22.8549 79.22Z" fill="#BBE7D4"/>
<path d="M41.3943 98.605C53.2779 97.9938 65.1804 99.3393 76.9305 101.22C86.2411 102.709 95.7947 104.516 105.086 103.728C105.126 103.513 105.108 103.291 104.999 103.07C104.814 102.698 104.426 102.478 104.06 102.278C100.482 100.335 96.9034 98.3936 93.3269 96.4517C89.5157 94.3826 85.6857 92.305 81.6063 90.8323C71.9212 87.3367 61.3294 87.422 51.0668 88.2698C41.5174 89.0588 26.8188 90.8902 21.0027 99.78C27.7508 99.9262 34.6146 98.9532 41.3943 98.605Z" fill="#BBE7D4"/>
<path d="M11.9423 33.6739C12.3105 40.747 13.4907 47.7676 13.6191 54.8492C13.7485 62.0244 12.7733 69.2143 10.7662 76.1044C14.3723 77.7559 17.3807 70.8132 18.1097 67.7111C21.3812 53.7899 21.3949 39.1144 18.1476 25.1859C17.6122 22.8895 16.149 20.0441 13.8368 20.5069C13.3656 20.6016 12.9437 20.8404 12.5503 21.1223C11.8171 25.2322 11.7256 29.4956 11.9423 33.6739Z" fill="#BBE7D4"/>
<path d="M-6.94508 123.531C-3.4085 124.82 0.19438 125.884 3.91715 126.425C7.32434 126.921 10.7788 126.976 14.2029 127.339C24.7127 128.448 34.6807 132.404 44.916 135.042C52.3657 136.96 60.3131 138.133 67.8333 137.03C67.868 136.85 67.8922 136.666 67.8869 136.48C67.8469 135.19 66.7887 134.189 65.7915 133.37C48.9922 119.603 26.1706 113.467 4.73237 116.953C0.870744 117.581 -5.5681 120.027 -6.94508 123.531Z" fill="#BBE7D4"/>
<path d="M-23.6866 34.4018C-24.5702 33.4719 -25.6905 32.5094 -26.9602 32.6872C-27.7102 32.7934 -28.3487 33.2931 -28.8526 33.858C-29.0977 34.1325 -29.3175 34.4218 -29.5142 34.7237C-26.694 38.0257 -24.6354 41.9799 -23.5961 46.196C-22.7493 49.6306 -22.5621 53.1966 -21.8068 56.6532C-20.9558 60.5422 -19.3968 64.2387 -18.2481 68.0509C-15.268 77.9295 -15.1049 88.4141 -16.666 98.6619C-13.1063 97.8814 -10.8499 89.3387 -10.387 86.4102C-7.49633 68.0961 -10.9151 47.8423 -23.6866 34.4018Z" fill="#BBE7D4"/>
<path d="M81.1434 21.1568L81.1192 21.4145C70.5715 44.943 49.3247 61.8853 27.9348 76.6901C27.7518 76.8164 27.5003 76.7711 27.3731 76.587C27.2458 76.4029 27.2921 76.1526 27.4751 76.0243C48.7682 61.2889 69.9151 44.4317 80.3818 21.0832C80.4733 20.8801 80.7131 20.7897 80.9161 20.8812L81.1434 21.1568Z" fill="#8FC9AF"/>
<path d="M84.5957 97.6425L84.5905 97.8518C84.5263 98.0653 84.3012 98.1874 84.0866 98.1221C64.5871 92.2745 43.3718 93.055 24.353 100.322C24.1447 100.402 23.9111 100.296 23.8312 100.088C23.7554 99.8925 23.8554 99.6474 24.0647 99.5664C43.2498 92.2366 64.6481 91.4498 84.3191 97.349L84.5957 97.6425Z" fill="#8FC9AF"/>
<path d="M54.4717 131.446L54.4465 131.709C54.3529 131.912 54.112 132 53.91 131.905C35.3793 123.323 14.0315 120.123 -6.1992 122.898C-6.42011 122.928 -6.62314 122.754 -6.65469 122.552C-6.6852 122.33 -6.53056 122.127 -6.30966 122.098C14.0735 119.303 35.5791 122.526 54.2487 131.173L54.4717 131.446Z" fill="#8FC9AF"/>
<path d="M-13.912 62.808C-11.1728 74.3561 -11.7745 86.7015 -15.9527 97.854C-16.0306 98.0623 -16.2631 98.1686 -16.4724 98.0897C-16.6817 98.0108 -16.7869 97.7752 -16.7091 97.5711C-10.1229 79.986 -12.5477 59.3903 -23.0375 43.8197C-23.1626 43.6377 -23.1132 43.3842 -22.9291 43.259C-22.7429 43.1338 -22.4936 43.1833 -22.3674 43.3684C-18.3879 49.2771 -15.552 55.9 -13.912 62.808Z" fill="#8FC9AF"/>
<path d="M16.6486 30.7388L16.656 30.7861C18.4485 46.1548 16.9558 62.0862 12.341 76.8563C12.2747 77.0698 12.0486 77.1887 11.8361 77.1214C11.6225 77.0551 11.5057 76.829 11.571 76.6165C16.1511 61.9526 17.6332 46.1369 15.8534 30.8797C15.8271 30.6578 15.987 30.4579 16.2079 30.4305C16.4141 30.4074 16.6013 30.5421 16.6486 30.7388Z" fill="#8FC9AF"/>
<path d="M41.9402 138.973L41.9507 139.048C41.9612 139.271 41.7877 139.46 41.5646 139.47C24.4372 140.213 7.34651 135.102 -6.55891 125.076C-6.73984 124.945 -6.78088 124.694 -6.65044 124.513C-6.52 124.332 -6.26858 124.291 -6.08765 124.421C7.67156 134.341 24.5823 139.399 41.5289 138.662C41.7266 138.654 41.896 138.788 41.9402 138.973Z" fill="#BBE7D4"/>
<path d="M86.3189 107.928L86.3189 108.115C86.2663 108.332 86.0486 108.466 85.8308 108.414C65.2488 103.46 44.0851 101.235 22.9256 101.8C22.7026 101.806 22.5185 101.632 22.5111 101.406C22.5058 101.184 22.6815 100.998 22.9045 100.992C44.1335 100.427 65.3687 102.658 86.0201 107.627C86.1737 107.665 86.2852 107.785 86.3189 107.928Z" fill="#BBE7D4"/>
<path d="M5.8295 36.9462L5.84 37.0157C6.14717 42.1112 7.096 47.2593 8.01433 52.236C9.34922 59.4785 10.7315 66.9683 10.1571 74.4348C10.1403 74.6578 9.94675 74.824 9.72374 74.8072C9.50073 74.7904 9.33557 74.5957 9.3524 74.3727C9.91834 67.0113 8.54663 59.5742 7.22014 52.3822C6.29655 47.3814 5.3435 42.2101 5.03318 37.0651C5.01951 36.8411 5.18885 36.6506 5.41186 36.638C5.61068 36.6243 5.78532 36.759 5.8295 36.9462Z" fill="#BBE7D4"/>
<path d="M65.9662 27.4873L65.8831 27.8397C61.1336 33.5191 55.8046 38.9176 50.6512 44.1404C40.4254 54.5008 29.8504 65.2147 23.5346 78.4563C23.4389 78.6573 23.198 78.7425 22.9971 78.6468C22.794 78.551 22.7099 78.307 22.8056 78.1082C29.1803 64.7445 39.8027 53.9811 50.0768 43.5723C55.2176 38.3621 60.5351 32.9752 65.2625 27.3222C65.4066 27.1507 65.6611 27.1276 65.8316 27.2706L65.9662 27.4873Z" fill="#BBE7D4"/>
<path d="M41.7371 73.971C47.1988 72.0312 52.5772 69.7327 57.3719 66.4781C57.3909 66.4655 57.4119 66.4507 57.4319 66.437C57.4119 66.4507 57.3919 66.4644 57.3719 66.4781C52.5772 69.7327 47.1988 72.0312 41.7371 73.971ZM26.8103 66.4118C26.8513 66.3561 26.8902 66.3024 26.9313 66.2466C26.8913 66.3013 26.8503 66.3571 26.8103 66.4118ZM26.9933 66.1615C27.0238 66.1204 27.0533 66.0783 27.0848 66.0363C27.0543 66.0773 27.0238 66.1204 26.9933 66.1615ZM27.1816 65.9037C27.2006 65.8785 27.2195 65.8532 27.2385 65.8259C27.2195 65.8511 27.1995 65.8795 27.1816 65.9037ZM27.3678 65.6502C27.3752 65.6407 27.3815 65.6302 27.3889 65.6208C27.3826 65.6313 27.3752 65.6407 27.3678 65.6502ZM57.4498 66.4255C57.4635 66.416 57.4792 66.4044 57.494 66.396C57.4782 66.4055 57.4645 66.415 57.4498 66.4255ZM57.6013 66.3224C57.6034 66.3203 57.6086 66.3171 57.6107 66.315C57.6076 66.3182 57.6044 66.3192 57.6013 66.3224Z" fill="#C0C59E"/>
<path d="M22.5288 79.2914C22.6582 78.7118 22.7803 78.1206 22.9012 77.5263C23.6723 73.7383 24.3907 69.7378 26.6166 66.6767C26.6692 66.6052 26.7218 66.5336 26.7734 66.4611C26.786 66.4442 26.7976 66.4285 26.8102 66.4117C26.8502 66.357 26.8912 66.3012 26.9311 66.2465C26.9511 66.2181 26.9732 66.1897 26.9932 66.1613C27.0237 66.1203 27.0542 66.0771 27.0847 66.0361C27.1163 65.9919 27.15 65.9477 27.1815 65.9035C27.1994 65.8793 27.2194 65.851 27.2383 65.8257C27.2815 65.7679 27.3235 65.7089 27.3677 65.65C27.375 65.6406 27.3824 65.6311 27.3887 65.6206C33.714 57.0064 40.5105 48.7393 47.7299 40.8572C46.4655 43.8194 45.2231 46.7911 44.0081 49.7733C35.7894 58.316 27.9273 67.3731 22.8055 78.108C22.7297 78.2658 22.7666 78.4499 22.8844 78.5677C22.9159 78.5993 22.9538 78.6266 22.9969 78.6466C23.1978 78.7423 23.4388 78.6571 23.5345 78.4562C28.3134 68.4387 35.5285 59.8687 43.1866 51.8025C42.7889 52.7871 42.3955 53.7738 42.0042 54.7605C41.251 56.6624 40.4978 58.619 40.4568 60.6629C40.4505 60.9364 40.461 61.2119 40.4852 61.4865C34.7617 67.5466 28.8814 73.4606 22.8549 79.2199C29.2601 77.9102 35.5769 76.1588 41.737 73.9708C36.7656 75.7359 31.6932 77.2212 26.5545 78.4173C25.2165 78.7287 23.8743 79.019 22.5288 79.2914Z" fill="#9AD1B8"/>
<path d="M22.8549 79.22C28.8814 73.4607 34.7617 67.5468 40.4853 61.4866C40.6157 62.9025 41.1543 64.3037 42.1294 65.2788C42.1483 65.2978 42.1673 65.3167 42.1862 65.3356C37.38 69.05 32.4306 72.596 27.475 76.0243C27.292 76.1526 27.2457 76.4029 27.373 76.587C27.3866 76.607 27.4024 76.627 27.4192 76.6438C27.5549 76.7795 27.7717 76.8027 27.9347 76.6901C32.9545 73.2146 37.9669 69.6222 42.8342 65.8553C42.8826 65.8868 42.932 65.9173 42.9815 65.9478C45.1253 67.2375 47.8719 66.5022 50.2198 65.6354C56.4367 63.3422 62.3906 60.3421 67.9511 56.7382C64.9278 60.3611 61.5227 63.6231 57.6106 66.315C57.6085 66.3171 57.6033 66.3202 57.6012 66.3223C57.5885 66.3308 57.5759 66.3392 57.5643 66.3465C57.5496 66.3571 57.5349 66.3675 57.5212 66.377C57.5107 66.3833 57.5023 66.3896 57.4939 66.3959C57.4791 66.4044 57.4634 66.416 57.4497 66.4254C57.4434 66.4296 57.4371 66.4338 57.4318 66.437C57.4118 66.4507 57.3908 66.4654 57.3718 66.478C52.5771 69.7327 47.1986 72.0311 41.737 73.9709C35.577 76.1589 29.2601 77.9104 22.8549 79.22Z" fill="#9AD1B8"/>
<path d="M27.4192 76.6438C27.4024 76.6269 27.3866 76.6069 27.3729 76.587C27.2457 76.4029 27.2919 76.1525 27.475 76.0242C32.4306 72.596 37.3799 69.0499 42.1862 65.3356C42.385 65.5281 42.6006 65.7016 42.8342 65.8552C37.9669 69.6221 32.9545 73.2145 27.9347 76.6901C27.7716 76.8026 27.5549 76.7795 27.4192 76.6438Z" fill="#9AD1B8"/>
<path d="M22.8846 78.5682C22.7668 78.4504 22.7299 78.2663 22.8057 78.1085C27.9275 67.3736 35.7896 58.3165 44.0083 49.7738C43.7327 50.4492 43.4582 51.1256 43.1868 51.803C35.5287 59.8692 28.3136 68.4392 23.5347 78.4567C23.439 78.6576 23.198 78.7429 22.9971 78.6471C22.954 78.6271 22.9161 78.5998 22.8846 78.5682Z" fill="#9AD1B8"/>
<path d="M20.7344 100.187C21.3939 99.1047 22.1818 98.1212 23.0749 97.2302C29.8051 90.5168 42.5061 88.9767 51.0667 88.2698C41.5173 89.0588 26.8187 90.8902 21.0026 99.78C21.9483 99.8 22.895 99.7979 23.8428 99.78C23.8007 99.8768 23.7934 99.9894 23.8312 100.088C23.8533 100.144 23.8838 100.191 23.9227 100.23C24.0321 100.34 24.1994 100.381 24.353 100.322C24.9011 100.112 25.4491 99.9094 26.0014 99.7106C30.654 99.5055 35.3393 98.9774 39.9909 98.685C39.9909 98.7249 39.992 98.766 39.9941 98.806C40.0456 99.6822 40.4822 100.415 41.1018 101.035C41.1575 101.091 41.2154 101.146 41.2732 101.2C35.1594 100.899 29.032 100.829 22.9045 100.992C22.6815 100.998 22.5058 101.184 22.5111 101.406C22.5153 101.516 22.5594 101.612 22.6299 101.683C22.7046 101.758 22.8109 101.803 22.9255 101.8C29.4317 101.626 35.9368 101.717 42.4251 102.068C42.7859 102.296 43.1572 102.503 43.5212 102.693C52.1544 107.181 61.5134 109.76 71.1333 111.336C60.7728 110.91 50.5397 108.903 40.3633 106.888C34.2905 105.686 25.3523 104.66 20.7344 100.187Z" fill="#9AD1B8"/>
<path d="M21.0027 99.78C26.8188 90.8902 41.5174 89.0588 51.0668 88.2698C54.4256 87.9932 57.818 87.8006 61.2042 87.7849C54.9399 89.1513 48.9092 91.2331 43.3445 94.4856C43.3351 94.4909 43.3256 94.4962 43.3161 94.5015C36.7563 95.4966 30.2933 97.188 24.0648 99.5665C23.9617 99.6064 23.886 99.6864 23.8429 99.78C22.8951 99.7979 21.9484 99.8 21.0027 99.78ZM26.0014 99.7106C31.1296 97.8644 36.4092 96.4833 41.7603 95.5713C40.7526 96.4044 39.9699 97.4395 39.991 98.6849C35.3394 98.9774 30.6541 99.5055 26.0014 99.7106Z" fill="#9AD1B8"/>
<path d="M23.9228 100.231C23.8839 100.192 23.8534 100.144 23.8313 100.089C23.7935 99.9897 23.8008 99.8771 23.8429 99.7804C23.886 99.6867 23.9618 99.6068 24.0648 99.5668C30.2933 97.1884 36.7564 95.4969 43.3162 94.5018C42.7881 94.8111 42.2485 95.1677 41.7604 95.5716C36.4092 96.4836 31.1296 97.8648 26.0015 99.7109C25.4492 99.9097 24.9012 100.113 24.3531 100.322C24.1995 100.381 24.0322 100.34 23.9228 100.231Z" fill="#9AD1B8"/>
<path d="M22.6298 101.683C22.5593 101.612 22.5152 101.516 22.5109 101.406C22.5057 101.184 22.6814 100.998 22.9044 100.992C29.0318 100.829 35.1593 100.899 41.2731 101.2C41.6203 101.52 42.0158 101.808 42.425 102.068C35.9367 101.717 29.4316 101.626 22.9254 101.8C22.8108 101.803 22.7045 101.758 22.6298 101.683Z" fill="#9AD1B8"/>
<path d="M9.54494 75.2239C9.30826 74.9872 9.06949 74.7085 8.8286 74.3876C7.18969 72.1912 7.56836 66.9358 7.14759 64.2512C6.57429 60.5748 5.90421 56.913 5.14051 53.2712C4.2348 48.9468 3.20288 44.5844 3.2397 40.18C4.20642 43.0086 5.29936 45.7931 6.51749 48.5218C6.74681 49.8177 6.98456 51.1053 7.2202 52.3824C8.54668 59.5744 9.91839 67.0115 9.35245 74.3729C9.34299 74.496 9.39031 74.6106 9.47026 74.6906C9.53548 74.7558 9.62385 74.8 9.72379 74.8073C9.9468 74.8242 10.1403 74.658 10.1572 74.435C10.7315 66.9684 9.34928 59.4786 8.01438 52.2361C7.96284 51.9574 7.91129 51.6786 7.85975 51.3977C8.79807 53.327 9.80057 55.2257 10.8672 57.0876C11.289 57.825 11.7919 58.5993 12.3967 59.2041C12.7375 59.5449 13.111 59.8321 13.5202 60.0288C13.2183 65.4683 12.2894 70.8721 10.7662 76.1043C11.0671 76.2411 11.3627 76.32 11.6551 76.3453C11.6541 76.3463 11.653 76.3495 11.653 76.3516C11.1891 76.3106 10.7126 76.137 10.2266 75.8003C10.0015 75.6447 9.77426 75.4532 9.54494 75.2239Z" fill="#9AD1B8"/>
<path d="M10.7662 76.1041C12.2894 70.8719 13.2183 65.4681 13.5202 60.0286C13.8841 60.2032 14.2765 60.3053 14.6994 60.3116C14.914 60.3137 15.1243 60.2905 15.3305 60.2443C14.5068 65.7048 13.2792 71.0981 11.6551 76.3451C11.3626 76.3198 11.067 76.2409 10.7662 76.1041Z" fill="#9AD1B8"/>
<path d="M18.1099 67.7109C18.1205 67.6625 18.131 67.6161 18.1426 67.5687C18.1321 67.6151 18.1215 67.6635 18.1099 67.7109ZM18.191 67.3623C18.1932 67.3517 18.1963 67.338 18.1995 67.3265C18.1963 67.338 18.1932 67.3496 18.191 67.3623Z" fill="#C0C59E"/>
<path d="M12.5219 76.2758C12.5219 76.2737 12.5229 76.2706 12.5229 76.2685C15.2842 75.5416 17.4502 70.4176 18.0876 67.8046C17.6006 69.8001 16.2226 73.2652 14.368 75.1135C13.7937 75.6857 13.1741 76.1033 12.5219 76.2758ZM18.0876 67.8005C18.0887 67.7952 18.0908 67.791 18.0908 67.7868C18.0908 67.791 18.0897 67.7962 18.0876 67.8005ZM18.1097 67.711C18.1202 67.6626 18.1318 67.6153 18.1423 67.5669C18.1434 67.568 18.1434 67.568 18.1423 67.569C18.1307 67.6163 18.1202 67.6626 18.1097 67.711ZM18.1539 67.5196C18.1613 67.487 18.1686 67.4543 18.177 67.4207C18.176 67.4238 18.176 67.4259 18.1749 67.4291C18.1686 67.4585 18.1613 67.487 18.1549 67.5164C18.1539 67.5175 18.1539 67.5196 18.1539 67.5196ZM18.1886 67.367C18.1981 67.326 18.2086 67.2839 18.218 67.2429C18.2107 67.2713 18.2054 67.2997 18.1991 67.3271C18.196 67.3387 18.1928 67.3523 18.1907 67.3628C18.1896 67.3639 18.1896 67.366 18.1886 67.367Z" fill="#9AD1B8"/>
<path d="M12.523 76.2685C14.1556 70.9373 15.3821 65.4588 16.1963 59.9131C16.6076 59.6911 16.9874 59.3913 17.3145 59.0579C18.6136 57.7419 19.2763 55.941 19.8549 54.1843C20.0348 53.6383 20.1926 53.0871 20.363 52.538C20.0411 57.4442 19.3394 62.3241 18.2465 67.1177C18.2444 67.1262 18.2423 67.1367 18.2402 67.1451C18.2328 67.1777 18.2255 67.2103 18.2181 67.2429C18.2086 67.2839 18.1981 67.326 18.1886 67.367C18.1855 67.3849 18.1813 67.4038 18.1771 67.4207C18.1687 67.4543 18.1613 67.4869 18.1539 67.5196C18.1508 67.5353 18.1476 67.5511 18.1424 67.5669C18.1318 67.6153 18.1203 67.6626 18.1097 67.711C18.1076 67.7173 18.1056 67.7236 18.1056 67.7299C18.1045 67.7331 18.1034 67.7363 18.1024 67.7394C18.1013 67.7426 18.1003 67.7457 18.1003 67.7478C18.0992 67.7531 18.0982 67.7562 18.0982 67.7605C18.0972 67.7636 18.0961 67.7646 18.0961 67.7667C18.095 67.772 18.0929 67.7762 18.0929 67.7804C18.0929 67.7825 18.0919 67.7836 18.0908 67.7867C18.0908 67.791 18.0887 67.7952 18.0877 67.8004C18.0877 67.8025 18.0877 67.8025 18.0877 67.8046C17.4502 70.4176 15.2843 75.5416 12.523 76.2685Z" fill="#9AD1B8"/>
<path d="M11.6531 76.3515C11.6531 76.3494 11.6541 76.3462 11.6552 76.3452C13.2794 71.0982 14.507 65.7049 15.3306 60.2444C15.6315 60.1771 15.9207 60.0624 16.1964 59.913C15.3822 65.4588 14.1556 70.9372 12.523 76.2684C12.523 76.2705 12.522 76.2737 12.522 76.2758C12.238 76.3494 11.9487 76.3778 11.6531 76.3515Z" fill="#9AD1B8"/>
<path d="M9.47034 74.6907C9.39039 74.6107 9.34307 74.496 9.35254 74.373C9.91847 67.0116 8.54676 59.5745 7.22028 52.3825C6.98465 51.1054 6.74689 49.8178 6.51757 48.5219C6.94991 49.4886 7.39698 50.4469 7.85983 51.3978C7.91138 51.6787 7.96292 51.9575 8.01446 52.2362C9.34936 59.4787 10.7316 66.9685 10.1572 74.4351C10.1404 74.6581 9.94688 74.8243 9.72387 74.8074C9.62394 74.8001 9.53556 74.7559 9.47034 74.6907Z" fill="#9AD1B8"/>
<path d="M-1.13733 131.835C-1.78637 130.364 -2.44171 128.892 -3.10127 127.427C5.46142 132.907 15.056 136.624 25.0262 138.378C29.3359 140.607 33.8319 142.509 38.4057 144.241C30.4826 143.805 22.6184 142.215 15.1539 139.534C15.1507 139.533 15.1497 139.532 15.1476 139.532C15.1213 139.523 15.0939 139.512 15.0676 139.503C15.0645 139.502 15.0623 139.502 15.0592 139.501C15.0308 139.489 15.0014 139.479 14.9729 139.469C9.71542 137.567 3.77832 135.12 -1.13733 131.835ZM-3.71663 126.062C-3.9691 125.5 -4.22158 124.945 -4.4772 124.387C-1.73377 125.285 1.05702 126.01 3.91721 126.425C6.09891 126.743 8.29952 126.88 10.5002 127.031C10.537 127.207 10.5833 127.379 10.6401 127.552C10.962 128.52 11.5657 129.338 12.2905 130.063C12.8691 130.641 13.5255 131.161 14.1756 131.649C16.8696 133.666 19.6982 135.463 22.6247 137.092C13.2646 135.114 4.29484 131.381 -3.71663 126.062Z" fill="#9AD1B8"/>
<path d="M-4.47723 124.387C-4.72233 123.847 -4.96951 123.305 -5.21671 122.768C0.398478 122.052 6.0936 121.796 11.7877 121.984C10.7231 123.434 10.1341 125.3 10.5001 127.031C8.29949 126.88 6.09888 126.743 3.91718 126.425C1.05699 126.01 -1.7338 125.285 -4.47723 124.387Z" fill="#9AD1B8"/>
<path d="M-5.7091 121.699C-3.27915 119.189 1.56074 117.474 4.70811 116.958C2.11932 117.382 -1.61713 118.619 -4.21224 120.442C-4.21329 120.441 -4.21434 120.442 -4.21539 120.443C-4.23012 120.454 -4.24484 120.464 -4.25957 120.475C-4.26062 120.476 -4.26168 120.477 -4.26378 120.477C-4.26693 120.48 -4.27221 120.483 -4.27536 120.486C-4.27852 120.487 -4.2806 120.489 -4.28165 120.49C-4.28902 120.496 -4.29638 120.501 -4.30374 120.506C-4.30584 120.508 -4.30898 120.509 -4.31108 120.512C-4.31529 120.514 -4.31741 120.516 -4.32056 120.519C-4.32477 120.521 -4.32688 120.523 -4.33109 120.525C-4.33425 120.528 -4.33741 120.529 -4.34057 120.533C-4.34688 120.537 -4.35213 120.54 -4.35739 120.545C-4.36054 120.546 -4.3616 120.547 -4.36371 120.549C-4.36897 120.553 -4.37316 120.557 -4.37948 120.561C-4.38053 120.562 -4.38369 120.563 -4.38474 120.564C-4.39842 120.574 -4.41105 120.584 -4.42473 120.594C-4.42578 120.595 -4.42789 120.597 -4.42999 120.597C-4.43525 120.602 -4.44155 120.606 -4.44681 120.609C-4.44787 120.61 -4.44892 120.611 -4.44892 120.611C-4.45628 120.617 -4.46364 120.622 -4.47101 120.627C-4.47101 120.627 -4.47101 120.627 -4.47206 120.628C-4.47837 120.632 -4.48573 120.638 -4.49099 120.643C-4.49204 120.644 -4.49202 120.644 -4.49412 120.644C-4.50674 120.655 -4.52148 120.665 -4.53621 120.676C-4.53726 120.677 -4.53726 120.677 -4.53726 120.677C-4.54463 120.682 -4.54988 120.687 -4.55724 120.692L-4.5583 120.694C-4.98222 121.012 -5.36933 121.347 -5.7091 121.699ZM4.70916 116.957C4.71653 116.956 4.72494 116.954 4.7323 116.953C4.72389 116.955 4.71653 116.956 4.70916 116.957Z" fill="#C0C59E"/>
<path d="M-5.57125 121.999C-5.61648 121.899 -5.6638 121.797 -5.70903 121.699C-5.36926 121.347 -4.98216 121.012 -4.55823 120.694L-4.55718 120.693C-4.55087 120.688 -4.54456 120.682 -4.5372 120.677C-4.5372 120.677 -4.5372 120.677 -4.53614 120.676C-4.52142 120.665 -4.50667 120.655 -4.49405 120.644C-4.49195 120.644 -4.49197 120.644 -4.49092 120.643C-4.48566 120.638 -4.4783 120.633 -4.47199 120.628C-4.47094 120.627 -4.47094 120.627 -4.47094 120.627C-4.46357 120.622 -4.45621 120.617 -4.44885 120.612C-4.44885 120.612 -4.4478 120.61 -4.44675 120.609C-4.44149 120.606 -4.43518 120.602 -4.42992 120.597C-4.42782 120.597 -4.42571 120.595 -4.42466 120.594C-4.41098 120.584 -4.39835 120.574 -4.38467 120.564C-4.38362 120.563 -4.38046 120.562 -4.37941 120.561C-4.3731 120.557 -4.3689 120.553 -4.36364 120.549C-4.36154 120.547 -4.36048 120.546 -4.35732 120.545C-4.35206 120.54 -4.34681 120.537 -4.3405 120.533C-4.33734 120.529 -4.33418 120.528 -4.33102 120.525C-4.32682 120.523 -4.3247 120.521 -4.32049 120.519C-4.31734 120.516 -4.31522 120.514 -4.31102 120.512C-4.30891 120.509 -4.30578 120.508 -4.30367 120.506C-4.29631 120.501 -4.28895 120.496 -4.28159 120.491C-4.28053 120.489 -4.27845 120.487 -4.27529 120.486C-4.27214 120.483 -4.26687 120.48 -4.26371 120.477C-4.26161 120.477 -4.26055 120.476 -4.2595 120.475C-4.24477 120.464 -4.23005 120.454 -4.21533 120.443C-4.21427 120.442 -4.21322 120.441 -4.21217 120.442C-1.61706 118.619 2.11939 117.382 4.70818 116.958C4.70923 116.957 4.70923 116.957 4.70923 116.957C4.71659 116.956 4.72395 116.955 4.73237 116.953C10.2161 116.062 15.7881 115.804 21.3276 116.137C19.8906 116.694 18.4769 117.311 17.0999 118.002C15.4094 118.851 13.7316 119.826 12.443 121.199C6.41336 120.965 0.374242 121.227 -5.57125 121.999Z" fill="#9AD1B8"/>
<path d="M-5.21677 122.768C-5.33563 122.51 -5.45241 122.257 -5.57128 121.999C0.374215 121.227 6.41333 120.965 12.443 121.198C12.301 121.351 12.1621 121.509 12.0296 121.671C11.9465 121.773 11.8655 121.877 11.7876 121.984C6.09355 121.796 0.398422 122.052 -5.21677 122.768Z" fill="#9AD1B8"/>
<path d="M-3.10127 127.427C-3.30535 126.972 -3.51046 126.517 -3.71663 126.063C4.29484 131.381 13.2646 135.114 22.6247 137.092C23.4189 137.533 24.2183 137.962 25.0262 138.378C15.056 136.624 5.46141 132.907 -3.10127 127.427Z" fill="#9AD1B8"/>
<path d="M-16.666 98.662C-16.6344 98.4537 -16.6029 98.2433 -16.5723 98.0361C-16.5429 98.0571 -16.5092 98.0761 -16.4724 98.0897C-16.2631 98.1686 -16.0306 98.0624 -15.9527 97.8541C-13.5501 91.4395 -12.3299 84.6314 -12.2489 77.8054C-11.1255 73.8902 -10.347 69.876 -9.91575 65.8261C-9.1489 72.3849 -9.30772 79.1035 -10.2629 85.596C-10.265 85.6086 -10.266 85.6202 -10.2681 85.6307C-10.2702 85.6475 -10.2734 85.6654 -10.2755 85.6822C-10.2787 85.7001 -10.2808 85.7148 -10.2829 85.7317C-10.285 85.7464 -10.2871 85.7612 -10.2892 85.7759C-10.2934 85.8032 -10.2976 85.8327 -10.3018 85.86C-10.3039 85.8747 -10.307 85.8884 -10.3081 85.9021C-10.3123 85.921 -10.3144 85.94 -10.3165 85.9589C-10.3186 85.9715 -10.3207 85.9841 -10.3228 85.9968C-10.327 86.0241 -10.3313 86.0494 -10.3355 86.0767C-10.3355 86.0809 -10.3365 86.0862 -10.3365 86.0904C-10.3428 86.122 -10.347 86.1556 -10.3523 86.1861C-10.3533 86.1956 -10.3554 86.204 -10.3554 86.2124C-10.3597 86.2377 -10.3639 86.2629 -10.367 86.2871C-10.3691 86.2955 -10.3702 86.305 -10.3723 86.3134C-10.3775 86.346 -10.3817 86.3776 -10.387 86.4102C-10.388 86.4155 -10.3881 86.4196 -10.3891 86.4249L-10.3902 86.426C-10.3891 86.427 -10.3902 86.4281 -10.3902 86.4281L-10.3902 86.4302C-10.3902 86.4344 -10.3923 86.4386 -10.3923 86.4428C-10.3923 86.4449 -10.3933 86.446 -10.3923 86.447C-10.3944 86.4512 -10.3944 86.4554 -10.3954 86.4607L-10.3954 86.4628C-10.3965 86.468 -10.3975 86.4733 -10.3986 86.4786C-10.3975 86.4796 -10.3986 86.4807 -10.3986 86.4807C-10.3996 86.4859 -10.3996 86.4922 -10.4007 86.4975C-10.4007 86.4975 -10.4007 86.4975 -10.4017 86.4985C-10.894 89.507 -13.1409 97.8888 -16.666 98.662ZM-16.3862 96.6886C-15.837 92.464 -15.5919 88.209 -15.7255 83.9813C-15.6919 83.9666 -15.6582 83.9518 -15.6246 83.935C-14.357 83.3491 -13.6553 82.0436 -13.1599 80.7024C-13.4881 86.143 -14.5547 91.5373 -16.3862 96.6886Z" fill="#9AD1B8"/>
<path d="M319.323 424.421C330.645 433.348 341.439 442.942 351.634 453.137C358.399 459.902 364.899 466.93 371.115 474.202L369.42 475.651C363.242 468.423 356.781 461.437 350.058 454.714C339.925 444.581 329.196 435.044 317.943 426.171L319.323 424.421Z" fill="#8FC9AF"/>
<path d="M321.067 441.987C327.099 441.506 334.956 441.976 340.895 443.013L340.51 445.209C334.789 444.203 327.013 443.742 321.247 444.21L321.067 441.987Z" fill="#8FC9AF"/>
<path d="M343.75 460.127C348.078 459.359 352.49 459.071 356.881 459.269L356.781 461.495C352.554 461.305 348.305 461.583 344.14 462.321L343.75 460.127Z" fill="#8FC9AF"/>
<path d="M332.014 437.229C329.971 432.484 328.899 427.331 328.878 422.165L331.108 422.156C331.127 427.02 332.138 431.882 334.062 436.348L332.014 437.229Z" fill="#8FC9AF"/>
<path d="M348.249 453.34C348.606 448.177 348.964 443.015 349.321 437.851L351.545 438.006C351.188 443.168 350.83 448.331 350.473 453.493L348.249 453.34Z" fill="#8FC9AF"/>
<path d="M318.955 418.212C308.786 404.231 296.976 391.444 283.845 380.197C281.889 378.521 279.886 376.867 277.613 375.655C276.774 375.206 275.747 374.821 274.9 375.256C273.973 375.732 273.738 376.937 273.698 377.978C273.499 383.105 275.39 388.067 277.454 392.766C281.709 402.453 287.156 412.122 295.91 418.063C299.503 420.502 303.533 422.224 307.625 423.678C312.32 425.346 317.134 426.679 322.018 427.665C321.303 424.463 320.885 420.866 318.955 418.212Z" fill="#8FC9AF"/>
<path d="M308.655 448.343C300.774 449.904 292.849 451.469 284.818 451.716C276.786 451.963 268.57 450.829 261.384 447.236C260.683 446.885 259.874 446.184 260.223 445.482C260.362 445.203 260.652 445.038 260.927 444.889C263.607 443.434 266.288 441.979 268.969 440.523C271.825 438.972 274.695 437.416 277.751 436.312C285.008 433.693 292.945 433.757 300.635 434.392C307.9 434.992 319.148 436.393 323.363 443.322C319.903 446.673 313.205 447.442 308.655 448.343Z" fill="#8FC9AF"/>
<path d="M325.33 418.987C322.878 408.556 322.868 397.559 325.301 387.122C325.702 385.402 326.799 383.27 328.531 383.616C329.057 383.721 329.504 384.058 329.915 384.402C333.749 387.61 336.173 392.444 336.454 397.435C336.656 401.048 335.789 404.624 335.048 408.167C334.475 410.896 333.973 413.64 333.544 416.394C333.228 418.406 333.512 422.344 332.284 423.99C328.971 428.428 325.972 421.718 325.33 418.987Z" fill="#8FC9AF"/>
<path d="M294.811 475.195C292.559 474.721 290.179 474.019 288.731 472.231C288.334 471.741 288.012 471.146 288.031 470.516C288.061 469.549 288.854 468.799 289.602 468.186C302.189 457.869 319.289 453.272 335.353 455.884C339.566 456.57 347.873 460.14 342.607 464.844C338.569 468.451 332.71 470.936 327.68 472.756C317.223 476.54 305.712 477.491 294.811 475.195Z" fill="#8FC9AF"/>
<path d="M346.682 432.998C344.516 419.275 347.078 404.099 356.648 394.028C357.31 393.331 358.149 392.61 359.101 392.743C359.663 392.823 360.141 393.197 360.519 393.62C361.987 395.264 362.26 397.665 362.041 399.857C361.822 402.05 361.186 404.195 361.112 406.397C361.032 408.766 361.604 411.107 361.702 413.473C361.843 416.888 360.996 420.263 360.033 423.542C359.124 426.63 358.107 429.686 356.983 432.702C356.222 434.744 355.02 440.207 353.308 441.598C349.539 444.656 347.106 435.68 346.682 432.998Z" fill="#8FC9AF"/>
<path d="M321.774 427.611C316.975 426.63 312.241 425.317 307.625 423.678C303.533 422.224 299.503 420.502 295.91 418.063C287.156 412.122 281.709 402.453 277.454 392.765C275.39 388.067 273.499 383.105 273.698 377.978C273.738 376.936 273.973 375.732 274.9 375.256C275.016 375.197 275.137 375.155 275.259 375.124C279.03 378.848 282.261 383.188 285.519 387.398C296.575 401.685 308.712 415.131 321.774 427.611Z" fill="#BBE7D4"/>
<path d="M307.882 442.136C298.978 441.678 290.059 442.686 281.255 444.096C274.278 445.211 267.12 446.565 260.157 445.975C260.127 445.814 260.141 445.648 260.223 445.482C260.361 445.203 260.652 445.039 260.927 444.889C263.607 443.433 266.289 441.978 268.969 440.523C271.825 438.972 274.694 437.416 277.751 436.312C285.008 433.693 292.945 433.757 300.635 434.392C307.79 434.983 318.804 436.356 323.162 443.017C318.106 443.126 312.962 442.397 307.882 442.136Z" fill="#BBE7D4"/>
<path d="M329.951 393.483C329.675 398.783 328.791 404.043 328.694 409.349C328.598 414.726 329.328 420.113 330.832 425.276C328.13 426.514 325.876 421.311 325.33 418.987C322.878 408.556 322.868 397.559 325.301 387.122C325.702 385.402 326.799 383.27 328.531 383.616C328.884 383.687 329.201 383.866 329.495 384.078C330.045 387.157 330.113 390.352 329.951 393.483Z" fill="#BBE7D4"/>
<path d="M344.103 460.813C341.453 461.779 338.754 462.576 335.964 462.982C333.411 463.354 330.823 463.395 328.257 463.666C320.382 464.498 312.913 467.462 305.243 469.439C299.661 470.876 293.706 471.755 288.071 470.928C288.045 470.794 288.027 470.656 288.031 470.516C288.061 469.55 288.854 468.799 289.601 468.186C302.189 457.87 319.289 453.272 335.353 455.884C338.247 456.355 343.072 458.188 344.103 460.813Z" fill="#BBE7D4"/>
<path d="M356.648 394.028C357.31 393.331 358.149 392.61 359.101 392.743C359.663 392.823 360.141 393.197 360.519 393.621C360.703 393.826 360.867 394.043 361.015 394.269C358.901 396.744 357.359 399.706 356.58 402.866C355.946 405.439 355.805 408.111 355.239 410.701C354.602 413.615 353.434 416.385 352.573 419.242C350.34 426.644 350.218 434.5 351.387 442.179C348.72 441.594 347.029 435.193 346.682 432.998C344.516 419.276 347.078 404.099 356.648 394.028Z" fill="#BBE7D4"/>
<path d="M278.098 384.104L278.116 384.297C286.02 401.927 301.94 414.622 317.968 425.715C318.105 425.81 318.293 425.776 318.389 425.638C318.484 425.5 318.449 425.312 318.312 425.216C302.357 414.175 286.511 401.544 278.669 384.048C278.6 383.896 278.42 383.829 278.268 383.897L278.098 384.104Z" fill="#8FC9AF"/>
<path d="M275.511 441.415L275.515 441.572C275.563 441.732 275.732 441.823 275.893 441.775C290.504 437.393 306.401 437.978 320.652 443.423C320.808 443.483 320.983 443.404 321.042 443.248C321.099 443.101 321.024 442.917 320.868 442.857C306.492 437.364 290.458 436.775 275.718 441.195L275.511 441.415Z" fill="#8FC9AF"/>
<path d="M298.083 466.744L298.102 466.941C298.172 467.093 298.353 467.159 298.504 467.088C312.389 460.658 328.386 458.26 343.545 460.339C343.71 460.361 343.862 460.231 343.886 460.08C343.909 459.913 343.793 459.761 343.627 459.739C328.354 457.645 312.24 460.06 298.25 466.539L298.083 466.744Z" fill="#8FC9AF"/>
<path d="M349.324 415.313C347.271 423.966 347.722 433.217 350.853 441.574C350.911 441.73 351.085 441.809 351.242 441.75C351.399 441.691 351.478 441.514 351.42 441.361C346.485 428.185 348.301 412.752 356.162 401.085C356.255 400.949 356.218 400.759 356.08 400.665C355.941 400.571 355.754 400.608 355.659 400.747C352.678 405.174 350.553 410.137 349.324 415.313Z" fill="#8FC9AF"/>
<path d="M326.424 391.283L326.419 391.319C325.076 402.835 326.194 414.772 329.652 425.84C329.702 426 329.871 426.089 330.031 426.038C330.191 425.989 330.278 425.819 330.229 425.66C326.797 414.672 325.687 402.821 327.02 391.389C327.04 391.223 326.92 391.073 326.755 391.052C326.6 391.035 326.46 391.136 326.424 391.283Z" fill="#8FC9AF"/>
<path d="M307.473 472.384L307.465 472.441C307.458 472.608 307.588 472.749 307.755 472.757C320.588 473.313 333.395 469.483 343.814 461.971C343.95 461.873 343.98 461.685 343.883 461.549C343.785 461.413 343.597 461.383 343.461 461.48C333.151 468.913 320.48 472.703 307.781 472.151C307.633 472.145 307.506 472.245 307.473 472.384Z" fill="#BBE7D4"/>
<path d="M274.22 449.122L274.22 449.262C274.259 449.424 274.423 449.525 274.586 449.486C290.008 445.773 305.866 444.106 321.721 444.53C321.888 444.534 322.026 444.404 322.032 444.235C322.036 444.069 321.904 443.929 321.737 443.924C305.83 443.501 289.918 445.173 274.444 448.896C274.329 448.925 274.245 449.015 274.22 449.122Z" fill="#BBE7D4"/>
<path d="M356.236 418.714C354.424 426.347 353.166 434.116 352.482 441.921C352.467 442.087 352.591 442.235 352.756 442.249C352.923 442.263 353.073 442.138 353.085 441.974C354.078 430.655 356.28 419.411 359.633 408.553C359.685 408.379 359.592 408.223 359.433 408.174C359.273 408.125 359.103 408.215 359.053 408.374C358.001 411.786 357.06 415.237 356.236 418.714Z" fill="#BBE7D4"/>
<path d="M334.531 395.935L334.523 395.987C334.293 399.805 333.582 403.662 332.894 407.391C331.894 412.818 330.858 418.43 331.289 424.025C331.301 424.192 331.446 424.317 331.613 424.304C331.78 424.292 331.904 424.146 331.892 423.979C331.467 418.463 332.495 412.89 333.489 407.501C334.181 403.754 334.895 399.879 335.128 396.024C335.138 395.856 335.011 395.713 334.844 395.704C334.695 395.693 334.564 395.794 334.531 395.935Z" fill="#BBE7D4"/>
<path d="M289.47 388.847L289.533 389.111C293.091 393.367 297.085 397.412 300.946 401.325C308.608 409.088 316.532 417.116 321.265 427.038C321.336 427.189 321.517 427.253 321.668 427.181C321.82 427.109 321.883 426.927 321.811 426.778C317.034 416.764 309.075 408.699 301.376 400.9C297.524 396.996 293.54 392.959 289.998 388.723C289.89 388.595 289.699 388.577 289.571 388.685L289.47 388.847Z" fill="#BBE7D4"/>
<path d="M307.625 423.678C303.533 422.224 299.503 420.502 295.91 418.063C295.896 418.054 295.88 418.043 295.865 418.032C295.88 418.043 295.895 418.053 295.91 418.063C299.503 420.502 303.533 422.224 307.625 423.678ZM318.81 418.013C318.779 417.972 318.75 417.931 318.72 417.89C318.75 417.931 318.78 417.972 318.81 418.013ZM318.673 417.826C318.65 417.795 318.628 417.764 318.605 417.732C318.627 417.763 318.65 417.795 318.673 417.826ZM318.532 417.633C318.518 417.614 318.504 417.595 318.489 417.574C318.504 417.593 318.519 417.615 318.532 417.633ZM318.392 417.443C318.387 417.436 318.382 417.428 318.377 417.421C318.381 417.429 318.387 417.436 318.392 417.443ZM295.852 418.024C295.842 418.017 295.83 418.008 295.819 418.002C295.831 418.009 295.841 418.016 295.852 418.024ZM295.738 417.946C295.737 417.945 295.733 417.943 295.731 417.941C295.734 417.943 295.736 417.944 295.738 417.946Z" fill="#C0C59E"/>
<path d="M322.018 427.664C321.921 427.23 321.83 426.787 321.739 426.342C321.162 423.503 320.623 420.506 318.955 418.212C318.916 418.159 318.877 418.105 318.838 418.051C318.828 418.038 318.82 418.026 318.81 418.014C318.78 417.973 318.75 417.931 318.72 417.89C318.705 417.868 318.688 417.847 318.673 417.826C318.65 417.795 318.627 417.763 318.605 417.732C318.581 417.699 318.556 417.666 318.532 417.633C318.519 417.615 318.504 417.593 318.489 417.574C318.457 417.531 318.426 417.487 318.393 417.443C318.387 417.436 318.382 417.429 318.377 417.421C313.637 410.966 308.545 404.771 303.135 398.865C304.082 401.085 305.013 403.312 305.924 405.546C312.082 411.947 317.973 418.734 321.811 426.778C321.868 426.896 321.84 427.034 321.752 427.122C321.728 427.146 321.7 427.166 321.668 427.181C321.517 427.253 321.337 427.189 321.265 427.039C317.684 419.532 312.278 413.111 306.539 407.067C306.837 407.804 307.132 408.544 307.425 409.283C307.99 410.708 308.554 412.174 308.585 413.706C308.589 413.911 308.582 414.117 308.563 414.323C312.852 418.864 317.258 423.295 321.774 427.611C316.975 426.63 312.241 425.317 307.625 423.678C311.351 425 315.151 426.113 319.002 427.009C320.004 427.243 321.01 427.46 322.018 427.664Z" fill="#9AD1B8"/>
<path d="M321.774 427.611C317.258 423.295 312.852 418.864 308.563 414.323C308.466 415.384 308.062 416.434 307.332 417.165C307.317 417.179 307.303 417.193 307.289 417.207C310.89 419.99 314.599 422.647 318.312 425.216C318.449 425.312 318.484 425.5 318.389 425.638C318.378 425.653 318.367 425.668 318.354 425.681C318.252 425.782 318.09 425.8 317.968 425.715C314.206 423.111 310.45 420.419 306.803 417.597C306.767 417.62 306.73 417.643 306.693 417.666C305.087 418.632 303.029 418.081 301.269 417.432C296.611 415.714 292.15 413.466 287.983 410.765C290.248 413.48 292.8 415.924 295.731 417.941C295.733 417.943 295.737 417.945 295.738 417.947C295.748 417.953 295.757 417.959 295.766 417.965C295.777 417.973 295.788 417.98 295.798 417.988C295.806 417.992 295.812 417.997 295.819 418.002C295.83 418.008 295.842 418.017 295.852 418.024C295.857 418.027 295.861 418.03 295.865 418.032C295.88 418.043 295.896 418.054 295.91 418.063C299.503 420.502 303.533 422.224 307.626 423.678C312.241 425.317 316.975 426.63 321.774 427.611Z" fill="#9AD1B8"/>
<path d="M318.354 425.68C318.367 425.668 318.378 425.653 318.389 425.638C318.484 425.5 318.449 425.312 318.312 425.216C314.599 422.647 310.89 419.99 307.289 417.207C307.14 417.351 306.978 417.481 306.803 417.596C310.451 420.419 314.206 423.111 317.968 425.715C318.09 425.799 318.252 425.782 318.354 425.68Z" fill="#9AD1B8"/>
<path d="M321.752 427.122C321.84 427.034 321.868 426.896 321.811 426.778C317.973 418.734 312.082 411.948 305.924 405.546C306.13 406.053 306.336 406.559 306.539 407.067C312.277 413.111 317.684 419.533 321.265 427.039C321.336 427.189 321.517 427.253 321.667 427.181C321.7 427.167 321.728 427.146 321.752 427.122Z" fill="#9AD1B8"/>
<path d="M323.363 443.322C322.869 442.511 322.278 441.774 321.609 441.106C316.566 436.076 307.049 434.922 300.635 434.392C307.79 434.983 318.804 436.356 323.162 443.017C322.453 443.032 321.744 443.03 321.034 443.017C321.065 443.089 321.071 443.174 321.042 443.248C321.026 443.289 321.003 443.325 320.974 443.354C320.892 443.436 320.767 443.467 320.651 443.423C320.241 443.266 319.83 443.114 319.416 442.965C315.93 442.811 312.419 442.415 308.934 442.196C308.934 442.226 308.933 442.257 308.931 442.287C308.893 442.943 308.566 443.493 308.101 443.957C308.06 443.999 308.016 444.041 307.973 444.081C312.554 443.855 317.145 443.803 321.737 443.925C321.904 443.929 322.036 444.069 322.032 444.235C322.029 444.317 321.995 444.39 321.943 444.443C321.887 444.499 321.807 444.532 321.721 444.53C316.846 444.4 311.972 444.468 307.11 444.731C306.84 444.902 306.561 445.057 306.289 445.199C299.82 448.563 292.807 450.495 285.599 451.676C293.362 451.357 301.03 449.853 308.655 448.343C313.205 447.442 319.903 446.673 323.363 443.322Z" fill="#9AD1B8"/>
<path d="M323.162 443.017C318.804 436.356 307.79 434.983 300.635 434.392C298.118 434.185 295.576 434.04 293.039 434.029C297.732 435.053 302.251 436.612 306.421 439.05C306.428 439.054 306.435 439.058 306.442 439.061C311.358 439.807 316.2 441.075 320.867 442.857C320.945 442.887 321.001 442.947 321.034 443.017C321.744 443.03 322.453 443.032 323.162 443.017ZM319.416 442.965C315.574 441.581 311.618 440.546 307.608 439.863C308.363 440.487 308.95 441.263 308.934 442.196C312.419 442.415 315.93 442.811 319.416 442.965Z" fill="#9AD1B8"/>
<path d="M320.974 443.354C321.003 443.325 321.026 443.29 321.042 443.248C321.071 443.174 321.065 443.089 321.034 443.017C321.001 442.947 320.945 442.887 320.867 442.857C316.2 441.075 311.358 439.807 306.442 439.062C306.838 439.293 307.242 439.56 307.608 439.863C311.618 440.547 315.574 441.581 319.416 442.965C319.83 443.114 320.241 443.266 320.651 443.423C320.766 443.467 320.892 443.436 320.974 443.354Z" fill="#9AD1B8"/>
<path d="M321.943 444.442C321.996 444.389 322.029 444.317 322.032 444.235C322.036 444.069 321.904 443.929 321.737 443.924C317.146 443.802 312.554 443.855 307.973 444.08C307.713 444.32 307.417 444.536 307.11 444.731C311.972 444.467 316.846 444.4 321.721 444.53C321.807 444.532 321.887 444.498 321.943 444.442Z" fill="#9AD1B8"/>
<path d="M331.747 424.617C331.925 424.439 332.104 424.23 332.284 423.99C333.512 422.344 333.228 418.406 333.544 416.395C333.973 413.64 334.475 410.896 335.048 408.167C335.726 404.927 336.499 401.658 336.472 398.358C335.748 400.477 334.929 402.564 334.016 404.609C333.844 405.58 333.666 406.544 333.489 407.501C332.495 412.89 331.467 418.463 331.892 423.979C331.899 424.071 331.863 424.157 331.803 424.217C331.754 424.266 331.688 424.299 331.613 424.305C331.446 424.317 331.301 424.193 331.289 424.025C330.858 418.431 331.894 412.819 332.894 407.392C332.933 407.183 332.971 406.974 333.01 406.764C332.307 408.209 331.556 409.632 330.757 411.027C330.44 411.58 330.064 412.16 329.61 412.613C329.355 412.868 329.075 413.083 328.769 413.231C328.995 417.307 329.691 421.356 330.832 425.276C330.607 425.379 330.385 425.438 330.166 425.457C330.167 425.458 330.168 425.46 330.168 425.462C330.515 425.431 330.872 425.301 331.237 425.049C331.405 424.932 331.575 424.788 331.747 424.617Z" fill="#9AD1B8"/>
<path d="M330.832 425.276C329.691 421.356 328.995 417.306 328.769 413.231C328.496 413.361 328.202 413.438 327.885 413.443C327.724 413.444 327.567 413.427 327.412 413.392C328.029 417.484 328.949 421.525 330.166 425.457C330.385 425.438 330.607 425.379 330.832 425.276Z" fill="#9AD1B8"/>
<path d="M325.329 418.987C325.322 418.951 325.314 418.916 325.305 418.88C325.313 418.915 325.321 418.951 325.329 418.987ZM325.269 418.726C325.267 418.718 325.265 418.708 325.262 418.699C325.265 418.708 325.267 418.716 325.269 418.726Z" fill="#C0C59E"/>
<path d="M329.517 425.405C329.517 425.403 329.516 425.401 329.516 425.399C327.447 424.854 325.824 421.015 325.346 419.057C325.711 420.552 326.744 423.149 328.133 424.534C328.564 424.962 329.028 425.275 329.517 425.405ZM325.346 419.054C325.345 419.05 325.344 419.047 325.344 419.044C325.344 419.047 325.345 419.051 325.346 419.054ZM325.33 418.987C325.322 418.951 325.313 418.915 325.305 418.879C325.304 418.88 325.304 418.88 325.305 418.88C325.314 418.916 325.322 418.951 325.33 418.987ZM325.297 418.843C325.291 418.819 325.286 418.795 325.279 418.769C325.28 418.772 325.28 418.773 325.281 418.776C325.286 418.798 325.291 418.819 325.296 418.841C325.297 418.842 325.297 418.843 325.297 418.843ZM325.271 418.729C325.263 418.698 325.256 418.667 325.248 418.636C325.254 418.657 325.258 418.679 325.263 418.699C325.265 418.708 325.267 418.718 325.269 418.726C325.27 418.727 325.27 418.728 325.271 418.729Z" fill="#9AD1B8"/>
<path d="M329.516 425.399C328.293 421.405 327.373 417.299 326.763 413.144C326.455 412.978 326.171 412.753 325.925 412.503C324.952 411.517 324.455 410.168 324.022 408.851C323.887 408.442 323.769 408.029 323.641 407.618C323.882 411.294 324.408 414.951 325.227 418.543C325.229 418.549 325.23 418.557 325.232 418.563C325.237 418.587 325.243 418.612 325.248 418.636C325.256 418.667 325.263 418.699 325.27 418.729C325.273 418.743 325.276 418.757 325.279 418.769C325.285 418.795 325.291 418.819 325.296 418.844C325.299 418.855 325.301 418.867 325.305 418.879C325.313 418.915 325.322 418.951 325.33 418.987C325.331 418.992 325.333 418.997 325.333 419.001C325.334 419.004 325.334 419.006 325.335 419.008C325.336 419.011 325.337 419.013 325.337 419.015C325.337 419.019 325.338 419.021 325.338 419.024C325.339 419.026 325.34 419.027 325.34 419.029C325.341 419.033 325.342 419.036 325.342 419.039C325.342 419.041 325.343 419.041 325.344 419.044C325.344 419.047 325.345 419.05 325.346 419.054C325.346 419.056 325.346 419.056 325.346 419.057C325.824 421.015 327.447 424.855 329.516 425.399Z" fill="#9AD1B8"/>
<path d="M330.168 425.461C330.168 425.46 330.167 425.458 330.166 425.457C328.949 421.525 328.029 417.484 327.412 413.392C327.187 413.342 326.97 413.256 326.763 413.144C327.373 417.299 328.292 421.405 329.516 425.399C329.516 425.401 329.517 425.403 329.517 425.405C329.729 425.46 329.946 425.481 330.168 425.461Z" fill="#9AD1B8"/>
<path d="M331.803 424.217C331.863 424.157 331.899 424.071 331.891 423.979C331.467 418.463 332.495 412.89 333.489 407.501C333.666 406.544 333.844 405.579 334.016 404.608C333.692 405.333 333.357 406.051 333.01 406.763C332.971 406.974 332.933 407.182 332.894 407.391C331.894 412.818 330.858 418.43 331.289 424.025C331.301 424.192 331.446 424.317 331.613 424.304C331.688 424.299 331.754 424.266 331.803 424.217Z" fill="#9AD1B8"/>
<path d="M339.752 467.036C340.238 465.933 340.729 464.83 341.223 463.732C334.807 467.839 327.618 470.624 320.147 471.938C316.918 473.609 313.549 475.034 310.122 476.331C316.059 476.005 321.951 474.813 327.544 472.805C327.547 472.804 327.548 472.803 327.549 472.803C327.569 472.796 327.589 472.788 327.609 472.781C327.611 472.78 327.613 472.78 327.615 472.779C327.637 472.771 327.659 472.763 327.68 472.756C331.62 471.331 336.068 469.497 339.752 467.036ZM341.684 462.71C341.873 462.289 342.063 461.873 342.254 461.454C340.199 462.127 338.107 462.67 335.964 462.982C334.329 463.22 332.681 463.322 331.032 463.436C331.004 463.567 330.969 463.697 330.927 463.826C330.686 464.551 330.233 465.164 329.69 465.707C329.257 466.141 328.765 466.53 328.278 466.896C326.259 468.407 324.139 469.754 321.947 470.974C328.96 469.492 335.681 466.695 341.684 462.71Z" fill="#9AD1B8"/>
<path d="M342.254 461.454C342.438 461.05 342.623 460.644 342.808 460.241C338.601 459.705 334.333 459.513 330.067 459.654C330.864 460.74 331.306 462.139 331.032 463.436C332.681 463.322 334.329 463.22 335.964 462.982C338.107 462.671 340.199 462.128 342.254 461.454Z" fill="#9AD1B8"/>
<path d="M343.177 459.441C341.357 457.56 337.73 456.274 335.372 455.888C337.311 456.206 340.111 457.133 342.056 458.499C342.056 458.498 342.057 458.499 342.058 458.5C342.069 458.507 342.08 458.515 342.091 458.523C342.092 458.524 342.093 458.525 342.094 458.525C342.097 458.527 342.101 458.529 342.103 458.532C342.105 458.533 342.107 458.534 342.108 458.535C342.113 458.539 342.119 458.543 342.124 458.547C342.126 458.548 342.128 458.549 342.13 458.551C342.133 458.552 342.134 458.554 342.137 458.556C342.14 458.558 342.142 458.559 342.145 458.561C342.147 458.563 342.149 458.564 342.152 458.567C342.157 458.57 342.16 458.572 342.164 458.576C342.167 458.577 342.168 458.578 342.169 458.579C342.173 458.581 342.176 458.585 342.181 458.588C342.182 458.589 342.184 458.589 342.185 458.59C342.195 458.597 342.205 458.605 342.215 458.612C342.216 458.613 342.217 458.615 342.219 458.615C342.223 458.619 342.228 458.622 342.231 458.624C342.232 458.625 342.233 458.626 342.233 458.626C342.239 458.63 342.244 458.633 342.25 458.637C342.25 458.637 342.25 458.637 342.25 458.638C342.255 458.641 342.261 458.645 342.265 458.649C342.265 458.65 342.265 458.65 342.267 458.65C342.276 458.658 342.287 458.666 342.298 458.674C342.299 458.674 342.299 458.674 342.299 458.674C342.305 458.678 342.309 458.682 342.314 458.686L342.315 458.687C342.633 458.926 342.923 459.177 343.177 459.441ZM335.371 455.887C335.365 455.887 335.359 455.885 335.353 455.884C335.36 455.886 335.365 455.887 335.371 455.887Z" fill="#C0C59E"/>
<path d="M342.314 458.686C342.309 458.682 342.305 458.678 342.299 458.674C342.305 458.678 342.309 458.683 342.314 458.686Z" fill="#9AD1B8"/>
<path d="M343.074 459.666C343.108 459.591 343.143 459.514 343.177 459.441C342.923 459.177 342.633 458.926 342.315 458.687L342.314 458.687C342.309 458.683 342.305 458.679 342.299 458.675C342.299 458.675 342.299 458.675 342.298 458.674C342.287 458.666 342.276 458.658 342.267 458.65C342.265 458.65 342.265 458.65 342.264 458.65C342.261 458.646 342.255 458.642 342.25 458.639C342.25 458.638 342.25 458.638 342.25 458.638C342.244 458.634 342.238 458.63 342.233 458.626C342.233 458.626 342.232 458.625 342.231 458.624C342.227 458.622 342.223 458.619 342.219 458.615C342.217 458.615 342.216 458.613 342.215 458.613C342.205 458.605 342.195 458.598 342.185 458.59C342.184 458.59 342.182 458.589 342.181 458.588C342.176 458.585 342.173 458.582 342.169 458.579C342.168 458.578 342.167 458.577 342.164 458.576C342.16 458.572 342.157 458.57 342.152 458.567C342.149 458.564 342.147 458.564 342.145 458.561C342.142 458.56 342.14 458.558 342.137 458.557C342.134 458.554 342.133 458.553 342.13 458.551C342.128 458.549 342.126 458.549 342.124 458.547C342.119 458.543 342.113 458.539 342.108 458.535C342.107 458.535 342.105 458.533 342.103 458.532C342.101 458.53 342.097 458.527 342.094 458.525C342.093 458.525 342.092 458.524 342.091 458.523C342.08 458.516 342.069 458.508 342.058 458.5C342.057 458.499 342.056 458.498 342.056 458.499C340.111 457.133 337.311 456.206 335.372 455.888C335.371 455.888 335.371 455.888 335.371 455.888C335.365 455.887 335.36 455.886 335.353 455.885C331.244 455.217 327.069 455.024 322.918 455.273C323.995 455.691 325.055 456.153 326.086 456.67C327.353 457.306 328.61 458.037 329.576 459.066C334.094 458.891 338.619 459.087 343.074 459.666Z" fill="#9AD1B8"/>
<path d="M342.808 460.242C342.897 460.049 342.985 459.859 343.074 459.666C338.619 459.087 334.094 458.891 329.576 459.066C329.682 459.18 329.786 459.298 329.886 459.42C329.948 459.496 330.008 459.574 330.067 459.655C334.333 459.513 338.601 459.706 342.808 460.242Z" fill="#9AD1B8"/>
<path d="M341.223 463.732C341.376 463.392 341.53 463.051 341.684 462.71C335.681 466.695 328.96 469.493 321.947 470.975C321.351 471.305 320.752 471.626 320.147 471.939C327.618 470.624 334.807 467.839 341.223 463.732Z" fill="#9AD1B8"/>
<path d="M349.159 440.195C347.803 437.996 346.944 434.598 346.694 433.064C346.693 433.064 346.693 433.064 346.693 433.064C346.692 433.06 346.692 433.055 346.691 433.051C346.691 433.051 346.69 433.05 346.691 433.049C346.69 433.045 346.69 433.042 346.689 433.038L346.689 433.036C346.688 433.032 346.688 433.029 346.686 433.026C346.687 433.025 346.686 433.024 346.686 433.023C346.686 433.02 346.685 433.016 346.685 433.013L346.685 433.012C346.924 434.519 347.788 437.97 349.159 440.195ZM346.685 433.01L346.684 433.009C346.684 433.008 346.684 433.008 346.684 433.006C346.684 433.008 346.684 433.009 346.685 433.01ZM346.656 432.83C346.653 432.807 346.649 432.782 346.645 432.759C346.649 432.783 346.653 432.806 346.656 432.83ZM346.604 432.49C346.603 432.477 346.601 432.466 346.599 432.453C346.601 432.465 346.602 432.478 346.604 432.49ZM346.593 432.414C346.592 432.406 346.591 432.398 346.589 432.388C346.591 432.398 346.593 432.405 346.593 432.414Z" fill="#C0C59E"/>
<path d="M351.557 442.211C351.92 441.502 352.286 440.796 352.653 440.088C352.972 436.882 353.386 433.683 353.897 430.497C353.005 431.238 351.74 431.622 350.683 431.178C350.583 434.346 350.766 437.535 351.178 440.7C351.256 440.921 351.337 441.141 351.42 441.361C351.463 441.474 351.431 441.599 351.35 441.681C351.339 441.691 351.329 441.701 351.317 441.71C351.34 441.865 351.364 442.023 351.387 442.179C348.746 441.599 347.062 435.319 346.693 433.065C346.944 434.598 347.803 437.996 349.159 440.195C349.444 440.657 349.75 441.067 350.078 441.394C350.532 441.848 351.026 442.146 351.557 442.211ZM346.686 433.023C346.686 433.02 346.685 433.016 346.685 433.013C346.685 433.016 346.686 433.02 346.686 433.023ZM346.684 433.009C346.683 433.005 346.683 433.002 346.682 432.998C346.683 433.001 346.683 433.004 346.684 433.006C346.684 433.008 346.684 433.008 346.684 433.009Z" fill="#9AD1B8"/>
<path d="M351.387 442.179C351.364 442.023 351.34 441.865 351.317 441.71C351.295 441.726 351.27 441.74 351.242 441.75C351.085 441.809 350.911 441.73 350.853 441.574C349.053 436.767 348.138 431.666 348.078 426.551C347.236 423.617 346.653 420.609 346.329 417.575C345.755 422.489 345.874 427.524 346.589 432.388C346.591 432.398 346.592 432.407 346.593 432.414C346.595 432.427 346.597 432.44 346.599 432.453C346.601 432.466 346.603 432.477 346.604 432.49C346.606 432.501 346.608 432.512 346.609 432.523C346.612 432.544 346.615 432.566 346.619 432.586C346.62 432.597 346.623 432.608 346.623 432.618C346.626 432.632 346.628 432.646 346.63 432.66C346.631 432.67 346.633 432.679 346.634 432.689C346.638 432.709 346.641 432.728 346.644 432.749C346.644 432.752 346.645 432.756 346.645 432.759C346.649 432.783 346.653 432.808 346.656 432.831C346.657 432.838 346.659 432.844 346.659 432.85C346.662 432.869 346.665 432.888 346.668 432.906C346.669 432.913 346.67 432.92 346.671 432.926C346.675 432.95 346.679 432.974 346.682 432.999C346.683 433.002 346.683 433.006 346.684 433.01L346.685 433.01C346.684 433.011 346.685 433.012 346.685 433.012L346.685 433.013C346.685 433.017 346.686 433.02 346.686 433.023C346.686 433.025 346.687 433.025 346.686 433.026C346.688 433.029 346.688 433.032 346.689 433.036L346.689 433.038C346.69 433.042 346.69 433.046 346.691 433.05C346.69 433.051 346.691 433.051 346.691 433.051C346.692 433.055 346.692 433.06 346.693 433.064C346.693 433.064 346.693 433.064 346.694 433.065C347.062 435.319 348.746 441.6 351.387 442.179ZM351.178 440.7C350.766 437.535 350.583 434.346 350.683 431.179C350.657 431.167 350.632 431.156 350.607 431.144C349.657 430.705 349.131 429.727 348.76 428.722C349.006 432.798 349.805 436.84 351.178 440.7Z" fill="#9AD1B8"/>
<path d="M353.413 438.635C354.832 435.933 356.277 433.248 357.755 430.577C358.577 428.253 359.337 425.907 360.033 423.542C360.038 423.521 360.044 423.5 360.051 423.48C360.051 423.476 360.052 423.473 360.053 423.469C360.059 423.449 360.066 423.428 360.071 423.407C360.072 423.406 360.073 423.404 360.073 423.402C360.915 420.521 361.655 417.567 361.71 414.578C359.959 418.865 357.99 423.082 356.028 427.261C355.628 428.115 355.213 428.987 354.636 429.724C354.145 432.683 353.737 435.654 353.413 438.635Z" fill="#9AD1B8"/>
<path d="M351.349 441.68C351.431 441.598 351.463 441.474 351.42 441.361C351.337 441.141 351.256 440.921 351.178 440.7C349.805 436.84 349.006 432.798 348.76 428.721C348.687 428.523 348.62 428.324 348.557 428.127C348.389 427.604 348.229 427.079 348.078 426.551C348.138 431.665 349.053 436.767 350.853 441.573C350.911 441.729 351.085 441.809 351.242 441.75C351.27 441.74 351.295 441.725 351.317 441.71C351.329 441.701 351.339 441.691 351.349 441.68Z" fill="#9AD1B8"/>
<path d="M352.653 440.088C352.906 439.604 353.158 439.12 353.413 438.635C353.737 435.655 354.145 432.683 354.636 429.724C354.498 429.899 354.353 430.067 354.194 430.225C354.143 430.277 354.089 430.327 354.035 430.377C353.99 430.419 353.944 430.459 353.897 430.497C353.386 433.683 352.972 436.882 352.653 440.088Z" fill="#9AD1B8"/>
</g>
</svg>
