<svg width="354" height="465" viewBox="0 0 354 465" fill="none" xmlns="http://www.w3.org/2000/svg">
<rect x="0.40332" y="0.150391" width="353.597" height="464.042" rx="10" fill="white"/>
<mask id="mask0_130_103" style="mask-type:alpha" maskUnits="userSpaceOnUse" x="0" y="0" width="354" height="465">
<rect x="0.40332" y="0.150391" width="353.597" height="464.042" rx="10" fill="#FEEBDE"/>
</mask>
<g mask="url(#mask0_130_103)">
<path d="M15.7549 78.4423C1.07666 90.0161 -12.917 102.454 -26.134 115.671C-34.9037 124.441 -43.3312 133.553 -51.3897 142.981L-49.1927 144.859C-41.1832 135.489 -32.8068 126.432 -24.0902 117.715C-10.9539 104.579 2.9559 92.2141 17.5442 80.7119L15.7549 78.4423Z" fill="#83A26A"/>
<path d="M13.4944 101.216C5.67398 100.592 -4.51209 101.201 -12.2109 102.546L-11.7123 105.393C-4.29547 104.089 5.78539 103.491 13.2615 104.098L13.4944 101.216Z" fill="#83A26A"/>
<path d="M-0.69736 95.0476C1.95135 88.8958 3.34111 82.2148 3.36768 75.5174L0.476754 75.5062C0.452229 81.8112 -0.85884 88.1151 -3.35223 93.9051L-0.69736 95.0476Z" fill="#83A26A"/>
<path d="M16.2321 70.3933C29.4164 52.2672 44.7272 35.6893 61.7507 21.1081C64.287 18.9356 66.8826 16.7916 69.8297 15.22C70.918 14.6385 72.2495 14.1388 73.347 14.7029C74.5487 15.3201 74.8533 16.8816 74.9054 18.2315C75.1639 24.8788 72.7124 31.3115 70.0361 37.403C64.52 49.9619 57.4578 62.4972 46.1088 70.2002C41.4511 73.3619 36.2262 75.5947 30.9206 77.479C24.8343 79.6413 18.5937 81.3693 12.2611 82.6477C13.189 78.4968 13.7306 73.8329 16.2321 70.3933Z" fill="#83A26A"/>
<path d="M29.586 109.455C39.8038 111.479 50.0778 113.509 60.4897 113.829C70.9016 114.149 81.5537 112.679 90.8702 108.02C91.7786 107.566 92.8271 106.656 92.3754 105.747C92.1955 105.385 91.8184 105.171 91.4628 104.977C87.9884 103.091 84.512 101.204 81.0366 99.3171C77.3344 97.3071 73.6137 95.2888 69.6508 93.8582C60.2424 90.4625 49.9531 90.5453 39.9836 91.3689C30.565 92.1466 15.9828 93.9635 10.5177 102.946C15.0038 107.291 23.6867 108.287 29.586 109.455Z" fill="#83A26A"/>
<path d="M7.96821 71.3976C11.1463 57.8741 11.1595 43.6178 8.00501 30.0871C7.48487 27.8564 6.06344 25.0922 3.81735 25.5418C3.13575 25.6777 2.55634 26.1141 2.02292 26.5596C-2.94648 30.7197 -6.08978 36.9858 -6.45357 43.4564C-6.71517 48.1407 -5.59214 52.777 -4.63055 57.3703C-3.88866 60.908 -3.23772 64.4652 -2.6808 68.0367C-2.27204 70.6445 -2.6399 75.7498 -1.04781 77.8835C3.24715 83.6377 7.13537 74.9385 7.96821 71.3976Z" fill="#83A26A"/>
<path d="M47.5333 144.268C50.4529 143.654 53.5389 142.744 55.4161 140.426C55.9312 139.79 56.3481 139.019 56.3235 138.202C56.2847 136.949 55.2567 135.976 54.2869 135.182C37.9685 121.807 15.7989 115.846 -5.02703 119.233C-10.488 120.122 -21.2575 124.75 -14.4314 130.849C-9.1963 135.526 -1.59964 138.747 4.92098 141.106C18.4782 146.012 33.4018 147.245 47.5333 144.268Z" fill="#83A26A"/>
<path d="M-19.7145 89.5623C-16.9064 71.7714 -20.2275 52.0961 -32.6342 39.0395C-33.4926 38.1362 -34.5809 37.2012 -35.8143 37.3739C-36.5429 37.4771 -37.1631 37.9625 -37.6526 38.5112C-39.5564 40.6418 -39.91 43.7545 -39.6259 46.5974C-39.3418 49.4402 -38.5171 52.2208 -38.4211 55.0759C-38.3179 58.1466 -39.0598 61.1816 -39.1865 64.2493C-39.3694 68.6771 -38.2709 73.0518 -37.0221 77.3028C-35.8449 81.3065 -34.5257 85.2683 -33.0685 89.178C-32.0824 91.8257 -30.524 98.9084 -28.3045 100.711C-23.4179 104.676 -20.2633 93.0397 -19.7145 89.5623Z" fill="#83A26A"/>
<path d="M12.5778 82.5779C18.8 81.3056 24.9364 79.6042 30.9205 77.4787C36.2261 75.5944 41.451 73.3615 46.1087 70.1999C57.4577 62.4969 64.5199 49.9615 70.036 37.4026C72.7123 31.3112 75.1639 24.8785 74.9053 18.2312C74.8532 16.8812 74.5487 15.3198 73.3469 14.7026C73.1967 14.626 73.0404 14.5718 72.882 14.532C67.9933 19.3593 63.8036 24.9858 59.5802 30.4436C45.2473 48.9662 29.5114 66.3985 12.5778 82.5779Z" fill="#A1AD92"/>
<path d="M30.5876 101.409C42.1317 100.816 53.6943 102.123 65.1087 103.95C74.1534 105.396 83.4341 107.151 92.4603 106.386C92.4991 106.177 92.4818 105.962 92.3755 105.747C92.1957 105.385 91.8186 105.172 91.463 104.978C87.9876 103.09 84.5111 101.204 81.0367 99.3175C77.3345 97.3075 73.6138 95.2892 69.651 93.8586C60.2425 90.4629 49.9532 90.5457 39.9838 91.3693C30.7072 92.1357 16.4284 93.9148 10.7785 102.551C17.3338 102.693 24.0016 101.748 30.5876 101.409Z" fill="#A1AD92"/>
<path d="M1.97692 38.3327C2.33458 45.2038 3.48112 52.0238 3.60579 58.9031C3.73148 65.8733 2.78421 72.8578 0.834465 79.5511C4.33747 81.1555 7.26002 74.4111 7.96819 71.3976C11.1462 57.874 11.1595 43.6178 8.00499 30.0871C7.48485 27.8563 6.06342 25.0921 3.81733 25.5418C3.35953 25.6337 2.94976 25.8657 2.56757 26.1396C1.85532 30.1321 1.76642 34.2737 1.97692 38.3327Z" fill="#A1AD92"/>
<path d="M-16.371 125.623C-12.9354 126.875 -9.43544 127.909 -5.81901 128.435C-2.50914 128.916 0.846686 128.969 4.1729 129.322C14.3825 130.4 24.0658 134.242 34.0087 136.805C41.2457 138.669 48.966 139.808 56.2714 138.736C56.3051 138.562 56.3286 138.383 56.3235 138.202C56.2846 136.949 55.2566 135.976 54.2879 135.181C37.9685 121.807 15.7988 115.846 -5.02708 119.233C-8.7784 119.843 -15.0333 122.219 -16.371 125.623Z" fill="#A1AD92"/>
<path d="M-32.6342 39.0399C-33.4926 38.1366 -34.5809 37.2016 -35.8143 37.3743C-36.5429 37.4775 -37.1632 37.9629 -37.6526 38.5116C-37.8907 38.7783 -38.1043 39.0593 -38.2954 39.3526C-35.5557 42.5603 -33.556 46.4016 -32.5463 50.4972C-31.7237 53.8337 -31.5418 57.2978 -30.8081 60.6557C-29.9814 64.4336 -28.467 68.0245 -27.3511 71.7278C-24.4561 81.3243 -24.2977 91.5094 -25.8142 101.465C-22.3561 100.706 -20.1642 92.4076 -19.7146 89.5627C-16.9064 71.7718 -20.2276 52.0965 -32.6342 39.0399Z" fill="#A1AD92"/>
<path d="M69.2013 26.1733L69.1778 26.4237C58.9314 49.2801 38.2915 65.7385 17.5126 80.1204C17.3348 80.243 17.0905 80.1991 16.9669 80.0202C16.8432 79.8414 16.8882 79.5982 17.066 79.4735C37.7509 65.1591 58.2938 48.7834 68.4615 26.1018C68.5504 25.9046 68.7833 25.8167 68.9806 25.9056L69.2013 26.1733Z" fill="#83A26A"/>
<path d="M72.555 100.474L72.5499 100.678C72.4876 100.885 72.2689 101.004 72.0605 100.94C53.1179 95.2597 32.5086 96.0179 14.0331 103.077C13.8307 103.155 13.6038 103.053 13.5262 102.85C13.4526 102.66 13.5497 102.422 13.753 102.343C32.3901 95.2229 53.1771 94.4585 72.2863 100.189L72.555 100.474Z" fill="#83A26A"/>
<path d="M43.2915 133.312L43.267 133.568C43.176 133.765 42.942 133.85 42.7458 133.758C24.7444 125.421 4.00636 122.313 -15.6464 125.008C-15.861 125.037 -16.0582 124.868 -16.0889 124.672C-16.1185 124.456 -15.9683 124.259 -15.7537 124.231C4.04723 121.515 24.9386 124.647 43.0749 133.046L43.2915 133.312Z" fill="#83A26A"/>
<path d="M6.54878 35.4814L6.55594 35.5274C8.29722 50.457 6.84717 65.9334 2.36418 80.2816C2.29981 80.4891 2.08012 80.6045 1.8737 80.5391C1.66626 80.4747 1.5528 80.255 1.61616 80.0486C6.06543 65.8036 7.50525 50.4397 5.77623 35.6183C5.75068 35.4027 5.90602 35.2085 6.12062 35.182C6.3209 35.1595 6.50279 35.2903 6.54878 35.4814Z" fill="#83A26A"/>
<path d="M31.1178 140.624L31.1281 140.697C31.1383 140.914 30.9697 141.097 30.753 141.107C14.1148 141.828 -2.48768 136.863 -15.9959 127.123C-16.1717 126.997 -16.2115 126.753 -16.0848 126.577C-15.9581 126.401 -15.7139 126.361 -15.5381 126.488C-2.17192 136.124 14.2558 141.037 30.7183 140.322C30.9104 140.314 31.0749 140.444 31.1178 140.624Z" fill="#A1AD92"/>
<path d="M74.229 110.466V110.648C74.1779 110.859 73.9664 110.988 73.7548 110.938C53.7607 106.125 33.2015 103.964 12.6464 104.513C12.4298 104.519 12.251 104.35 12.2438 104.131C12.2387 103.915 12.4093 103.734 12.626 103.728C33.2485 103.179 53.8772 105.347 73.9387 110.174C74.0879 110.211 74.1963 110.327 74.229 110.466Z" fill="#A1AD92"/>
<path d="M-3.96128 41.5117L-3.95108 41.5791C-3.65269 46.5291 -2.73096 51.5302 -1.83886 56.3647C-0.542094 63.4003 0.800668 70.6762 0.242722 77.9295C0.226372 78.1461 0.0383588 78.3075 -0.17828 78.2912C-0.394918 78.2748 -0.555356 78.0858 -0.539006 77.8691C0.0107651 70.718 -1.32177 63.4934 -2.61036 56.5068C-3.50757 51.6487 -4.4334 46.6252 -4.73485 41.6272C-4.74813 41.4095 -4.58363 41.2245 -4.36699 41.2123C-4.17385 41.199 -4.0042 41.3298 -3.96128 41.5117Z" fill="#A1AD92"/>
<path d="M54.4577 32.3226L54.3769 32.665C49.7632 38.1821 44.5863 43.4264 39.5802 48.5C29.6465 58.5645 19.3735 68.9724 13.2381 81.8358C13.1451 82.031 12.9111 82.1137 12.7159 82.0207C12.5187 81.9278 12.437 81.6907 12.53 81.4975C18.7225 68.5156 29.0415 58.0597 39.0222 47.9482C44.0161 42.8868 49.1817 37.6538 53.774 32.1622C53.914 31.9957 54.1613 31.9732 54.3269 32.1122L54.4577 32.3226Z" fill="#A1AD92"/>
<path d="M30.9207 77.4788C36.2263 75.5944 41.4511 73.3616 46.1089 70.1999C46.1273 70.1877 46.1477 70.1734 46.1671 70.1601C46.1477 70.1734 46.1283 70.1867 46.1089 70.1999C41.4511 73.3616 36.2263 75.5944 30.9207 77.4788ZM16.4202 70.1356C16.4601 70.0814 16.4979 70.0293 16.5377 69.9751C16.4989 70.0282 16.459 70.0824 16.4202 70.1356ZM16.598 69.8923C16.6277 69.8525 16.6563 69.8116 16.6869 69.7707C16.6573 69.8106 16.6277 69.8525 16.598 69.8923ZM16.7809 69.642C16.7993 69.6174 16.8177 69.5929 16.8361 69.5664C16.8177 69.5909 16.7983 69.6185 16.7809 69.642ZM16.9618 69.3957C16.9689 69.3865 16.9751 69.3763 16.9823 69.3671C16.9761 69.3773 16.9689 69.3865 16.9618 69.3957ZM46.1845 70.1488C46.1978 70.1396 46.2131 70.1284 46.2274 70.1202C46.2121 70.1294 46.1988 70.1386 46.1845 70.1488ZM46.3316 70.0487C46.3337 70.0467 46.3388 70.0436 46.3408 70.0415C46.3378 70.0446 46.3347 70.0456 46.3316 70.0487Z" fill="#C0C59E"/>
<path d="M12.261 82.6473C12.3867 82.0843 12.5053 81.51 12.6228 80.9326C13.3718 77.2529 14.0698 73.3666 16.2321 70.393C16.2831 70.3235 16.3342 70.254 16.3843 70.1835C16.3966 70.1671 16.4078 70.1518 16.4201 70.1355C16.4589 70.0823 16.4988 70.0281 16.5376 69.975C16.557 69.9474 16.5785 69.9198 16.5979 69.8923C16.6275 69.8524 16.6572 69.8105 16.6868 69.7706C16.7174 69.7277 16.7502 69.6848 16.7808 69.6419C16.7982 69.6184 16.8176 69.5908 16.836 69.5663C16.8779 69.5101 16.9187 69.4528 16.9617 69.3956C16.9688 69.3864 16.976 69.3772 16.9821 69.367C23.1267 60.9989 29.7291 52.9679 36.7422 45.3109C35.5139 48.1886 34.3071 51.0754 33.1268 53.9724C25.1429 62.2711 17.5053 71.0694 12.5298 81.4977C12.4562 81.651 12.492 81.8298 12.6064 81.9443C12.6371 81.975 12.6739 82.0015 12.7158 82.0209C12.9109 82.1139 13.145 82.0312 13.238 81.836C17.8804 72.1046 24.8894 63.7794 32.3287 55.9436C31.9424 56.9001 31.5603 57.8586 31.1801 58.8171C30.4484 60.6647 29.7168 62.5654 29.6769 64.5509C29.6708 64.8166 29.681 65.0843 29.7045 65.351C24.1445 71.2381 18.4322 76.9831 12.5778 82.5779C18.8 81.3056 24.9364 79.6042 30.9205 77.4787C26.0911 79.1934 21.1636 80.6363 16.1718 81.7982C14.8719 82.1007 13.568 82.3827 12.261 82.6473Z" fill="#63824D"/>
<path d="M12.5778 82.5779C18.4322 76.9831 24.1445 71.2381 29.7045 65.3511C29.8313 66.7265 30.3545 68.0877 31.3017 69.035C31.3201 69.0534 31.3385 69.0718 31.3569 69.0901C26.688 72.6984 21.88 76.1431 17.0659 79.4734C16.8881 79.5981 16.8432 79.8413 16.9668 80.0201C16.9801 80.0396 16.9954 80.059 17.0118 80.0753C17.1436 80.2071 17.3541 80.2296 17.5125 80.1203C22.3889 76.744 27.2582 73.2543 31.9864 69.5949C32.0334 69.6256 32.0814 69.6552 32.1295 69.6849C34.2121 70.9377 36.8802 70.2234 39.161 69.3814C45.2003 67.1537 50.9841 64.2393 56.3858 60.7383C53.4489 64.2577 50.1411 67.4265 46.3407 70.0415C46.3387 70.0435 46.3336 70.0466 46.3315 70.0487C46.3193 70.0568 46.307 70.065 46.2958 70.0722C46.2815 70.0824 46.2672 70.0926 46.2539 70.1018C46.2437 70.1079 46.2355 70.114 46.2273 70.1202C46.213 70.1283 46.1977 70.1396 46.1844 70.1488C46.1783 70.1529 46.1721 70.157 46.167 70.16C46.1476 70.1733 46.1271 70.1876 46.1088 70.1999C41.451 73.3616 36.2262 75.5944 30.9206 77.4787C24.9365 79.6042 18.8001 81.3057 12.5778 82.5779Z" fill="#798B68"/>
<path d="M17.0117 80.0755C16.9953 80.0592 16.98 80.0398 16.9667 80.0203C16.8431 79.8415 16.888 79.5983 17.0658 79.4736C21.8799 76.1433 26.6879 72.6986 31.3568 69.0903C31.55 69.2774 31.7594 69.4459 31.9863 69.5951C27.2581 73.2545 22.3888 76.7442 17.5124 80.1205C17.354 80.2298 17.1435 80.2073 17.0117 80.0755Z" fill="#63824D"/>
<path d="M12.6066 81.9445C12.4922 81.8301 12.4564 81.6512 12.53 81.4979C17.5055 71.0697 25.143 62.2713 33.127 53.9726C32.8593 54.6287 32.5925 55.2857 32.3289 55.9438C24.8896 63.7796 17.8806 72.1048 13.2382 81.8362C13.1452 82.0314 12.9111 82.1141 12.716 82.0212C12.6741 82.0017 12.6373 81.9752 12.6066 81.9445Z" fill="#798B68"/>
<path d="M10.5179 102.946C11.1586 101.894 11.924 100.939 12.7915 100.073C19.3295 93.5518 31.6677 92.0557 39.9838 91.369C30.7071 92.1354 16.4284 93.9145 10.7784 102.55C11.6971 102.57 12.6168 102.568 13.5375 102.55C13.4966 102.644 13.4895 102.754 13.5263 102.85C13.5477 102.904 13.5773 102.95 13.6152 102.988C13.7214 103.094 13.8839 103.134 14.0331 103.077C14.5655 102.873 15.0979 102.676 15.6344 102.483C20.1542 102.284 24.7056 101.771 29.2244 101.487C29.2244 101.525 29.2254 101.565 29.2274 101.604C29.2775 102.455 29.7016 103.168 30.3035 103.77C30.3577 103.824 30.4138 103.878 30.4701 103.93C24.5309 103.638 18.5784 103.569 12.626 103.728C12.4093 103.734 12.2387 103.915 12.2438 104.13C12.2479 104.237 12.2908 104.331 12.3593 104.399C12.4318 104.472 12.5351 104.516 12.6464 104.512C18.9668 104.344 25.2861 104.432 31.589 104.773C31.9395 104.995 32.3002 105.196 32.6538 105.38C41.0404 109.74 50.132 112.245 59.4771 113.777C49.4126 113.363 39.4718 111.413 29.5861 109.455C23.6868 108.287 15.0039 107.291 10.5179 102.946Z" fill="#63824D"/>
<path d="M10.7785 102.551C16.4284 93.9148 30.7072 92.1357 39.9838 91.3693C43.2466 91.1006 46.5422 90.9135 49.8316 90.8982C43.7463 92.2256 37.8879 94.2479 32.4821 97.4076C32.4729 97.4127 32.4637 97.4178 32.4545 97.4229C26.0821 98.3896 19.8037 100.033 13.7531 102.343C13.653 102.382 13.5794 102.46 13.5375 102.551C12.6168 102.568 11.6971 102.57 10.7785 102.551ZM15.6344 102.483C20.6161 100.69 25.7449 99.3482 30.9432 98.4622C29.9642 99.2715 29.2039 100.277 29.2244 101.487C24.7056 101.771 20.1542 102.284 15.6344 102.483Z" fill="#798B68"/>
<path d="M13.6152 102.988C13.5774 102.95 13.5478 102.904 13.5263 102.85C13.4895 102.754 13.4967 102.645 13.5376 102.551C13.5795 102.46 13.653 102.382 13.7532 102.343C19.8037 100.033 26.0821 98.3896 32.4546 97.4229C31.9416 97.7234 31.4174 98.0698 30.9432 98.4622C25.7449 99.3482 20.6161 100.69 15.6345 102.483C15.098 102.676 14.5656 102.874 14.0332 103.077C13.884 103.134 13.7215 103.094 13.6152 102.988Z" fill="#63824D"/>
<path d="M12.3591 104.399C12.2906 104.331 12.2477 104.237 12.2436 104.131C12.2385 103.915 12.4092 103.734 12.6258 103.728C18.5783 103.569 24.5307 103.638 30.4699 103.93C30.8071 104.241 31.1913 104.521 31.5889 104.773C25.2859 104.432 18.9666 104.344 12.6463 104.513C12.5349 104.516 12.4317 104.472 12.3591 104.399Z" fill="#798B68"/>
<path d="M-0.351954 78.6958C-0.581877 78.4659 -0.813825 78.1951 -1.04784 77.8834C-2.63992 75.7498 -2.27207 70.6444 -2.68082 68.0366C-3.23775 64.4651 -3.88869 60.908 -4.63057 57.3702C-5.51041 53.1693 -6.51286 48.9315 -6.47709 44.6529C-5.53799 47.4008 -4.47626 50.1057 -3.29293 52.7564C-3.07016 54.0154 -2.83919 55.2662 -2.61029 56.5068C-1.3217 63.4933 0.0108299 70.718 -0.538941 77.8691C-0.548138 77.9887 -0.502167 78.1001 -0.424504 78.1778C-0.361147 78.2411 -0.275293 78.284 -0.178215 78.2912C0.0384235 78.3075 0.226436 78.1461 0.242786 77.9295C0.800733 70.6762 -0.542029 63.4003 -1.83879 56.3647C-1.88887 56.0939 -1.93893 55.8231 -1.98901 55.5503C-1.07749 57.4244 -0.103631 59.2689 0.932555 61.0776C1.34233 61.794 1.83079 62.5461 2.41837 63.1337C2.74946 63.4647 3.11225 63.7437 3.50976 63.9348C3.21648 69.2189 2.31414 74.4683 0.834458 79.5511C1.12672 79.684 1.41386 79.7607 1.69794 79.7852C1.69692 79.7862 1.6959 79.7893 1.6959 79.7913C1.24525 79.7515 0.78233 79.5828 0.310221 79.2558C0.0915393 79.1046 -0.129185 78.9186 -0.351954 78.6958Z" fill="#63824D"/>
<path d="M0.834414 79.5511C2.3141 74.4683 3.21643 69.2189 3.50971 63.9347C3.86328 64.1044 4.24444 64.2035 4.65523 64.2096C4.8637 64.2117 5.06805 64.1892 5.26834 64.1442C4.46821 69.4488 3.27568 74.688 1.6979 79.7851C1.41381 79.7606 1.12667 79.6839 0.834414 79.5511Z" fill="#798B68"/>
<path d="M7.96833 71.3977C7.97856 71.3506 7.9888 71.3055 8.00006 71.2595C7.98982 71.3045 7.97959 71.3516 7.96833 71.3977ZM8.04713 71.0589C8.04917 71.0487 8.05225 71.0354 8.05532 71.0241C8.05225 71.0354 8.04917 71.0466 8.04713 71.0589Z" fill="#C0C59E"/>
<path d="M2.53991 79.7175C2.53991 79.7155 2.54093 79.7124 2.54093 79.7104C5.22336 79.0042 7.32743 74.0266 7.94669 71.4883C7.47356 73.4268 6.13488 76.7929 4.33331 78.5883C3.77536 79.1442 3.17347 79.5499 2.53991 79.7175ZM7.94666 71.4842C7.94768 71.4791 7.94973 71.475 7.94973 71.4709C7.94973 71.475 7.9487 71.4801 7.94666 71.4842ZM7.96812 71.3974C7.97834 71.3504 7.98958 71.3044 7.9998 71.2574C8.00082 71.2584 8.00082 71.2584 7.9998 71.2594C7.98856 71.3054 7.97834 71.3504 7.96812 71.3974ZM8.01105 71.2114C8.01821 71.1797 8.02536 71.148 8.03353 71.1153C8.03251 71.1184 8.03251 71.1204 8.03148 71.1235C8.02535 71.1521 8.01821 71.1797 8.01208 71.2083C8.01105 71.2093 8.01105 71.2114 8.01105 71.2114ZM8.04476 71.0632C8.05395 71.0234 8.06418 70.9825 8.07337 70.9426C8.06622 70.9702 8.06112 70.9978 8.05499 71.0244C8.05192 71.0356 8.04885 71.0489 8.0468 71.0591C8.04578 71.0601 8.04578 71.0622 8.04476 71.0632Z" fill="#63824D"/>
<path d="M2.54101 79.7104C4.12697 74.5316 5.31847 69.2096 6.10941 63.8223C6.50896 63.6067 6.87787 63.3154 7.19568 62.9915C8.4577 61.7131 9.10147 59.9636 9.6635 58.2571C9.83825 57.7267 9.99154 57.1913 10.1571 56.6579C9.84439 61.4239 9.16278 66.1644 8.10105 70.8211C8.099 70.8293 8.09698 70.8395 8.09494 70.8477C8.08778 70.8794 8.08061 70.911 8.07345 70.9427C8.06426 70.9826 8.05404 71.0234 8.04484 71.0633C8.04177 71.0807 8.0377 71.099 8.03361 71.1154C8.02544 71.1481 8.01829 71.1798 8.01113 71.2115C8.00807 71.2268 8.00499 71.2421 7.99988 71.2574C7.98966 71.3044 7.97842 71.3504 7.9682 71.3974C7.96615 71.4036 7.96413 71.4097 7.96413 71.4158C7.96311 71.4189 7.96208 71.422 7.96106 71.425C7.96004 71.4281 7.95902 71.4312 7.95902 71.4332C7.958 71.4383 7.957 71.4414 7.957 71.4455C7.95597 71.4485 7.95493 71.4495 7.95493 71.4516C7.9539 71.4567 7.95186 71.4608 7.95186 71.4649C7.95186 71.4669 7.95083 71.468 7.94981 71.471C7.94981 71.4751 7.94776 71.4792 7.94674 71.4843C7.94674 71.4864 7.94677 71.4863 7.94677 71.4884C7.32751 74.0267 5.22344 79.0043 2.54101 79.7104Z" fill="#798B68"/>
<path d="M1.6959 79.7917C1.6959 79.7896 1.69693 79.7866 1.69795 79.7855C3.27573 74.6884 4.46826 69.4492 5.26839 64.1446C5.56064 64.0792 5.84166 63.9679 6.10939 63.8228C5.31846 69.2101 4.12695 74.532 2.541 79.7109C2.541 79.713 2.53998 79.7161 2.53998 79.7181C2.26407 79.7896 1.98305 79.8172 1.6959 79.7917Z" fill="#63824D"/>
<path d="M-0.424466 78.1776C-0.502129 78.0999 -0.5481 77.9885 -0.538903 77.869C0.010868 70.7178 -1.32166 63.4932 -2.61025 56.5066C-2.83916 55.266 -3.07012 54.0152 -3.29289 52.7563C-2.8729 53.6954 -2.4386 54.6263 -1.98897 55.5501C-1.9389 55.8229 -1.88883 56.0937 -1.83876 56.3645C-0.541991 63.4002 0.800771 70.676 0.242824 77.9293C0.226474 78.1459 0.0384616 78.3073 -0.178177 78.291C-0.275255 78.2838 -0.361109 78.2409 -0.424466 78.1776Z" fill="#798B68"/>
<path d="M-10.7291 133.69C-11.3596 132.261 -11.9962 130.831 -12.6369 129.408C-4.31884 134.732 5.00171 138.342 14.6871 140.046C18.8737 142.212 23.2413 144.059 27.6844 145.741C19.9876 145.318 12.348 143.773 5.09676 141.17C5.09369 141.169 5.09267 141.167 5.09062 141.167C5.06507 141.158 5.0385 141.148 5.01296 141.139C5.00989 141.138 5.00784 141.138 5.00477 141.137C4.97718 141.126 4.94859 141.115 4.921 141.106C-0.186354 139.259 -5.95386 136.882 -10.7291 133.69ZM-13.2347 128.082C-13.48 127.537 -13.7252 126.997 -13.9736 126.454C-11.3085 127.327 -8.59743 128.031 -5.81894 128.435C-3.69956 128.743 -1.56181 128.876 0.575964 129.023C0.61173 129.194 0.656701 129.362 0.711882 129.529C1.02458 130.469 1.61111 131.264 2.31518 131.969C2.87721 132.531 3.51488 133.035 4.14641 133.509C6.76344 135.468 9.51128 137.215 12.3541 138.797C3.26147 136.876 -5.45209 133.249 -13.2347 128.082Z" fill="#63824D"/>
<path d="M-13.9736 126.455C-14.2117 125.93 -14.4518 125.404 -14.692 124.882C-9.23719 124.187 -3.70474 123.938 1.82669 124.121C0.79255 125.529 0.220298 127.342 0.575913 129.024C-1.56186 128.876 -3.69961 128.744 -5.81899 128.435C-8.59748 128.031 -11.3086 127.327 -13.9736 126.455Z" fill="#798B68"/>
<path d="M-15.0364 124.135C-15.0803 124.038 -15.1263 123.939 -15.1702 123.844C-14.8402 123.501 -14.4641 123.176 -14.0523 122.867L-14.0513 122.866C-14.0452 122.862 -14.039 122.855 -14.0319 122.85C-14.0319 122.85 -14.0319 122.85 -14.0308 122.849C-14.0165 122.839 -14.0022 122.829 -13.99 122.819C-13.9879 122.819 -13.9879 122.819 -13.9869 122.818C-13.9818 122.813 -13.9747 122.807 -13.9685 122.803C-13.9675 122.802 -13.9675 122.802 -13.9675 122.802C-13.9604 122.797 -13.9532 122.792 -13.9461 122.787C-13.9461 122.787 -13.945 122.786 -13.944 122.785C-13.9389 122.782 -13.9328 122.778 -13.9277 122.773C-13.9256 122.773 -13.9236 122.771 -13.9225 122.77C-13.9093 122.76 -13.897 122.75 -13.8837 122.741C-13.8827 122.74 -13.8796 122.739 -13.8786 122.738C-13.8725 122.734 -13.8684 122.73 -13.8633 122.727C-13.8612 122.725 -13.8602 122.724 -13.8571 122.723C-13.852 122.717 -13.8469 122.714 -13.8408 122.71C-13.8377 122.707 -13.8347 122.706 -13.8316 122.703C-13.8275 122.701 -13.8254 122.699 -13.8214 122.697C-13.8183 122.694 -13.8162 122.692 -13.8122 122.69C-13.8101 122.688 -13.8071 122.687 -13.805 122.685C-13.7979 122.68 -13.7907 122.675 -13.7836 122.669C-13.7825 122.668 -13.7805 122.666 -13.7774 122.665C-13.7744 122.662 -13.7693 122.659 -13.7662 122.656C-13.7642 122.656 -13.7631 122.655 -13.7621 122.654C-13.7478 122.644 -13.7335 122.634 -13.7192 122.623C-13.7182 122.622 -13.7171 122.621 -13.7161 122.622C-11.1952 120.852 -7.56543 119.65 -5.05059 119.238C-5.04956 119.237 -5.04956 119.237 -5.04956 119.237C-5.04241 119.236 -5.03526 119.235 -5.02708 119.233C0.299972 118.367 5.71287 118.117 11.0941 118.44C9.6982 118.981 8.3248 119.58 6.98716 120.252C5.345 121.076 3.7151 122.024 2.4633 123.357C-3.39412 123.13 -9.26073 123.385 -15.0364 124.135Z" fill="#798B68"/>
<path d="M-14.692 124.882C-14.8075 124.631 -14.9209 124.385 -15.0364 124.135C-9.2607 123.385 -3.39409 123.13 2.46332 123.357C2.32537 123.505 2.19049 123.658 2.06173 123.816C1.981 123.915 1.90231 124.016 1.82669 124.12C-3.70474 123.937 -9.23719 124.187 -14.692 124.882Z" fill="#63824D"/>
<path d="M-12.6369 129.408C-12.8352 128.966 -13.0344 128.524 -13.2347 128.082C-5.45208 133.249 3.26147 136.876 12.3542 138.797C13.1257 139.225 13.9023 139.642 14.6871 140.047C5.00172 138.342 -4.31883 134.732 -12.6369 129.408Z" fill="#798B68"/>
<path d="M340.337 400.258C351.025 408.685 361.214 417.742 370.838 427.365C377.223 433.751 383.359 440.386 389.227 447.25L387.627 448.618C381.795 441.795 375.696 435.2 369.349 428.853C359.785 419.289 349.656 410.285 339.034 401.91L340.337 400.258Z" fill="#83A26A"/>
<path d="M341.983 416.84C347.677 416.386 355.094 416.829 360.7 417.808L360.337 419.881C354.936 418.932 347.596 418.496 342.153 418.938L341.983 416.84Z" fill="#83A26A"/>
<path d="M352.316 412.348C350.388 407.869 349.376 403.004 349.357 398.128L351.462 398.12C351.479 402.71 352.434 407.3 354.25 411.516L352.316 412.348Z" fill="#83A26A"/>
<path d="M339.99 394.396C330.39 381.198 319.242 369.127 306.846 358.51C305 356.929 303.11 355.368 300.964 354.223C300.171 353.8 299.202 353.436 298.403 353.847C297.528 354.296 297.306 355.433 297.268 356.416C297.08 361.256 298.865 365.94 300.813 370.375C304.83 379.52 309.972 388.647 318.236 394.256C321.627 396.558 325.431 398.184 329.295 399.556C333.726 401.13 338.27 402.388 342.881 403.319C342.205 400.297 341.811 396.901 339.99 394.396Z" fill="#83A26A"/>
<path d="M330.266 422.839C322.826 424.313 315.346 425.791 307.765 426.023C300.183 426.256 292.427 425.186 285.644 421.794C284.982 421.463 284.219 420.801 284.548 420.139C284.679 419.875 284.953 419.72 285.212 419.578C287.742 418.205 290.273 416.831 292.804 415.457C295.499 413.994 298.209 412.524 301.094 411.482C307.945 409.01 315.436 409.07 322.696 409.67C329.554 410.236 340.171 411.559 344.15 418.099C340.884 421.263 334.562 421.988 330.266 422.839Z" fill="#83A26A"/>
<path d="M346.007 395.128C343.693 385.281 343.683 374.901 345.98 365.049C346.359 363.425 347.394 361.412 349.029 361.739C349.525 361.838 349.947 362.156 350.336 362.48C353.954 365.509 356.243 370.072 356.508 374.783C356.698 378.194 355.881 381.57 355.18 384.915C354.64 387.49 354.166 390.081 353.761 392.681C353.463 394.58 353.731 398.297 352.572 399.851C349.444 404.041 346.613 397.706 346.007 395.128Z" fill="#83A26A"/>
<path d="M317.198 448.187C315.073 447.74 312.826 447.078 311.459 445.389C311.084 444.927 310.78 444.366 310.798 443.77C310.826 442.858 311.575 442.15 312.281 441.572C324.163 431.833 340.305 427.493 355.469 429.958C359.445 430.606 367.287 433.976 362.317 438.416C358.505 441.822 352.973 444.167 348.226 445.885C338.354 449.457 327.488 450.354 317.198 448.187Z" fill="#83A26A"/>
<path d="M366.163 408.354C364.119 395.4 366.537 381.074 375.571 371.567C376.196 370.909 376.988 370.228 377.886 370.354C378.417 370.429 378.868 370.783 379.225 371.182C380.611 372.734 380.868 375 380.661 377.07C380.455 379.14 379.854 381.165 379.784 383.244C379.709 385.479 380.249 387.689 380.341 389.923C380.475 393.147 379.675 396.332 378.766 399.428C377.908 402.343 376.948 405.227 375.887 408.074C375.169 410.002 374.034 415.159 372.418 416.472C368.86 419.359 366.563 410.886 366.163 408.354Z" fill="#83A26A"/>
<path d="M342.65 403.268C338.12 402.342 333.652 401.103 329.295 399.556C325.431 398.184 321.627 396.558 318.236 394.256C309.972 388.647 304.83 379.52 300.814 370.375C298.865 365.94 297.08 361.256 297.268 356.416C297.306 355.433 297.528 354.296 298.403 353.847C298.512 353.791 298.626 353.751 298.741 353.722C302.301 357.237 305.352 361.334 308.427 365.308C318.863 378.795 330.321 391.488 342.65 403.268Z" fill="#A1AD92"/>
<path d="M329.537 416.981C321.131 416.548 312.712 417.5 304.401 418.83C297.816 419.883 291.058 421.161 284.486 420.604C284.458 420.452 284.47 420.295 284.548 420.139C284.678 419.876 284.953 419.72 285.212 419.579C287.743 418.205 290.274 416.831 292.804 415.457C295.499 413.994 298.208 412.524 301.094 411.483C307.944 409.01 315.436 409.07 322.695 409.67C329.45 410.228 339.847 411.524 343.961 417.812C339.187 417.915 334.332 417.227 329.537 416.981Z" fill="#A1AD92"/>
<path d="M350.369 371.053C350.109 376.056 349.274 381.022 349.183 386.031C349.092 391.106 349.781 396.192 351.201 401.065C348.65 402.233 346.522 397.323 346.007 395.128C343.693 385.282 343.683 374.901 345.98 365.049C346.359 363.425 347.394 361.412 349.029 361.74C349.363 361.806 349.661 361.975 349.939 362.175C350.458 365.082 350.523 368.098 350.369 371.053Z" fill="#A1AD92"/>
<path d="M363.729 434.611C361.227 435.523 358.679 436.275 356.046 436.658C353.636 437.009 351.192 437.047 348.77 437.304C341.336 438.089 334.286 440.887 327.046 442.753C321.777 444.11 316.155 444.94 310.836 444.159C310.811 444.032 310.794 443.902 310.798 443.77C310.826 442.858 311.575 442.149 312.28 441.571C324.163 431.832 340.305 427.492 355.469 429.958C358.2 430.402 362.755 432.132 363.729 434.611Z" fill="#A1AD92"/>
<path d="M375.571 371.567C376.196 370.91 376.988 370.229 377.886 370.355C378.417 370.43 378.868 370.783 379.225 371.183C379.398 371.377 379.554 371.582 379.693 371.795C377.698 374.131 376.242 376.928 375.507 379.91C374.908 382.339 374.775 384.862 374.241 387.307C373.639 390.057 372.536 392.672 371.724 395.368C369.616 402.356 369.501 409.772 370.605 417.021C368.087 416.468 366.491 410.426 366.163 408.354C364.119 395.4 366.537 381.074 375.571 371.567Z" fill="#A1AD92"/>
<path d="M301.421 362.199L301.438 362.381C308.899 379.024 323.928 391.007 339.057 401.479C339.187 401.569 339.365 401.537 339.455 401.406C339.545 401.276 339.512 401.099 339.382 401.008C324.321 390.586 309.363 378.662 301.96 362.147C301.895 362.003 301.726 361.939 301.582 362.004L301.421 362.199Z" fill="#83A26A"/>
<path d="M298.979 416.299L298.983 416.447C299.028 416.598 299.188 416.685 299.339 416.639C313.132 412.502 328.138 413.055 341.591 418.194C341.738 418.251 341.903 418.177 341.96 418.029C342.013 417.891 341.943 417.718 341.795 417.66C328.225 412.476 313.089 411.919 299.175 416.092L298.979 416.299Z" fill="#83A26A"/>
<path d="M320.287 440.21L320.305 440.396C320.371 440.539 320.541 440.601 320.684 440.534C333.792 434.464 348.892 432.201 363.201 434.163C363.358 434.184 363.501 434.061 363.523 433.919C363.545 433.762 363.436 433.618 363.279 433.597C348.862 431.62 333.65 433.9 320.445 440.016L320.287 440.21Z" fill="#83A26A"/>
<path d="M368.657 391.66C366.719 399.828 367.145 408.561 370.1 416.449C370.155 416.597 370.32 416.672 370.468 416.616C370.616 416.56 370.69 416.393 370.635 416.249C365.977 403.811 367.692 389.243 375.111 378.229C375.2 378.1 375.165 377.921 375.035 377.833C374.903 377.744 374.727 377.779 374.637 377.91C371.823 382.089 369.817 386.774 368.657 391.66Z" fill="#83A26A"/>
<path d="M347.04 368.976L347.035 369.01C345.767 379.881 346.823 391.149 350.087 401.597C350.134 401.748 350.294 401.832 350.444 401.784C350.595 401.737 350.678 401.577 350.632 401.427C347.392 391.055 346.344 379.868 347.603 369.076C347.621 368.919 347.508 368.778 347.352 368.758C347.206 368.742 347.074 368.837 347.04 368.976Z" fill="#83A26A"/>
<path d="M329.151 445.533L329.143 445.587C329.136 445.745 329.259 445.878 329.417 445.885C341.531 446.411 353.62 442.795 363.456 435.704C363.584 435.611 363.613 435.433 363.52 435.305C363.428 435.178 363.25 435.148 363.122 435.241C353.39 442.257 341.429 445.835 329.442 445.314C329.302 445.308 329.182 445.402 329.151 445.533Z" fill="#A1AD92"/>
<path d="M297.761 423.575L297.761 423.708C297.798 423.861 297.952 423.955 298.106 423.919C312.664 420.414 327.634 418.841 342.601 419.24C342.758 419.245 342.888 419.122 342.894 418.962C342.897 418.805 342.773 418.673 342.615 418.669C327.6 418.269 312.579 419.847 297.972 423.362C297.863 423.389 297.784 423.474 297.761 423.575Z" fill="#A1AD92"/>
<path d="M354.693 373.368L354.686 373.417C354.468 377.021 353.797 380.662 353.148 384.182C352.203 389.305 351.226 394.603 351.632 399.884C351.644 400.042 351.781 400.16 351.939 400.148C352.096 400.136 352.213 399.998 352.201 399.84C351.801 394.634 352.771 389.373 353.709 384.286C354.363 380.749 355.037 377.091 355.256 373.452C355.266 373.293 355.146 373.158 354.988 373.15C354.848 373.14 354.724 373.235 354.693 373.368Z" fill="#A1AD92"/>
<path d="M312.157 366.677L312.215 366.926C315.575 370.943 319.344 374.762 322.989 378.456C330.222 385.784 337.702 393.362 342.17 402.729C342.237 402.871 342.408 402.931 342.55 402.863C342.694 402.796 342.753 402.623 342.685 402.482C338.176 393.03 330.663 385.417 323.396 378.054C319.759 374.369 315.998 370.558 312.654 366.56C312.552 366.439 312.372 366.422 312.252 366.523L312.157 366.677Z" fill="#A1AD92"/>
<path d="M329.295 399.556C325.431 398.184 321.627 396.559 318.236 394.256C318.222 394.248 318.207 394.237 318.193 394.227C318.207 394.237 318.221 394.247 318.236 394.256C321.627 396.559 325.431 398.184 329.295 399.556ZM339.853 394.21C339.824 394.17 339.796 394.132 339.767 394.093C339.795 394.131 339.824 394.171 339.853 394.21ZM339.723 394.032C339.702 394.003 339.681 393.974 339.658 393.944C339.68 393.973 339.702 394.003 339.723 394.032ZM339.59 393.85C339.577 393.832 339.563 393.814 339.55 393.795C339.563 393.813 339.577 393.833 339.59 393.85ZM339.458 393.671C339.453 393.664 339.449 393.657 339.443 393.65C339.448 393.657 339.453 393.664 339.458 393.671ZM318.18 394.219C318.171 394.213 318.16 394.204 318.149 394.198C318.16 394.205 318.17 394.212 318.18 394.219ZM318.073 394.146C318.072 394.145 318.068 394.143 318.067 394.141C318.069 394.143 318.071 394.144 318.073 394.146Z" fill="#C0C59E"/>
<path d="M342.881 403.319C342.79 402.909 342.703 402.491 342.618 402.071C342.072 399.391 341.564 396.562 339.99 394.397C339.952 394.346 339.915 394.295 339.879 394.244C339.87 394.232 339.862 394.221 339.853 394.209C339.825 394.17 339.795 394.131 339.767 394.092C339.753 394.072 339.737 394.052 339.723 394.032C339.702 394.003 339.68 393.972 339.659 393.943C339.636 393.912 339.612 393.881 339.59 393.85C339.577 393.833 339.563 393.812 339.55 393.795C339.519 393.754 339.49 393.712 339.458 393.67C339.453 393.664 339.448 393.657 339.444 393.65C334.97 387.556 330.162 381.709 325.056 376.134C325.95 378.229 326.829 380.331 327.688 382.44C333.502 388.483 339.063 394.889 342.685 402.482C342.739 402.594 342.713 402.724 342.63 402.807C342.607 402.83 342.581 402.849 342.55 402.863C342.408 402.931 342.237 402.871 342.17 402.729C338.79 395.643 333.686 389.581 328.269 383.876C328.551 384.572 328.829 385.27 329.106 385.968C329.638 387.313 330.171 388.697 330.2 390.143C330.205 390.336 330.197 390.531 330.18 390.725C334.228 395.012 338.388 399.195 342.65 403.269C338.12 402.342 333.652 401.103 329.295 399.556C332.811 400.804 336.399 401.855 340.034 402.701C340.98 402.921 341.929 403.127 342.881 403.319Z" fill="#63824D"/>
<path d="M342.65 403.269C338.388 399.195 334.228 395.012 330.18 390.726C330.088 391.727 329.707 392.718 329.017 393.408C329.004 393.421 328.99 393.435 328.977 393.448C332.376 396.075 335.877 398.584 339.383 401.008C339.512 401.099 339.545 401.276 339.455 401.407C339.445 401.421 339.434 401.435 339.422 401.447C339.326 401.543 339.173 401.559 339.057 401.479C335.507 399.021 331.961 396.48 328.519 393.816C328.484 393.838 328.449 393.86 328.414 393.881C326.898 394.793 324.955 394.273 323.295 393.66C318.897 392.038 314.686 389.916 310.753 387.367C312.891 389.929 315.3 392.237 318.067 394.141C318.068 394.142 318.072 394.145 318.073 394.146C318.082 394.152 318.091 394.158 318.099 394.163C318.11 394.171 318.12 394.178 318.13 394.185C318.137 394.189 318.143 394.194 318.149 394.198C318.16 394.204 318.171 394.212 318.181 394.219C318.185 394.222 318.19 394.225 318.193 394.227C318.207 394.237 318.222 394.247 318.236 394.256C321.627 396.558 325.431 398.184 329.295 399.556C333.652 401.104 338.12 402.343 342.65 403.269Z" fill="#798B68"/>
<path d="M339.422 401.447C339.434 401.435 339.445 401.421 339.455 401.406C339.545 401.276 339.512 401.099 339.383 401.008C335.877 398.584 332.377 396.075 328.977 393.448C328.836 393.584 328.684 393.707 328.519 393.816C331.961 396.48 335.507 399.021 339.057 401.479C339.173 401.559 339.326 401.543 339.422 401.447Z" fill="#63824D"/>
<path d="M342.629 402.808C342.713 402.724 342.739 402.594 342.685 402.482C339.062 394.889 333.501 388.483 327.688 382.44C327.883 382.918 328.077 383.397 328.269 383.876C333.686 389.581 338.789 395.643 342.17 402.729C342.237 402.871 342.408 402.931 342.55 402.863C342.58 402.849 342.607 402.83 342.629 402.808Z" fill="#798B68"/>
<path d="M344.15 418.099C343.684 417.334 343.127 416.638 342.495 416.008C337.734 411.259 328.751 410.17 322.695 409.67C329.45 410.228 339.847 411.523 343.961 417.811C343.292 417.826 342.622 417.824 341.952 417.811C341.981 417.88 341.987 417.959 341.96 418.029C341.944 418.069 341.923 418.102 341.895 418.13C341.818 418.207 341.699 418.236 341.591 418.195C341.203 418.047 340.815 417.903 340.425 417.762C337.134 417.617 333.82 417.244 330.53 417.037C330.53 417.065 330.529 417.094 330.527 417.122C330.491 417.742 330.182 418.261 329.744 418.699C329.704 418.739 329.664 418.778 329.623 418.816C333.947 418.603 338.281 418.553 342.615 418.669C342.773 418.673 342.897 418.805 342.894 418.962C342.891 419.039 342.859 419.108 342.81 419.157C342.757 419.21 342.682 419.242 342.6 419.24C337.998 419.117 333.397 419.181 328.808 419.43C328.553 419.591 328.29 419.738 328.033 419.872C321.926 423.047 315.306 424.87 308.502 425.986C315.83 425.684 323.068 424.265 330.266 422.839C334.562 421.989 340.884 421.263 344.15 418.099Z" fill="#63824D"/>
<path d="M343.961 417.812C339.847 411.524 329.45 410.228 322.695 409.67C320.32 409.474 317.92 409.338 315.525 409.327C319.956 410.294 324.221 411.766 328.158 414.067C328.164 414.071 328.171 414.074 328.178 414.078C332.818 414.782 337.389 415.978 341.795 417.661C341.868 417.689 341.921 417.745 341.952 417.812C342.622 417.824 343.292 417.826 343.961 417.812ZM340.425 417.763C336.798 416.457 333.063 415.48 329.278 414.835C329.991 415.424 330.544 416.156 330.53 417.037C333.82 417.244 337.134 417.617 340.425 417.763Z" fill="#798B68"/>
<path d="M341.895 418.13C341.923 418.102 341.944 418.069 341.96 418.029C341.987 417.959 341.981 417.88 341.952 417.811C341.921 417.745 341.868 417.689 341.795 417.66C337.389 415.978 332.818 414.782 328.178 414.078C328.551 414.296 328.933 414.549 329.278 414.834C333.063 415.479 336.798 416.456 340.425 417.762C340.815 417.903 341.203 418.046 341.591 418.195C341.699 418.236 341.818 418.207 341.895 418.13Z" fill="#63824D"/>
<path d="M342.81 419.158C342.86 419.108 342.891 419.039 342.894 418.962C342.898 418.805 342.773 418.673 342.616 418.669C338.281 418.553 333.947 418.603 329.623 418.816C329.377 419.042 329.097 419.246 328.808 419.43C333.397 419.181 337.999 419.117 342.601 419.24C342.682 419.242 342.757 419.21 342.81 419.158Z" fill="#798B68"/>
<path d="M352.065 400.442C352.232 400.275 352.401 400.077 352.572 399.851C353.731 398.297 353.463 394.58 353.761 392.681C354.166 390.08 354.64 387.49 355.18 384.914C355.821 381.856 356.551 378.77 356.525 375.655C355.841 377.655 355.068 379.625 354.206 381.555C354.044 382.472 353.876 383.382 353.709 384.286C352.771 389.373 351.801 394.633 352.201 399.84C352.208 399.927 352.174 400.008 352.118 400.065C352.072 400.111 352.009 400.142 351.938 400.147C351.781 400.159 351.644 400.042 351.632 399.884C351.226 394.603 352.203 389.305 353.148 384.182C353.184 383.985 353.221 383.788 353.257 383.589C352.593 384.954 351.884 386.297 351.13 387.614C350.831 388.135 350.476 388.683 350.048 389.111C349.807 389.352 349.543 389.555 349.253 389.694C349.467 393.542 350.124 397.364 351.201 401.065C350.988 401.162 350.779 401.217 350.572 401.235C350.573 401.236 350.574 401.238 350.574 401.24C350.902 401.211 351.239 401.088 351.583 400.85C351.742 400.74 351.903 400.604 352.065 400.442Z" fill="#63824D"/>
<path d="M351.201 401.065C350.124 397.364 349.467 393.542 349.253 389.694C348.996 389.818 348.718 389.89 348.419 389.894C348.267 389.896 348.119 389.879 347.973 389.847C348.555 393.709 349.424 397.524 350.572 401.235C350.779 401.217 350.988 401.162 351.201 401.065Z" fill="#798B68"/>
<path d="M346.007 395.128C345.999 395.094 345.992 395.061 345.984 395.028C345.991 395.06 345.999 395.095 346.007 395.128ZM345.949 394.882C345.948 394.874 345.946 394.864 345.943 394.856C345.946 394.864 345.948 394.873 345.949 394.882Z" fill="#C0C59E"/>
<path d="M349.959 401.186C349.959 401.184 349.959 401.182 349.959 401.181C348.005 400.667 346.473 397.042 346.022 395.194C346.367 396.606 347.342 399.056 348.653 400.364C349.06 400.769 349.498 401.064 349.959 401.186ZM346.023 395.191C346.022 395.187 346.02 395.184 346.02 395.181C346.02 395.184 346.021 395.188 346.023 395.191ZM346.007 395.128C345.999 395.094 345.991 395.06 345.984 395.026C345.983 395.027 345.983 395.027 345.984 395.027C345.992 395.061 345.999 395.094 346.007 395.128ZM345.976 394.992C345.97 394.969 345.965 394.946 345.959 394.922C345.96 394.925 345.96 394.926 345.961 394.928C345.965 394.949 345.97 394.969 345.975 394.99C345.976 394.991 345.976 394.992 345.976 394.992ZM345.951 394.885C345.944 394.856 345.937 394.826 345.93 394.797C345.935 394.817 345.939 394.837 345.944 394.856C345.946 394.864 345.948 394.874 345.95 394.882C345.95 394.882 345.95 394.884 345.951 394.885Z" fill="#63824D"/>
<path d="M349.959 401.181C348.804 397.41 347.936 393.535 347.36 389.612C347.069 389.455 346.801 389.243 346.569 389.007C345.65 388.077 345.182 386.803 344.772 385.56C344.645 385.174 344.534 384.784 344.413 384.396C344.641 387.866 345.137 391.318 345.91 394.708C345.912 394.714 345.913 394.722 345.915 394.728C345.92 394.751 345.925 394.774 345.93 394.797C345.937 394.826 345.944 394.856 345.951 394.885C345.953 394.897 345.956 394.911 345.959 394.923C345.965 394.946 345.97 394.969 345.976 394.993C345.978 395.004 345.98 395.015 345.984 395.026C345.991 395.06 345.999 395.094 346.007 395.128C346.008 395.132 346.01 395.137 346.01 395.141C346.011 395.144 346.011 395.146 346.012 395.148C346.013 395.15 346.014 395.153 346.014 395.154C346.014 395.158 346.015 395.16 346.015 395.163C346.016 395.165 346.017 395.166 346.017 395.167C346.017 395.171 346.019 395.174 346.019 395.177C346.019 395.179 346.02 395.179 346.02 395.182C346.02 395.185 346.022 395.188 346.022 395.191C346.022 395.193 346.022 395.193 346.022 395.194C346.473 397.042 348.005 400.667 349.959 401.181Z" fill="#798B68"/>
<path d="M350.574 401.24C350.574 401.239 350.573 401.236 350.572 401.236C349.424 397.524 348.555 393.71 347.973 389.847C347.76 389.799 347.555 389.718 347.36 389.613C347.936 393.535 348.804 397.41 349.959 401.181C349.959 401.183 349.959 401.185 349.959 401.187C350.16 401.239 350.365 401.259 350.574 401.24Z" fill="#63824D"/>
<path d="M352.118 400.065C352.174 400.008 352.208 399.927 352.201 399.84C351.801 394.633 352.771 389.373 353.709 384.286C353.876 383.382 354.044 382.472 354.206 381.555C353.901 382.239 353.584 382.917 353.257 383.589C353.22 383.788 353.184 383.985 353.148 384.182C352.203 389.305 351.226 394.603 351.632 399.884C351.644 400.042 351.781 400.159 351.938 400.147C352.009 400.142 352.072 400.111 352.118 400.065Z" fill="#798B68"/>
<path d="M359.621 440.485C360.08 439.444 360.543 438.403 361.01 437.367C354.953 441.243 348.167 443.872 341.115 445.113C338.066 446.69 334.886 448.035 331.651 449.26C337.255 448.952 342.818 447.827 348.098 445.931C348.1 445.93 348.101 445.929 348.102 445.929C348.121 445.923 348.14 445.915 348.159 445.908C348.161 445.908 348.162 445.908 348.165 445.907C348.185 445.899 348.206 445.891 348.226 445.885C351.944 444.539 356.144 442.809 359.621 440.485ZM361.445 436.402C361.624 436.004 361.802 435.611 361.983 435.216C360.043 435.852 358.069 436.364 356.046 436.658C354.502 436.883 352.946 436.98 351.389 437.087C351.363 437.211 351.331 437.333 351.29 437.455C351.063 438.14 350.636 438.719 350.123 439.231C349.714 439.64 349.249 440.008 348.79 440.353C346.884 441.78 344.883 443.051 342.813 444.203C349.434 442.804 355.779 440.164 361.445 436.402Z" fill="#63824D"/>
<path d="M361.983 435.216C362.157 434.835 362.331 434.452 362.506 434.071C358.535 433.565 354.506 433.384 350.479 433.517C351.232 434.542 351.648 435.862 351.389 437.087C352.946 436.98 354.502 436.883 356.046 436.658C358.069 436.364 360.043 435.852 361.983 435.216Z" fill="#798B68"/>
<path d="M362.757 433.527C362.789 433.457 362.823 433.385 362.855 433.315C362.614 433.066 362.34 432.83 362.041 432.604L362.04 432.603C362.035 432.6 362.031 432.596 362.026 432.592C362.026 432.592 362.026 432.592 362.025 432.591C362.015 432.584 362.004 432.577 361.995 432.569C361.994 432.569 361.994 432.569 361.993 432.568C361.989 432.565 361.984 432.561 361.98 432.558C361.979 432.557 361.979 432.557 361.979 432.557C361.974 432.553 361.968 432.55 361.963 432.546C361.963 432.546 361.962 432.545 361.962 432.545C361.958 432.542 361.954 432.539 361.95 432.536C361.948 432.536 361.947 432.534 361.946 432.533C361.936 432.527 361.927 432.519 361.918 432.513C361.917 432.512 361.915 432.511 361.914 432.51C361.91 432.507 361.907 432.504 361.903 432.502C361.901 432.501 361.901 432.5 361.898 432.499C361.895 432.495 361.891 432.493 361.887 432.49C361.884 432.488 361.882 432.487 361.88 432.485C361.877 432.484 361.875 432.482 361.872 432.481C361.87 432.478 361.869 432.477 361.866 432.475C361.864 432.474 361.862 432.473 361.861 432.472C361.855 432.468 361.85 432.464 361.845 432.46C361.844 432.46 361.843 432.458 361.84 432.458C361.838 432.455 361.834 432.453 361.832 432.451C361.831 432.451 361.83 432.45 361.829 432.449C361.819 432.442 361.808 432.434 361.798 432.427C361.797 432.426 361.797 432.426 361.796 432.426C359.96 431.137 357.317 430.262 355.486 429.962C355.485 429.961 355.485 429.961 355.485 429.961C355.48 429.96 355.475 429.96 355.469 429.958C351.59 429.328 347.649 429.146 343.731 429.381C344.747 429.775 345.747 430.211 346.721 430.7C347.917 431.301 349.104 431.99 350.015 432.961C354.28 432.796 358.552 432.981 362.757 433.527Z" fill="#798B68"/>
<path d="M362.506 434.071C362.59 433.889 362.673 433.71 362.757 433.527C358.552 432.981 354.28 432.796 350.015 432.961C350.116 433.069 350.214 433.181 350.308 433.295C350.366 433.367 350.424 433.441 350.479 433.517C354.506 433.384 358.535 433.565 362.506 434.071Z" fill="#63824D"/>
<path d="M361.01 437.367C361.154 437.046 361.299 436.724 361.445 436.402C355.779 440.164 349.434 442.805 342.813 444.204C342.252 444.515 341.686 444.819 341.115 445.114C348.167 443.872 354.953 441.244 361.01 437.367Z" fill="#798B68"/>
</g>
</svg>
