<svg width="890" height="268" viewBox="0 0 890 268" fill="none" xmlns="http://www.w3.org/2000/svg">
<rect width="890" height="268" rx="10" fill="white"/>
<mask id="mask0_125_335" style="mask-type:alpha" maskUnits="userSpaceOnUse" x="0" y="0" width="890" height="268">
<rect width="890" height="268" rx="10" fill="#FEEBDE"/>
</mask>
<g mask="url(#mask0_125_335)">
<path d="M845.988 69.9897C865.676 85.5136 884.445 102.197 902.173 119.925C913.936 131.688 925.24 143.91 936.049 156.555L933.102 159.074C922.359 146.506 911.124 134.358 899.432 122.666C881.812 105.047 863.155 88.4618 843.588 73.0339L845.988 69.9897Z" fill="#8FC9AF"/>
<path d="M849.02 100.536C859.51 99.6985 873.172 100.515 883.498 102.319L882.83 106.138C872.881 104.389 859.36 103.587 849.332 104.401L849.02 100.536Z" fill="#8FC9AF"/>
<path d="M888.464 132.08C895.989 130.745 903.662 130.243 911.298 130.587L911.124 134.459C903.773 134.129 896.385 134.611 889.141 135.896L888.464 132.08Z" fill="#8FC9AF"/>
<path d="M868.055 92.2624C864.503 84.0112 862.639 75.0499 862.603 66.0667L866.481 66.0517C866.513 74.5085 868.272 82.964 871.616 90.73L868.055 92.2624Z" fill="#8FC9AF"/>
<path d="M896.286 120.277C896.909 111.3 897.53 102.323 898.151 93.3442L902.018 93.6129C901.398 102.589 900.775 111.567 900.154 120.543L896.286 120.277Z" fill="#8FC9AF"/>
<path d="M845.348 59.1932C827.664 34.8808 807.128 12.6449 784.294 -6.91273C780.892 -9.82671 777.411 -12.7023 773.458 -14.8104C771.998 -15.5903 770.212 -16.2605 768.74 -15.5039C767.128 -14.6761 766.72 -12.5817 766.65 -10.7711C766.303 -1.85508 769.591 6.77311 773.181 14.9435C780.58 31.7887 790.052 48.6023 805.275 58.9342C811.522 63.175 818.53 66.1698 825.646 68.6973C833.81 71.5975 842.18 73.9153 850.674 75.6299C849.43 70.0624 848.703 63.8068 845.348 59.1932Z" fill="#8FC9AF"/>
<path d="M827.436 111.587C813.731 114.302 799.951 117.024 785.986 117.453C772.02 117.882 757.733 115.911 745.236 109.663C744.018 109.053 742.612 107.833 743.217 106.613C743.459 106.128 743.964 105.841 744.441 105.581C749.102 103.051 753.765 100.52 758.426 97.9889C763.392 95.2928 768.382 92.5858 773.698 90.6669C786.317 86.1123 800.118 86.2233 813.49 87.328C826.123 88.3711 845.682 90.8081 853.013 102.856C846.996 108.684 835.349 110.02 827.436 111.587Z" fill="#8FC9AF"/>
<path d="M856.432 60.5407C852.17 42.4016 852.152 23.2798 856.383 5.13117C857.081 2.13906 858.987 -1.56852 862 -0.965438C862.914 -0.783143 863.691 -0.197884 864.407 0.399715C871.072 5.97959 875.288 14.3843 875.776 23.0632C876.127 29.3463 874.621 35.5649 873.331 41.7259C872.336 46.4711 871.463 51.2422 870.716 56.0326C870.168 59.5305 870.661 66.3782 868.525 69.2401C862.765 76.9582 857.549 65.29 856.432 60.5407Z" fill="#8FC9AF"/>
<path d="M803.364 158.281C799.448 157.457 795.308 156.237 792.791 153.127C792.1 152.275 791.541 151.241 791.574 150.145C791.626 148.464 793.004 147.159 794.305 146.094C816.193 128.154 845.929 120.159 873.863 124.702C881.187 125.894 895.633 132.102 886.477 140.282C879.455 146.555 869.266 150.875 860.519 154.04C842.335 160.621 822.318 162.274 803.364 158.281Z" fill="#8FC9AF"/>
<path d="M893.563 84.905C889.796 61.0422 894.251 34.6518 910.892 17.1392C912.043 15.9275 913.503 14.6734 915.157 14.905C916.135 15.0435 916.967 15.6945 917.623 16.4305C920.177 19.2883 920.651 23.4633 920.27 27.2764C919.889 31.0896 918.783 34.8191 918.654 38.6486C918.515 42.7674 919.511 46.8382 919.681 50.9529C919.926 56.8919 918.452 62.7596 916.778 68.4614C915.199 73.8316 913.429 79.1455 911.475 84.3896C910.152 87.9409 908.062 97.4409 905.085 99.8587C898.53 105.177 894.299 89.5693 893.563 84.905Z" fill="#8FC9AF"/>
<path d="M850.249 75.5367C841.904 73.8303 833.673 71.5482 825.646 68.6973C818.53 66.1698 811.522 63.175 805.275 58.9342C790.052 48.6023 780.58 31.7887 773.181 14.9435C769.591 6.77311 766.303 -1.85509 766.65 -10.7711C766.72 -12.5817 767.128 -14.6761 768.74 -15.5039C768.942 -15.6067 769.151 -15.6794 769.364 -15.7328C775.921 -9.25791 781.541 -1.71117 787.205 5.60942C806.43 30.4537 827.537 53.8354 850.249 75.5367Z" fill="#BBE7D4"/>
<path d="M826.093 100.795C810.609 99.9986 795.1 101.752 779.79 104.202C767.659 106.142 755.21 108.497 743.104 107.47C743.051 107.19 743.075 106.901 743.217 106.613C743.459 106.128 743.964 105.842 744.441 105.581C749.103 103.05 753.766 100.519 758.426 97.9892C763.392 95.2932 768.382 92.5861 773.698 90.6672C786.317 86.1126 800.118 86.2236 813.49 87.3284C825.933 88.3564 845.085 90.7427 852.663 102.326C843.87 102.516 834.927 101.249 826.093 100.795Z" fill="#BBE7D4"/>
<path d="M864.468 16.1907C863.989 25.4069 862.451 34.5546 862.284 43.7817C862.115 53.1308 863.386 62.4991 866.001 71.4768C861.302 73.6287 857.382 64.5825 856.432 60.5405C852.17 42.4015 852.152 23.2797 856.383 5.13102C857.081 2.13891 858.987 -1.56867 862 -0.96559C862.614 -0.842233 863.164 -0.531084 863.676 -0.163752C864.631 5.19134 864.751 10.7466 864.468 16.1907Z" fill="#BBE7D4"/>
<path d="M889.078 133.272C884.47 134.953 879.776 136.338 874.925 137.044C870.485 137.69 865.984 137.761 861.523 138.234C847.829 139.68 834.841 144.833 821.504 148.271C811.797 150.771 801.442 152.299 791.643 150.862C791.598 150.627 791.567 150.387 791.574 150.145C791.626 148.464 793.005 147.159 794.304 146.093C816.193 128.154 845.929 120.159 873.863 124.701C878.894 125.52 887.284 128.706 889.078 133.272Z" fill="#BBE7D4"/>
<path d="M910.892 17.1393C912.043 15.9276 913.503 14.6735 915.158 14.9052C916.135 15.0436 916.967 15.6946 917.623 16.4307C917.943 16.7884 918.229 17.1653 918.485 17.5587C914.811 21.8611 912.128 27.0134 910.774 32.5069C909.671 36.9821 909.427 41.6285 908.443 46.1324C907.334 51.1997 905.303 56.0161 903.806 60.9833C899.923 73.855 899.71 87.5162 901.744 100.869C897.106 99.852 894.166 88.721 893.563 84.9051C889.797 61.0423 894.251 34.652 910.892 17.1393Z" fill="#BBE7D4"/>
<path d="M774.301 -0.118367L774.332 0.217433C788.076 30.8746 815.76 52.9501 843.63 72.2405C843.869 72.405 844.197 72.346 844.362 72.1062C844.528 71.8663 844.468 71.5401 844.229 71.3729C816.485 52.173 788.931 30.2084 775.293 -0.214305C775.174 -0.478839 774.861 -0.596737 774.597 -0.477491L774.301 -0.118367Z" fill="#8FC9AF"/>
<path d="M769.802 99.5409L769.809 99.8137C769.893 100.092 770.186 100.251 770.466 100.166C795.873 92.5466 823.516 93.5636 848.297 103.032C848.569 103.136 848.873 102.999 848.977 102.728C849.076 102.473 848.946 102.153 848.673 102.048C823.675 92.4972 795.794 91.472 770.163 99.1585L769.802 99.5409Z" fill="#8FC9AF"/>
<path d="M809.053 143.586L809.086 143.929C809.208 144.193 809.522 144.307 809.785 144.184C833.931 133.002 861.746 128.833 888.106 132.448C888.394 132.487 888.659 132.261 888.7 131.997C888.74 131.708 888.538 131.444 888.25 131.405C861.691 127.764 833.67 131.963 809.344 143.23L809.053 143.586Z" fill="#8FC9AF"/>
<path d="M898.156 54.152C894.587 69.1989 895.371 85.2848 900.815 99.8163C900.916 100.088 901.219 100.226 901.492 100.123C901.765 100.021 901.902 99.7135 901.801 99.4476C893.219 76.5346 896.378 49.6989 910.046 29.4106C910.209 29.1735 910.145 28.8431 909.905 28.68C909.663 28.5169 909.338 28.5814 909.173 28.8226C903.988 36.5215 900.293 45.151 898.156 54.152Z" fill="#8FC9AF"/>
<path d="M858.336 12.3667L858.326 12.4284C855.991 32.4534 857.936 53.2118 863.949 72.457C864.035 72.7352 864.33 72.8901 864.607 72.8024C864.885 72.716 865.037 72.4213 864.952 72.1444C858.984 53.0377 857.053 32.4301 859.372 12.5504C859.407 12.2612 859.198 12.0007 858.91 11.9651C858.642 11.9349 858.398 12.1104 858.336 12.3667Z" fill="#8FC9AF"/>
<path d="M825.382 153.393L825.368 153.492C825.354 153.782 825.581 154.028 825.871 154.041C848.188 155.009 870.457 148.349 888.575 135.286C888.811 135.116 888.864 134.788 888.694 134.552C888.524 134.317 888.197 134.263 887.961 134.433C870.033 147.358 847.999 153.948 825.918 152.989C825.66 152.978 825.439 153.152 825.382 153.393Z" fill="#BBE7D4"/>
<path d="M767.557 112.943L767.557 113.187C767.626 113.469 767.909 113.643 768.193 113.576C795.011 107.12 822.587 104.221 850.157 104.957C850.448 104.966 850.688 104.74 850.697 104.445C850.704 104.156 850.475 103.913 850.185 103.905C822.524 103.169 794.855 106.076 767.946 112.551C767.746 112.6 767.601 112.756 767.557 112.943Z" fill="#BBE7D4"/>
<path d="M910.175 60.0663C907.025 73.3395 904.838 86.8486 903.648 100.421C903.622 100.71 903.837 100.966 904.125 100.991C904.416 101.016 904.676 100.799 904.697 100.512C906.424 80.8301 910.252 61.2779 916.083 42.396C916.173 42.0944 916.011 41.8231 915.734 41.7381C915.456 41.6517 915.161 41.8093 915.075 42.0848C913.245 48.0183 911.609 54.019 910.175 60.0663Z" fill="#BBE7D4"/>
<path d="M872.433 20.4549L872.42 20.5454C872.019 27.1847 870.783 33.8926 869.586 40.3771C867.847 49.814 866.046 59.573 866.794 69.3018C866.816 69.5924 867.069 69.8089 867.359 69.787C867.65 69.7651 867.865 69.5115 867.843 69.2209C867.106 59.6291 868.893 49.9387 870.621 40.5677C871.825 34.0517 873.066 27.3136 873.471 20.6098C873.489 20.3179 873.268 20.0697 872.977 20.0533C872.718 20.0355 872.491 20.2109 872.433 20.4549Z" fill="#BBE7D4"/>
<path d="M794.076 8.12979L794.185 8.58896C800.373 15.9891 807.317 23.0232 814.031 29.8284C827.355 43.3278 841.134 57.2878 849.364 74.5414C849.489 74.8032 849.802 74.9143 850.064 74.7895C850.329 74.6648 850.438 74.3468 850.314 74.0877C842.008 56.6751 828.167 42.6507 814.78 29.0882C808.082 22.2995 801.153 15.2804 794.993 7.91462C794.805 7.69121 794.474 7.66105 794.252 7.84746L794.076 8.12979Z" fill="#BBE7D4"/>
<path d="M825.646 68.6972C818.53 66.1697 811.522 63.1749 805.274 58.9341C805.25 58.9177 805.222 58.8985 805.196 58.8806C805.222 58.8985 805.248 58.9163 805.274 58.9341C811.522 63.1749 818.53 66.1697 825.646 68.6972ZM845.096 58.8478C845.042 58.7751 844.991 58.7052 844.938 58.6325C844.99 58.7038 845.044 58.7765 845.096 58.8478ZM844.857 58.5215C844.817 58.4681 844.779 58.4132 844.738 58.3584C844.778 58.4119 844.817 58.4681 844.857 58.5215ZM844.612 58.1857C844.587 58.1528 844.562 58.12 844.538 58.0843C844.562 58.1172 844.589 58.1542 844.612 58.1857ZM844.369 57.8554C844.36 57.8431 844.351 57.8294 844.342 57.8171C844.35 57.8308 844.36 57.8431 844.369 57.8554ZM805.173 58.8656C805.155 58.8532 805.135 58.8381 805.115 58.8272C805.136 58.8395 805.154 58.8519 805.173 58.8656ZM804.976 58.7313C804.973 58.7285 804.966 58.7244 804.963 58.7217C804.967 58.7258 804.972 58.7271 804.976 58.7313Z" fill="#C0C59E"/>
<path d="M850.674 75.6299C850.506 74.8746 850.347 74.1044 850.189 73.33C849.184 68.3943 848.248 63.1817 845.348 59.1931C845.279 59.0999 845.211 59.0067 845.144 58.9122C845.127 58.8902 845.112 58.8697 845.096 58.8478C845.044 58.7765 844.99 58.7038 844.938 58.6325C844.912 58.5955 844.883 58.5586 844.857 58.5215C844.818 58.4681 844.778 58.4119 844.738 58.3584C844.697 58.3009 844.653 58.2433 844.612 58.1857C844.589 58.1542 844.563 58.1172 844.538 58.0843C844.482 58.0089 844.427 57.9322 844.369 57.8554C844.36 57.8431 844.35 57.8308 844.342 57.8171C836.1 46.5929 827.245 35.821 817.838 25.5508C819.485 29.4105 821.104 33.2826 822.687 37.1683C833.396 48.2993 843.64 60.1005 850.314 74.0879C850.413 74.2935 850.365 74.5334 850.211 74.6869C850.17 74.728 850.121 74.7636 850.064 74.7897C849.803 74.9144 849.489 74.8034 849.364 74.5416C843.137 61.489 833.736 50.3224 823.758 39.8123C824.276 41.0952 824.788 42.3809 825.298 43.6665C826.28 46.1446 827.261 48.6941 827.315 51.3572C827.323 51.7136 827.309 52.0727 827.277 52.4304C834.735 60.3267 842.397 68.0324 850.249 75.5367C841.904 73.8302 833.673 71.5481 825.646 68.6972C832.124 70.9971 838.733 72.9325 845.429 74.4909C847.172 74.8966 848.921 75.2749 850.674 75.6299Z" fill="#9AD1B8"/>
<path d="M850.249 75.5366C842.397 68.0324 834.735 60.3266 827.277 52.4304C827.108 54.2753 826.406 56.101 825.135 57.3716C825.111 57.3963 825.086 57.4209 825.061 57.4456C831.324 62.2853 837.773 66.9057 844.23 71.3727C844.468 71.5399 844.528 71.8661 844.363 72.1059C844.345 72.132 844.324 72.158 844.302 72.1799C844.125 72.3568 843.843 72.3869 843.631 72.2403C837.09 67.7117 830.559 63.0309 824.217 58.1227C824.154 58.1638 824.089 58.2035 824.025 58.2433C821.232 59.9237 817.653 58.9656 814.594 57.8362C806.493 54.8482 798.735 50.9391 791.49 46.2433C795.429 50.9638 799.866 55.2142 804.963 58.7216C804.966 58.7244 804.973 58.7285 804.976 58.7312C804.992 58.7422 805.009 58.7532 805.024 58.7628C805.043 58.7765 805.062 58.7902 805.08 58.8025C805.094 58.8107 805.105 58.8189 805.116 58.8272C805.135 58.8381 805.155 58.8532 805.173 58.8656C805.181 58.871 805.19 58.8765 805.196 58.8806C805.222 58.8984 805.25 58.9177 805.275 58.9341C811.522 63.1749 818.53 66.1697 825.646 68.6972C833.673 71.5481 841.904 73.8302 850.249 75.5366Z" fill="#9AD1B8"/>
<path d="M844.302 72.18C844.324 72.158 844.345 72.132 844.363 72.106C844.528 71.8661 844.468 71.5399 844.23 71.3727C837.773 66.9058 831.324 62.2854 825.061 57.4456C824.802 57.6965 824.521 57.9226 824.217 58.1227C830.559 63.0309 837.09 67.7117 843.631 72.2403C843.843 72.387 844.125 72.3568 844.302 72.18Z" fill="#9AD1B8"/>
<path d="M850.211 74.687C850.364 74.5335 850.412 74.2937 850.314 74.0881C843.64 60.1007 833.396 48.2995 822.687 37.1685C823.046 38.0485 823.404 38.9298 823.757 39.8125C833.736 50.3226 843.137 61.4891 849.364 74.5418C849.488 74.8035 849.802 74.9146 850.064 74.7898C850.12 74.7638 850.17 74.7282 850.211 74.687Z" fill="#9AD1B8"/>
<path d="M853.012 102.856C852.153 101.446 851.126 100.164 849.963 99.0033C841.193 90.2559 824.644 88.2493 813.49 87.3282C825.933 88.3562 845.085 90.7425 852.663 102.326C851.431 102.352 850.197 102.349 848.962 102.326C849.017 102.452 849.027 102.599 848.977 102.727C848.949 102.8 848.909 102.862 848.858 102.912C848.716 103.055 848.498 103.108 848.297 103.032C847.583 102.759 846.869 102.494 846.15 102.235C840.087 101.968 833.983 101.28 827.922 100.899C827.922 100.951 827.92 101.004 827.917 101.057C827.85 102.198 827.281 103.154 826.474 103.961C826.401 104.034 826.326 104.106 826.251 104.176C834.217 103.784 842.201 103.692 850.185 103.905C850.475 103.913 850.704 104.156 850.697 104.445C850.692 104.587 850.634 104.713 850.543 104.805C850.445 104.903 850.307 104.962 850.157 104.957C841.68 104.731 833.204 104.849 824.75 105.307C824.28 105.604 823.796 105.874 823.322 106.121C812.073 111.97 799.878 115.329 787.344 117.384C800.843 116.828 814.177 114.213 827.436 111.587C835.349 110.021 846.995 108.684 853.012 102.856Z" fill="#9AD1B8"/>
<path d="M852.663 102.326C845.085 90.7427 825.933 88.3564 813.49 87.3284C809.114 86.9679 804.693 86.7171 800.281 86.6965C808.443 88.477 816.301 91.1895 823.552 95.4275C823.564 95.4343 823.577 95.4412 823.589 95.4481C832.136 96.7447 840.557 98.9487 848.673 102.048C848.807 102.1 848.906 102.204 848.962 102.326C850.197 102.349 851.431 102.352 852.663 102.326ZM846.15 102.235C839.468 99.83 832.589 98.0304 825.616 96.842C826.929 97.9276 827.949 99.2763 827.922 100.899C833.982 101.28 840.087 101.968 846.15 102.235Z" fill="#9AD1B8"/>
<path d="M848.858 102.913C848.909 102.862 848.948 102.8 848.977 102.728C849.027 102.599 849.017 102.452 848.962 102.326C848.906 102.204 848.807 102.1 848.673 102.048C840.557 98.9487 832.136 96.7448 823.589 95.4482C824.277 95.8511 824.98 96.3158 825.616 96.8421C832.588 98.0304 839.468 99.8301 846.15 102.236C846.869 102.495 847.583 102.759 848.297 103.032C848.497 103.109 848.715 103.055 848.858 102.913Z" fill="#9AD1B8"/>
<path d="M850.543 104.805C850.635 104.714 850.692 104.588 850.698 104.445C850.704 104.156 850.476 103.913 850.185 103.905C842.201 103.693 834.217 103.784 826.251 104.176C825.799 104.593 825.283 104.969 824.75 105.307C833.204 104.849 841.68 104.731 850.158 104.958C850.307 104.962 850.445 104.903 850.543 104.805Z" fill="#9AD1B8"/>
<path d="M867.592 70.3297C867.9 70.0213 868.212 69.6581 868.525 69.24C870.661 66.3781 870.168 59.5304 870.716 56.0325C871.463 51.2421 872.336 46.471 873.331 41.7258C874.511 36.0911 875.856 30.407 875.808 24.6682C874.548 28.3538 873.124 31.9819 871.537 35.5373C871.238 37.226 870.928 38.9037 870.621 40.5676C868.893 49.9387 867.105 59.6291 867.843 69.2208C867.855 69.3812 867.794 69.5306 867.689 69.6348C867.604 69.7198 867.489 69.7773 867.359 69.7869C867.068 69.8088 866.816 69.5923 866.794 69.3017C866.046 59.5729 867.847 49.8139 869.586 40.3771C869.654 40.0139 869.721 39.6506 869.788 39.2847C868.565 41.7984 867.259 44.2725 865.869 46.6985C865.32 47.6593 864.664 48.6681 863.876 49.4562C863.432 49.9003 862.946 50.2745 862.412 50.5308C862.806 57.6184 864.016 64.6593 866.001 71.4769C865.609 71.6551 865.224 71.7579 864.843 71.7908C864.844 71.7922 864.845 71.7963 864.845 71.799C865.45 71.7456 866.071 71.5194 866.704 71.0808C866.997 70.8779 867.293 70.6285 867.592 70.3297Z" fill="#9AD1B8"/>
<path d="M866.001 71.477C864.016 64.6594 862.806 57.6184 862.412 50.5309C861.938 50.7584 861.427 50.8913 860.876 50.8996C860.596 50.9023 860.322 50.8722 860.054 50.8119C861.127 57.9268 862.726 64.9541 864.843 71.7909C865.224 71.758 865.609 71.6552 866.001 71.477Z" fill="#9AD1B8"/>
<path d="M856.432 60.5408C856.418 60.4776 856.405 60.4172 856.39 60.3555C856.403 60.4159 856.417 60.479 856.432 60.5408ZM856.326 60.0864C856.324 60.0727 856.32 60.0549 856.315 60.0398C856.32 60.0549 856.324 60.07 856.326 60.0864Z" fill="#C0C59E"/>
<path d="M863.713 71.7003C863.713 71.6975 863.712 71.6934 863.712 71.6907C860.114 70.7436 857.292 64.0671 856.461 60.6625C857.096 63.2626 858.891 67.7775 861.308 70.1857C862.056 70.9313 862.863 71.4755 863.713 71.7003ZM856.461 60.657C856.46 60.6502 856.457 60.6447 856.457 60.6392C856.457 60.6447 856.458 60.6515 856.461 60.657ZM856.432 60.5405C856.419 60.4774 856.404 60.4158 856.39 60.3527C856.389 60.3541 856.389 60.3541 856.39 60.3554C856.405 60.4171 856.419 60.4774 856.432 60.5405ZM856.375 60.291C856.365 60.2485 856.356 60.206 856.345 60.1622C856.346 60.1663 856.346 60.169 856.347 60.1731C856.356 60.2115 856.365 60.2485 856.373 60.2869C856.375 60.2883 856.375 60.291 856.375 60.291ZM856.33 60.0923C856.317 60.0388 856.304 59.984 856.291 59.9306C856.301 59.9676 856.308 60.0046 856.316 60.0402C856.32 60.0553 856.324 60.0731 856.327 60.0868C856.328 60.0882 856.328 60.0909 856.33 60.0923Z" fill="#9AD1B8"/>
<path d="M863.712 71.6906C861.585 64.7442 859.986 57.6059 858.925 50.3799C858.39 50.0907 857.895 49.7 857.468 49.2655C855.776 47.5509 854.912 45.2043 854.158 42.9153C853.924 42.204 853.718 41.4858 853.496 40.7703C853.916 47.163 854.83 53.5214 856.254 59.7674C856.257 59.7784 856.26 59.7921 856.262 59.803C856.272 59.8455 856.282 59.888 856.291 59.9305C856.303 59.9839 856.317 60.0388 856.33 60.0922C856.334 60.1155 856.339 60.1402 856.345 60.1621C856.356 60.2059 856.365 60.2485 856.375 60.2909C856.379 60.3115 856.383 60.3321 856.39 60.3526C856.404 60.4157 856.419 60.4774 856.432 60.5404C856.435 60.5486 856.438 60.5569 856.438 60.5651C856.439 60.5692 856.441 60.5733 856.442 60.5774C856.443 60.5815 856.445 60.5857 856.445 60.5884C856.446 60.5953 856.447 60.5993 856.447 60.6048C856.449 60.6089 856.45 60.6103 856.45 60.613C856.451 60.6199 856.454 60.6254 856.454 60.6309C856.454 60.6336 856.456 60.635 856.457 60.6391C856.457 60.6446 856.46 60.6501 856.461 60.6569C856.461 60.6597 856.461 60.6596 856.461 60.6624C857.292 64.0671 860.114 70.7435 863.712 71.6906Z" fill="#9AD1B8"/>
<path d="M864.845 71.7992C864.845 71.7964 864.844 71.7923 864.842 71.7909C862.726 64.9542 861.127 57.9269 860.053 50.8119C859.661 50.7242 859.285 50.5748 858.925 50.3802C859.986 57.6062 861.584 64.7445 863.712 71.6909C863.712 71.6936 863.713 71.6977 863.713 71.7005C864.083 71.7964 864.46 71.8334 864.845 71.7992Z" fill="#9AD1B8"/>
<path d="M867.689 69.6348C867.793 69.5306 867.855 69.3812 867.843 69.2208C867.105 59.6291 868.893 49.9387 870.621 40.5676C870.928 38.9036 871.238 37.226 871.537 35.5373C870.973 36.7969 870.391 38.0456 869.788 39.2847C869.721 39.6506 869.653 40.0138 869.586 40.3771C867.847 49.8139 866.046 59.5729 866.794 69.3017C866.816 69.5923 867.068 69.8088 867.359 69.7869C867.489 69.7773 867.604 69.7198 867.689 69.6348Z" fill="#9AD1B8"/>
<path d="M881.511 144.093C882.357 142.176 883.21 140.258 884.07 138.349C872.913 145.49 860.411 150.332 847.42 152.619C841.805 155.523 835.947 158.001 829.987 160.257C840.311 159.69 850.558 157.617 860.284 154.125C860.288 154.124 860.289 154.122 860.292 154.122C860.326 154.11 860.362 154.096 860.396 154.084C860.4 154.083 860.403 154.083 860.407 154.081C860.444 154.066 860.482 154.052 860.519 154.04C867.37 151.562 875.106 148.374 881.511 144.093ZM884.872 136.571C885.201 135.839 885.53 135.116 885.863 134.388C882.288 135.558 878.652 136.503 874.925 137.044C872.082 137.458 869.215 137.636 866.347 137.834C866.299 138.063 866.239 138.287 866.165 138.512C865.746 139.773 864.959 140.839 864.015 141.784C863.261 142.538 862.406 143.215 861.558 143.851C858.048 146.478 854.363 148.821 850.549 150.942C862.745 148.366 874.433 143.501 884.872 136.571Z" fill="#9AD1B8"/>
<path d="M885.863 134.388C886.182 133.685 886.504 132.979 886.826 132.279C879.51 131.347 872.089 131.012 864.67 131.258C866.057 133.146 866.825 135.578 866.348 137.834C869.215 137.636 872.082 137.458 874.925 137.044C878.652 136.503 882.288 135.559 885.863 134.388Z" fill="#9AD1B8"/>
<path d="M887.468 130.886C884.302 127.616 877.995 125.38 873.894 124.709C877.268 125.261 882.136 126.873 885.517 129.248C885.519 129.247 885.52 129.248 885.522 129.249C885.541 129.263 885.56 129.277 885.579 129.291C885.58 129.292 885.582 129.293 885.585 129.293C885.589 129.297 885.596 129.302 885.6 129.306C885.604 129.307 885.606 129.31 885.608 129.311C885.617 129.318 885.627 129.325 885.637 129.332C885.639 129.334 885.643 129.336 885.646 129.339C885.652 129.341 885.654 129.344 885.659 129.348C885.664 129.351 885.667 129.354 885.672 129.356C885.676 129.36 885.681 129.362 885.685 129.366C885.693 129.371 885.7 129.376 885.707 129.382C885.711 129.384 885.712 129.385 885.715 129.388C885.722 129.392 885.727 129.397 885.735 129.403C885.737 129.404 885.741 129.406 885.742 129.407C885.76 129.419 885.776 129.433 885.794 129.445C885.796 129.447 885.798 129.45 885.801 129.45C885.808 129.456 885.816 129.462 885.823 129.466C885.824 129.467 885.826 129.469 885.826 129.469C885.835 129.476 885.845 129.482 885.855 129.489C885.855 129.489 885.855 129.489 885.856 129.491C885.864 129.496 885.874 129.503 885.881 129.51C885.882 129.511 885.882 129.511 885.885 129.511C885.901 129.525 885.92 129.539 885.94 129.552C885.941 129.554 885.941 129.554 885.941 129.554C885.951 129.561 885.957 129.567 885.967 129.574L885.968 129.576C886.521 129.991 887.025 130.427 887.468 130.886ZM873.893 124.707C873.883 124.706 873.872 124.703 873.863 124.702C873.874 124.704 873.883 124.706 873.893 124.707Z" fill="#C0C59E"/>
<path d="M885.967 129.574C885.957 129.567 885.951 129.561 885.941 129.554C885.951 129.561 885.959 129.569 885.967 129.574Z" fill="#9AD1B8"/>
<path d="M887.288 131.277C887.347 131.146 887.409 131.013 887.468 130.886C887.025 130.427 886.521 129.991 885.968 129.576L885.967 129.574C885.959 129.569 885.95 129.56 885.941 129.554C885.941 129.554 885.941 129.554 885.939 129.552C885.92 129.539 885.901 129.525 885.885 129.511C885.882 129.511 885.882 129.511 885.881 129.51C885.874 129.503 885.864 129.496 885.856 129.491C885.855 129.489 885.855 129.489 885.855 129.489C885.845 129.482 885.835 129.475 885.826 129.469C885.826 129.469 885.824 129.467 885.823 129.466C885.816 129.462 885.808 129.456 885.801 129.449C885.798 129.449 885.796 129.447 885.794 129.445C885.776 129.433 885.76 129.419 885.742 129.407C885.741 129.406 885.737 129.404 885.735 129.403C885.727 129.397 885.722 129.392 885.715 129.388C885.712 129.385 885.711 129.384 885.706 129.382C885.7 129.375 885.693 129.371 885.685 129.366C885.68 129.362 885.676 129.36 885.672 129.356C885.667 129.354 885.664 129.351 885.658 129.348C885.654 129.344 885.652 129.341 885.646 129.338C885.643 129.336 885.639 129.334 885.637 129.332C885.627 129.325 885.617 129.318 885.608 129.311C885.606 129.31 885.604 129.307 885.6 129.306C885.595 129.301 885.589 129.297 885.584 129.293C885.582 129.293 885.58 129.292 885.579 129.29C885.56 129.277 885.541 129.263 885.521 129.249C885.52 129.248 885.519 129.247 885.517 129.248C882.136 126.873 877.267 125.261 873.894 124.708C873.893 124.707 873.893 124.707 873.893 124.707C873.883 124.706 873.874 124.704 873.863 124.702C866.718 123.541 859.457 123.205 852.24 123.638C854.112 124.364 855.954 125.168 857.748 126.068C859.951 127.174 862.137 128.445 863.816 130.233C871.672 129.929 879.541 130.27 887.288 131.277Z" fill="#9AD1B8"/>
<path d="M886.826 132.278C886.981 131.943 887.133 131.612 887.288 131.276C879.541 130.27 871.673 129.929 863.816 130.233C864.001 130.432 864.182 130.638 864.355 130.849C864.463 130.982 864.568 131.117 864.67 131.257C872.089 131.012 879.51 131.346 886.826 132.278Z" fill="#9AD1B8"/>
<path d="M884.07 138.349C884.336 137.757 884.603 137.163 884.872 136.571C874.433 143.501 862.745 148.366 850.549 150.943C849.515 151.517 848.473 152.076 847.42 152.619C860.411 150.333 872.913 145.49 884.07 138.349Z" fill="#9AD1B8"/>
<path d="M897.87 97.419C895.512 93.5949 894.018 87.6874 893.582 85.0201C893.581 85.0188 893.581 85.0188 893.581 85.0188C893.579 85.0119 893.58 85.0037 893.578 84.9969C893.578 84.9969 893.577 84.9955 893.578 84.9941C893.577 84.9873 893.575 84.9804 893.574 84.9736V84.9708C893.573 84.964 893.573 84.9585 893.57 84.953C893.571 84.9516 893.57 84.9503 893.57 84.9475C893.569 84.9434 893.567 84.9365 893.567 84.9311V84.9283C893.984 87.549 895.485 93.551 897.87 97.419ZM893.567 84.9256L893.566 84.9242C893.566 84.9215 893.566 84.9215 893.566 84.9187C893.566 84.9215 893.566 84.9242 893.567 84.9256ZM893.518 84.6131C893.511 84.5733 893.505 84.5295 893.497 84.4884C893.504 84.5308 893.511 84.5706 893.518 84.6131ZM893.427 84.0209C893.425 83.999 893.422 83.9798 893.418 83.9565C893.42 83.9785 893.423 84.0004 893.427 84.0209ZM893.408 83.8894C893.405 83.8757 893.404 83.8606 893.401 83.8442C893.404 83.8606 893.407 83.8743 893.408 83.8894Z" fill="#C0C59E"/>
<path d="M902.039 100.925C902.671 99.6929 903.307 98.4648 903.946 97.2339C904.499 91.6582 905.22 86.0961 906.109 80.556C904.557 81.8444 902.357 82.5119 900.519 81.7402C900.345 87.2488 900.664 92.7931 901.38 98.2975C901.517 98.6813 901.657 99.0651 901.801 99.4475C901.876 99.6435 901.821 99.8601 901.679 100.003C901.661 100.02 901.643 100.038 901.622 100.053C901.662 100.323 901.703 100.597 901.744 100.869C897.151 99.8615 894.224 88.9402 893.582 85.0201C894.018 87.6874 895.512 93.5949 897.87 97.419C898.364 98.2235 898.898 98.9349 899.468 99.5051C900.257 100.295 901.117 100.811 902.039 100.925ZM893.57 84.9475C893.57 84.942 893.567 84.9365 893.567 84.9311C893.567 84.9365 893.569 84.9434 893.57 84.9475ZM893.566 84.9242C893.564 84.9173 893.564 84.9119 893.563 84.905C893.564 84.9091 893.564 84.9146 893.566 84.9187C893.566 84.9215 893.566 84.9215 893.566 84.9242Z" fill="#9AD1B8"/>
<path d="M901.744 100.869C901.703 100.597 901.662 100.323 901.622 100.053C901.584 100.081 901.54 100.105 901.492 100.123C901.219 100.226 900.917 100.088 900.815 99.8162C897.685 91.458 896.095 82.5873 895.989 73.6932C894.525 68.5917 893.511 63.3613 892.949 58.0843C891.95 66.6303 892.157 75.3845 893.401 83.8441C893.404 83.8606 893.405 83.8756 893.408 83.8893C893.411 83.9113 893.415 83.9346 893.418 83.9565C893.422 83.9798 893.425 83.999 893.427 84.0209C893.43 84.0401 893.433 84.0593 893.436 84.0785C893.441 84.1141 893.447 84.1525 893.452 84.1881C893.455 84.2073 893.459 84.2251 893.46 84.243C893.466 84.2676 893.468 84.2923 893.471 84.317C893.474 84.3334 893.477 84.3499 893.479 84.3663C893.485 84.4019 893.49 84.4349 893.496 84.4705C893.496 84.476 893.497 84.4828 893.497 84.4883C893.505 84.5294 893.511 84.5733 893.518 84.613C893.519 84.6254 893.522 84.6364 893.522 84.6473C893.527 84.6802 893.533 84.7131 893.537 84.7446C893.54 84.7556 893.541 84.7679 893.544 84.7789C893.551 84.8214 893.556 84.8625 893.563 84.905C893.564 84.9118 893.564 84.9173 893.566 84.9242L893.567 84.9255C893.566 84.9269 893.567 84.9283 893.567 84.9283L893.567 84.931C893.567 84.9365 893.57 84.942 893.57 84.9475C893.57 84.9502 893.571 84.9516 893.57 84.953C893.573 84.9585 893.573 84.9639 893.574 84.9708L893.574 84.9735C893.575 84.9804 893.577 84.9872 893.578 84.9941C893.577 84.9954 893.578 84.9968 893.578 84.9968C893.58 85.0037 893.579 85.0119 893.581 85.0187C893.581 85.0187 893.581 85.0187 893.582 85.0201C894.224 88.9401 897.151 99.8614 901.744 100.869ZM901.38 98.2975C900.664 92.793 900.345 87.2488 900.519 81.7402C900.475 81.721 900.431 81.7018 900.387 81.6799C898.736 80.9164 897.822 79.2155 897.176 77.4679C897.604 84.5568 898.994 91.5855 901.38 98.2975Z" fill="#9AD1B8"/>
<path d="M901.678 100.003C901.821 99.86 901.876 99.6435 901.8 99.4475C901.656 99.0651 901.517 98.6813 901.38 98.2975C898.993 91.5855 897.603 84.5568 897.176 77.4679C897.048 77.1238 896.932 76.7771 896.822 76.4344C896.53 75.5257 896.252 74.6115 895.989 73.6931C896.094 82.5872 897.684 91.458 900.815 99.8162C900.916 100.088 901.219 100.226 901.492 100.123C901.54 100.105 901.584 100.081 901.622 100.053C901.643 100.038 901.661 100.02 901.678 100.003Z" fill="#9AD1B8"/>
<path d="M50.8987 227.271C35.7889 239.185 21.3837 251.989 7.77812 265.595C-1.24951 274.622 -9.92475 284.003 -18.2202 293.708L-15.9586 295.641C-7.7136 285.995 0.90904 276.672 9.88198 267.699C23.4045 254.176 37.7233 241.448 52.7407 229.607L50.8987 227.271Z" fill="#8FC9AF"/>
<path d="M48.5718 250.714C40.5214 250.072 30.0358 250.699 22.1105 252.083L22.6239 255.013C30.2588 253.671 40.636 253.056 48.3319 253.681L48.5718 250.714Z" fill="#8FC9AF"/>
<path d="M18.2995 274.923C12.5244 273.899 6.63572 273.514 0.775433 273.778L0.90903 276.749C6.55051 276.496 12.2204 276.866 17.7798 277.852L18.2995 274.923Z" fill="#8FC9AF"/>
<path d="M33.9627 244.365C36.6893 238.032 38.1199 231.155 38.1473 224.26L35.1713 224.249C35.1461 230.739 33.7965 237.228 31.2298 243.189L33.9627 244.365Z" fill="#8FC9AF"/>
<path d="M12.2961 265.865C11.8185 258.975 11.342 252.086 10.8655 245.195L7.89695 245.401C8.37348 252.29 8.85106 259.18 9.32758 266.069L12.2961 265.865Z" fill="#8FC9AF"/>
<path d="M51.39 218.985C64.9619 200.326 80.723 183.26 98.247 168.251C100.858 166.014 103.53 163.807 106.564 162.189C107.684 161.591 109.055 161.076 110.184 161.657C111.421 162.292 111.735 163.9 111.788 165.289C112.055 172.132 109.531 178.754 106.776 185.025C101.098 197.953 93.8279 210.857 82.1452 218.786C77.3505 222.041 71.972 224.339 66.5104 226.279C60.2451 228.505 53.821 230.284 47.3022 231.6C48.2574 227.327 48.8149 222.526 51.39 218.985Z" fill="#8FC9AF"/>
<path d="M65.1365 259.196C75.6547 261.28 86.2308 263.369 96.9489 263.698C107.667 264.027 118.632 262.514 128.223 257.719C129.158 257.251 130.237 256.314 129.772 255.378C129.587 255.006 129.199 254.786 128.833 254.586C125.256 252.644 121.678 250.702 118.1 248.759C114.289 246.69 110.459 244.613 106.379 243.14C96.6943 239.645 86.1025 239.73 75.8399 240.578C66.1442 241.378 51.1332 243.248 45.5075 252.495C50.1255 256.968 59.0637 257.993 65.1365 259.196Z" fill="#8FC9AF"/>
<path d="M42.883 220.019C46.1545 206.098 46.1682 191.423 42.9209 177.494C42.3855 175.198 40.9222 172.352 38.6101 172.815C37.9085 172.955 37.312 173.404 36.7629 173.863C31.6474 178.145 28.4117 184.596 28.0372 191.256C27.7679 196.078 28.9239 200.851 29.9138 205.579C30.6775 209.221 31.3476 212.883 31.9209 216.559C32.3417 219.244 31.963 224.499 33.6019 226.696C38.0231 232.619 42.0257 223.664 42.883 220.019Z" fill="#8FC9AF"/>
<path d="M83.6116 295.032C86.617 294.4 89.7938 293.464 91.7262 291.077C92.2564 290.422 92.6855 289.629 92.6603 288.788C92.6203 287.498 91.562 286.497 90.5638 285.679C73.7655 271.911 50.944 265.775 29.5057 269.261C23.8842 270.176 12.798 274.94 19.8248 281.218C25.2139 286.033 33.0339 289.348 39.7462 291.777C53.7022 296.828 69.0645 298.096 83.6116 295.032Z" fill="#8FC9AF"/>
<path d="M14.3863 238.718C17.277 220.404 13.8582 200.15 1.08678 186.71C0.203159 185.78 -0.917156 184.817 -2.18683 184.995C-2.93686 185.101 -3.57535 185.601 -4.07922 186.166C-6.03896 188.359 -6.40296 191.563 -6.11052 194.49C-5.81809 197.416 -4.96915 200.279 -4.87027 203.218C-4.76403 206.379 -5.52775 209.503 -5.65819 212.661C-5.84649 217.219 -4.71567 221.722 -3.43022 226.098C-2.2184 230.22 -0.860338 234.298 0.63971 238.323C1.65482 241.048 3.259 248.339 5.54378 250.195C10.5741 254.276 13.8214 242.298 14.3863 238.718Z" fill="#8FC9AF"/>
<path d="M47.6282 231.528C54.0334 230.218 60.3502 228.467 66.5103 226.279C71.9719 224.339 77.3504 222.041 82.1451 218.786C93.8278 210.857 101.098 197.953 106.776 185.025C109.531 178.754 112.055 172.132 111.788 165.289C111.735 163.9 111.421 162.292 110.184 161.657C110.03 161.578 109.869 161.522 109.706 161.481C104.673 166.451 100.36 172.243 96.0127 177.861C81.2583 196.928 65.0597 214.873 47.6282 231.528Z" fill="#BBE7D4"/>
<path d="M66.1675 250.913C78.0511 250.302 89.9537 251.647 101.704 253.528C111.014 255.017 120.568 256.824 129.86 256.036C129.9 255.821 129.882 255.599 129.772 255.379C129.587 255.006 129.199 254.786 128.833 254.586C125.255 252.644 121.677 250.702 118.1 248.76C114.289 246.691 110.459 244.613 106.38 243.14C96.6944 239.645 86.1026 239.73 75.84 240.578C66.2906 241.367 51.592 243.198 45.7759 252.088C52.524 252.234 59.3879 251.261 66.1675 250.913Z" fill="#BBE7D4"/>
<path d="M36.7156 185.982C37.0838 193.055 38.264 200.075 38.3923 207.157C38.5217 214.332 37.5466 221.522 35.5395 228.412C39.1455 230.064 42.154 223.121 42.883 220.019C46.1545 206.098 46.1682 191.422 42.9209 177.494C42.3855 175.197 40.9222 172.352 38.6101 172.815C38.1388 172.909 37.717 173.148 37.3236 173.43C36.5904 177.54 36.4989 181.803 36.7156 185.982Z" fill="#BBE7D4"/>
<path d="M17.8282 275.838C21.3648 277.128 24.9677 278.192 28.6904 278.733C32.0976 279.229 35.5521 279.283 38.9762 279.646C49.486 280.756 59.454 284.711 69.6893 287.35C77.139 289.268 85.0863 290.441 92.6066 289.338C92.6413 289.158 92.6654 288.974 92.6602 288.788C92.6202 287.498 91.562 286.496 90.5648 285.678C73.7655 271.91 50.9439 265.775 29.5057 269.261C25.644 269.889 19.2052 272.334 17.8282 275.838Z" fill="#BBE7D4"/>
<path d="M1.08673 186.71C0.203108 185.78 -0.917206 184.818 -2.18688 184.995C-2.93691 185.102 -3.5754 185.601 -4.07927 186.166C-4.32437 186.441 -4.54423 186.73 -4.74094 187.032C-1.92072 190.334 0.137875 194.288 1.17718 198.504C2.02398 201.939 2.21122 205.505 2.96651 208.961C3.81752 212.85 5.37648 216.547 6.52519 220.359C9.5053 230.238 9.66835 240.722 8.10729 250.97C11.667 250.19 13.9234 241.647 14.3863 238.718C17.277 220.404 13.8582 200.15 1.08673 186.71Z" fill="#BBE7D4"/>
<path d="M105.917 173.465L105.892 173.723C95.3447 197.251 74.0979 214.194 52.708 228.998C52.525 229.125 52.2736 229.079 52.1463 228.895C52.019 228.711 52.0653 228.461 52.2483 228.333C73.5415 213.597 94.6884 196.74 105.155 173.392C105.247 173.188 105.486 173.098 105.689 173.19L105.917 173.465Z" fill="#8FC9AF"/>
<path d="M109.369 249.951L109.364 250.16C109.3 250.374 109.075 250.496 108.86 250.43C89.3603 244.583 68.1451 245.363 49.1262 252.63C48.918 252.71 48.6844 252.605 48.6045 252.397C48.5287 252.201 48.6287 251.956 48.838 251.875C68.023 244.545 89.4213 243.758 109.092 249.657L109.369 249.951Z" fill="#8FC9AF"/>
<path d="M79.245 283.754L79.2198 284.017C79.1261 284.22 78.8852 284.308 78.6833 284.213C60.1525 275.631 38.8047 272.431 18.5741 275.206C18.3531 275.236 18.1501 275.062 18.1186 274.86C18.0881 274.638 18.2427 274.435 18.4636 274.406C38.8468 271.611 60.3524 274.834 79.022 283.481L79.245 283.754Z" fill="#8FC9AF"/>
<path d="M10.8613 215.116C13.6005 226.664 12.9988 239.01 8.82055 250.162C8.74271 250.37 8.51021 250.477 8.30088 250.398C8.09155 250.319 7.98638 250.083 8.06422 249.879C14.6503 232.294 12.2256 211.698 1.73582 196.128C1.61064 195.946 1.66008 195.692 1.84417 195.567C2.03036 195.442 2.27968 195.491 2.40591 195.677C6.38535 201.585 9.22133 208.208 10.8613 215.116Z" fill="#8FC9AF"/>
<path d="M41.4219 183.047L41.4293 183.094C43.2218 198.463 41.7291 214.395 37.1143 229.165C37.048 229.378 36.8219 229.497 36.6094 229.43C36.3958 229.363 36.279 229.137 36.3443 228.925C40.9243 214.261 42.4065 198.445 40.6266 183.188C40.6003 182.966 40.7603 182.766 40.9812 182.739C41.1873 182.716 41.3746 182.85 41.4219 183.047Z" fill="#8FC9AF"/>
<path d="M66.7134 291.281L66.724 291.357C66.7345 291.58 66.5609 291.768 66.3379 291.778C49.2104 292.521 32.1198 287.41 18.2143 277.384C18.0334 277.253 17.9924 277.002 18.1228 276.821C18.2533 276.64 18.5047 276.599 18.6856 276.729C32.4448 286.649 49.3556 291.707 66.3021 290.97C66.4999 290.962 66.6692 291.096 66.7134 291.281Z" fill="#BBE7D4"/>
<path d="M111.092 260.236L111.092 260.423C111.04 260.64 110.822 260.774 110.604 260.722C90.0221 255.768 68.8583 253.543 47.6988 254.108C47.4758 254.114 47.2917 253.94 47.2843 253.714C47.2791 253.492 47.4548 253.306 47.6778 253.3C68.9067 252.735 90.142 254.966 110.793 259.935C110.947 259.973 111.058 260.093 111.092 260.236Z" fill="#BBE7D4"/>
<path d="M1.63705 219.655C4.05438 229.842 5.73324 240.21 6.64631 250.626C6.6663 250.848 6.50117 251.045 6.28027 251.064C6.05726 251.082 5.85738 250.916 5.8416 250.696C4.51617 235.591 1.57813 220.585 -2.89677 206.094C-2.9662 205.862 -2.84206 205.654 -2.62957 205.589C-2.41603 205.522 -2.18986 205.643 -2.12359 205.855C-0.719269 210.409 0.536733 215.014 1.63705 219.655Z" fill="#BBE7D4"/>
<path d="M30.6028 189.255L30.6133 189.324C30.9205 194.42 31.8693 199.568 32.7876 204.544C34.1225 211.787 35.5048 219.277 34.9304 226.743C34.9136 226.966 34.72 227.132 34.497 227.116C34.274 227.099 34.1089 226.904 34.1257 226.681C34.6916 219.32 33.3199 211.883 31.9934 204.691C31.0698 199.69 30.1168 194.518 29.8065 189.373C29.7928 189.149 29.9621 188.959 30.1851 188.946C30.384 188.933 30.5586 189.067 30.6028 189.255Z" fill="#BBE7D4"/>
<path d="M90.7395 179.795L90.6564 180.148C85.9069 185.827 80.5779 191.226 75.4245 196.448C65.1987 206.809 54.6237 217.523 48.3079 230.764C48.2122 230.965 47.9712 231.051 47.7703 230.955C47.5673 230.859 47.4832 230.615 47.5789 230.416C53.9536 217.053 64.5759 206.289 74.8501 195.88C79.9909 190.67 85.3084 185.283 90.0357 179.63C90.1798 179.459 90.4344 179.436 90.6048 179.579L90.7395 179.795Z" fill="#BBE7D4"/>
<path d="M66.5104 226.279C71.972 224.339 77.3505 222.041 82.1452 218.786C82.1641 218.774 82.1852 218.759 82.2052 218.745C82.1852 218.759 82.1652 218.773 82.1452 218.786C77.3505 222.041 71.972 224.339 66.5104 226.279ZM51.5836 218.72C51.6246 218.664 51.6635 218.61 51.7045 218.555C51.6646 218.609 51.6235 218.665 51.5836 218.72ZM51.7666 218.47C51.7971 218.429 51.8265 218.386 51.8581 218.344C51.8276 218.385 51.7971 218.429 51.7666 218.47ZM51.9549 218.212C51.9738 218.187 51.9928 218.161 52.0117 218.134C51.9928 218.159 51.9728 218.188 51.9549 218.212ZM52.1411 217.958C52.1484 217.949 52.1548 217.938 52.1621 217.929C52.1558 217.939 52.1484 217.949 52.1411 217.958ZM82.223 218.734C82.2367 218.724 82.2525 218.713 82.2672 218.704C82.2514 218.714 82.2378 218.723 82.223 218.734ZM82.3745 218.631C82.3766 218.628 82.3819 218.625 82.384 218.623C82.3808 218.626 82.3777 218.627 82.3745 218.631Z" fill="#C0C59E"/>
<path d="M47.3021 231.6C47.4315 231.02 47.5535 230.429 47.6745 229.835C48.4456 226.047 49.164 222.046 51.3899 218.985C51.4425 218.914 51.4951 218.842 51.5466 218.769C51.5593 218.753 51.5708 218.737 51.5835 218.72C51.6234 218.665 51.6645 218.61 51.7044 218.555C51.7244 218.526 51.7465 218.498 51.7665 218.47C51.797 218.429 51.8275 218.385 51.858 218.344C51.8896 218.3 51.9232 218.256 51.9548 218.212C51.9727 218.188 51.9927 218.159 52.0116 218.134C52.0547 218.076 52.0968 218.017 52.141 217.958C52.1483 217.949 52.1557 217.939 52.162 217.929C58.4873 209.315 65.2838 201.048 72.5032 193.166C71.2387 196.128 69.9964 199.099 68.7814 202.082C60.5627 210.624 52.7006 219.681 47.5788 230.416C47.503 230.574 47.5399 230.758 47.6577 230.876C47.6892 230.908 47.7271 230.935 47.7702 230.955C47.9711 231.051 48.2121 230.965 48.3078 230.765C53.0867 220.747 60.3018 212.177 67.9599 204.111C67.5622 205.095 67.1688 206.082 66.7775 207.069C66.0243 208.971 65.2711 210.927 65.2301 212.971C65.2238 213.245 65.2343 213.52 65.2585 213.795C59.535 219.855 53.6547 225.769 47.6282 231.528C54.0334 230.219 60.3502 228.467 66.5103 226.279C61.5389 228.044 56.4665 229.53 51.3278 230.726C49.9898 231.037 48.6475 231.327 47.3021 231.6Z" fill="#9AD1B8"/>
<path d="M47.6282 231.528C53.6547 225.769 59.535 219.855 65.2585 213.795C65.3889 215.211 65.9275 216.612 66.9027 217.587C66.9216 217.606 66.9405 217.625 66.9595 217.644C62.1532 221.358 57.2039 224.904 52.2483 228.332C52.0652 228.461 52.0189 228.711 52.1462 228.895C52.1599 228.915 52.1757 228.935 52.1925 228.952C52.3282 229.088 52.5449 229.111 52.708 228.998C57.7278 225.523 62.7402 221.93 67.6074 218.163C67.6558 218.195 67.7053 218.225 67.7547 218.256C69.8986 219.546 72.6451 218.81 74.993 217.944C81.2099 215.65 87.1638 212.65 92.7243 209.046C89.7011 212.669 86.296 215.931 82.3839 218.623C82.3818 218.625 82.3765 218.628 82.3744 218.63C82.3618 218.639 82.3492 218.647 82.3376 218.655C82.3229 218.665 82.3081 218.676 82.2945 218.685C82.2839 218.691 82.2755 218.698 82.2671 218.704C82.2524 218.712 82.2366 218.724 82.2229 218.734C82.2166 218.738 82.2103 218.742 82.2051 218.745C82.1851 218.759 82.164 218.774 82.1451 218.786C77.3504 222.041 71.9719 224.339 66.5103 226.279C60.3502 228.467 54.0334 230.218 47.6282 231.528Z" fill="#9AD1B8"/>
<path d="M52.1925 228.952C52.1756 228.935 52.1599 228.915 52.1462 228.895C52.0189 228.711 52.0652 228.461 52.2482 228.333C57.2039 224.904 62.1532 221.358 66.9594 217.644C67.1582 217.836 67.3739 218.01 67.6074 218.164C62.7401 221.93 57.7277 225.523 52.7079 228.998C52.5449 229.111 52.3282 229.088 52.1925 228.952Z" fill="#9AD1B8"/>
<path d="M47.6578 230.876C47.54 230.758 47.5032 230.574 47.5789 230.416C52.7008 219.681 60.5629 210.624 68.7816 202.082C68.506 202.757 68.2314 203.433 67.96 204.111C60.302 212.177 53.0868 220.747 48.3079 230.765C48.2122 230.966 47.9713 231.051 47.7704 230.955C47.7272 230.935 47.6894 230.908 47.6578 230.876Z" fill="#9AD1B8"/>
<path d="M45.5076 252.495C46.1672 251.413 46.9551 250.429 47.8482 249.538C54.5784 242.825 67.2794 241.285 75.84 240.578C66.2906 241.367 51.592 243.198 45.7759 252.088C46.7216 252.108 47.6683 252.106 48.6161 252.088C48.574 252.185 48.5666 252.297 48.6045 252.396C48.6266 252.452 48.6571 252.499 48.696 252.538C48.8054 252.648 48.9727 252.689 49.1263 252.63C49.6743 252.42 50.2224 252.217 50.7747 252.018C55.4273 251.813 60.1126 251.285 64.7642 250.993C64.7642 251.033 64.7653 251.074 64.7674 251.114C64.8189 251.99 65.2555 252.723 65.8751 253.343C65.9308 253.399 65.9887 253.454 66.0465 253.508C59.9327 253.207 53.8052 253.137 47.6778 253.3C47.4548 253.306 47.2791 253.492 47.2843 253.714C47.2885 253.824 47.3327 253.92 47.4032 253.991C47.4779 254.066 47.5842 254.111 47.6988 254.108C54.205 253.934 60.7101 254.024 67.1984 254.376C67.5592 254.604 67.9305 254.811 68.2945 255.001C76.9276 259.489 86.2867 262.068 95.9065 263.644C85.5461 263.218 75.3129 261.211 65.1366 259.196C59.0638 257.993 50.1256 256.968 45.5076 252.495Z" fill="#9AD1B8"/>
<path d="M45.7759 252.088C51.592 243.198 66.2906 241.367 75.84 240.578C79.1988 240.301 82.5913 240.109 85.9774 240.093C79.7132 241.459 73.6825 243.541 68.1178 246.794C68.1083 246.799 68.0989 246.804 68.0894 246.81C61.5296 247.805 55.0665 249.496 48.8381 251.875C48.735 251.915 48.6593 251.995 48.6161 252.088C47.6683 252.106 46.7216 252.108 45.7759 252.088ZM50.7747 252.019C55.9028 250.173 61.1824 248.791 66.5336 247.879C65.5258 248.712 64.7432 249.748 64.7642 250.993C60.1126 251.285 55.4274 251.814 50.7747 252.019Z" fill="#9AD1B8"/>
<path d="M48.6961 252.538C48.6572 252.5 48.6267 252.452 48.6046 252.396C48.5667 252.298 48.5741 252.185 48.6162 252.088C48.6593 251.995 48.735 251.915 48.8381 251.875C55.0666 249.496 61.5296 247.805 68.0895 246.81C67.5614 247.119 67.0217 247.476 66.5336 247.879C61.1825 248.791 55.9029 250.173 50.7747 252.019C50.2225 252.218 49.6744 252.421 49.1264 252.63C48.9728 252.689 48.8055 252.648 48.6961 252.538Z" fill="#9AD1B8"/>
<path d="M47.4031 253.991C47.3326 253.921 47.2884 253.824 47.2842 253.715C47.2789 253.493 47.4546 253.306 47.6776 253.3C53.8051 253.137 59.9326 253.207 66.0464 253.508C66.3935 253.828 66.789 254.116 67.1982 254.376C60.71 254.025 54.2048 253.934 47.6987 254.108C47.584 254.111 47.4777 254.066 47.4031 253.991Z" fill="#9AD1B8"/>
<path d="M34.3182 227.532C34.0815 227.295 33.8427 227.017 33.6019 226.696C31.9629 224.499 32.3416 219.244 31.9208 216.559C31.3475 212.883 30.6775 209.221 29.9138 205.579C29.0081 201.255 27.9761 196.893 28.0129 192.488C28.9797 195.317 30.0726 198.101 31.2907 200.83C31.5201 202.126 31.7578 203.413 31.9935 204.69C33.3199 211.882 34.6916 219.32 34.1257 226.681C34.1162 226.804 34.1636 226.919 34.2435 226.999C34.3087 227.064 34.3971 227.108 34.497 227.115C34.7201 227.132 34.9136 226.966 34.9304 226.743C35.5048 219.277 34.1225 211.787 32.7876 204.544C32.7361 204.265 32.6845 203.987 32.633 203.706C33.5713 205.635 34.5738 207.534 35.6405 209.396C36.0623 210.133 36.5651 210.907 37.17 211.512C37.5108 211.853 37.8843 212.14 38.2935 212.337C37.9916 217.776 37.0627 223.18 35.5395 228.412C35.8403 228.549 36.1359 228.628 36.4284 228.653C36.4273 228.654 36.4263 228.658 36.4263 228.66C35.9624 228.619 35.4858 228.445 34.9998 228.108C34.7747 227.953 34.5475 227.761 34.3182 227.532Z" fill="#9AD1B8"/>
<path d="M35.5395 228.412C37.0627 223.18 37.9915 217.776 38.2934 212.337C38.6574 212.512 39.0498 212.614 39.4726 212.62C39.6872 212.622 39.8976 212.599 40.1038 212.553C39.2801 218.013 38.0525 223.406 36.4284 228.653C36.1359 228.628 35.8403 228.549 35.5395 228.412Z" fill="#9AD1B8"/>
<path d="M42.8832 220.019C42.8937 219.971 42.9043 219.924 42.9158 219.877C42.9053 219.923 42.8948 219.972 42.8832 220.019ZM42.9643 219.671C42.9664 219.66 42.9696 219.646 42.9727 219.635C42.9696 219.646 42.9664 219.658 42.9643 219.671Z" fill="#C0C59E"/>
<path d="M37.2952 228.584C37.2952 228.582 37.2962 228.579 37.2962 228.577C40.0575 227.85 42.2234 222.726 42.8609 220.113C42.3739 222.108 40.9958 225.573 39.1413 227.422C38.5669 227.994 37.9473 228.411 37.2952 228.584ZM42.8609 220.109C42.8619 220.103 42.864 220.099 42.864 220.095C42.864 220.099 42.863 220.104 42.8609 220.109ZM42.883 220.019C42.8935 219.971 42.9051 219.923 42.9156 219.875C42.9166 219.876 42.9166 219.876 42.9156 219.877C42.904 219.924 42.8935 219.971 42.883 220.019ZM42.9272 219.828C42.9345 219.795 42.9419 219.762 42.9503 219.729C42.9493 219.732 42.9493 219.734 42.9482 219.737C42.9419 219.767 42.9345 219.795 42.9282 219.825C42.9272 219.826 42.9272 219.828 42.9272 219.828ZM42.9619 219.675C42.9713 219.634 42.9819 219.592 42.9913 219.551C42.984 219.579 42.9787 219.608 42.9724 219.635C42.9692 219.647 42.9661 219.66 42.964 219.671C42.9629 219.672 42.9629 219.674 42.9619 219.675Z" fill="#9AD1B8"/>
<path d="M37.2963 228.576C38.9288 223.245 40.1554 217.767 40.9696 212.221C41.3809 211.999 41.7606 211.699 42.0878 211.366C43.3869 210.05 44.0496 208.249 44.6282 206.492C44.8081 205.946 44.9659 205.395 45.1363 204.846C44.8144 209.752 44.1127 214.632 43.0198 219.426C43.0177 219.434 43.0156 219.445 43.0135 219.453C43.0061 219.486 42.9987 219.518 42.9914 219.551C42.9819 219.592 42.9714 219.634 42.9619 219.675C42.9588 219.693 42.9546 219.712 42.9504 219.729C42.9419 219.762 42.9346 219.795 42.9272 219.827C42.9241 219.843 42.9209 219.859 42.9156 219.875C42.9051 219.923 42.8935 219.97 42.883 220.019C42.8809 220.025 42.8788 220.031 42.8788 220.038C42.8778 220.041 42.8767 220.044 42.8757 220.047C42.8746 220.05 42.8736 220.054 42.8736 220.056C42.8725 220.061 42.8715 220.064 42.8715 220.068C42.8704 220.071 42.8694 220.073 42.8694 220.075C42.8683 220.08 42.8662 220.084 42.8662 220.088C42.8662 220.09 42.8651 220.091 42.8641 220.095C42.8641 220.099 42.862 220.103 42.8609 220.108C42.8609 220.11 42.861 220.11 42.861 220.112C42.2235 222.725 40.0576 227.849 37.2963 228.576Z" fill="#9AD1B8"/>
<path d="M36.4263 228.66C36.4263 228.658 36.4274 228.654 36.4284 228.653C38.0526 223.406 39.2802 218.013 40.1039 212.552C40.4047 212.485 40.694 212.371 40.9696 212.221C40.1554 217.767 38.9289 223.245 37.2963 228.577C37.2963 228.579 37.2952 228.582 37.2952 228.584C37.0112 228.658 36.7219 228.686 36.4263 228.66Z" fill="#9AD1B8"/>
<path d="M34.2436 226.999C34.1637 226.919 34.1164 226.804 34.1258 226.681C34.6918 219.319 33.32 211.882 31.9936 204.69C31.7579 203.413 31.5202 202.126 31.2909 200.83C31.7232 201.796 32.1703 202.755 32.6331 203.706C32.6847 203.987 32.7362 204.265 32.7877 204.544C34.1226 211.787 35.5049 219.276 34.9305 226.743C34.9137 226.966 34.7202 227.132 34.4972 227.115C34.3972 227.108 34.3088 227.064 34.2436 226.999Z" fill="#9AD1B8"/>
<path d="M23.636 284.144C22.9869 282.672 22.3316 281.2 21.672 279.735C30.2347 285.215 39.8293 288.932 49.7995 290.687C54.1092 292.916 58.6052 294.817 63.179 296.549C55.2558 296.113 47.3916 294.523 39.9272 291.843C39.924 291.842 39.9229 291.84 39.9208 291.84C39.8945 291.831 39.8672 291.821 39.8409 291.811C39.8377 291.81 39.8356 291.81 39.8325 291.809C39.8041 291.797 39.7746 291.787 39.7462 291.777C34.4887 289.876 28.5516 287.429 23.636 284.144ZM21.0567 278.371C20.8042 277.809 20.5517 277.253 20.2961 276.695C23.0395 277.593 25.8303 278.318 28.6905 278.733C30.8722 279.051 33.0728 279.188 35.2734 279.339C35.3103 279.515 35.3565 279.688 35.4134 279.86C35.7352 280.828 36.339 281.646 37.0638 282.371C37.6424 282.95 38.2988 283.469 38.9489 283.957C41.6428 285.974 44.4715 287.772 47.398 289.4C38.0379 287.422 29.0681 283.689 21.0567 278.371Z" fill="#9AD1B8"/>
<path d="M20.296 276.695C20.0509 276.155 19.8037 275.613 19.5565 275.076C25.1717 274.361 30.8669 274.104 36.5609 274.292C35.4964 275.742 34.9073 277.608 35.2734 279.339C33.0727 279.188 30.8721 279.051 28.6904 278.733C25.8302 278.318 23.0395 277.593 20.296 276.695Z" fill="#9AD1B8"/>
<path d="M19.0642 274.007C21.4941 271.497 26.334 269.782 29.4814 269.266C26.8926 269.69 23.1562 270.927 20.561 272.75C20.56 272.749 20.5589 272.75 20.5579 272.751C20.5432 272.762 20.5284 272.772 20.5137 272.783C20.5127 272.784 20.5116 272.785 20.5095 272.785C20.5064 272.788 20.5011 272.791 20.4979 272.794C20.4948 272.795 20.4927 272.798 20.4916 272.799C20.4843 272.804 20.4769 272.809 20.4695 272.814C20.4674 272.817 20.4643 272.818 20.4622 272.82C20.458 272.822 20.4559 272.824 20.4527 272.827C20.4485 272.829 20.4464 272.831 20.4422 272.833C20.439 272.836 20.4359 272.838 20.4327 272.841C20.4264 272.845 20.4212 272.848 20.4159 272.853C20.4127 272.854 20.4117 272.855 20.4096 272.858C20.4043 272.861 20.4001 272.865 20.3938 272.869C20.3928 272.87 20.3896 272.871 20.3885 272.872C20.3749 272.882 20.3622 272.892 20.3486 272.902C20.3475 272.903 20.3454 272.905 20.3433 272.905C20.338 272.91 20.3317 272.914 20.3265 272.917C20.3254 272.919 20.3244 272.92 20.3244 272.92C20.317 272.925 20.3096 272.93 20.3023 272.935C20.3023 272.935 20.3023 272.935 20.3012 272.936C20.2949 272.941 20.2876 272.946 20.2823 272.951C20.2812 272.952 20.2813 272.952 20.2792 272.952C20.2665 272.963 20.2518 272.973 20.2371 272.984C20.236 272.985 20.236 272.985 20.236 272.985C20.2287 272.99 20.2234 272.995 20.216 273.001L20.215 273.002C19.7911 273.32 19.404 273.655 19.0642 274.007ZM29.4824 269.265C29.4898 269.264 29.4982 269.262 29.5056 269.261C29.4972 269.263 29.4898 269.264 29.4824 269.265Z" fill="#C0C59E"/>
<path d="M19.202 274.307C19.1568 274.207 19.1095 274.105 19.0642 274.007C19.404 273.655 19.7911 273.32 20.215 273.001L20.2161 273C20.2224 272.996 20.2287 272.99 20.2361 272.985C20.2361 272.985 20.2361 272.985 20.2371 272.984C20.2518 272.973 20.2666 272.963 20.2792 272.952C20.2813 272.952 20.2813 272.952 20.2823 272.951C20.2876 272.946 20.295 272.94 20.3013 272.936C20.3023 272.935 20.3023 272.935 20.3023 272.935C20.3097 272.93 20.317 272.925 20.3244 272.919C20.3244 272.919 20.3255 272.918 20.3265 272.917C20.3318 272.914 20.3381 272.91 20.3433 272.905C20.3454 272.905 20.3475 272.903 20.3486 272.902C20.3623 272.892 20.3749 272.882 20.3886 272.872C20.3896 272.871 20.3928 272.87 20.3938 272.869C20.4002 272.865 20.4044 272.86 20.4096 272.857C20.4117 272.855 20.4128 272.854 20.4159 272.853C20.4212 272.848 20.4264 272.845 20.4328 272.841C20.4359 272.837 20.4391 272.836 20.4422 272.833C20.4464 272.831 20.4486 272.829 20.4528 272.827C20.4559 272.824 20.458 272.822 20.4622 272.819C20.4643 272.817 20.4675 272.816 20.4696 272.814C20.4769 272.809 20.4843 272.804 20.4917 272.798C20.4927 272.797 20.4948 272.795 20.498 272.794C20.5011 272.791 20.5064 272.788 20.5095 272.785C20.5116 272.785 20.5127 272.784 20.5138 272.783C20.5285 272.772 20.5432 272.762 20.5579 272.751C20.559 272.75 20.56 272.749 20.5611 272.75C23.1562 270.927 26.8926 269.69 29.4814 269.266C29.4825 269.265 29.4825 269.265 29.4825 269.265C29.4898 269.264 29.4972 269.263 29.5056 269.261C34.9893 268.37 40.5614 268.112 46.1008 268.444C44.6639 269.002 43.2501 269.618 41.8731 270.31C40.1827 271.158 38.5049 272.134 37.2163 273.506C31.1866 273.273 25.1475 273.535 19.202 274.307Z" fill="#9AD1B8"/>
<path d="M19.5565 275.076C19.4377 274.818 19.3209 274.564 19.202 274.307C25.1475 273.535 31.1866 273.273 37.2163 273.506C37.0743 273.659 36.9354 273.817 36.8029 273.979C36.7198 274.081 36.6388 274.185 36.5609 274.292C30.8668 274.104 25.1717 274.36 19.5565 275.076Z" fill="#9AD1B8"/>
<path d="M11.0811 248.322C12.8904 245.387 14.037 240.853 14.3715 238.806C14.3726 238.805 14.3726 238.805 14.3726 238.805C14.3736 238.8 14.3736 238.794 14.3747 238.789C14.3747 238.789 14.3757 238.787 14.3747 238.786C14.3757 238.781 14.3768 238.776 14.3779 238.771L14.3779 238.769C14.3789 238.763 14.3789 238.759 14.381 238.755C14.3799 238.754 14.381 238.753 14.381 238.751C14.382 238.747 14.3831 238.742 14.3831 238.738L14.3831 238.736C14.0633 240.747 12.9115 245.354 11.0811 248.322ZM14.3831 238.734L14.3841 238.733C14.3841 238.731 14.3841 238.731 14.3841 238.729C14.3841 238.731 14.3841 238.733 14.3831 238.734ZM14.421 238.494C14.4262 238.463 14.4305 238.43 14.4368 238.398C14.4315 238.431 14.4262 238.461 14.421 238.494ZM14.4904 238.04C14.4925 238.023 14.4946 238.008 14.4978 237.99C14.4957 238.007 14.4936 238.024 14.4904 238.04ZM14.5051 237.939C14.5072 237.928 14.5083 237.916 14.5104 237.904C14.5083 237.916 14.5062 237.927 14.5051 237.939Z" fill="#C0C59E"/>
<path d="M7.88112 251.013C7.39619 250.067 6.9081 249.125 6.4179 248.18C5.99292 243.901 5.43961 239.632 4.75796 235.38C5.94874 236.369 7.63709 236.881 9.04772 236.289C9.18131 240.517 8.93621 244.772 8.38711 248.996C8.28191 249.291 8.17464 249.585 8.06418 249.879C8.00633 250.029 8.04839 250.196 8.15779 250.305C8.17147 250.319 8.18513 250.332 8.20091 250.344C8.17041 250.551 8.13886 250.762 8.1073 250.97C11.6323 250.197 13.8792 241.815 14.3715 238.806C14.037 240.853 12.8904 245.387 11.0811 248.322C10.7014 248.94 10.2922 249.486 9.85457 249.923C9.24866 250.529 8.58907 250.926 7.88112 251.013ZM14.381 238.751C14.381 238.746 14.3831 238.742 14.3831 238.738C14.3831 238.742 14.382 238.747 14.381 238.751ZM14.3841 238.733C14.3852 238.727 14.3852 238.723 14.3863 238.718C14.3852 238.721 14.3852 238.725 14.3841 238.729C14.3841 238.731 14.3841 238.731 14.3841 238.733Z" fill="#9AD1B8"/>
<path d="M8.1073 250.97C8.13885 250.762 8.1704 250.551 8.20091 250.344C8.23036 250.365 8.26402 250.384 8.30084 250.398C8.51017 250.476 8.74266 250.37 8.82051 250.162C11.2231 243.747 12.4433 236.939 12.5243 230.113C13.6478 226.198 14.4262 222.184 14.8575 218.134C15.6244 224.693 15.4655 231.411 14.5104 237.904C14.5083 237.916 14.5072 237.928 14.5051 237.939C14.503 237.955 14.4999 237.973 14.4978 237.99C14.4946 238.008 14.4925 238.023 14.4904 238.04C14.4883 238.054 14.4862 238.069 14.4841 238.084C14.4799 238.111 14.4757 238.141 14.4715 238.168C14.4694 238.183 14.4662 238.196 14.4652 238.21C14.461 238.229 14.4588 238.248 14.4567 238.267C14.4546 238.279 14.4525 238.292 14.4504 238.305C14.4462 238.332 14.442 238.357 14.4378 238.385C14.4378 238.389 14.4368 238.394 14.4368 238.398C14.4304 238.43 14.4262 238.463 14.421 238.494C14.4199 238.503 14.4178 238.512 14.4178 238.52C14.4136 238.546 14.4094 238.571 14.4062 238.595C14.4041 238.603 14.4031 238.613 14.401 238.621C14.3957 238.654 14.3915 238.685 14.3863 238.718C14.3852 238.723 14.3852 238.728 14.3841 238.733L14.3831 238.734C14.3841 238.735 14.3831 238.736 14.3831 238.736L14.3831 238.738C14.3831 238.742 14.381 238.746 14.381 238.751C14.381 238.753 14.3799 238.754 14.381 238.755C14.3789 238.759 14.3789 238.763 14.3778 238.769L14.3778 238.771C14.3768 238.776 14.3757 238.781 14.3747 238.786C14.3757 238.787 14.3747 238.789 14.3747 238.789C14.3736 238.794 14.3736 238.8 14.3726 238.805C14.3726 238.805 14.3726 238.805 14.3715 238.806C13.8792 241.815 11.6323 250.197 8.1073 250.97ZM8.3871 248.996C8.93621 244.772 9.18131 240.517 9.04771 236.289C9.08137 236.274 9.11503 236.26 9.14869 236.243C10.4163 235.657 11.1179 234.352 11.6134 233.01C11.2852 238.451 10.2185 243.845 8.3871 248.996Z" fill="#9AD1B8"/>
<path d="M5.40382 246.24C3.51035 242.634 1.58114 239.051 -0.390174 235.488C-1.48733 232.385 -2.50141 229.255 -3.43026 226.098C-3.43762 226.07 -3.44604 226.042 -3.45445 226.015C-3.45445 226.011 -3.45653 226.007 -3.45758 226.001C-3.466 225.974 -3.47441 225.947 -3.48178 225.918C-3.48283 225.917 -3.48388 225.914 -3.48388 225.912C-4.60839 222.067 -5.5951 218.124 -5.66874 214.135C-3.33241 219.857 -0.70471 225.485 1.91354 231.061C2.44792 232.201 3.00122 233.365 3.77228 234.348C4.42658 238.297 4.97148 242.263 5.40382 246.24Z" fill="#9AD1B8"/>
<path d="M8.15795 250.305C8.04855 250.196 8.00649 250.029 8.06434 249.879C8.1748 249.585 8.28207 249.291 8.38727 248.996C10.2187 243.845 11.2853 238.451 11.6135 233.01C11.7114 232.746 11.8008 232.48 11.885 232.217C12.109 231.52 12.3225 230.818 12.5245 230.113C12.4435 236.939 11.2233 243.747 8.82067 250.162C8.74283 250.37 8.51034 250.476 8.301 250.397C8.26418 250.384 8.23053 250.365 8.20107 250.344C8.1853 250.332 8.17163 250.319 8.15795 250.305Z" fill="#9AD1B8"/>
<path d="M6.4179 248.18C6.08023 247.533 5.7436 246.888 5.40383 246.241C4.97149 242.263 4.42659 238.297 3.77229 234.349C3.95532 234.582 4.14994 234.806 4.36138 235.018C4.42975 235.086 4.50131 235.153 4.57389 235.22C4.63385 235.275 4.69589 235.329 4.75796 235.381C5.4396 239.632 5.99292 243.901 6.4179 248.18Z" fill="#9AD1B8"/>
</g>
</svg>
