<svg width="276" height="335" viewBox="0 0 276 335" fill="none" xmlns="http://www.w3.org/2000/svg">
<path d="M101.631 292.142C95.8776 292.142 90.089 291.824 84.3467 291.15C83.6116 290.355 82.8634 289.564 82.1042 288.777C91.3524 288.997 99.3101 289.073 99.3101 289.073L99.3172 288.892C99.8585 288.861 100.521 288.821 101.299 288.772C103.653 288.697 106.802 288.577 110.553 288.393C111.506 289.482 112.441 290.589 113.356 291.71C109.801 291.975 106.236 292.114 102.678 292.139C102.329 292.141 101.981 292.142 101.631 292.142ZM115.076 291.572C114.185 290.466 113.276 289.376 112.35 288.3C121.03 287.845 132.494 287.051 144.665 285.68C144.63 285.717 144.597 285.756 144.563 285.793C135.03 288.849 125.093 290.712 115.076 291.572ZM55.5947 284.353C48.5508 281.715 41.8133 278.351 35.5547 274.169C31.858 269.755 27.3539 266.016 22.3296 263.2C7.83414 248.295 -1.01841 227.701 1.2944 207.171C4.07219 182.52 22.3336 161.511 44.4374 150.247C54.5985 145.068 65.7518 141.535 74.7028 134.468C82.1162 128.614 87.5713 120.673 92.5354 112.637C95.6516 107.592 98.6212 102.457 101.442 97.24C101.386 97.8656 101.345 98.5124 101.32 99.1802C101.269 100.475 101.264 101.681 101.3 102.809C101.254 104.519 101.336 106.813 101.921 108.558C104.114 119.262 111.273 118.854 113.603 120.241C113.716 120.307 113.345 132.298 113.082 140.37C112.604 140.843 109.583 141.883 106.365 142.896C105.864 142.543 105.57 142.176 105.519 141.798C102.277 143.395 94.1743 144.08 89.852 145.761C91.9851 155.965 90.8964 169.004 91.0089 178.577C90.4917 178.408 89.9625 178.311 89.4232 178.309C89.4192 178.309 89.4142 178.309 89.4101 178.309C89.4101 178.309 89.4091 178.309 89.4081 178.309C89.1591 178.309 88.908 178.33 88.6549 178.374H88.6539C88.6368 178.377 88.6208 178.38 88.6047 178.383C85.5086 178.958 84.1649 182.591 84.1669 185.814C84.1669 186.05 84.1749 186.285 84.189 186.515C84.5676 192.53 87.5844 198.088 91.2489 202.873C91.3082 202.951 91.3684 203.03 91.4287 203.107C91.4317 203.111 91.4347 203.115 91.4387 203.12C91.4498 203.134 91.4608 203.148 91.4719 203.162C91.4829 203.177 91.4949 203.192 91.506 203.207C91.508 203.21 91.511 203.213 91.514 203.216C91.6677 203.415 91.8243 203.614 91.981 203.811C92.0443 211.407 91.9278 217.431 91.9278 217.431C91.9278 217.431 94.6001 217.489 98.818 217.589C97.7937 217.608 97.0716 217.622 96.705 217.622C96.5273 217.622 96.4329 217.619 96.4299 217.611C86.778 226.464 80.7986 243.64 77.3861 257.187C69.3722 251.256 61.1764 245.567 53.0901 239.735L54.1255 239.555C54.1235 239.544 54.1215 239.532 54.1194 239.521C53.0459 232.914 50.6276 226.435 46.462 221.198C42.2883 215.952 36.2627 212.037 29.6236 211.107C28.9537 211.013 28.2598 210.959 27.5638 210.959C25.0472 210.959 22.5134 211.653 21.0643 213.609C21.0633 213.609 21.0633 213.61 21.0633 213.61C21.0592 213.615 21.0552 213.62 21.0512 213.625C21.0502 213.627 21.0482 213.629 21.0472 213.632C21.0442 213.636 21.0402 213.64 21.0371 213.644C21.0351 213.648 21.0321 213.651 21.0301 213.655C21.0271 213.658 21.0251 213.662 21.0221 213.665C21.0191 213.669 21.0161 213.674 21.013 213.678C21.011 213.681 21.009 213.684 21.007 213.687C21.002 213.694 20.997 213.701 20.991 213.708C20.2036 214.823 19.8923 216.158 19.8923 217.531C19.8913 218.686 20.1102 219.868 20.4496 220.966C22.3206 227.026 27.3399 231.713 32.9888 234.598C38.6237 237.475 44.9044 238.795 51.1037 240.065C55.7705 243.445 60.4774 246.77 65.1703 250.115C66.5532 251.102 67.9371 252.091 69.3189 253.083C65.6634 252.237 61.9727 251.447 58.2249 251.408C58.1335 251.407 58.0421 251.407 57.9507 251.407C53.9788 251.407 49.9056 252.33 46.7311 254.709C46.1336 255.158 45.5371 255.713 45.4075 256.448C45.3894 256.549 45.3814 256.649 45.3814 256.748C45.3814 257.359 45.6917 257.957 46.0663 258.455C47.5827 260.472 50.1888 261.455 52.7115 261.514C52.7567 261.515 52.8019 261.516 52.8471 261.516C52.8933 261.517 52.9384 261.517 52.9836 261.517C55.4119 261.517 57.79 260.781 60.0587 259.9C63.2452 258.666 66.4899 256.975 68.2203 254.03L69.82 253.443C72.2282 255.176 74.6294 256.92 77.0146 258.688C74.5451 268.849 73.5599 276.617 73.5599 276.617L74.9608 276.651C73.817 277.279 72.5466 277.888 71.214 278.471C69.9104 277.342 68.6451 276.282 67.447 275.313C65.5178 273.755 63.3385 272.222 61.0328 271.379H61.0318C61.0197 271.375 61.0087 271.371 60.9956 271.365C60.9946 271.365 60.9926 271.364 60.9916 271.363C60.9806 271.359 60.9695 271.356 60.9585 271.352C60.9565 271.351 60.9524 271.35 60.9504 271.349C60.9404 271.345 60.9313 271.342 60.9213 271.338C60.9133 271.336 60.9053 271.333 60.8972 271.33C60.8912 271.328 60.8841 271.325 60.8781 271.323C60.8671 271.319 60.855 271.315 60.844 271.311C60.842 271.311 60.84 271.31 60.839 271.31C60.8269 271.306 60.8159 271.302 60.8038 271.298C60.8018 271.297 60.7998 271.296 60.7978 271.295C60.7857 271.291 60.7747 271.288 60.7626 271.284C60.7616 271.283 60.7606 271.283 60.7596 271.282C60.7476 271.278 60.7345 271.274 60.7225 271.27C60.7215 271.27 60.7205 271.269 60.7195 271.269C60.7064 271.265 60.6943 271.26 60.6813 271.256H60.6803C59.6519 270.914 58.6005 270.714 57.5359 270.714C56.9625 270.714 56.3871 270.771 55.8076 270.896C54.6527 271.146 53.4687 271.748 52.9997 272.833C52.824 273.241 52.7637 273.681 52.7637 274.127C52.7627 274.497 52.8029 274.871 52.8501 275.236C52.8531 275.252 52.8551 275.269 52.8571 275.285C52.8581 275.289 52.8581 275.293 52.8591 275.298C52.8601 275.309 52.8621 275.321 52.8631 275.333C52.8642 275.339 52.8651 275.345 52.8661 275.351C52.8671 275.36 52.8681 275.37 52.8702 275.38C52.8712 275.388 52.8721 275.396 52.8731 275.404C52.8742 275.41 52.8752 275.416 52.8752 275.422C53.303 278.518 54.2279 281.543 55.5947 284.353ZM60.8992 243.824L62.738 244.293C64.5195 241.262 66.7309 238.501 68.4854 235.455C70.0741 232.695 71.2943 229.597 71.2933 226.434C71.2933 226.107 71.2792 225.779 71.2521 225.451C70.9358 221.644 68.619 218.058 65.2768 216.209C64.4894 215.772 63.6217 215.421 62.7229 215.421C62.6878 215.421 62.6516 215.421 62.6165 215.422C61.0528 215.47 59.7172 216.593 58.7983 217.86C55.7393 222.079 56.1019 227.844 57.1734 232.945C57.9638 236.708 59.0795 240.435 60.8992 243.824ZM57.0087 198.02C55.7765 198.02 54.7783 199.02 54.7783 200.252C54.7783 201.484 55.7765 202.482 57.0087 202.482C58.2399 202.482 59.2392 201.484 59.2392 200.252C59.2392 199.02 58.2399 198.02 57.0087 198.02ZM217.19 259.777C217.64 258.555 217.892 257.284 217.928 255.958C218.15 247.69 214.361 242.36 208.727 238.979C213.22 237.955 217.65 236.686 221.74 234.598C227.389 231.713 232.408 227.026 234.281 220.966C234.619 219.868 234.838 218.686 234.838 217.531C234.837 216.158 234.526 214.823 233.738 213.708C233.732 213.701 233.727 213.693 233.721 213.685C233.721 213.684 233.72 213.683 233.719 213.682C233.715 213.676 233.71 213.669 233.705 213.662C233.704 213.661 233.703 213.66 233.703 213.659C233.698 213.653 233.693 213.646 233.688 213.639C233.687 213.638 233.687 213.638 233.686 213.637C233.664 213.605 233.641 213.575 233.619 213.545C233.618 213.544 233.617 213.543 233.616 213.542C233.612 213.536 233.607 213.53 233.603 213.525C233.601 213.522 233.599 213.52 233.598 213.518C233.594 213.513 233.591 213.509 233.587 213.505C233.585 213.502 233.582 213.498 233.58 213.495C233.578 213.492 233.576 213.49 233.574 213.487C232.11 211.624 229.63 210.959 227.165 210.959C226.469 210.959 225.775 211.013 225.106 211.107C218.467 212.037 212.441 215.952 208.267 221.198C204.881 225.455 202.649 230.533 201.356 235.834C199.985 235.427 198.572 235.085 197.138 234.799C197.287 234.183 197.426 233.564 197.556 232.945C198.628 227.844 198.99 222.079 195.93 217.86C195.012 216.593 193.676 215.47 192.113 215.422C192.078 215.421 192.041 215.421 192.006 215.421C191.108 215.421 190.24 215.772 189.451 216.209C186.11 218.058 183.792 221.644 183.477 225.451C183.45 225.779 183.437 226.107 183.436 226.434C183.435 228.885 184.167 231.297 185.237 233.543C184.281 233.515 183.335 233.502 182.41 233.502C174.275 233.502 167.491 234.472 165.759 234.719C162.96 235.119 159.46 235.976 155.526 237.148C152.582 230.133 149.227 223.65 145.559 219.063C146.65 219.119 147.627 219.176 148.472 219.231C151.276 210.689 154.175 200.187 156.377 189.591C158.272 187.488 159.905 185.148 161.213 182.637C161.215 182.634 161.217 182.63 161.219 182.626C161.228 182.609 161.237 182.591 161.247 182.573C161.332 182.406 161.418 182.239 161.501 182.071C162.743 179.568 163.678 176.817 163.682 174.047C163.683 173.534 163.652 173.02 163.585 172.507C163.584 172.499 163.583 172.49 163.582 172.482C163.578 172.455 163.575 172.429 163.571 172.402C163.303 170.596 162.182 168.592 160.378 168.587C160.376 168.587 160.373 168.587 160.371 168.587C160.364 168.587 160.356 168.587 160.349 168.587C160.098 168.59 159.858 168.63 159.629 168.702C160.4 160.331 160.292 152.787 158.823 147.201L144.415 142.158C144.281 142.423 144.103 142.673 143.888 142.91C142.412 142.266 140.701 141.446 138.8 140.415C143.845 138.478 148.415 135.312 151.861 131.142C154.022 128.527 155.999 125.387 159.231 124.359C160.176 124.058 161.156 123.965 162.152 123.965C162.944 123.965 163.745 124.024 164.547 124.083C165.347 124.141 166.148 124.199 166.937 124.199C168.04 124.199 169.121 124.086 170.154 123.697C178.259 120.65 175.316 105.159 183.684 102.936C180.666 99.8169 176.722 97.6055 172.488 96.6575C173.3 95.9686 174.224 95.7205 175.215 95.7205C177.582 95.7205 180.336 97.1375 182.871 97.3504C183.045 97.3655 183.219 97.3725 183.393 97.3725C187.994 97.3725 191.987 92.288 190.699 87.813C188.086 85.9832 185.069 85.2622 181.926 85.2622C177.413 85.2622 172.642 86.7475 168.441 88.5712C167.368 89.0372 166.23 89.5303 165.082 89.5303C164.844 89.5303 164.604 89.5092 164.366 89.462C162.912 89.1727 161.828 87.9917 160.86 86.87C156.017 81.2572 151.352 75.4897 146.876 69.5796C145.177 67.3361 143.405 64.9882 140.87 63.765C139.135 62.9274 137.183 62.6935 135.245 62.6935C134.894 62.6935 134.544 62.7005 134.196 62.7135C127.238 62.9767 120.414 65.3949 114.731 69.4099C120.574 55.4276 125.897 40.5365 137.134 30.4045C145.378 22.972 156.476 18.8796 167.557 18.8796C170.766 18.8796 173.976 19.2241 177.113 19.929C191.078 23.0694 203.255 33.2968 208.759 46.5108C221.163 76.2861 199.554 110.639 206.715 142.089C210.786 159.969 223.585 174.379 235.929 187.941L236.93 191.395C244.495 204.401 245.635 220.947 239.926 234.868C235.573 245.486 227.309 254.395 217.19 259.777ZM201.363 192.604C200.483 192.604 199.77 193.317 199.77 194.197C199.77 195.078 200.483 195.791 201.363 195.791C202.242 195.791 202.956 195.078 202.956 194.197C202.956 193.317 202.242 192.604 201.363 192.604ZM161.211 138.75C159.804 138.75 158.662 139.891 158.662 141.299C158.662 142.707 159.804 143.849 161.211 143.849C162.619 143.849 163.76 142.707 163.76 141.299C163.76 139.891 162.619 138.75 161.211 138.75Z" fill="#F1EDEB"/>
<path d="M84.7101 51.28L79.1274 48.5665C70.6997 36.8438 70.9517 19.6067 79.7189 8.13505C83.0551 3.77054 88.1095 0.0788612 93.4562 0.0788612C94.1572 0.0788612 94.8621 0.142124 95.5701 0.275692C99.4968 1.01784 102.763 3.81171 105.133 7.03036C111 15.0002 112.136 26.2007 107.99 35.1868C103.842 44.1719 94.5809 50.575 84.7101 51.28Z" fill="#F1EDEB"/>
<path d="M266.946 192.359C266.342 192.359 265.725 192.252 265.1 192.018L260.743 192.283C253.88 186.369 249.517 177.642 248.903 168.604C248.777 166.753 248.831 164.782 249.81 163.205C251.095 161.134 253.562 160.346 256.079 160.346C257.084 160.346 258.098 160.471 259.047 160.691C268.732 162.939 275.939 172.994 274.955 182.888C274.508 187.384 271.043 192.359 266.946 192.359Z" fill="#F1EDEB"/>
<path d="M35.0202 302.011C21.9116 295.026 14.8015 286.379 10.1457 272.274C9.04202 268.93 8.44149 264.736 11.0164 262.335C13.7771 259.762 18.2591 261.007 21.5832 262.79C27.6871 266.068 33.0599 270.698 37.2015 276.252C42.5291 283.398 46.994 292.87 55.7692 294.433C56.5696 294.576 57.4403 294.632 58.1523 294.238C60.3005 293.046 58.9055 289.814 57.5467 287.768C55.0572 284.02 53.4373 279.697 52.8498 275.236C52.7444 274.431 52.6781 273.58 52.9995 272.833C53.4685 271.748 54.6525 271.146 55.8074 270.897C60.0082 269.99 64.1046 272.613 67.4467 275.313C75.9619 282.196 87.79 293.616 93.6539 302.861L35.0202 302.011Z" fill="#9AD1B8"/>
<path d="M121.892 224.141C109.806 220.455 98.9306 212.906 91.249 202.873C87.5845 198.088 84.5676 192.53 84.189 186.515C83.9771 183.141 85.2817 179 88.6048 178.383C91.008 177.937 93.2565 179.588 95.0873 181.208C108.052 192.688 117.772 207.795 122.844 224.352L121.892 224.141Z" fill="#9AD1B8"/>
<path d="M51.1477 240.074C44.9333 238.802 38.6376 237.482 32.9887 234.598C27.3397 231.713 22.3204 227.026 20.4495 220.966C19.7073 218.563 19.5396 215.761 20.9908 213.708C22.8185 211.124 26.4901 210.667 29.6234 211.107C36.2626 212.037 42.2881 215.952 46.4618 221.198C50.6345 226.444 53.0538 232.936 54.1253 239.555L51.1477 240.074Z" fill="#9AD1B8"/>
<path d="M60.8992 243.824C59.0794 240.435 57.9638 236.709 57.1734 232.945C56.1019 227.844 55.7393 222.08 58.7983 217.86C59.7172 216.593 61.0528 215.47 62.6165 215.422C63.5524 215.393 64.4583 215.755 65.2768 216.209C68.6189 218.058 70.9358 221.644 71.2521 225.451C71.5433 228.953 70.2388 232.41 68.4853 235.455C66.7309 238.501 64.5195 241.262 62.738 244.293L60.8992 243.824Z" fill="#9AD1B8"/>
<path d="M70.2285 253.294C66.2748 252.374 62.2838 251.451 58.2246 251.408C54.1664 251.365 49.9787 252.276 46.7309 254.709C46.1334 255.158 45.5368 255.713 45.4073 256.448C45.2817 257.161 45.6302 257.875 46.0661 258.455C47.5825 260.472 50.1885 261.456 52.7112 261.514C55.2339 261.571 57.7054 260.814 60.0584 259.9C63.2449 258.666 66.4897 256.976 68.22 254.03L70.2285 253.294Z" fill="#9AD1B8"/>
<path d="M84.5173 263.791C83.2589 260.139 81.9926 256.443 81.6381 252.597C81.2835 248.751 81.9273 244.677 84.1959 241.55C84.4882 241.147 84.8336 240.743 85.3076 240.593C85.879 240.413 86.4967 240.646 87.0149 240.944C89.1519 242.176 90.4434 244.506 91.1283 246.876C92.8546 252.845 91.1313 259.686 86.7819 264.124L84.5173 263.791Z" fill="#9AD1B8"/>
<path d="M29.3199 218.49C31.215 226.268 38.9327 231.062 44.9452 235.545C51.6075 240.511 58.4033 245.292 65.17 250.115C78.6471 259.723 92.1082 269.531 103.857 281.249C110.393 287.77 116.332 294.874 121.308 302.658C121.805 303.434 123.049 302.714 122.549 301.932C113.821 288.278 102.208 276.84 89.6789 266.673C76.9419 256.339 63.3051 247.198 50.0619 237.54C46.2739 234.777 42.4557 232.02 38.8243 229.053C35.2571 226.137 31.8306 222.724 30.7058 218.108C30.4869 217.211 29.1 217.59 29.3199 218.49Z" fill="#9AD1B8"/>
<path d="M60.9585 271.352C60.9554 271.351 60.9534 271.35 60.9504 271.349C60.9524 271.35 60.9564 271.351 60.9585 271.352ZM60.7596 271.282C60.7466 271.278 60.7345 271.274 60.7224 271.27C60.7345 271.274 60.7476 271.278 60.7596 271.282ZM60.6803 271.256C59.6519 270.914 58.5994 270.714 57.5349 270.714C56.9625 270.714 56.3861 270.772 55.8076 270.896C56.3871 270.771 56.9625 270.714 57.5359 270.714C58.6004 270.714 59.6519 270.914 60.6803 271.256Z" fill="#F6FBF6"/>
<path d="M55.8237 284.79C54.3344 281.858 53.3261 278.681 52.8751 275.422C52.8751 275.416 52.8741 275.409 52.8731 275.403C52.8721 275.395 52.8712 275.387 52.8701 275.379C52.8681 275.37 52.8671 275.36 52.8661 275.351C52.8651 275.345 52.8641 275.339 52.8631 275.333C52.8621 275.321 52.8601 275.309 52.8591 275.298C52.8581 275.293 52.8581 275.289 52.8571 275.285C52.8551 275.269 52.8531 275.252 52.85 275.236C52.8028 274.871 52.7627 274.497 52.7637 274.127C52.7637 273.681 52.824 273.241 52.9997 272.833C53.4687 271.748 54.6527 271.145 55.8076 270.896C56.3861 270.772 56.9625 270.714 57.5349 270.714C58.5994 270.714 59.6519 270.913 60.6803 271.256H60.6813C60.6943 271.26 60.7064 271.265 60.7195 271.269C60.7205 271.269 60.7214 271.27 60.7224 271.27C60.7345 271.274 60.7466 271.278 60.7596 271.282C60.7606 271.283 60.7616 271.283 60.7626 271.284C60.7747 271.288 60.7857 271.291 60.7978 271.295C60.7998 271.296 60.8018 271.297 60.8038 271.298C60.8158 271.302 60.8269 271.306 60.839 271.31C60.84 271.31 60.8419 271.311 60.844 271.311C60.855 271.315 60.867 271.319 60.8781 271.323C60.8841 271.325 60.8912 271.328 60.8972 271.33C60.9052 271.333 60.9133 271.336 60.9213 271.338C60.9313 271.342 60.9404 271.345 60.9504 271.349C60.9534 271.35 60.9554 271.351 60.9585 271.352C60.9695 271.356 60.9806 271.36 60.9916 271.363C60.9926 271.364 60.9946 271.365 60.9956 271.365C61.0077 271.37 61.0197 271.374 61.0318 271.378H61.0327C63.0644 272.122 64.9976 273.4 66.748 274.76C62.5341 276.267 58.8716 279.67 57.0921 283.77C56.5919 284.092 56.1671 284.442 55.8237 284.79Z" fill="#BBE7D4"/>
<path d="M12.8051 261.241C13.5151 260.982 14.2794 260.869 15.0677 260.869C15.8068 260.869 16.5671 260.968 17.3263 261.141C16.5671 260.969 15.8068 260.87 15.0677 260.87C14.2794 260.87 13.5151 260.983 12.8051 261.241Z" fill="white"/>
<path d="M38.8877 302.068L35.0203 302.011C21.9117 295.026 14.8015 286.379 10.1458 272.274C10.0614 272.019 9.98108 271.76 9.90376 271.496C8.96879 268.301 8.63739 264.554 11.0175 262.335C11.5548 261.834 12.1573 261.477 12.8051 261.241C13.5151 260.983 14.2793 260.87 15.0676 260.87C15.8068 260.87 16.567 260.969 17.3262 261.141C17.3292 261.142 17.3333 261.143 17.3363 261.144C17.3423 261.145 17.3483 261.146 17.3544 261.148C17.3594 261.149 17.3634 261.15 17.3684 261.151C17.3734 261.152 17.3795 261.153 17.3855 261.155C17.3945 261.157 17.4036 261.159 17.4136 261.161C17.4176 261.162 17.4217 261.163 17.4257 261.164C17.4327 261.166 17.4397 261.168 17.4468 261.169C17.4508 261.17 17.4538 261.171 17.4578 261.172C17.4789 261.177 17.501 261.182 17.5231 261.187C17.5241 261.188 17.5261 261.188 17.5271 261.189C17.5381 261.191 17.5492 261.194 17.5602 261.197C18.2532 261.368 18.9441 261.598 19.6129 261.867C18.911 262.666 18.3355 263.654 17.9469 264.841C16.336 269.753 18.9431 275.176 21.3051 279.378C24.8893 285.756 29.6194 291.582 34.4328 297.063C35.8629 298.691 37.3381 300.409 38.8877 302.068Z" fill="#BBE7D4"/>
<path d="M91.5141 203.216C91.5111 203.213 91.5081 203.21 91.5061 203.207C91.5091 203.21 91.5111 203.213 91.5141 203.216ZM91.4719 203.162C91.4609 203.148 91.4498 203.134 91.4388 203.12C91.4498 203.134 91.4599 203.148 91.4719 203.162Z" fill="#F6FBF6"/>
<path d="M91.9811 203.81C91.8244 203.613 91.6688 203.415 91.5141 203.216C91.5111 203.213 91.5091 203.21 91.5061 203.207C91.494 203.192 91.483 203.177 91.472 203.162C91.4599 203.148 91.4499 203.134 91.4388 203.12C91.4348 203.115 91.4318 203.111 91.4288 203.107C91.3685 203.03 91.3083 202.951 91.249 202.873C87.5845 198.088 84.5677 192.53 84.1891 186.514C84.175 186.284 84.167 186.049 84.167 185.813C84.165 182.591 85.5087 178.957 88.6048 178.383C88.6209 178.38 88.6369 178.377 88.654 178.374H88.655C88.9081 178.33 89.1592 178.309 89.4082 178.309C89.4092 178.309 89.4102 178.309 89.4102 178.309C89.4142 178.309 89.4193 178.309 89.4233 178.309C89.9616 178.311 90.4918 178.408 91.009 178.577C91.0291 180.322 91.0893 181.952 91.2159 183.428C91.4107 185.687 91.5583 188.184 91.6708 190.769C91.3303 192.373 91.2952 194.129 91.6397 196.012C91.712 196.409 91.7923 196.805 91.8797 197.198C91.9319 199.459 91.964 201.697 91.9811 203.81Z" fill="#BBE7D4"/>
<path d="M21.063 213.609C21.063 213.609 21.063 213.608 21.064 213.608C21.063 213.608 21.063 213.608 21.063 213.609Z" fill="#F6FBF6"/>
<path d="M51.1035 240.065C44.9042 238.795 38.6235 237.475 32.9886 234.598C27.3397 231.713 22.3204 227.026 20.4495 220.966C20.11 219.868 19.8911 218.686 19.8921 217.531C19.8921 216.158 20.2034 214.823 20.9908 213.708C20.9968 213.701 21.0018 213.694 21.0068 213.687C21.0088 213.684 21.0109 213.681 21.0129 213.678C21.0159 213.674 21.0189 213.669 21.0219 213.665C21.0249 213.662 21.0269 213.658 21.0299 213.655C21.0319 213.651 21.035 213.648 21.037 213.644C21.04 213.64 21.044 213.636 21.047 213.632C21.048 213.629 21.05 213.627 21.051 213.625C21.055 213.62 21.0591 213.615 21.0631 213.609C21.0631 213.608 21.0631 213.608 21.0641 213.608C22.2782 211.97 24.2566 211.229 26.3465 211.029C26.1898 212.874 26.3013 214.784 26.7281 216.682C28.7858 225.802 38.021 236.31 47.0924 238.893C48.1067 239.181 49.1311 239.341 50.1314 239.36C50.4547 239.595 50.7791 239.83 51.1035 240.065ZM53.0899 239.735C52.8268 239.546 52.5647 239.356 52.3016 239.166C52.875 239.047 53.4283 238.873 53.9536 238.641C54.0058 238.935 54.0711 239.226 54.1193 239.521C54.1213 239.532 54.1233 239.543 54.1253 239.555L53.0899 239.735Z" fill="#BBE7D4"/>
<path d="M51.1477 240.074C51.1326 240.071 51.1175 240.068 51.1035 240.065C50.7791 239.83 50.4547 239.595 50.1313 239.36C50.1996 239.361 50.2689 239.362 50.3372 239.362C51.0091 239.362 51.6679 239.297 52.3015 239.166C52.5647 239.356 52.8268 239.545 53.0899 239.735L51.1477 240.074Z" fill="#BBE7D4"/>
<path d="M62.7378 244.293L60.899 243.824C60.0494 242.242 59.3675 240.581 58.7881 238.883C59.2079 238.998 59.6397 239.059 60.0705 239.059C61.5508 239.059 63.025 238.351 64.0132 236.767C68.0202 230.343 66.7177 222.664 64.2753 215.746C64.6198 215.876 64.9562 216.031 65.2766 216.209C68.6188 218.058 70.9356 221.644 71.2519 225.451C71.279 225.779 71.2931 226.107 71.2931 226.434C71.2941 229.597 70.0739 232.696 68.4852 235.455C66.7307 238.501 64.5194 241.262 62.7378 244.293Z" fill="#BBE7D4"/>
<path d="M52.9816 261.517C52.9374 261.517 52.8922 261.517 52.847 261.516C52.8018 261.516 52.7566 261.515 52.7114 261.514C50.1887 261.455 47.5827 260.472 46.0662 258.455C45.6916 257.957 45.3813 257.359 45.3813 256.748C45.3813 256.649 45.3894 256.549 45.4074 256.448C45.537 255.713 46.1345 255.158 46.7311 254.709C47.3648 254.235 48.0426 253.834 48.7396 253.47C49.4375 254.953 50.6186 256.217 51.9281 257.223C54.1074 258.897 56.4904 259.822 58.978 260.301C57.0388 260.991 55.0292 261.517 52.9816 261.517Z" fill="#BBE7D4"/>
<path d="M219.709 302.011C232.818 295.026 239.928 286.379 244.584 272.274C245.687 268.93 246.288 264.736 243.712 262.335C240.952 259.762 236.47 261.007 233.146 262.79C227.042 266.068 221.669 270.698 217.528 276.252C212.2 283.398 207.735 292.87 198.961 294.433C198.16 294.576 197.289 294.632 196.578 294.238C194.43 293.046 195.824 289.814 197.181 287.768C199.672 284.02 201.292 279.697 201.878 275.236C201.985 274.431 202.051 273.58 201.73 272.833C201.261 271.748 200.077 271.146 198.922 270.897C194.721 269.99 190.625 272.613 187.283 275.313C178.767 282.196 166.939 293.616 161.074 302.861L219.709 302.011Z" fill="#9AD1B8"/>
<path d="M147.215 196.765C153.345 193.505 158.415 188.29 161.501 182.071C162.973 179.104 164.014 175.791 163.585 172.507C163.345 170.665 162.205 168.57 160.349 168.587C159.005 168.6 157.966 169.726 157.15 170.793C151.367 178.348 147.716 187.517 146.724 196.979L147.215 196.765Z" fill="#9AD1B8"/>
<path d="M203.581 240.074C209.795 238.802 216.091 237.482 221.74 234.598C227.389 231.713 232.407 227.026 234.28 220.966C235.022 218.563 235.189 215.761 233.738 213.708C231.91 211.124 228.239 210.667 225.105 211.107C218.467 212.037 212.441 215.952 208.267 221.198C204.094 226.444 201.675 232.936 200.604 239.555L203.581 240.074Z" fill="#9AD1B8"/>
<path d="M193.83 243.824C195.651 240.435 196.765 236.709 197.556 232.945C198.628 227.844 198.99 222.08 195.93 217.86C195.012 216.593 193.676 215.47 192.113 215.422C191.178 215.393 190.271 215.755 189.451 216.209C186.11 218.058 183.792 221.644 183.477 225.451C183.187 228.953 184.489 232.41 186.245 235.455C187.998 238.501 190.211 241.262 191.99 244.293L193.83 243.824Z" fill="#9AD1B8"/>
<path d="M184.5 253.294C188.454 252.374 192.445 251.451 196.503 251.408C200.562 251.365 204.75 252.276 207.998 254.709C208.594 255.158 209.192 255.713 209.321 256.448C209.447 257.161 209.097 257.875 208.664 258.455C207.146 260.472 204.541 261.456 202.017 261.514C199.494 261.571 197.023 260.814 194.67 259.9C191.484 258.666 188.239 256.976 186.509 254.03L184.5 253.294Z" fill="#9AD1B8"/>
<path d="M170.211 263.791C171.47 260.139 172.736 256.443 173.091 252.597C173.445 248.751 172.801 244.677 170.533 241.55C170.241 241.147 169.895 240.743 169.421 240.593C168.85 240.413 168.232 240.646 167.714 240.944C165.577 242.176 164.285 244.506 163.6 246.876C161.873 252.845 163.597 259.686 167.947 264.124L170.211 263.791Z" fill="#9AD1B8"/>
<path d="M224.023 218.108C223.029 222.189 220.226 225.34 217.126 228.027C213.997 230.738 210.603 233.168 207.275 235.627C200.641 240.525 193.889 245.259 187.181 250.054C173.952 259.508 160.777 269.226 149.295 280.795C142.895 287.245 137.077 294.271 132.179 301.932C131.68 302.713 132.924 303.435 133.421 302.658C142.301 288.766 154.216 277.214 167.004 266.932C180.008 256.477 193.918 247.23 207.349 237.347C210.942 234.703 214.607 232.086 217.991 229.174C221.333 226.299 224.341 222.871 225.41 218.49C225.628 217.592 224.243 217.209 224.023 218.108Z" fill="#9AD1B8"/>
<path d="M161.212 182.637C161.214 182.633 161.216 182.63 161.218 182.626C161.216 182.63 161.214 182.634 161.212 182.637ZM160.349 168.587C160.356 168.587 160.364 168.587 160.371 168.587C160.363 168.587 160.356 168.587 160.349 168.587Z" fill="#F6FBF6"/>
<path d="M158.905 186.42C159.973 183.861 160.6 181.163 160.567 178.412C160.546 176.616 159.967 175.137 159.04 173.999C159.271 172.206 159.469 170.435 159.629 168.702C159.858 168.63 160.098 168.59 160.349 168.587C160.356 168.587 160.363 168.587 160.371 168.587C160.373 168.587 160.376 168.587 160.378 168.587C162.182 168.592 163.302 170.596 163.571 172.402C163.575 172.429 163.578 172.455 163.582 172.482C163.583 172.49 163.584 172.499 163.585 172.507C163.652 173.02 163.683 173.534 163.682 174.047C163.678 176.817 162.743 179.568 161.501 182.071C161.417 182.239 161.332 182.406 161.247 182.573C161.237 182.591 161.228 182.608 161.219 182.626C161.217 182.63 161.215 182.633 161.213 182.637C160.53 183.949 159.755 185.212 158.905 186.42Z" fill="#BBE7D4"/>
<path d="M198.352 285.828C197.391 282.175 194.913 278.886 191.735 276.696C195.349 275.548 198.726 274.291 201.764 272.919C201.913 273.303 201.964 273.712 201.965 274.127C201.966 274.497 201.926 274.871 201.878 275.236C201.849 275.461 201.817 275.686 201.781 275.911C201.78 275.913 201.78 275.915 201.78 275.918C201.778 275.929 201.776 275.94 201.775 275.951C201.232 279.411 200.06 282.769 198.352 285.828Z" fill="#BBE7D4"/>
<path d="M243.712 262.335C242.584 261.284 241.168 260.87 239.661 260.87C239.041 260.87 238.404 260.939 237.766 261.065C238.405 260.939 239.041 260.869 239.661 260.869C241.168 260.869 242.584 261.284 243.712 262.335Z" fill="white"/>
<path d="M215.841 302.068C217.391 300.409 218.866 298.691 220.296 297.063C225.11 291.582 229.84 285.756 233.423 279.378C235.786 275.176 238.393 269.753 236.782 264.841C236.392 263.654 235.818 262.666 235.116 261.867C235.889 261.557 236.691 261.298 237.491 261.122C237.492 261.122 237.492 261.122 237.492 261.122C237.515 261.117 237.538 261.112 237.56 261.107C237.563 261.106 237.565 261.106 237.568 261.105C237.578 261.103 237.586 261.101 237.595 261.1C237.597 261.099 237.6 261.099 237.602 261.098C237.613 261.096 237.624 261.094 237.634 261.091C237.637 261.091 237.639 261.09 237.642 261.09C237.65 261.088 237.658 261.087 237.665 261.085C237.67 261.084 237.674 261.083 237.679 261.082C237.684 261.081 237.69 261.08 237.695 261.079C237.716 261.075 237.737 261.07 237.758 261.066C237.761 261.066 237.764 261.065 237.766 261.065C238.404 260.939 239.041 260.87 239.661 260.87C241.168 260.87 242.584 261.284 243.712 262.335C245.05 263.582 245.531 265.314 245.529 267.159C245.528 268.865 245.113 270.667 244.584 272.274C239.927 286.379 232.817 295.026 219.709 302.011L215.841 302.068Z" fill="#BBE7D4"/>
<path d="M233.719 213.682C233.714 213.676 233.71 213.669 233.705 213.662C233.71 213.669 233.715 213.676 233.719 213.682ZM233.686 213.637C233.664 213.606 233.642 213.575 233.618 213.545C233.64 213.575 233.664 213.606 233.686 213.637ZM233.597 213.518C233.593 213.514 233.59 213.509 233.586 213.505C233.59 213.509 233.593 213.513 233.597 213.518ZM233.579 213.495C233.577 213.493 233.575 213.49 233.573 213.487C233.575 213.49 233.577 213.492 233.579 213.495Z" fill="#F6FBF6"/>
<path d="M208.727 238.979C208.573 238.886 208.414 238.793 208.257 238.703C217.126 235.831 225.992 225.594 228.001 216.681C228.429 214.784 228.539 212.874 228.384 211.028C230.42 211.224 232.353 211.933 233.574 213.487C233.576 213.49 233.578 213.493 233.58 213.495C233.582 213.498 233.585 213.502 233.587 213.505C233.591 213.509 233.594 213.514 233.598 213.518C233.599 213.52 233.601 213.522 233.603 213.525C233.607 213.53 233.612 213.536 233.616 213.542C233.617 213.543 233.618 213.544 233.619 213.545C233.642 213.575 233.664 213.605 233.686 213.637C233.687 213.637 233.687 213.638 233.688 213.639C233.693 213.646 233.698 213.653 233.703 213.659C233.703 213.66 233.704 213.661 233.705 213.662C233.71 213.669 233.714 213.676 233.719 213.682C233.72 213.683 233.721 213.684 233.721 213.685C233.727 213.693 233.732 213.701 233.738 213.708C234.526 214.823 234.837 216.158 234.838 217.531C234.838 218.686 234.619 219.868 234.281 220.966C232.408 227.026 227.389 231.713 221.741 234.597C217.65 236.686 213.22 237.955 208.727 238.979Z" fill="#BBE7D4"/>
<path d="M189.239 233.749C187.892 233.647 186.552 233.58 185.237 233.543C184.167 231.296 183.435 228.885 183.436 226.434C183.437 226.106 183.45 225.779 183.477 225.451C183.793 221.643 186.11 218.058 189.452 216.208C189.772 216.031 190.109 215.876 190.454 215.745C188.384 221.609 187.132 228.019 189.239 233.749Z" fill="#BBE7D4"/>
<path d="M57.0088 202.482C55.7766 202.482 54.7783 201.484 54.7783 200.252C54.7783 199.019 55.7766 198.02 57.0088 198.02C58.24 198.02 59.2392 199.019 59.2392 200.252C59.2392 201.484 58.24 202.482 57.0088 202.482Z" fill="#C3DFCF"/>
<path d="M8.25292 253.469C6.49245 253.469 5.06641 252.041 5.06641 250.281C5.06641 248.522 6.49245 247.094 8.25292 247.094C10.0124 247.094 11.4394 248.522 11.4394 250.281C11.4394 252.041 10.0124 253.469 8.25292 253.469Z" fill="#C8E7D6"/>
<path d="M43.3056 132.695C40.1382 132.695 37.5703 130.127 37.5703 126.959C37.5703 123.792 40.1382 121.224 43.3056 121.224C46.4731 121.224 49.042 123.792 49.042 126.959C49.042 130.127 46.4731 132.695 43.3056 132.695Z" fill="#C8E7D6"/>
<path d="M161.21 143.849C159.803 143.849 158.662 142.707 158.662 141.299C158.662 139.891 159.803 138.75 161.21 138.75C162.618 138.75 163.76 139.891 163.76 141.299C163.76 142.707 162.618 143.849 161.21 143.849Z" fill="#C3DFCF"/>
<path d="M246.931 249.645C244.643 249.645 242.789 247.789 242.789 245.501C242.789 243.214 244.643 241.359 246.931 241.359C249.22 241.359 251.074 243.214 251.074 245.501C251.074 247.789 249.22 249.645 246.931 249.645Z" fill="#C8E7D6"/>
<path d="M201.363 195.791C200.483 195.791 199.77 195.078 199.77 194.197C199.77 193.317 200.483 192.604 201.363 192.604C202.241 192.604 202.956 193.317 202.956 194.197C202.956 195.078 202.241 195.791 201.363 195.791Z" fill="#C3DFCF"/>
<path d="M35.2883 146.84H35.8296C35.8296 137.59 28.3318 130.092 19.0816 130.092C9.83133 130.092 2.33352 137.59 2.33252 146.84C2.33352 156.092 9.83133 163.588 19.0816 163.589C28.3318 163.588 35.8296 156.092 35.8296 146.84H35.2883H34.747C34.747 151.169 32.9945 155.081 30.1585 157.918C27.3215 160.753 23.4089 162.506 19.0816 162.506C14.7532 162.506 10.8406 160.753 8.00457 157.918C5.16855 155.081 3.41612 151.169 3.41612 146.84C3.41612 142.513 5.16855 138.6 8.00457 135.763C10.8406 132.928 14.7532 131.176 19.0816 131.175C23.4089 131.176 27.3215 132.928 30.1585 135.763C32.9945 138.6 34.747 142.513 34.747 146.84H35.2883Z" fill="#D4CCC6"/>
<path d="M5.6208 159.226C4.82242 161.029 4.48397 162.335 4.48096 163.343C4.48096 163.808 4.55527 164.213 4.70792 164.559C4.93287 165.082 5.34563 165.443 5.78951 165.633C6.2354 165.827 6.7084 165.881 7.16031 165.882C7.70663 165.881 8.23187 165.799 8.64964 165.728C9.60971 165.56 10.3599 165.008 11.0127 164.512C20.1092 157.528 25.6156 146.98 29.8385 136.455C30.5345 134.712 31.2284 132.768 31.2324 130.818C31.2324 129.891 31.0697 128.961 30.664 128.077C30.4009 127.505 30.0092 126.906 29.3575 126.545C28.9889 126.342 28.5922 126.248 28.2086 126.249C27.4423 126.253 26.7504 126.591 26.1428 127.029C25.5342 127.471 24.998 128.031 24.5601 128.563L25.3967 129.251C25.7934 128.768 26.2784 128.269 26.7785 127.906C27.2797 127.54 27.7858 127.329 28.2086 127.333C28.4235 127.333 28.6244 127.38 28.8373 127.495C29.1817 127.679 29.4709 128.068 29.6798 128.529C30.0112 129.251 30.1488 130.016 30.1488 130.818C30.1528 132.503 29.5202 134.343 28.8332 136.052C24.6405 146.513 19.1954 156.872 10.3539 163.653C9.7252 164.139 9.10055 164.557 8.46786 164.661C8.06716 164.729 7.59717 164.799 7.16031 164.799C6.67526 164.801 6.25648 164.707 6.00642 164.516C5.87888 164.421 5.77948 164.304 5.69914 164.124C5.6198 163.944 5.56355 163.693 5.56355 163.343C5.56054 162.588 5.84273 161.39 6.61099 159.666L5.6208 159.226Z" fill="#D4CCC6"/>
<path d="M219.215 113.568L219.206 113.975L219.471 113.978C226.301 113.978 231.906 108.514 232.048 101.654L232.051 101.389C232.05 94.5587 226.585 88.9549 219.726 88.8123L219.462 88.8103C212.632 88.8103 207.026 94.2744 206.885 101.135L206.882 101.398C206.882 108.228 212.346 113.833 219.206 113.975L219.215 113.568L219.223 113.162C212.807 113.029 207.695 107.786 207.695 101.398L207.698 101.151C207.831 94.7344 213.075 89.6237 219.462 89.6237L219.709 89.6267C226.124 89.7583 231.237 95.0015 231.236 101.389L231.234 101.637C231.103 108.053 225.858 113.165 219.471 113.165L219.223 113.162L219.215 113.568Z" fill="#D4CCC6"/>
<path d="M210.371 91.0908C208.991 90.444 207.998 90.1719 207.231 90.1689C206.539 90.1608 205.997 90.43 205.706 90.8568C205.413 91.2796 205.35 91.7727 205.348 92.2286C205.348 92.6082 205.397 92.9718 205.441 93.265C205.551 93.9891 205.955 94.5605 206.318 95.0586C211.422 102 219.261 106.299 227.101 109.634C228.436 110.2 229.931 110.768 231.436 110.771C232.091 110.771 232.75 110.66 233.382 110.386C233.815 110.196 234.271 109.912 234.554 109.428C234.718 109.141 234.795 108.831 234.794 108.531C234.792 107.963 234.547 107.447 234.228 106.99C233.907 106.532 233.5 106.127 233.112 105.793L232.582 106.411C232.935 106.713 233.298 107.08 233.561 107.457C233.827 107.835 233.982 108.215 233.98 108.531C233.979 108.701 233.942 108.857 233.848 109.023C233.704 109.278 233.408 109.489 233.058 109.638C232.542 109.862 232.001 109.957 231.436 109.957C230.142 109.96 228.728 109.445 227.419 108.886C219.626 105.574 211.929 101.323 206.974 94.5766C206.618 94.0965 206.313 93.6215 206.245 93.1455V93.1445C206.203 92.8633 206.161 92.5369 206.161 92.2286C206.159 91.855 206.228 91.5226 206.371 91.3258C206.515 91.134 206.712 90.9914 207.231 90.9833C207.795 90.9803 208.706 91.2053 210.026 91.8269L210.371 91.0908Z" fill="#D4CCC6"/>
<path d="M62.3 179.255C62.3 177.664 61.0106 176.374 59.4188 176.374C57.8281 176.374 56.5376 177.664 56.5376 179.255C56.5376 180.847 57.8281 182.136 59.4188 182.136C61.0106 182.136 62.3 180.847 62.3 179.255Z" fill="#D4CCC6"/>
<path d="M74.546 74.8087C74.546 71.8261 72.1268 69.4068 69.1431 69.4068C66.1595 69.4068 63.7412 71.8261 63.7412 74.8087C63.7412 77.7934 66.1595 80.2117 69.1431 80.2117C72.1268 80.2117 74.546 77.7934 74.546 74.8087Z" fill="#D4CCC6"/>
<path d="M200.601 163.768C200.601 162.376 199.472 161.247 198.08 161.247C196.687 161.247 195.559 162.376 195.559 163.768C195.559 165.161 196.687 166.289 198.08 166.289C199.472 166.289 200.601 165.161 200.601 163.768Z" fill="#D4CCC6"/>
<path d="M180.792 70.4875C180.792 69.2945 179.824 68.3263 178.631 68.3263C177.437 68.3263 176.469 69.2945 176.469 70.4875C176.469 71.6816 177.437 72.6487 178.631 72.6487C179.824 72.6487 180.792 71.6816 180.792 70.4875Z" fill="#D4CCC6"/>
<path d="M18.963 303.593H238.788C239.358 303.593 239.819 303.132 239.819 302.563C239.819 301.993 239.358 301.533 238.788 301.533H18.963C18.3936 301.533 17.9316 301.993 17.9316 302.563C17.9316 303.132 18.3936 303.593 18.963 303.593Z" fill="#9AD1B8"/>
<path d="M188.716 325.478C188.716 330.252 158.078 334.122 120.285 334.122C82.4924 334.122 51.8555 330.252 51.8555 325.478C51.8555 320.705 82.4924 316.835 120.285 316.835C158.078 316.835 188.716 320.705 188.716 325.478Z" fill="#D4CCC6"/>
<path d="M105.758 78.5204C112.057 69.1929 122.95 63.1382 134.196 62.7134C136.47 62.628 138.821 62.7767 140.87 63.7649C143.405 64.9881 145.176 67.336 146.876 69.5795C151.352 75.4896 156.016 81.257 160.86 86.8698C161.828 87.9916 162.912 89.1726 164.366 89.4618C165.752 89.737 167.145 89.1335 168.441 88.5711C175.568 85.478 184.335 83.356 190.699 87.8129C192.035 92.4566 187.686 97.756 182.87 97.3503C179.274 97.048 175.239 94.3225 172.487 96.6574C176.722 97.6054 180.666 99.8168 183.684 102.936C175.316 105.158 178.259 120.65 170.153 123.697C168.382 124.363 166.466 124.222 164.547 124.083C162.74 123.95 160.929 123.818 159.231 124.359C155.998 125.387 154.022 128.527 151.861 131.142C144.447 140.116 131.822 144.436 120.464 141.887C119.586 123.259 116.812 104.721 112.196 86.6519L105.758 78.5204Z" fill="#922D3C"/>
<path d="M119.555 66.1029C117.329 66.0798 115.703 64.0552 114.508 62.1763C111.847 57.9975 109.514 53.2353 110.018 48.3064C110.52 43.3775 114.926 38.5862 119.82 39.3605C121.298 39.5945 122.667 40.2934 123.908 41.129C128.424 44.1659 131.583 49.39 131.483 54.8311C131.383 60.2712 127.674 65.639 122.42 67.054" fill="#922D3C"/>
<path d="M122.721 67.3523C127.732 63.6054 129.751 56.7353 127.157 50.9648C125.919 48.2111 123.76 45.8601 121.093 44.4391C118.923 43.2822 114.7 42.3 114.038 45.7396C113.939 46.2498 114.722 46.4687 114.821 45.9555C115.548 42.1775 120.875 45.0266 122.589 46.3843C124.581 47.962 126.113 50.1322 126.906 52.5475C128.585 57.6592 126.584 63.4547 122.311 66.6513C121.897 66.9606 122.301 67.6666 122.721 67.3523Z" fill="#391015"/>
<path d="M119.607 74.2383C128.618 71.2868 138.647 75.5227 143.051 83.836C145.394 88.2598 146.504 93.2369 149.043 97.5682C151.343 101.495 154.897 104.563 159.139 106.224C163.999 108.125 170.129 107.482 174.106 111.308C174.483 111.669 175.058 111.096 174.681 110.733C171.243 107.427 166.313 107.338 161.935 106.249C156.726 104.954 152.319 101.635 149.641 96.9828C147.036 92.4586 145.946 87.2435 143.359 82.7102C141.14 78.8207 137.722 75.8431 133.594 74.1168C129.104 72.2408 124.028 71.9365 119.391 73.455C118.897 73.6177 119.109 74.402 119.607 74.2383Z" fill="#391015"/>
<path d="M120.669 72.945C129.766 68.8607 141.191 71.0058 148.282 78.0005C151.774 81.4441 153.648 86.1691 157.193 89.5575C161.175 93.3616 166.392 93.3606 171.463 92.1374C177.423 90.6993 184.536 87.4636 190.218 91.4415C190.647 91.7427 191.052 91.0388 190.628 90.7405C180.404 83.5831 167.367 98.1318 157.767 88.983C154.048 85.439 152.138 80.4478 148.348 76.94C144.846 73.6982 140.404 71.521 135.734 70.591C130.528 69.5536 125.111 70.0658 120.259 72.244C119.783 72.458 120.196 73.1579 120.669 72.945Z" fill="#391015"/>
<path d="M115.75 78.4523C116.051 81.5113 117.076 84.6405 118.965 87.099C120.5 89.0954 122.965 90.5597 125.468 89.4269C126.631 88.8996 127.474 87.8903 127.595 86.6019C127.645 86.0817 126.833 86.0857 126.784 86.6019C126.662 87.8873 125.474 88.7259 124.288 88.9619C122.838 89.2501 121.456 88.5291 120.436 87.5419C118.074 85.2522 116.877 81.6539 116.562 78.4523C116.512 77.9361 115.7 77.9311 115.75 78.4523Z" fill="#391015"/>
<path d="M119.634 65.6338C118.058 66.7867 116.15 66.5045 114.586 65.4631C112.172 63.8573 110.899 60.9268 110.264 58.2023C109.569 55.2126 110.015 52.3786 111.012 49.5034C112.017 46.6041 113.55 43.6445 115.998 41.7093C116.817 41.0606 115.66 39.9187 114.849 40.5605C112.682 42.2737 111.213 44.7703 110.141 47.2769C109.104 49.7022 108.324 52.3535 108.246 55.0057C108.108 59.6042 110.506 65.6559 115.028 67.5309C116.812 68.272 118.864 68.1987 120.454 67.0367C121.289 66.4251 120.48 65.0152 119.634 65.6338Z" fill="#922D3C"/>
<path d="M136.275 98.433C136.374 98.8849 136.824 99.1651 137.273 99.0496C139.146 98.5646 143.373 97.0662 145.231 101.817C147.108 106.621 143.09 110.612 140.286 111.489C139.475 111.742 137.624 112.391 137.222 113.137C135.983 115.433 136.211 119.702 136.182 125.104C136.152 130.688 137.046 135.956 138.007 139.98C145.136 143.959 149.818 145.04 149.818 145.04C149.818 145.04 123.887 212.749 97.9561 145.4C97.9561 145.4 112.002 141.438 113.081 140.37C113.344 132.298 113.716 120.307 113.602 120.24C110.733 118.532 100.541 119.549 101.319 99.1802C102.039 80.3131 115.235 78.2926 118.656 78.0425C121.543 77.8306 131.286 75.9968 136.275 98.433Z" fill="#F6857E"/>
<path d="M143.46 103.781C143.46 103.781 138.933 98.3104 137.308 107.593L143.46 103.781Z" fill="#F25650"/>
<mask id="mask0_117_2085" style="mask-type:luminance" maskUnits="userSpaceOnUse" x="116" y="102" width="10" height="10">
<path d="M120.996 111.568C118.926 111.568 117.054 110.145 116.571 108.041C116.008 105.594 117.535 103.155 119.98 102.593C120.324 102.513 120.666 102.476 121.003 102.476C123.074 102.476 124.946 103.9 125.43 106.003C125.991 108.449 124.465 110.889 122.019 111.451C121.676 111.53 121.333 111.568 120.996 111.568Z" fill="white"/>
</mask>
<g mask="url(#mask0_117_2085)">
<path d="M116.008 111.568H125.991V102.476H116.008V111.568Z" fill="#F46B6F"/>
</g>
<path d="M101.921 108.558C101.335 106.812 101.254 104.519 101.299 102.808C101.366 105.017 101.585 106.918 101.921 108.558Z" fill="#F68C90"/>
<path d="M102.045 108.896C102.001 108.786 101.96 108.674 101.921 108.558C101.586 106.918 101.367 105.017 101.299 102.809C101.335 101.414 101.457 100.407 101.457 100.407C102.97 100.861 104.204 102.094 104.583 103.744C105.075 105.884 103.968 108.019 102.045 108.896Z" fill="#F46B6F"/>
<path d="M112.507 106.77L112.498 106.784C112.384 106.954 111.307 108.479 109.083 108.476C108.801 108.476 108.501 108.451 108.18 108.397C107.23 108.237 106.503 107.653 106.011 107.095C105.765 106.816 105.58 106.547 105.457 106.35C105.397 106.25 105.351 106.169 105.321 106.114L105.279 106.032C105.215 105.897 105.054 105.839 104.918 105.904C104.783 105.968 104.726 106.13 104.789 106.264C104.797 106.279 105.064 106.84 105.604 107.453C106.144 108.065 106.967 108.74 108.089 108.931C108.439 108.991 108.77 109.018 109.083 109.018C110.408 109.018 111.384 108.531 112.018 108.045C112.654 107.559 112.955 107.075 112.967 107.057C113.045 106.929 113.006 106.762 112.88 106.683C112.752 106.605 112.585 106.644 112.507 106.77Z" fill="#040606"/>
<path d="M108.917 102.278L109.556 105.746L107.725 105.718C107.387 105.713 107.177 105.347 107.344 105.053L108.917 102.278Z" fill="#F25650"/>
<path d="M116.662 96.5913C117.451 97.2581 116.392 94.5024 115.269 94.0927C114.146 93.6819 112.948 94.1358 112.593 95.106C112.593 95.106 114.766 94.9915 116.662 96.5913Z" fill="#040606"/>
<path d="M103.507 95.1391C102.611 95.6542 104.142 93.1305 105.321 92.9267C106.499 92.7228 107.597 93.3816 107.773 94.3999C107.773 94.3999 105.657 93.9008 103.507 95.1391Z" fill="#040606"/>
<path d="M112.648 119.974C112.648 119.974 118.054 120.381 122.211 119.035C119.904 125.276 114.883 124.877 112.648 119.974Z" fill="#F25650"/>
<path d="M109.661 73.0081C95.9746 67.2457 100.211 93.5372 100.211 93.5372C104.385 94.0463 106.186 90.6258 107.514 86.665C108.133 84.8152 109.562 83.349 111.372 82.6249C112.267 82.2674 112.792 81.3364 112.635 80.3864C112.25 86.408 115.971 91.9324 121.696 93.8365C126.088 95.2966 130.345 91.2937 129.156 86.8197L128.789 85.4368L133.071 98.219C134.439 100.707 138.301 98.2622 140.908 97.1395C140.908 97.1395 134.588 60.1928 109.661 73.0081Z" fill="#922D3C"/>
<path d="M114.165 102.514C113.645 102.694 113.094 102.866 112.598 102.864C112.108 102.859 111.684 102.72 111.285 102.247C111.189 102.132 111.019 102.115 110.903 102.212C110.789 102.307 110.773 102.478 110.868 102.592C111.361 103.193 111.995 103.411 112.598 103.406C113.214 103.404 113.812 103.207 114.341 103.026C114.482 102.978 114.558 102.823 114.509 102.683C114.46 102.541 114.307 102.466 114.165 102.514Z" fill="#040606"/>
<path d="M107.202 101.914C106.683 102.094 106.132 102.265 105.636 102.264C105.146 102.259 104.721 102.12 104.322 101.647C104.226 101.531 104.055 101.516 103.941 101.612C103.825 101.707 103.809 101.878 103.906 101.993C104.398 102.593 105.032 102.811 105.636 102.806C106.252 102.805 106.849 102.607 107.379 102.426C107.519 102.378 107.594 102.224 107.546 102.083C107.498 101.941 107.343 101.866 107.202 101.914Z" fill="#040606"/>
<path d="M105.519 141.798C102.277 143.395 94.1744 144.079 89.8521 145.761C92.3737 157.825 90.3924 173.853 91.2158 183.428C92.3356 196.452 91.9278 217.431 91.9278 217.431C91.9278 217.431 135.625 218.381 148.472 219.231C155.532 197.725 163.191 163.808 158.823 147.201L144.415 142.158C140.731 149.351 106.108 146.245 105.519 141.798Z" fill="#FCDCCD"/>
<path d="M148.472 219.231C147.627 219.176 146.65 219.119 145.559 219.062C145.411 218.877 145.26 218.692 145.11 218.512C135.205 217.696 124.289 217.459 115.309 217.433C133.342 197.419 148.532 174.033 152.669 147.368C156.335 164.913 155.189 198.769 148.472 219.231Z" fill="#F9C8B2"/>
<path d="M145.11 218.512C158.917 235.08 168.416 278.9 168.416 278.9L73.5596 276.617C73.5596 276.617 79.0217 233.578 96.4296 217.611C96.4466 217.646 98.6751 217.586 102.363 217.526C111.489 217.377 129.548 217.23 145.11 218.512Z" fill="#6173C1"/>
<path d="M74.9605 276.651L73.5596 276.617C73.5596 276.617 79.0217 233.578 96.4296 217.611C96.4326 217.619 96.527 217.622 96.7047 217.622C97.4077 217.622 99.4213 217.573 102.363 217.526C105.301 217.478 109.167 217.431 113.575 217.431C122.86 217.431 134.558 217.643 145.11 218.512C148.952 223.123 152.462 229.847 155.525 237.148C140.015 241.767 117.778 251.262 105.342 256.77L96.9689 260.289L96.9749 260.533C96.3472 260.821 96.0108 260.976 96.0108 260.976L96.1855 269.64C95.1692 269.366 94.169 268.673 93.3997 268.023C92.3784 267.16 91.0959 266.691 89.7894 266.691C89.3294 266.691 88.8665 266.749 88.4105 266.868C86.0807 267.48 82.8319 269.145 79.331 273.406C78.4262 274.507 76.8696 275.603 74.9605 276.651Z" fill="#485DB4"/>
<path d="M55.4627 287.377C53.7323 287.076 55.5049 283.865 59.5229 282.66C65.9532 280.73 76.298 277.096 79.3309 273.406C82.8317 269.145 86.0805 267.48 88.4104 266.868C90.1608 266.408 92.0187 266.855 93.3996 268.023C94.3366 268.815 95.617 269.67 96.8512 269.756C98.3023 269.855 100.05 269.482 100.05 269.482L99.3097 289.073C99.3097 289.073 63.2668 288.732 55.4627 287.377Z" fill="#F6857E"/>
<path d="M96.5741 288.895C96.5741 288.895 217.088 287.13 217.928 255.958C218.702 227.156 170.802 233.998 165.759 234.719C146.87 237.417 96.0107 260.976 96.0107 260.976L96.5741 288.895Z" fill="#6173C1"/>
<path d="M99.3174 288.892L99.3194 288.832C99.8968 288.816 100.558 288.796 101.299 288.772C100.521 288.821 99.8587 288.861 99.3174 288.892Z" fill="#E7DBD4"/>
<path d="M97.647 288.987L97.645 288.874C98.0789 288.864 98.6402 288.851 99.3191 288.832L99.3171 288.892C98.2345 288.956 97.647 288.987 97.647 288.987Z" fill="#F57C73"/>
<path d="M96.9748 260.532L96.9688 260.289L105.342 256.77C101.378 258.525 98.4129 259.874 96.9748 260.532Z" fill="#4659B1"/>
<path d="M97.6449 288.874L96.9751 260.533C98.4132 259.874 101.379 258.525 105.343 256.77L128.663 246.965L193.325 275.71C177.509 283.618 116.852 287.813 101.298 288.772C100.557 288.796 99.8965 288.816 99.319 288.832C98.6401 288.851 98.0788 288.864 97.6449 288.874Z" fill="#5E6EBE"/>
<path d="M108.189 288.565L104.734 256.552L103.657 256.668L107.113 288.682" fill="white"/>
<path d="M134.066 287.302C134.066 287.302 18.6658 283.365 22.0562 252.367C24.5779 229.316 62.3943 233.813 80.4027 240.121C98.41 246.429 135.505 263.171 135.505 263.171L134.066 287.302Z" fill="#6173C1"/>
<path d="M177.511 287.361C179.261 287.23 177.809 283.862 173.927 282.273C167.714 279.728 157.771 275.106 155.111 271.14C152.039 266.56 148.967 264.588 146.708 263.752C145.01 263.124 143.118 263.391 141.63 264.419C140.62 265.116 139.263 265.843 138.026 265.808C136.572 265.766 134.869 265.225 134.869 265.225L133.705 284.795C133.705 284.795 169.611 287.954 177.511 287.361Z" fill="#F6857E"/>
<path d="M128.725 260.718L126.324 285.81L127.402 285.912L129.802 260.822" fill="white"/>
<path d="M117.224 189.339C117.224 189.339 117.944 185.198 118.665 186.278C119.385 187.358 121.186 199.063 121.186 199.063L117.224 189.339Z" fill="#F25650"/>
<path d="M121.185 221.213C140.995 223.763 174.725 224.133 176.109 221.033C186.015 217.245 175.389 177.634 168.907 160.526C165.388 151.241 160.747 146.389 155.76 145.4C146.577 143.959 155.541 196.704 158.641 201.584C158.641 201.584 152.519 200.144 123.887 207.527C123.887 207.527 118.574 190.583 117.224 189.34C117.224 189.34 115.243 187.898 115.963 190.6C116.684 193.3 117.669 218.257 118.304 219.053C120.465 221.753 121.185 221.213 121.185 221.213Z" fill="#F6857E"/>
<path d="M116.064 189.339C116.064 189.339 115.344 185.198 114.624 186.278C113.903 187.358 112.103 199.063 112.103 199.063L116.064 189.339Z" fill="#F25650"/>
<path d="M112.103 221.213C92.292 223.763 68.1877 214.77 66.8019 211.669C56.8959 207.881 71.1664 176.047 79.5881 159.806C84.6295 150.082 89.3666 144.949 94.3537 143.959C108.04 142.88 88.2317 191.861 87.8712 197.623C87.8712 197.623 90.7524 201.225 109.402 207.527C109.402 207.527 114.713 190.583 116.064 189.34C116.064 189.34 118.045 187.899 117.325 190.6C116.604 193.3 115.62 218.257 114.983 219.053C112.823 221.753 112.103 221.213 112.103 221.213Z" fill="#F6857E"/>
</svg>
