<svg width="379" height="469" viewBox="0 0 379 469" fill="none" xmlns="http://www.w3.org/2000/svg">
<path d="M123.345 419.122C107.126 419.122 90.9072 415.857 76.0408 409.367C61.9666 403.222 49.1865 394.219 38.5102 383.184C40.815 384.671 43.2622 386.101 45.8664 387.489L51.7613 387.574L135.264 388.783C126.324 374.687 108.288 357.276 95.3056 346.782C91.095 343.378 86.0979 340.055 80.8764 339.785C80.8632 339.785 80.8514 339.785 80.8382 339.784C80.8324 339.784 80.8251 339.784 80.8192 339.784C80.8045 339.782 80.7913 339.782 80.7766 339.781C80.7693 339.781 80.7635 339.781 80.7576 339.781C80.7429 339.779 80.7282 339.779 80.7135 339.778C80.7077 339.778 80.7018 339.778 80.696 339.778C80.6813 339.778 80.6652 339.776 80.6505 339.776C80.6446 339.776 80.6402 339.776 80.6344 339.775C80.6182 339.775 80.6021 339.775 80.5859 339.773C80.5815 339.773 80.5771 339.773 80.5742 339.773C80.5566 339.773 80.5375 339.772 80.5199 339.772C80.517 339.772 80.5155 339.772 80.5126 339.772C80.492 339.772 80.4715 339.771 80.4524 339.771C80.3658 339.769 80.2808 339.768 80.1942 339.768C79.3213 339.768 78.4424 339.857 77.5607 340.046C75.7987 340.426 73.9926 341.346 73.2796 343.001C73.0111 343.623 72.9202 344.294 72.9187 344.973C72.9172 345.536 72.9789 346.109 73.0522 346.665C73.0552 346.691 73.0595 346.716 73.0625 346.742C73.0625 346.745 73.0625 346.75 73.064 346.753C73.0669 346.775 73.0699 346.798 73.0728 346.82C73.0728 346.823 73.0742 346.827 73.0742 346.83C73.0772 346.852 73.0801 346.874 73.083 346.896C73.083 346.901 73.0845 346.905 73.0845 346.91C73.0874 346.933 73.0918 346.957 73.0948 346.98C73.0948 346.981 73.0948 346.983 73.0948 346.984C73.0992 347.011 73.1021 347.037 73.1065 347.062C73.1065 347.065 73.1065 347.067 73.1065 347.068C73.1095 347.09 73.1124 347.112 73.1168 347.133C73.1182 347.15 73.1211 347.168 73.1241 347.185C73.1241 347.19 73.1241 347.194 73.1256 347.199C73.1285 347.219 73.1315 347.24 73.1344 347.262C74.0924 353.851 76.5279 360.224 80.2133 365.771C82.2849 368.89 84.4092 373.82 81.1346 375.634C80.5184 375.976 79.823 376.097 79.1129 376.097C78.5745 376.097 78.0272 376.028 77.5005 375.934C64.1218 373.55 57.3143 359.109 49.1908 348.214C42.8763 339.746 34.6868 332.686 25.3808 327.69C24.4316 327.18 23.4193 326.7 22.3762 326.28C20.1241 325.377 17.7166 324.759 15.4455 324.759C13.2213 324.759 11.1277 325.352 9.43614 326.844C9.29089 322.745 9.82932 318.686 11.3405 314.829C15.6274 303.89 26.5575 297.28 36.7687 291.47C39.8423 289.721 42.916 287.972 45.9896 286.223C53.7199 289.586 62.1001 291.342 70.3865 293.04C74.7893 296.229 79.2171 299.386 83.6478 302.539C84.7481 305.361 85.8852 308.107 87.0618 310.752C85.1325 310.507 83.1945 310.355 81.2461 310.333C81.1097 310.331 80.9733 310.331 80.8368 310.331C74.8172 310.331 68.6449 311.719 63.8166 315.297C63.8093 315.303 63.802 315.309 63.7946 315.314C63.7888 315.318 63.7829 315.322 63.7756 315.328C63.758 315.341 63.7404 315.355 63.7213 315.368C62.8102 316.05 61.9006 316.897 61.704 318.019C61.6761 318.172 61.6644 318.324 61.6644 318.477C61.6629 319.408 62.1368 320.319 62.7075 321.078C65.0197 324.153 68.9912 325.654 72.8395 325.74C72.9803 325.745 73.1197 325.746 73.2591 325.746C73.5907 325.746 73.9208 325.737 74.2509 325.72C74.2523 325.72 74.2538 325.72 74.2553 325.72C74.2685 325.718 74.2817 325.718 74.2963 325.717C74.311 325.717 74.3272 325.715 74.3418 325.714C74.3506 325.714 74.3594 325.714 74.3682 325.713C74.3858 325.713 74.4034 325.711 74.4225 325.71C74.424 325.71 74.4255 325.71 74.4269 325.71C77.7236 325.507 80.9483 324.482 84.041 323.283C86.5659 322.304 89.1143 321.138 91.3517 319.614C96.0715 328.519 101.34 335.746 107.182 340.262C107.182 340.262 109.656 342.071 114.71 342.071C117.825 342.071 121.916 341.384 127.015 339.163L123.929 366.984L161.282 367.014C167.164 373.771 172.595 380.912 177.43 388.473C177.658 388.834 177.994 388.982 178.327 388.982C179.093 388.982 179.852 388.199 179.321 387.367C174.74 380.203 169.641 373.44 164.142 367.017L209.117 367.052C203.635 373.478 198.558 380.243 194.002 387.367C193.473 388.197 194.23 388.984 194.995 388.984C195.33 388.984 195.664 388.834 195.895 388.473C200.735 380.903 206.165 373.789 212.036 367.055L255.883 367.09C248.877 374.321 242.397 381.942 238.059 388.783L315.951 387.655C312.743 389.268 309.468 390.749 306.158 392.107C272.326 405.991 234.951 407.816 198.418 409.462L164.139 411.918C151.112 416.729 137.229 419.122 123.345 419.122ZM294.21 376.097C293.5 376.097 292.804 375.976 292.188 375.634C288.914 373.82 291.038 368.89 293.111 365.771C296.795 360.225 299.229 353.855 300.187 347.268C300.189 347.262 300.188 347.257 300.188 347.253C300.191 347.237 300.194 347.222 300.196 347.206C300.197 347.191 300.2 347.177 300.202 347.162C300.203 347.155 300.205 347.146 300.206 347.137C300.213 347.086 300.221 347.034 300.227 346.984C300.228 346.983 300.228 346.983 300.228 346.983C300.231 346.957 300.234 346.932 300.238 346.905C300.238 346.905 300.238 346.902 300.238 346.901C300.243 346.877 300.246 346.854 300.249 346.83C300.249 346.827 300.25 346.823 300.25 346.82C300.253 346.797 300.256 346.773 300.259 346.751C300.259 346.748 300.26 346.745 300.26 346.742C300.263 346.716 300.268 346.691 300.271 346.665C300.344 346.109 300.406 345.536 300.404 344.973C300.403 344.294 300.312 343.623 300.043 343.001C299.329 341.346 297.524 340.426 295.764 340.046C294.88 339.857 294.003 339.768 293.129 339.768C293.023 339.768 292.916 339.769 292.81 339.772C292.809 339.772 292.806 339.772 292.804 339.772C292.787 339.772 292.768 339.773 292.75 339.773C292.746 339.773 292.743 339.773 292.738 339.773C292.722 339.775 292.706 339.775 292.689 339.775C292.684 339.776 292.678 339.776 292.674 339.776C292.658 339.776 292.642 339.778 292.625 339.778C292.621 339.778 292.617 339.778 292.612 339.778C292.596 339.779 292.58 339.779 292.565 339.781C292.559 339.781 292.554 339.781 292.548 339.781C292.533 339.782 292.517 339.782 292.501 339.784C292.496 339.784 292.49 339.784 292.486 339.784C292.471 339.785 292.457 339.785 292.442 339.787C292.436 339.787 292.429 339.787 292.423 339.787C292.414 339.788 292.407 339.788 292.398 339.788C292.369 339.79 292.338 339.793 292.307 339.794C292.306 339.794 292.306 339.794 292.304 339.794C292.286 339.795 292.269 339.797 292.25 339.797C292.248 339.798 292.247 339.798 292.246 339.798C292.226 339.8 292.207 339.8 292.188 339.801C292.188 339.801 292.188 339.801 292.187 339.801C292.168 339.803 292.15 339.804 292.131 339.806C292.13 339.806 292.129 339.806 292.128 339.806C287.021 340.192 282.143 343.447 278.017 346.782C272.853 350.956 266.889 356.226 261.016 361.945C261.026 355.359 261.018 341.006 260.808 323.387C265.299 320.022 269.835 316.713 274.391 313.434L276.838 314.331C279.476 318.824 284.423 321.399 289.282 323.283C292.464 324.517 295.787 325.566 299.184 325.724C299.186 325.726 299.189 325.726 299.192 325.726C299.213 325.726 299.232 325.727 299.251 325.729C299.26 325.729 299.267 325.729 299.275 325.729C299.288 325.73 299.299 325.73 299.313 325.73C299.329 325.732 299.345 325.732 299.361 325.733C299.367 325.733 299.374 325.733 299.38 325.733C299.608 325.742 299.836 325.746 300.065 325.746C300.205 325.746 300.344 325.745 300.485 325.74C304.332 325.654 308.303 324.153 310.617 321.078C311.186 320.319 311.66 319.408 311.658 318.477C311.658 318.324 311.647 318.172 311.619 318.019C311.422 316.897 310.511 316.05 309.6 315.368C309.568 315.343 309.534 315.318 309.502 315.294C304.674 311.718 298.504 310.331 292.486 310.331C292.35 310.331 292.213 310.331 292.077 310.333C286.358 310.394 280.726 311.602 275.146 312.891C284.39 306.248 293.717 299.715 302.935 293.04C312.386 291.103 321.962 289.092 330.555 284.705C339.167 280.306 346.82 273.16 349.673 263.92C350.031 262.76 350.301 261.539 350.433 260.312C357.418 271.555 362.024 284.35 363.978 297.448C363.143 298.519 362.647 299.866 362.647 301.329C362.647 303.261 363.514 304.992 364.881 306.151C365.288 313.079 364.943 320.016 363.809 326.776C362.131 325.333 360.068 324.759 357.877 324.759C355.606 324.759 353.2 325.377 350.947 326.28C349.904 326.7 348.893 327.18 347.943 327.69C338.636 332.686 330.445 339.746 324.132 348.214C316.009 359.109 309.201 373.55 295.822 375.934C295.296 376.028 294.748 376.097 294.21 376.097ZM260.776 320.688C260.281 282.187 258.824 229.666 254.624 207.494C254.617 207.462 254.611 207.43 254.605 207.398C254.603 207.386 254.6 207.377 254.599 207.365C254.595 207.345 254.59 207.321 254.586 207.301C254.584 207.286 254.581 207.274 254.578 207.261C254.576 207.242 254.571 207.219 254.567 207.199C254.564 207.188 254.562 207.175 254.559 207.163C254.554 207.133 254.548 207.104 254.542 207.075C254.539 207.056 254.536 207.043 254.533 207.025C254.528 207.009 254.527 206.994 254.523 206.979C254.52 206.96 254.517 206.944 254.512 206.927C254.509 206.913 254.507 206.897 254.504 206.883C254.501 206.868 254.498 206.847 254.493 206.833C254.49 206.817 254.488 206.797 254.485 206.783C254.477 206.751 254.471 206.721 254.465 206.69C254.462 206.677 254.46 206.665 254.458 206.654C254.454 206.635 254.449 206.616 254.445 206.595C254.443 206.583 254.441 206.572 254.439 206.56C254.435 206.541 254.43 206.522 254.426 206.503C254.424 206.489 254.421 206.481 254.42 206.469C254.405 206.401 254.391 206.332 254.377 206.266C254.374 206.256 254.373 206.246 254.37 206.234C254.366 206.215 254.361 206.196 254.358 206.175C254.355 206.164 254.352 206.153 254.349 206.142C254.347 206.121 254.342 206.101 254.338 206.082C254.336 206.079 254.335 206.073 254.335 206.068C254.325 206.023 254.314 205.973 254.304 205.927C254.303 205.922 254.303 205.917 254.301 205.913C254.297 205.891 254.291 205.867 254.286 205.845C254.285 205.839 254.282 205.829 254.281 205.822C254.276 205.8 254.27 205.775 254.266 205.753C254.264 205.75 254.264 205.746 254.263 205.743C254.247 205.669 254.231 205.597 254.215 205.524C254.212 205.514 254.21 205.505 254.207 205.495C254.203 205.473 254.198 205.454 254.194 205.432C254.191 205.424 254.19 205.417 254.188 205.408C254.172 205.338 254.156 205.266 254.14 205.195C254.138 205.19 254.135 205.181 254.134 205.175C254.129 205.153 254.124 205.131 254.119 205.109C254.118 205.101 254.115 205.093 254.113 205.085C254.109 205.063 254.103 205.041 254.099 205.019C254.097 205.013 254.096 205.009 254.094 205.002C254.077 204.93 254.06 204.861 254.043 204.789C254.041 204.782 254.04 204.771 254.037 204.763C254.033 204.741 254.027 204.722 254.022 204.699C254.021 204.692 254.018 204.685 254.017 204.676C253.999 204.604 253.983 204.537 253.965 204.466C253.964 204.459 253.962 204.452 253.959 204.444C253.955 204.422 253.95 204.405 253.945 204.383C253.942 204.372 253.94 204.364 253.937 204.353C253.933 204.334 253.927 204.312 253.923 204.293C253.92 204.284 253.918 204.276 253.915 204.267C253.905 204.226 253.896 204.187 253.886 204.146C253.885 204.141 253.882 204.132 253.88 204.126C253.876 204.107 253.871 204.088 253.865 204.069C253.862 204.057 253.86 204.045 253.857 204.033C253.852 204.016 253.848 203.997 253.843 203.981C253.841 203.966 253.836 203.953 253.833 203.94C253.829 203.923 253.824 203.906 253.82 203.89C253.814 203.868 253.808 203.846 253.804 203.824C253.798 203.802 253.792 203.783 253.788 203.761C253.783 203.744 253.779 203.733 253.776 203.715C253.772 203.7 253.767 203.686 253.764 203.671C253.76 203.653 253.754 203.633 253.749 203.617C253.747 203.604 253.744 203.593 253.739 203.58C253.733 203.555 253.728 203.53 253.72 203.505C253.719 203.498 253.716 203.488 253.713 203.479C253.705 203.452 253.698 203.425 253.692 203.398C253.689 203.388 253.686 203.378 253.684 203.367C253.678 203.345 253.672 203.325 253.666 203.303C253.663 203.293 253.661 203.282 253.658 203.272C253.651 203.246 253.642 203.218 253.637 203.191C253.635 203.188 253.634 203.184 253.634 203.181C253.625 203.149 253.616 203.116 253.607 203.083C253.606 203.081 253.606 203.078 253.604 203.075C253.596 203.045 253.588 203.017 253.579 202.986C253.579 202.981 253.578 202.976 253.576 202.973C253.568 202.942 253.56 202.913 253.551 202.883C253.551 202.882 253.55 202.877 253.55 202.876C253.531 202.808 253.512 202.742 253.494 202.675H253.493C253.484 202.641 253.475 202.609 253.466 202.575L253.465 202.572C248.666 185.622 236.995 175.02 226.794 168.721C217.171 162.776 208.854 160.659 208.854 160.659L195.123 154.92L166.589 164.063L157.092 170.581C151.331 173.343 140.587 180.614 130.09 199C129.663 198.923 129.231 198.881 128.796 198.881C128.736 198.881 128.675 198.882 128.615 198.884C128.458 198.888 128.3 198.897 128.141 198.913C124.754 181.06 111.899 164.581 99.3006 150.527C86.8007 136.582 73.2943 121.315 67.973 103.977C68.5364 104.09 69.1188 104.15 69.7159 104.15C74.5457 104.15 78.46 100.234 78.46 95.4044C78.46 90.5746 74.5457 86.6588 69.7159 86.6588C68.2459 86.6588 66.861 87.0212 65.6462 87.6624C65.6506 87.4555 65.6564 87.2501 65.6652 87.0432C66.566 63.2391 85.1941 44.2633 103.356 28.8467C114.673 19.24 126.614 9.82541 140.66 5.02497C150.694 1.59629 161.362 0.679359 172.003 0.679359C174.419 0.679359 176.832 0.727751 179.237 0.802575C228.268 2.34893 279.539 16.9527 312.427 53.3492C321.685 63.5927 328.783 80.8182 318.412 89.9291C313.246 94.4669 306.003 94.6899 298.962 95.1799C299.271 94.2864 299.439 93.327 299.439 92.3278C299.439 87.4981 295.523 83.5823 290.693 83.5823C285.863 83.5823 281.948 87.4981 281.948 92.3278C281.948 94.5549 282.78 96.5855 284.148 98.1303C271.597 102.903 261.144 113.287 256.779 126.031C248.026 151.601 263.465 179.452 283.098 198.026C301.993 215.901 325.237 229.218 342.087 248.942C341.025 248.75 339.924 248.663 338.827 248.663C337.766 248.663 336.707 248.744 335.686 248.888C325.562 250.305 316.377 256.275 310.014 264.274C303.651 272.272 299.961 282.171 298.328 292.261L299.908 292.536C292.606 297.802 285.25 302.99 277.926 308.224C272.184 312.328 266.448 316.464 260.776 320.688ZM272.153 272.256C272.15 277.079 274.011 281.803 276.434 286.011C279.107 290.654 282.48 294.865 285.196 299.485L288.001 298.77C288.011 298.75 288.022 298.729 288.033 298.71C288.035 298.707 288.036 298.704 288.038 298.701C288.045 298.687 288.054 298.67 288.063 298.654C290.799 293.519 292.485 287.878 293.682 282.183C295.315 274.404 295.866 265.618 291.202 259.183C289.801 257.253 287.766 255.541 285.382 255.468C285.328 255.466 285.274 255.465 285.219 255.465C283.851 255.465 282.526 256.001 281.324 256.665C276.229 259.486 272.696 264.953 272.215 270.757C272.174 271.257 272.153 271.757 272.153 272.256ZM299.484 220.676C298.143 220.676 297.056 221.764 297.056 223.106C297.056 224.448 298.143 225.536 299.484 225.536C300.827 225.536 301.914 224.448 301.914 223.106C301.914 221.764 300.827 220.676 299.484 220.676ZM160.484 10.804C158.336 10.804 156.596 12.5454 156.596 14.6919C156.596 16.8383 158.336 18.5783 160.484 18.5783C162.631 18.5783 164.371 16.8383 164.371 14.6919C164.371 12.5454 162.631 10.804 160.484 10.804ZM82.254 298.866C79.3021 296.763 76.3562 294.656 73.4161 292.536L74.9947 292.261C73.9251 285.65 71.9724 279.12 68.9633 273.153C70.4422 272.312 71.9225 271.47 73.4014 270.628C76.0026 280.312 78.9486 289.926 82.254 298.866ZM111.644 249.522C111.06 248.446 110.473 247.353 109.883 246.244C111.027 245.197 112.136 244.129 113.209 243.033C112.673 245.135 112.151 247.298 111.644 249.522Z" fill="#F0FFF8"/>
<path d="M356.249 183.056C353.638 183.056 351.054 182.503 348.691 181.304L336.823 180.756C325.173 172.874 313.246 164.437 306.241 152.239C299.235 140.041 298.635 122.991 308.629 113.093C313.833 107.941 321.128 105.555 328.509 105.555C332.445 105.555 336.405 106.233 340.087 107.53C350.676 111.259 359.222 119.327 366.035 128.25C371.273 135.107 375.762 142.776 377.426 151.244C379.091 159.711 377.606 169.099 372.022 175.679C368.155 180.239 362.138 183.056 356.249 183.056Z" fill="#F1EDEB"/>
<path d="M41.5853 177.607C40.3867 177.607 39.3098 177.189 38.5586 176.142L37.0167 175.517C26.6485 174.126 17.1767 167.248 12.6418 157.819C8.10836 148.391 8.64977 136.698 14.0371 127.729C19.3906 118.815 29.5079 112.853 39.8864 112.853C40.1974 112.853 40.5084 112.859 40.8194 112.869C51.5207 113.24 61.8273 120.253 65.6726 130.249C66.6189 132.709 67.1661 135.21 67.3686 137.725C65.52 137.172 63.5644 136.764 62.1427 136.764C61.1656 136.764 60.4393 136.958 60.1738 137.43C58.9458 139.622 56.7348 154.751 56.7348 154.751C54.8613 154.144 47.8793 138.935 47.2323 136.138C46.6043 133.413 44.4726 127.749 42.9263 127.749C42.8852 127.749 42.8426 127.753 42.8016 127.762C41.2449 128.086 42.5682 137.11 42.5682 137.11C42.5682 137.11 38.7728 129.678 37.2132 129.678C37.2118 129.678 37.2103 129.678 37.2089 129.678C35.6522 129.69 37.2631 136.22 37.6123 140.579C37.9527 144.867 44.7441 162.973 44.0692 162.973C44.0574 162.973 44.0442 162.967 44.0296 162.957C43.0891 162.342 40.8796 158.934 40.2414 157.069C39.6017 155.206 35.4704 145.27 33.9093 144.971C33.8756 144.965 33.8418 144.961 33.811 144.961C32.4069 144.961 33.679 151.369 34.9583 158.671C36.267 166.137 41.9227 172.01 41.9227 172.01L45.617 176.422C44.2995 177.126 42.872 177.607 41.5853 177.607ZM64.4006 153.739C64.27 153.549 64.2011 153.442 64.2011 153.442L65.6755 143.46C65.8075 143.478 65.9529 143.486 66.1069 143.486C66.4517 143.486 66.8448 143.444 67.263 143.366C66.8624 146.878 65.8604 150.364 64.4006 153.739Z" fill="#F1EDEB"/>
<path d="M45.8663 387.489C25.8811 376.837 15.039 363.652 7.94106 342.147C6.25827 337.049 5.34275 330.655 9.26879 326.995C13.478 323.07 20.3118 324.969 25.3808 327.69C34.6867 332.686 42.8762 339.745 49.1908 348.214C57.3142 359.109 64.1217 373.55 77.5004 375.934C78.7211 376.151 80.0503 376.236 81.1345 375.634C84.4091 373.819 82.2848 368.89 80.2132 365.771C76.4163 360.056 73.9456 353.466 73.0521 346.664C72.8908 345.435 72.788 344.138 73.2795 343.001C73.9925 341.346 75.7986 340.426 77.5606 340.046C83.9646 338.664 90.2102 342.664 95.3055 346.782C108.288 357.276 126.324 374.687 135.264 388.783L45.8663 387.489Z" fill="#9AD1B8"/>
<path d="M178.317 268.761C159.89 263.141 143.309 251.631 131.597 236.334C126.011 229.038 121.409 220.565 120.832 211.392C120.511 206.249 122.497 199.934 127.565 198.994C131.23 198.314 134.657 200.831 137.449 203.303C157.217 220.804 172.036 243.836 179.768 269.081L178.317 268.761Z" fill="#9AD1B8"/>
<path d="M70.454 293.053C60.9807 291.113 51.3813 289.102 42.7678 284.705C34.1558 280.306 26.5033 273.16 23.6497 263.92C22.52 260.257 22.2632 255.984 24.4757 252.855C27.2617 248.913 32.8588 248.217 37.6373 248.888C47.7604 250.305 56.9476 256.275 63.3106 264.274C69.6735 272.272 73.3618 282.171 74.9947 292.261L70.454 293.053Z" fill="#9AD1B8"/>
<path d="M85.3218 298.77C82.5489 293.603 80.8471 287.92 79.6411 282.183C78.0082 274.404 77.4565 265.617 82.122 259.182C83.5216 257.253 85.5565 255.541 87.9406 255.468C89.3681 255.424 90.7487 255.974 91.9987 256.665C97.094 259.486 100.627 264.953 101.108 270.757C101.553 276.097 99.5631 281.367 96.8886 286.01C94.2155 290.654 90.8426 294.864 88.1269 299.484L85.3218 298.77Z" fill="#9AD1B8"/>
<path d="M99.5486 313.21C93.5201 311.807 87.4345 310.399 81.2462 310.333C75.0578 310.27 68.6743 311.656 63.7213 315.368C62.8102 316.05 61.9006 316.897 61.704 318.019C61.5118 319.106 62.0429 320.195 62.7075 321.078C65.0197 324.153 68.9912 325.654 72.8395 325.74C76.6863 325.83 80.4539 324.674 84.041 323.283C88.9001 321.399 93.8473 318.824 96.4867 314.331L99.5486 313.21Z" fill="#9AD1B8"/>
<path d="M121.332 329.215C119.415 323.647 117.483 318.012 116.943 312.146C116.403 306.282 117.384 300.072 120.842 295.303C121.288 294.689 121.814 294.072 122.538 293.845C123.408 293.571 124.352 293.924 125.141 294.379C128.401 296.257 130.369 299.81 131.413 303.424C134.045 312.526 131.418 322.954 124.786 329.721L121.332 329.215Z" fill="#9AD1B8"/>
<path d="M37.1751 260.147C40.0477 271.969 51.773 279.268 60.9118 286.082C71.1112 293.69 81.5175 301.009 91.8784 308.395C112.351 322.988 132.794 337.887 150.656 355.668C160.684 365.655 169.799 376.54 177.43 388.473C178.185 389.659 180.084 388.561 179.321 387.367C165.999 366.525 148.267 349.069 129.139 333.557C109.695 317.786 88.8752 303.838 68.6655 289.09C62.9041 284.888 57.0958 280.695 51.5779 276.176C46.1745 271.753 40.9882 266.559 39.2878 259.563C38.9562 258.192 36.8406 258.773 37.1751 260.147Z" fill="#9AD1B8"/>
<path d="M73.1256 347.198C73.1241 347.194 73.1241 347.19 73.1241 347.185C73.1241 347.188 73.1241 347.194 73.1256 347.198ZM73.0728 346.82C73.0699 346.798 73.0669 346.774 73.064 346.752C73.0669 346.774 73.0699 346.796 73.0728 346.82ZM73.0625 346.742C73.0595 346.716 73.0552 346.691 73.0522 346.664C73.0552 346.691 73.0581 346.716 73.0625 346.742ZM77.5607 340.046C78.4425 339.857 79.3213 339.767 80.1942 339.767C80.2808 339.767 80.3658 339.769 80.4524 339.77C80.3658 339.769 80.2808 339.767 80.1957 339.767C79.3227 339.767 78.4425 339.857 77.5607 340.046ZM80.7576 339.781C80.7429 339.779 80.7267 339.779 80.7135 339.778C80.7282 339.779 80.7429 339.779 80.7576 339.781ZM80.5742 339.773C80.5551 339.773 80.5375 339.772 80.5199 339.772C80.5375 339.772 80.5566 339.773 80.5742 339.773Z" fill="#F6FBF6"/>
<path d="M78.4278 362.813C75.743 358.004 73.9266 352.711 73.1344 347.262C73.1315 347.24 73.1285 347.219 73.1256 347.199C73.1241 347.194 73.1241 347.188 73.1241 347.185C73.1211 347.168 73.1182 347.15 73.1168 347.133C73.1124 347.112 73.1095 347.09 73.1065 347.068C73.1065 347.067 73.1065 347.065 73.1065 347.062C73.1021 347.037 73.0992 347.011 73.0948 346.984C73.0948 346.983 73.0948 346.981 73.0948 346.98C73.0918 346.957 73.0874 346.933 73.0845 346.91C73.0845 346.905 73.083 346.901 73.083 346.896C73.0801 346.874 73.0772 346.852 73.0742 346.83C73.0742 346.827 73.0728 346.823 73.0728 346.82C73.0699 346.797 73.0669 346.775 73.064 346.753C73.0625 346.748 73.0625 346.745 73.0625 346.742C73.0581 346.716 73.0552 346.691 73.0522 346.665C72.9789 346.109 72.9172 345.536 72.9187 344.973C72.9202 344.294 73.0111 343.623 73.2796 343.001C73.9926 341.346 75.7987 340.426 77.5607 340.046C78.4425 339.857 79.3227 339.768 80.1957 339.768C80.2808 339.768 80.3658 339.769 80.4524 339.771C80.4715 339.771 80.492 339.772 80.5126 339.772C80.5155 339.772 80.517 339.772 80.5199 339.772C80.5375 339.772 80.5551 339.773 80.5742 339.773C80.5786 339.773 80.5815 339.773 80.5859 339.773C80.6021 339.775 80.6182 339.775 80.6344 339.775C80.6402 339.776 80.6446 339.776 80.6505 339.776C80.6652 339.776 80.6813 339.778 80.696 339.778C80.7018 339.778 80.7077 339.778 80.7135 339.778C80.7267 339.779 80.7429 339.779 80.7576 339.781C80.7635 339.781 80.7708 339.781 80.7766 339.781C80.7913 339.782 80.8045 339.782 80.8192 339.784C80.8251 339.784 80.8324 339.784 80.8382 339.784C80.8514 339.785 80.8632 339.785 80.8764 339.785C85.6637 340.035 90.2631 342.85 94.2405 345.938C86.7684 348.611 80.4319 355.194 78.4278 362.813Z" fill="#BBE7D4"/>
<path d="M9.43619 326.844C11.1278 325.352 13.2214 324.759 15.4455 324.759C17.7166 324.759 20.1242 325.377 22.3762 326.28C20.1227 325.377 17.7166 324.76 15.4455 324.76C13.2214 324.76 11.1278 325.352 9.43619 326.844Z" fill="#F6FBF6"/>
<path d="M51.7612 387.574L45.8664 387.489C43.2622 386.101 40.815 384.671 38.5102 383.184C23.1185 373.261 14.1148 360.852 7.94114 342.147C7.13275 339.699 6.50041 336.949 6.49894 334.348C6.49601 331.536 7.22955 328.896 9.26886 326.995C9.32461 326.943 9.38038 326.894 9.43613 326.844C11.1277 325.352 13.2213 324.76 15.4455 324.76C17.7166 324.76 20.1226 325.377 22.3762 326.28C21.3037 327.5 20.4278 329.005 19.8336 330.815C17.3791 338.303 21.3551 346.572 24.9569 352.981C30.419 362.703 37.6313 371.587 44.9699 379.945C47.1515 382.427 49.4006 385.043 51.7612 387.574Z" fill="#BBE7D4"/>
<path d="M121.623 216.752C121.218 214.994 120.947 213.209 120.832 211.392C120.81 211.042 120.8 210.684 120.798 210.324C120.797 205.411 122.844 199.87 127.565 198.994C127.604 198.986 127.643 198.98 127.681 198.973C127.835 198.948 127.989 198.928 128.141 198.913C128.3 198.897 128.458 198.888 128.615 198.884C128.675 198.882 128.736 198.881 128.796 198.881C129.231 198.881 129.663 198.923 130.09 198.999C127.213 204.038 124.356 209.908 121.623 216.752Z" fill="#BBE7D4"/>
<path d="M24.5139 252.804C24.5153 252.799 24.5197 252.795 24.5226 252.79C24.5197 252.795 24.5168 252.799 24.5139 252.804Z" fill="white"/>
<path d="M70.3865 293.04C60.9352 291.103 51.3608 289.092 42.7678 284.705C34.1558 280.306 26.5032 273.16 23.6496 263.92C23.1332 262.246 22.7987 260.444 22.8002 258.682C22.8002 256.59 23.274 254.554 24.4756 252.855C24.4844 252.843 24.4918 252.833 24.4991 252.823C24.5035 252.815 24.5079 252.809 24.5138 252.804C24.5167 252.799 24.5196 252.795 24.5225 252.79C24.5269 252.783 24.5329 252.776 24.5387 252.768C24.5402 252.765 24.5416 252.763 24.5431 252.761C26.3917 250.221 29.4301 249.077 32.6417 248.769C32.4025 251.583 32.5713 254.495 33.2256 257.388C36.3594 271.294 50.4408 287.315 64.2715 291.253C65.8178 291.693 67.3817 291.935 68.9061 291.964C69.399 292.324 69.892 292.682 70.3865 293.04Z" fill="#BBE7D4"/>
<path d="M73.416 292.536C73.017 292.247 72.615 291.958 72.2159 291.669C73.0903 291.487 73.934 291.222 74.7321 290.868C74.8172 291.332 74.9184 291.795 74.9946 292.261L73.416 292.536Z" fill="#BBE7D4"/>
<path d="M70.454 293.053C70.432 293.048 70.4085 293.044 70.3865 293.04C69.8921 292.682 69.3991 292.324 68.9061 291.964C69.0103 291.967 69.1159 291.967 69.2201 291.967C70.2442 291.967 71.2491 291.87 72.216 291.669C72.615 291.958 73.0171 292.247 73.4161 292.536L70.454 293.053Z" fill="#BBE7D4"/>
<path d="M73.2591 325.746C73.1197 325.746 72.9803 325.745 72.8394 325.74C72.9788 325.745 73.1182 325.746 73.2576 325.746C73.5891 325.746 73.9192 325.737 74.2508 325.72C73.9207 325.737 73.5906 325.746 73.2591 325.746Z" fill="#F6FBF6"/>
<path d="M73.2576 325.746C73.1182 325.746 72.9788 325.745 72.8394 325.74C68.9911 325.654 65.0196 324.153 62.7074 321.078C62.1367 320.319 61.6628 319.408 61.6643 318.476C61.6643 318.324 61.676 318.171 61.7039 318.019C61.9005 316.896 62.8101 316.05 63.7212 315.368C63.7403 315.354 63.7579 315.341 63.7755 315.328C63.7829 315.322 63.7887 315.318 63.7946 315.313C63.8019 315.309 63.8092 315.303 63.8166 315.297C64.7541 314.603 65.7546 314.015 66.7846 313.479C67.8482 315.737 69.6499 317.665 71.6452 319.2C74.9683 321.754 78.6008 323.165 82.3934 323.893C79.8097 324.814 77.1425 325.542 74.4269 325.709C74.4254 325.709 74.4239 325.709 74.4224 325.709C74.4034 325.711 74.3857 325.712 74.3681 325.712C74.3593 325.714 74.3506 325.714 74.3418 325.714C74.3271 325.715 74.311 325.717 74.2963 325.717C74.2816 325.718 74.2684 325.718 74.2552 325.72C74.2538 325.72 74.2523 325.72 74.2508 325.72C73.9192 325.737 73.5891 325.746 73.2576 325.746Z" fill="#BBE7D4"/>
<path d="M327.457 387.489C347.442 376.837 358.284 363.652 365.382 342.147C367.065 337.049 367.98 330.655 364.054 326.995C359.845 323.07 353.011 324.969 347.944 327.69C338.636 332.686 330.445 339.745 324.132 348.214C316.009 359.109 309.201 373.55 295.823 375.934C294.602 376.151 293.273 376.236 292.189 375.634C288.914 373.819 291.038 368.89 293.111 365.771C296.907 360.056 299.377 353.466 300.271 346.664C300.432 345.435 300.535 344.138 300.044 343.001C299.329 341.346 297.524 340.426 295.764 340.046C289.358 338.664 283.114 342.664 278.018 346.782C265.033 357.276 247 374.687 238.059 388.783L327.457 387.489Z" fill="#9AD1B8"/>
<path d="M216.928 227.022C226.272 222.051 234.004 214.099 238.707 204.617C240.952 200.094 242.541 195.043 241.887 190.035C241.52 187.227 239.781 184.032 236.951 184.058C234.903 184.077 233.32 185.795 232.076 187.422C223.259 198.941 217.692 212.921 216.18 227.347L216.928 227.022Z" fill="#9AD1B8"/>
<path d="M302.869 293.053C312.343 291.113 321.942 289.102 330.555 284.705C339.168 280.306 346.82 273.16 349.674 263.92C350.805 260.257 351.06 255.984 348.846 252.855C346.062 248.913 340.464 248.217 335.686 248.888C325.563 250.305 316.377 256.275 310.014 264.274C303.651 272.272 299.961 282.171 298.329 292.261L302.869 293.053Z" fill="#9AD1B8"/>
<path d="M288.001 298.77C290.774 293.603 292.475 287.92 293.682 282.183C295.315 274.404 295.867 265.617 291.203 259.182C289.802 257.253 287.767 255.541 285.383 255.468C283.955 255.424 282.574 255.974 281.324 256.665C276.229 259.486 272.696 264.953 272.215 270.757C271.772 276.097 273.76 281.367 276.435 286.01C279.108 290.654 282.481 294.864 285.196 299.484L288.001 298.77Z" fill="#9AD1B8"/>
<path d="M273.776 313.21C279.803 311.807 285.889 310.399 292.077 310.333C298.265 310.27 304.649 311.656 309.6 315.368C310.512 316.05 311.423 316.897 311.619 318.019C311.811 319.106 311.28 320.195 310.617 321.078C308.303 324.153 304.332 325.654 300.484 325.74C296.635 325.83 292.869 324.674 289.282 323.283C284.423 321.399 279.476 318.824 276.838 314.331L273.776 313.21Z" fill="#9AD1B8"/>
<path d="M251.991 329.215C253.908 323.647 255.841 318.012 256.38 312.146C256.92 306.282 255.939 300.072 252.481 295.303C252.035 294.689 251.509 294.072 250.785 293.845C249.915 293.571 248.971 293.924 248.182 294.379C244.922 296.257 242.955 299.81 241.91 303.424C239.278 312.526 241.906 322.954 248.537 329.721L251.991 329.215Z" fill="#9AD1B8"/>
<path d="M334.035 259.563C332.524 265.78 328.246 270.585 323.523 274.681C318.742 278.827 313.554 282.541 308.466 286.298C298.383 293.741 288.123 300.937 277.927 308.224C257.733 322.653 237.617 337.483 220.094 355.144C210.338 364.979 201.467 375.689 194.003 387.367C193.241 388.56 195.137 389.66 195.895 388.473C209.435 367.291 227.604 349.676 247.104 334C266.856 318.12 287.979 304.069 308.384 289.065C313.946 284.973 319.617 280.925 324.853 276.42C329.941 272.045 334.528 266.815 336.148 260.146C336.481 258.775 334.369 258.191 334.035 259.563Z" fill="#9AD1B8"/>
<path d="M300.187 347.268C300.189 347.263 300.189 347.257 300.189 347.253C300.189 347.257 300.189 347.262 300.187 347.268ZM295.764 340.046C294.882 339.857 294.002 339.768 293.129 339.768C293.022 339.768 292.916 339.769 292.811 339.772C292.916 339.769 293.023 339.768 293.129 339.768C294.003 339.768 294.881 339.857 295.764 340.046ZM292.566 339.781C292.58 339.779 292.597 339.779 292.613 339.778C292.597 339.779 292.582 339.779 292.566 339.781ZM292.689 339.775C292.706 339.775 292.723 339.775 292.739 339.773C292.723 339.775 292.705 339.775 292.689 339.775Z" fill="#F6FBF6"/>
<path d="M294.895 362.813C292.891 355.194 286.556 348.611 279.083 345.938C282.972 342.918 287.454 340.159 292.128 339.806C292.13 339.806 292.13 339.806 292.131 339.806C292.15 339.804 292.17 339.803 292.187 339.801C292.189 339.801 292.189 339.801 292.189 339.801C292.208 339.8 292.227 339.8 292.246 339.798C292.247 339.798 292.249 339.798 292.25 339.797C292.269 339.797 292.287 339.795 292.304 339.794C292.306 339.794 292.306 339.794 292.308 339.794C292.338 339.793 292.368 339.79 292.398 339.788C292.407 339.788 292.415 339.788 292.423 339.787C292.429 339.787 292.437 339.787 292.442 339.787C292.457 339.785 292.472 339.785 292.486 339.784C292.491 339.784 292.497 339.784 292.501 339.784C292.517 339.782 292.533 339.782 292.548 339.781C292.554 339.781 292.56 339.781 292.566 339.781C292.582 339.779 292.597 339.779 292.613 339.778C292.617 339.778 292.621 339.778 292.626 339.778C292.642 339.778 292.658 339.776 292.674 339.776C292.679 339.776 292.685 339.776 292.689 339.775C292.705 339.775 292.723 339.775 292.739 339.773C292.743 339.773 292.746 339.773 292.751 339.773C292.768 339.773 292.787 339.772 292.805 339.772C292.808 339.772 292.809 339.772 292.811 339.772C292.916 339.769 293.022 339.768 293.129 339.768C294.002 339.768 294.882 339.857 295.764 340.046C297.525 340.426 299.329 341.346 300.044 343.001C300.312 343.623 300.403 344.294 300.405 344.973C300.406 345.536 300.344 346.109 300.271 346.665C300.268 346.691 300.264 346.716 300.261 346.742C300.261 346.745 300.259 346.748 300.259 346.751C300.256 346.773 300.253 346.797 300.25 346.82C300.25 346.823 300.249 346.827 300.249 346.83C300.246 346.854 300.243 346.877 300.239 346.901C300.239 346.902 300.239 346.904 300.239 346.905C300.234 346.932 300.231 346.957 300.229 346.983C300.229 346.983 300.228 346.983 300.227 346.984C300.221 347.034 300.214 347.086 300.206 347.137C300.205 347.146 300.204 347.155 300.202 347.162C300.201 347.177 300.198 347.191 300.196 347.206C300.195 347.222 300.192 347.238 300.189 347.253C300.189 347.257 300.189 347.263 300.187 347.268C299.395 352.714 297.579 358.005 294.895 362.813Z" fill="#BBE7D4"/>
<path d="M363.809 326.776C362.131 325.334 360.068 324.76 357.878 324.76C355.607 324.76 353.201 325.376 350.947 326.28C353.201 325.376 355.607 324.759 357.878 324.759C360.068 324.759 362.131 325.332 363.809 326.776Z" fill="#F6FBF6"/>
<path d="M321.562 387.574C323.922 385.043 326.172 382.427 328.353 379.945C335.692 371.587 342.904 362.703 348.368 352.981C351.968 346.572 355.944 338.303 353.488 330.815C352.895 329.006 352.019 327.5 350.947 326.28C353.2 325.377 355.607 324.76 357.878 324.76C360.068 324.76 362.131 325.334 363.809 326.776C363.891 326.847 363.973 326.92 364.054 326.995C366.093 328.896 366.827 331.536 366.824 334.348C366.823 336.949 366.19 339.699 365.382 342.147C358.284 363.652 347.442 376.838 327.457 387.489L321.562 387.574Z" fill="#BBE7D4"/>
<path d="M302.935 293.04C303.43 292.682 303.924 292.322 304.417 291.964C305.941 291.935 307.505 291.693 309.05 291.253C322.882 287.315 336.964 271.294 340.099 257.388C340.752 254.495 340.921 251.583 340.683 248.769C343.881 249.076 346.908 250.213 348.758 252.732C348.758 252.733 348.76 252.733 348.761 252.735C348.765 252.743 348.773 252.751 348.779 252.76C348.78 252.763 348.783 252.765 348.786 252.77C348.79 252.776 348.795 252.783 348.801 252.79C348.803 252.795 348.808 252.801 348.811 252.805C348.815 252.811 348.82 252.817 348.823 252.823C348.831 252.833 348.839 252.843 348.846 252.855C351.06 255.984 350.803 260.257 349.673 263.92C346.82 273.16 339.167 280.306 330.555 284.705C321.962 289.092 312.386 291.103 302.935 293.04Z" fill="#BBE7D4"/>
<path d="M299.909 292.536L298.329 292.261C298.405 291.795 298.506 291.332 298.591 290.868C299.389 291.222 300.234 291.487 301.109 291.669C300.71 291.958 300.308 292.247 299.909 292.536Z" fill="#BBE7D4"/>
<path d="M302.869 293.053L299.909 292.536C300.308 292.247 300.71 291.958 301.109 291.669C302.076 291.87 303.079 291.967 304.103 291.967C304.207 291.967 304.313 291.967 304.417 291.964C303.924 292.322 303.43 292.682 302.935 293.04C302.913 293.044 302.891 293.048 302.869 293.053Z" fill="#BBE7D4"/>
<path d="M285.196 299.484C282.48 294.864 279.108 290.654 276.434 286.01C274.011 281.803 272.151 277.078 272.153 272.256C272.153 271.757 272.174 271.257 272.215 270.757C272.696 264.953 276.229 259.486 281.324 256.665C281.814 256.393 282.328 256.16 282.852 255.959C279.128 266.508 277.142 278.215 283.251 288.011C284.757 290.425 287.007 291.505 289.263 291.505C289.92 291.505 290.578 291.414 291.219 291.236C290.349 293.785 289.329 296.277 288.063 298.654C288.054 298.67 288.045 298.686 288.038 298.701C288.036 298.704 288.035 298.707 288.034 298.71C288.022 298.729 288.012 298.749 288.001 298.77L285.196 299.484Z" fill="#BBE7D4"/>
<path d="M300.066 325.746C300.205 325.746 300.344 325.745 300.484 325.74C304.332 325.654 308.304 324.153 310.617 321.078C308.304 324.153 304.332 325.654 300.485 325.74C300.344 325.745 300.205 325.746 300.066 325.746Z" fill="#F6FBF6"/>
<path d="M300.066 325.746C299.837 325.746 299.608 325.742 299.38 325.733C299.375 325.733 299.367 325.733 299.361 325.733C299.345 325.731 299.329 325.731 299.313 325.73C299.3 325.73 299.288 325.73 299.275 325.728C299.268 325.728 299.26 325.728 299.251 325.728C299.232 325.727 299.213 325.726 299.193 325.726C299.19 325.726 299.187 325.726 299.184 325.724C296.368 325.592 293.606 324.847 290.93 323.893C294.722 323.165 298.355 321.754 301.678 319.2C303.673 317.665 305.475 315.737 306.539 313.479C307.566 314.013 308.565 314.602 309.502 315.294C309.534 315.318 309.568 315.343 309.6 315.368C310.512 316.05 311.423 316.896 311.619 318.019C311.647 318.171 311.659 318.324 311.659 318.476C311.66 319.408 311.186 320.319 310.617 321.078C308.304 324.153 304.332 325.654 300.484 325.74C300.344 325.745 300.205 325.746 300.066 325.746Z" fill="#BBE7D4"/>
<path d="M5.05377 313.475C2.3704 313.475 0.196136 311.301 0.196136 308.617C0.196136 305.934 2.3704 303.758 5.05377 303.758C7.73715 303.758 9.91292 305.934 9.91292 308.617C9.91292 311.301 7.73715 313.475 5.05377 313.475Z" fill="#C8E7D6"/>
<path d="M67.973 103.977C63.978 103.168 60.9704 99.6369 60.9704 95.4043C60.9704 92.0445 62.8659 89.1264 65.6461 87.6622C65.5038 93.3033 66.365 98.7346 67.973 103.977Z" fill="#C8E7D6"/>
<path d="M69.7159 104.15C69.1188 104.15 68.5363 104.09 67.973 103.977C66.365 98.7345 65.5038 93.3032 65.6461 87.6621C66.8609 87.021 68.2458 86.6586 69.7159 86.6586C74.5457 86.6586 78.46 90.5744 78.46 95.4041C78.46 100.234 74.5457 104.15 69.7159 104.15Z" fill="#C3DFCF"/>
<path d="M290.694 101.073C288.089 101.073 285.751 99.9362 284.149 98.1302C287.351 96.911 290.691 96.0601 294.1 95.6258C295.691 95.4248 297.322 95.2957 298.962 95.1798C297.78 98.6099 294.524 101.073 290.694 101.073Z" fill="#C8E7D6"/>
<path d="M284.149 98.1301C282.78 96.5852 281.948 94.5547 281.948 92.3276C281.948 87.4978 285.864 83.5821 290.694 83.5821C295.523 83.5821 299.439 87.4978 299.439 92.3276C299.439 93.3267 299.272 94.2862 298.962 95.1797C297.322 95.2956 295.691 95.4247 294.1 95.6257C290.691 96.06 287.351 96.9109 284.149 98.1301Z" fill="#C3DFCF"/>
<path d="M160.485 18.578C158.337 18.578 156.597 16.838 156.597 14.6915C156.597 12.5451 158.337 10.8037 160.485 10.8037C162.631 10.8037 164.371 12.5451 164.371 14.6915C164.371 16.838 162.631 18.578 160.485 18.578Z" fill="#C3DFCF"/>
<path d="M368.962 307.645C367.407 307.645 365.982 307.083 364.882 306.151C364.712 303.245 364.409 300.338 363.978 297.448C365.134 295.966 366.937 295.013 368.962 295.013C372.451 295.013 375.279 297.84 375.279 301.329C375.279 304.817 372.451 307.645 368.962 307.645Z" fill="#C8E7D6"/>
<path d="M364.882 306.151C363.514 304.992 362.647 303.261 362.647 301.329C362.647 299.866 363.143 298.519 363.978 297.448C364.409 300.339 364.712 303.245 364.882 306.151Z" fill="#C3DFCF"/>
<path d="M299.485 225.535C298.144 225.535 297.057 224.448 297.057 223.106C297.057 221.763 298.144 220.676 299.485 220.676C300.827 220.676 301.914 221.763 301.914 223.106C301.914 224.448 300.827 225.535 299.485 225.535Z" fill="#C3DFCF"/>
<path d="M362.747 468.323H14.153L61.3152 396.554H315.585L362.747 468.323Z" fill="#6173C1"/>
<path d="M78.7667 181.673C91.7698 208.982 116.855 266.351 129.903 275.959C145.942 287.768 176.906 291.26 176.906 291.26C129.491 356.571 107.182 340.262 107.182 340.262C75.2323 315.564 60.5258 209.902 57.8792 191.07L41.9226 172.01C41.9226 172.01 36.2669 166.138 34.9582 158.671C33.6496 151.205 32.3497 144.673 33.9092 144.971C35.4703 145.271 39.6017 155.206 40.2413 157.069C40.8795 158.934 43.0891 162.342 44.0295 162.957C44.9684 163.573 37.9585 144.938 37.6122 140.579C37.2631 136.22 35.6522 129.69 37.2088 129.678C38.7669 129.665 42.5682 137.11 42.5682 137.11C42.5682 137.11 41.2449 128.086 42.8015 127.762C44.3552 127.438 46.5866 133.338 47.2322 136.138C47.8792 138.936 54.8612 154.144 56.7347 154.751C56.7347 154.751 58.9457 139.622 60.1737 137.43C61.4017 135.24 72.4932 139.043 72.8145 140.285C73.1358 141.529 67.8585 143.754 65.6754 143.46L64.201 153.442C64.201 153.442 69.2493 161.189 72.9832 160.535C72.9832 160.535 76.0275 151.943 75.8632 151.008C75.7004 150.075 70.6901 147.002 72.6663 141.221C74.644 135.442 84.1774 157.949 84.1774 157.949C84.1774 157.949 78.0096 173.42 78.7667 181.673Z" fill="#F68677"/>
<path d="M41.751 136.316C43.8373 144.871 47.4126 153.002 52.3114 160.32C52.6884 160.881 53.601 160.354 53.2225 159.789C48.3707 152.54 44.8349 144.51 42.7662 136.035C42.6063 135.377 41.5911 135.656 41.751 136.316Z" fill="#F25650"/>
<path d="M71.1024 160.694C70.0138 160.624 68.8313 160.631 67.8366 161.14C66.6981 161.721 66.3694 162.855 66.3606 164.057C66.3372 167.334 66.7905 170.63 67.6018 173.801C67.7691 174.459 68.7857 174.18 68.6185 173.521C67.9245 170.811 67.5197 168.04 67.4331 165.244C67.3994 164.16 67.1763 162.692 68.3031 162.085C69.1335 161.636 70.1913 161.69 71.1024 161.749C71.7802 161.792 71.7772 160.738 71.1024 160.694Z" fill="#F25650"/>
<path d="M49.1145 167.964C51.4766 164.933 53.8401 161.902 56.2037 158.869C56.616 158.341 55.875 157.59 55.4584 158.124C53.0948 161.156 50.7312 164.187 48.3692 167.219C47.9569 167.748 48.6964 168.498 49.1145 167.964Z" fill="#F25650"/>
<path d="M161.372 168.988C161.372 168.988 127.917 175.458 111.13 251.815L136.391 292.106L161.372 168.988Z" fill="#FCDCCD"/>
<path d="M132.858 286.47L118.56 263.665C121.378 253.429 124.521 243.282 128.093 233.275C131.618 223.401 135.656 213.76 139.864 204.161C141.074 201.398 142.302 198.642 143.612 195.933C142.965 198.532 142.466 200.983 142.103 203.099L132.858 286.47ZM156.822 170.766C156.818 170.752 156.812 170.737 156.806 170.722C156.899 170.677 156.989 170.633 157.079 170.59L156.822 170.766Z" fill="#FBCDB9"/>
<path d="M260.391 367.093C260.391 367.093 261.628 244.466 254.624 207.494C247.618 170.523 208.854 160.659 208.854 160.659L195.123 154.92L166.589 164.063L156.57 170.939C148.225 176.903 143.757 193.461 142.103 203.099L123.929 366.984L260.391 367.093Z" fill="#FCDCCD"/>
<path d="M260.427 362.52C260.471 355.541 260.525 341.175 260.396 323.697C260.532 323.594 260.672 323.49 260.808 323.387C261.018 341.006 261.027 355.359 261.017 361.945C260.82 362.137 260.623 362.328 260.427 362.52ZM260.374 320.987C260.05 282.174 258.806 229.569 254.624 207.494C258.825 229.666 260.282 282.187 260.776 320.688C260.642 320.787 260.507 320.887 260.374 320.987Z" fill="#E7DBD4"/>
<path d="M261.005 365.843L260.403 365.84C260.409 365.066 260.418 363.946 260.427 362.519C260.623 362.327 260.82 362.137 261.017 361.944C261.012 364.461 261.005 365.843 261.005 365.843Z" fill="#94C1A9"/>
<path d="M260.396 323.697C260.389 322.8 260.381 321.899 260.374 320.987C260.507 320.887 260.642 320.787 260.776 320.687C260.788 321.596 260.798 322.493 260.808 323.387C260.672 323.49 260.532 323.594 260.396 323.697Z" fill="#94C1A9"/>
<path d="M254.624 207.494C254.618 207.463 254.611 207.428 254.605 207.397C254.611 207.43 254.617 207.462 254.624 207.494ZM254.599 207.365C254.595 207.343 254.59 207.322 254.586 207.3C254.59 207.321 254.595 207.344 254.599 207.365ZM254.579 207.261C254.574 207.24 254.571 207.22 254.567 207.199C254.571 207.218 254.576 207.242 254.579 207.261ZM254.56 207.163C254.554 207.133 254.548 207.102 254.542 207.075C254.548 207.104 254.554 207.133 254.56 207.163ZM254.533 207.025C254.53 207.011 254.526 206.992 254.523 206.979C254.527 206.994 254.529 207.009 254.533 207.025ZM254.513 206.926C254.51 206.91 254.507 206.898 254.504 206.882C254.507 206.897 254.51 206.913 254.513 206.926ZM254.494 206.832C254.491 206.813 254.488 206.8 254.485 206.783C254.488 206.797 254.491 206.816 254.494 206.832ZM254.466 206.69C254.463 206.678 254.46 206.665 254.458 206.653C254.46 206.665 254.463 206.677 254.466 206.69ZM254.445 206.595C254.444 206.585 254.441 206.571 254.439 206.56C254.441 206.571 254.444 206.583 254.445 206.595ZM254.426 206.502C254.425 206.491 254.422 206.479 254.42 206.469C254.422 206.48 254.425 206.489 254.426 206.502ZM254.378 206.266C254.375 206.254 254.373 206.246 254.37 206.234C254.373 206.246 254.375 206.256 254.378 206.266ZM254.359 206.175C254.356 206.165 254.353 206.152 254.35 206.141C254.353 206.153 254.356 206.163 254.359 206.175ZM254.338 206.081C254.337 206.077 254.337 206.072 254.335 206.068C254.335 206.072 254.337 206.078 254.338 206.081ZM254.304 205.927C254.303 205.923 254.301 205.917 254.301 205.913C254.303 205.917 254.303 205.921 254.304 205.927ZM254.287 205.845C254.284 205.836 254.284 205.83 254.281 205.822C254.282 205.829 254.285 205.839 254.287 205.845ZM254.266 205.753C254.265 205.748 254.265 205.747 254.263 205.742C254.265 205.745 254.265 205.75 254.266 205.753ZM254.215 205.524C254.213 205.515 254.21 205.503 254.208 205.494C254.21 205.505 254.212 205.514 254.215 205.524ZM254.194 205.431C254.191 205.423 254.191 205.417 254.188 205.408C254.19 205.417 254.191 205.424 254.194 205.431ZM254.12 205.109C254.118 205.1 254.117 205.094 254.114 205.085C254.115 205.092 254.118 205.101 254.12 205.109ZM254.099 205.019C254.097 205.015 254.096 205.006 254.095 205.001C254.096 205.009 254.097 205.013 254.099 205.019ZM254.043 204.789C254.042 204.78 254.04 204.771 254.037 204.762C254.04 204.771 254.042 204.781 254.043 204.789ZM254.023 204.699C254.021 204.693 254.018 204.682 254.017 204.676C254.018 204.685 254.021 204.692 254.023 204.699ZM253.966 204.466C253.964 204.459 253.961 204.451 253.96 204.444C253.963 204.451 253.964 204.459 253.966 204.466ZM253.945 204.382C253.943 204.374 253.939 204.362 253.938 204.353C253.941 204.363 253.942 204.372 253.945 204.382ZM253.866 204.068C253.863 204.055 253.86 204.046 253.857 204.033C253.86 204.045 253.863 204.057 253.866 204.068ZM253.844 203.98C253.841 203.967 253.836 203.952 253.833 203.939C253.836 203.952 253.841 203.966 253.844 203.98ZM253.82 203.889C253.814 203.867 253.808 203.844 253.804 203.823C253.808 203.845 253.814 203.867 253.82 203.889ZM253.788 203.76C253.784 203.746 253.779 203.729 253.776 203.715C253.779 203.732 253.784 203.744 253.788 203.76ZM253.765 203.671C253.759 203.653 253.754 203.634 253.75 203.617C253.754 203.633 253.76 203.653 253.765 203.671ZM253.74 203.58C253.734 203.555 253.728 203.531 253.721 203.505C253.728 203.53 253.734 203.555 253.74 203.58ZM253.713 203.479C253.707 203.454 253.698 203.423 253.693 203.398C253.698 203.424 253.706 203.452 253.713 203.479ZM253.659 203.272C253.65 203.244 253.644 203.217 253.637 203.191C253.643 203.217 253.651 203.245 253.659 203.272ZM253.634 203.181C253.625 203.147 253.616 203.116 253.607 203.082C253.616 203.116 253.625 203.148 253.634 203.181ZM253.605 203.075C253.597 203.046 253.588 203.015 253.58 202.986C253.588 203.016 253.596 203.044 253.605 203.075ZM253.55 202.876C253.531 202.807 253.514 202.742 253.495 202.675C253.512 202.742 253.531 202.808 253.55 202.876ZM253.465 202.572C248.668 185.624 236.997 175.022 226.794 168.721C236.995 175.019 248.666 185.622 253.465 202.572Z" fill="#E7DBD4"/>
<path d="M260.403 365.84L148.841 365.53C157.233 339.167 168.61 305.878 176.435 279.342C182.847 257.603 189.312 235.864 196.494 214.363C202.29 197.004 209.636 180.129 213.919 162.348C217.223 163.613 221.835 165.658 226.794 168.721C236.997 175.022 248.668 185.624 253.465 202.572C253.465 202.574 253.465 202.574 253.467 202.575C253.475 202.609 253.484 202.641 253.493 202.675H253.495C253.514 202.742 253.531 202.807 253.55 202.876C253.55 202.879 253.552 202.88 253.552 202.883C253.561 202.912 253.568 202.942 253.577 202.973C253.578 202.976 253.58 202.983 253.58 202.986C253.588 203.015 253.597 203.046 253.605 203.075C253.606 203.077 253.606 203.081 253.607 203.083C253.616 203.116 253.625 203.147 253.634 203.181C253.634 203.184 253.635 203.187 253.637 203.191C253.644 203.218 253.65 203.244 253.659 203.272C253.66 203.282 253.663 203.292 253.666 203.303C253.672 203.325 253.678 203.345 253.684 203.367C253.687 203.378 253.688 203.386 253.693 203.398C253.698 203.423 253.707 203.454 253.713 203.479C253.716 203.488 253.719 203.498 253.721 203.505C253.728 203.532 253.734 203.555 253.74 203.58C253.744 203.593 253.747 203.603 253.75 203.617C253.754 203.634 253.759 203.653 253.765 203.671C253.767 203.686 253.772 203.7 253.776 203.715C253.779 203.73 253.784 203.746 253.788 203.76C253.792 203.781 253.798 203.803 253.804 203.824C253.808 203.844 253.814 203.868 253.82 203.89C253.825 203.906 253.829 203.923 253.833 203.939C253.836 203.953 253.841 203.967 253.844 203.981C253.848 203.998 253.853 204.014 253.857 204.033C253.86 204.047 253.863 204.055 253.866 204.069C253.872 204.089 253.876 204.105 253.88 204.126C253.882 204.132 253.885 204.14 253.886 204.146C253.897 204.187 253.907 204.227 253.916 204.267C253.918 204.275 253.92 204.284 253.923 204.293C253.927 204.314 253.933 204.333 253.938 204.353C253.939 204.362 253.943 204.374 253.945 204.383C253.949 204.403 253.955 204.424 253.96 204.444C253.961 204.451 253.964 204.459 253.966 204.466C253.983 204.537 253.999 204.606 254.017 204.676C254.018 204.682 254.021 204.694 254.023 204.699C254.027 204.72 254.033 204.742 254.037 204.762C254.04 204.771 254.042 204.78 254.043 204.789C254.061 204.861 254.078 204.931 254.095 205.002C254.096 205.006 254.097 205.015 254.099 205.019C254.103 205.041 254.109 205.063 254.114 205.085C254.117 205.094 254.118 205.1 254.12 205.109C254.124 205.131 254.13 205.153 254.134 205.175C254.136 205.181 254.139 205.189 254.14 205.195C254.156 205.267 254.172 205.338 254.188 205.408C254.191 205.417 254.191 205.423 254.194 205.431C254.199 205.452 254.203 205.474 254.208 205.495C254.21 205.503 254.213 205.515 254.215 205.524C254.231 205.596 254.247 205.671 254.263 205.743C254.265 205.747 254.265 205.748 254.266 205.753C254.272 205.778 254.276 205.798 254.281 205.822C254.284 205.831 254.284 205.836 254.287 205.845C254.291 205.867 254.296 205.891 254.302 205.913C254.302 205.917 254.303 205.923 254.304 205.927C254.315 205.974 254.325 206.021 254.335 206.068C254.337 206.073 254.337 206.077 254.338 206.081C254.343 206.102 254.345 206.121 254.35 206.142C254.353 206.152 254.356 206.165 254.359 206.175C254.362 206.194 254.366 206.216 254.37 206.234C254.373 206.246 254.375 206.255 254.378 206.266C254.391 206.334 254.406 206.401 254.42 206.469C254.422 206.479 254.425 206.491 254.426 206.503C254.431 206.522 254.435 206.541 254.439 206.56C254.441 206.571 254.444 206.585 254.445 206.595C254.45 206.614 254.454 206.635 254.458 206.654C254.46 206.665 254.463 206.679 254.466 206.69C254.472 206.721 254.478 206.75 254.485 206.783C254.488 206.8 254.491 206.814 254.494 206.833C254.498 206.849 254.501 206.865 254.504 206.883C254.507 206.899 254.51 206.91 254.513 206.926C254.517 206.944 254.52 206.962 254.523 206.979C254.526 206.993 254.53 207.012 254.533 207.025C254.536 207.042 254.539 207.057 254.542 207.075C254.548 207.103 254.554 207.133 254.56 207.163C254.563 207.174 254.564 207.186 254.567 207.199C254.571 207.22 254.574 207.24 254.579 207.261C254.582 207.274 254.583 207.286 254.586 207.301C254.59 207.323 254.595 207.343 254.599 207.365C254.601 207.375 254.604 207.387 254.605 207.397C254.611 207.428 254.618 207.463 254.624 207.494C258.805 229.569 260.05 282.174 260.374 320.987C260.381 321.899 260.389 322.8 260.396 323.697C260.525 341.175 260.471 355.541 260.427 362.52C260.418 363.946 260.409 365.067 260.403 365.84Z" fill="#FBCDB9"/>
<path d="M163.326 149.989L163.161 146.52L164.29 146.444L186.08 125.009C186.08 125.009 189.758 127.226 190.253 128.083C190.747 128.94 192.58 127.486 192.58 127.486L198.272 155.578C198.272 155.578 175.853 174.702 167.233 173.749C164.013 173.392 163.665 172.712 163.665 172.712L163.326 149.989Z" fill="#F68677"/>
<path d="M186.642 123.834L163.046 146.937L163.475 154.086C163.475 154.086 176.013 144.893 181.08 128.222" fill="#F25650"/>
<path d="M193.417 117.743C193.417 117.743 185.722 118.481 183.279 122.167L172.609 102.977C172.609 102.977 168.849 88.6099 164.626 92.1794C160.402 95.7504 156.757 97.9819 153.819 97.0488C150.882 96.1142 148.186 91.6014 148.186 91.6014C148.186 91.6014 127.549 72.4158 140.67 57.7812C155.024 41.7719 156.287 54.1764 166.341 57.7386C170.216 59.1118 177.737 56.7688 181.796 57.9058C186.114 59.1133 186.278 69.0692 188.9 69.0619C203.612 69.0223 201.89 89.562 194.893 117.429" fill="#391015"/>
<path d="M185.421 103.62C182.43 105.073 179.795 107.069 178.02 110.134C177.775 110.557 177.503 110.928 177.22 111.27L183.279 122.167C185.722 118.481 193.417 117.743 193.417 117.743L194.893 117.429C195.979 113.106 196.959 109.18 197.807 105.579C193.838 104.041 189.735 103.186 185.421 103.62Z" fill="#F25650"/>
<path d="M186.417 118.498C186.734 119.188 194.969 113.193 196.723 120.172C199.105 129.653 188.204 129.045 187.456 130.385C185.935 133.101 187.334 135.001 179.529 138.887C174.771 141.255 161.538 151.466 155.914 146.842C150.292 142.216 148.489 143.032 147.599 90.0874C147.599 90.0874 152.338 85.6082 155.162 88.0114C160.454 92.5155 162.333 91.7496 163.589 90.08C165.351 87.737 168.756 87.3424 171.086 89.1235C184.344 99.2554 184.697 114.775 186.417 118.498Z" fill="#F68677"/>
<path d="M195.21 120.458C195.21 120.458 191.09 117.549 189.55 122.631L195.21 120.458Z" fill="#F25650"/>
<path d="M154.631 109.999L156.378 128.391L152.49 128.112C152.735 128.134 154.631 109.999 154.631 109.999Z" fill="#F25650"/>
<path d="M164.619 109.075C161.115 107.806 158.087 108.743 158.087 108.743C158.275 106.936 160.127 105.645 162.22 105.859C163.007 105.941 164.108 106.436 164.666 107.323C164.901 107.694 165.332 109.272 164.619 109.075Z" fill="#040606"/>
<path d="M150.298 109.828C146.572 109.902 145.606 111.009 145.606 111.009C145.876 109.582 146.026 108.751 146.902 107.69C147.404 107.08 148.871 107.549 149.711 108.177C150.062 108.438 151.035 109.754 150.298 109.828Z" fill="#040606"/>
<path d="M157.867 117.958C158.824 118.937 159.911 119.42 160.939 119.42C162.145 119.423 163.235 118.743 163.852 117.584C163.947 117.404 163.88 117.181 163.701 117.084C163.52 116.989 163.297 117.056 163.2 117.235C162.685 118.187 161.868 118.677 160.939 118.682C160.146 118.682 159.245 118.311 158.394 117.442C158.252 117.297 158.017 117.294 157.872 117.438C157.726 117.58 157.723 117.813 157.867 117.958Z" fill="#040606"/>
<path d="M147.988 118.679C148.473 119.706 149.346 120.2 150.185 120.193C151.242 120.193 152.245 119.456 152.483 118.316C152.524 118.117 152.395 117.922 152.195 117.88C151.996 117.839 151.801 117.967 151.76 118.167C151.601 118.949 150.903 119.456 150.185 119.455C149.623 119.449 149.048 119.166 148.652 118.359C148.564 118.175 148.344 118.098 148.161 118.186C147.977 118.274 147.9 118.495 147.988 118.679Z" fill="#040606"/>
<path d="M159.48 129.081L159.474 129.095C159.428 129.194 159.164 129.732 158.607 130.232C158.046 130.731 157.208 131.201 155.941 131.202C155.488 131.202 154.978 131.142 154.408 130.995C154.21 130.945 154.009 131.064 153.959 131.262C153.909 131.459 154.028 131.66 154.224 131.711C154.849 131.871 155.422 131.94 155.941 131.94C157.497 131.943 158.573 131.3 159.227 130.661C159.888 130.021 160.149 129.392 160.162 129.362C160.24 129.175 160.15 128.957 159.962 128.88C159.773 128.802 159.557 128.891 159.48 129.081Z" fill="#040606"/>
<path d="M300.793 177.954C288.248 205.474 269.637 242.705 261.37 260.22C261.986 259.282 260.657 249.324 260.951 247.139C240.499 260.395 216.284 270.879 216.284 270.879C221.57 306.974 241.863 330.068 253.321 335.406C268.053 342.27 275.025 336.993 275.025 336.993C306.556 311.767 319.502 205.875 321.833 187.003L337.471 167.678C337.471 167.678 343.029 161.713 344.211 154.224C345.397 146.738 346.587 140.185 345.033 140.51C343.476 140.834 339.511 150.837 338.903 152.712C338.296 154.585 336.144 158.03 335.214 158.662C334.285 159.292 340.982 140.543 341.258 136.179C341.532 131.816 343.035 125.26 341.478 125.274C339.92 125.287 336.245 132.794 336.245 132.794C336.245 132.794 337.414 123.749 335.855 123.451C334.294 123.152 332.163 129.09 331.563 131.898C330.965 134.707 324.238 150.03 322.373 150.668C322.373 150.668 319.911 135.579 318.647 133.407C317.382 131.237 306.355 135.224 306.054 136.472C305.752 137.722 311.068 139.858 313.246 139.528L314.886 149.484C314.886 149.484 309.966 157.314 306.223 156.723C306.223 156.723 303.037 148.181 303.183 147.245C303.333 146.309 308.292 143.152 306.219 137.405C304.146 131.66 294.986 154.324 294.986 154.324C294.986 154.324 301.412 169.689 300.793 177.954Z" fill="#F68677"/>
<path d="M336.029 131.714C334.105 140.222 330.704 148.31 325.974 155.639C325.605 156.211 326.517 156.739 326.883 156.171C331.66 148.771 335.101 140.583 337.045 131.994C337.194 131.334 336.179 131.051 336.029 131.714Z" fill="#F25650"/>
<path d="M308.116 157.904C309.006 157.832 310.023 157.766 310.855 158.155C312.058 158.718 311.867 160.215 311.853 161.328C311.811 164.126 311.455 166.905 310.808 169.626C310.649 170.286 311.666 170.567 311.823 169.906C312.582 166.72 312.982 163.419 312.903 160.143C312.875 158.938 312.533 157.813 311.387 157.245C310.387 156.749 309.203 156.762 308.116 156.85C307.445 156.905 307.439 157.96 308.116 157.904Z" fill="#F25650"/>
<path d="M330.953 163.001C328.54 160.009 326.125 157.018 323.713 154.026C323.287 153.498 322.545 154.248 322.967 154.771C325.379 157.763 327.794 160.754 330.206 163.746C330.633 164.274 331.374 163.524 330.953 163.001Z" fill="#F25650"/>
<path d="M283.517 397.781L293.119 406.076C297.954 408.271 301.443 412.861 303.18 417.208L329.449 428.828C337.58 432.499 343.312 442.918 337.04 442.474L259.13 440.008L283.517 397.781Z" fill="#F68677"/>
<path d="M277.684 442.475L299.668 393.304C299.668 393.304 59.1277 296.255 41.1334 376.397C27.6476 436.464 144.055 440.487 277.684 442.475Z" fill="#391015"/>
<path d="M113.306 438.106L105.455 393.307C105.455 393.307 305.736 287.219 325.061 367.05C339.547 426.885 246.882 433.892 113.306 438.106Z" fill="#922D3C"/>
<path d="M106.743 398.282L88.0668 400.307C85.2749 401.891 82.9451 404.183 81.3459 406.968C78.6919 411.592 74.6162 417.842 70.9161 420.31C59.3478 428.017 36.424 434.651 36.424 434.651C31.2039 436.495 28.5793 445.883 34.5431 445.362L114.553 438.097L106.743 398.282Z" fill="#F68677"/>
<path d="M212.582 275.271L269.334 243.643C269.334 243.643 253.069 161.215 218.507 163.684C183.944 166.154 212.582 275.271 212.582 275.271Z" fill="#FCDCCD"/>
<path d="M256.174 146.88L256.162 147.459L256.539 147.462C266.259 147.462 274.237 139.685 274.439 129.92L274.442 129.543C274.442 119.823 266.665 111.845 256.901 111.642L256.526 111.639C246.803 111.639 238.825 119.417 238.622 129.182L238.619 129.556C238.619 139.277 246.397 147.257 256.162 147.459L256.174 146.88L256.187 146.3C247.052 146.112 239.777 138.648 239.777 129.556L239.781 129.205C239.969 120.072 247.434 112.797 256.526 112.797L256.878 112.801C266.009 112.989 273.285 120.452 273.285 129.543L273.28 129.896C273.092 139.029 265.629 146.305 256.539 146.305L256.187 146.3L256.174 146.88Z" fill="#9AD1B8"/>
<path d="M243.586 114.885C241.62 113.966 240.207 113.577 239.115 113.574C238.129 113.561 237.361 113.944 236.944 114.553C236.527 115.153 236.438 115.856 236.435 116.504C236.435 117.044 236.505 117.562 236.567 117.98C236.725 119.01 237.299 119.824 237.815 120.533C245.082 130.414 256.238 136.534 267.398 141.28C269.297 142.085 271.426 142.894 273.568 142.898C274.501 142.898 275.438 142.74 276.338 142.349C276.954 142.079 277.605 141.676 278.006 140.986C278.241 140.578 278.349 140.137 278.348 139.708C278.343 138.901 277.995 138.166 277.542 137.517C277.086 136.864 276.506 136.287 275.953 135.812L275.199 136.691C275.701 137.12 276.219 137.644 276.593 138.18C276.973 138.718 277.193 139.259 277.189 139.708C277.189 139.952 277.134 140.173 277.001 140.408C276.797 140.772 276.374 141.073 275.877 141.287C275.142 141.605 274.372 141.739 273.568 141.739C271.725 141.743 269.714 141.01 267.852 140.215C256.757 135.502 245.804 129.452 238.748 119.848C238.242 119.164 237.809 118.488 237.713 117.809C237.653 117.408 237.592 116.943 237.592 116.504C237.589 115.972 237.688 115.499 237.892 115.219C238.096 114.948 238.377 114.744 239.115 114.732C239.919 114.728 241.215 115.049 243.094 115.934L243.586 114.885Z" fill="#9AD1B8"/>
<path d="M32.3234 208.415L32.7811 208.426L32.784 208.128C32.7825 200.458 26.6471 194.165 18.9446 194.005L18.6468 194.002C10.9766 194.002 4.68266 200.138 4.52274 207.842L4.51981 208.137C4.51981 215.807 10.6568 222.102 18.3607 222.262L18.6585 222.265C26.3272 222.265 32.6211 216.128 32.7811 208.426L32.3234 208.415L31.867 208.407C31.7189 215.612 25.8298 221.353 18.6585 221.351L18.3798 221.348C11.1733 221.2 5.43382 215.311 5.43382 208.137L5.43676 207.861C5.58494 200.656 11.474 194.915 18.6468 194.915L18.9255 194.918C26.1306 195.068 31.87 200.955 31.87 208.128L31.867 208.407L32.3234 208.415Z" fill="#9AD1B8"/>
<path d="M7.0813 218.348C6.35654 219.899 6.04994 221.014 6.04701 221.875C6.03674 222.652 6.33893 223.26 6.81868 223.587C7.29256 223.916 7.84714 223.988 8.35916 223.989C8.78463 223.989 9.19399 223.935 9.52262 223.885C10.3369 223.76 10.978 223.307 11.537 222.9C19.3333 217.167 24.1616 208.364 27.9072 199.56C28.541 198.06 29.1792 196.382 29.1821 194.692C29.1821 193.955 29.0574 193.216 28.7493 192.507C28.5366 192.02 28.2183 191.507 27.674 191.191C27.3526 191.007 27.0035 190.921 26.666 190.921C26.0293 190.924 25.4498 191.199 24.9363 191.557C24.4228 191.918 23.9665 192.374 23.5924 192.811L24.2863 193.405C24.6252 193.009 25.0375 192.601 25.4615 192.305C25.8855 192.006 26.3124 191.833 26.666 191.835C26.8582 191.837 27.0328 191.878 27.2191 191.984C27.5052 192.145 27.7429 192.478 27.9116 192.871C28.1625 193.451 28.2681 194.058 28.2681 194.692C28.271 196.146 27.693 197.733 27.0665 199.202C23.3474 207.955 18.5733 216.598 10.9956 222.164C10.4572 222.563 9.92463 222.905 9.38766 222.981C9.07076 223.028 8.70541 223.076 8.35916 223.076C7.93957 223.078 7.5655 223 7.34543 222.84C7.12976 222.679 6.96983 222.457 6.96102 221.875C6.95809 221.241 7.21043 220.218 7.90878 218.737L7.08281 218.348" fill="#9AD1B8"/>
</svg>
