<svg width="304" height="304" viewBox="0 0 304 304" fill="none" xmlns="http://www.w3.org/2000/svg">
<path d="M151.605 144.293C131.917 159.817 113.148 176.5 95.4198 194.228C83.6569 205.991 72.3533 218.213 61.5444 230.858L64.4913 233.377C75.2344 220.809 86.4695 208.661 98.161 196.969C115.781 179.35 134.438 162.765 154.005 147.337L151.605 144.293Z" fill="#83A26A"/>
<path d="M148.573 174.839C138.084 174.001 124.421 174.818 114.095 176.622L114.763 180.441C124.712 178.692 138.233 177.89 148.261 178.704L148.573 174.839Z" fill="#83A26A"/>
<path d="M109.129 206.383C101.604 205.048 93.9312 204.546 86.2954 204.89L86.4695 208.762C93.8202 208.432 101.208 208.914 108.452 210.198L109.129 206.383Z" fill="#83A26A"/>
<path d="M129.538 166.565C133.09 158.314 134.955 149.353 134.99 140.37L131.113 140.355C131.08 148.811 129.321 157.267 125.977 165.033L129.538 166.565Z" fill="#83A26A"/>
<path d="M101.307 194.58C100.684 185.603 100.063 176.626 99.4425 167.647L95.5746 167.916C96.1955 176.892 96.8178 185.87 97.4387 194.846L101.307 194.58Z" fill="#83A26A"/>
<path d="M152.245 133.496C169.929 109.184 190.465 86.9478 213.299 67.3901C216.701 64.4761 220.182 61.6005 224.135 59.4925C225.595 58.7126 227.381 58.0423 228.853 58.7989C230.465 59.6268 230.873 61.7211 230.943 63.5317C231.29 72.4477 228.002 81.0759 224.412 89.2463C217.013 106.091 207.541 122.905 192.319 133.237C186.071 137.478 179.063 140.473 171.947 143C163.783 145.9 155.413 148.218 146.919 149.933C148.163 144.365 148.89 138.11 152.245 133.496Z" fill="#83A26A"/>
<path d="M170.157 185.89C183.862 188.605 197.642 191.327 211.608 191.756C225.573 192.185 239.861 190.214 252.357 183.966C253.575 183.356 254.981 182.136 254.376 180.916C254.134 180.431 253.629 180.144 253.152 179.884C248.491 177.354 243.829 174.823 239.167 172.292C234.201 169.596 229.211 166.889 223.895 164.97C211.276 160.415 197.475 160.526 184.103 161.631C171.47 162.674 151.911 165.111 144.58 177.159C150.598 182.987 162.244 184.323 170.157 185.89Z" fill="#83A26A"/>
<path d="M141.161 134.843C145.423 116.704 145.441 97.5826 141.21 79.4339C140.512 76.4418 138.606 72.7342 135.593 73.3373C134.679 73.5196 133.902 74.1048 133.186 74.7024C126.521 80.2823 122.305 88.6871 121.817 97.366C121.466 103.649 122.972 109.868 124.262 116.029C125.257 120.774 126.13 125.545 126.877 130.335C127.426 133.833 126.932 140.681 129.068 143.543C134.828 151.261 140.044 139.593 141.161 134.843Z" fill="#83A26A"/>
<path d="M194.229 232.584C198.145 231.76 202.285 230.54 204.802 227.43C205.493 226.578 206.052 225.544 206.02 224.448C205.967 222.767 204.589 221.462 203.288 220.397C181.4 202.457 151.664 194.462 123.73 199.004C116.406 200.197 101.961 206.405 111.116 214.585C118.138 220.858 128.328 225.178 137.074 228.343C155.258 234.923 175.275 236.576 194.229 232.584Z" fill="#83A26A"/>
<path d="M104.03 159.208C107.797 135.345 103.342 108.955 86.7011 91.442C85.5497 90.2304 84.09 88.9763 82.4356 89.2079C81.4584 89.3463 80.6264 89.9974 79.9699 90.7334C77.4164 93.5912 76.9421 97.7662 77.3231 101.579C77.7042 105.392 78.8103 109.122 78.9391 112.951C79.0776 117.07 78.0825 121.141 77.9125 125.256C77.6672 131.195 79.1406 137.062 80.8155 142.764C82.3945 148.134 84.164 153.448 86.1185 158.692C87.4412 162.244 89.5314 171.744 92.5085 174.162C99.0629 179.48 103.294 163.872 104.03 159.208Z" fill="#83A26A"/>
<path d="M147.344 149.84C155.689 148.133 163.92 145.851 171.947 143C179.063 140.473 186.071 137.478 192.318 133.237C207.541 122.905 217.013 106.091 224.412 89.2463C228.002 81.0759 231.29 72.4477 230.943 63.5317C230.873 61.7211 230.465 59.6267 228.853 58.7989C228.651 58.6961 228.442 58.6234 228.229 58.57C221.672 65.0449 216.053 72.5916 210.388 79.9122C191.163 104.756 170.057 128.138 147.344 149.84Z" fill="#A1AD92"/>
<path d="M171.5 175.098C186.984 174.301 202.493 176.055 217.803 178.505C229.935 180.445 242.383 182.799 254.49 181.773C254.542 181.493 254.518 181.204 254.376 180.916C254.135 180.431 253.629 180.145 253.152 179.884C248.49 177.353 243.827 174.822 239.167 172.292C234.201 169.596 229.211 166.889 223.895 164.97C211.276 160.415 197.475 160.527 184.103 161.631C171.66 162.659 152.508 165.046 144.93 176.629C153.723 176.819 162.666 175.551 171.5 175.098Z" fill="#A1AD92"/>
<path d="M133.125 90.4937C133.604 99.7099 135.142 108.858 135.31 118.085C135.478 127.434 134.208 136.802 131.592 145.78C136.291 147.932 140.211 138.885 141.161 134.843C145.423 116.704 145.441 97.5826 141.21 79.434C140.512 76.4419 138.606 72.7343 135.593 73.3374C134.979 73.4607 134.43 73.7719 133.917 74.1392C132.962 79.4943 132.842 85.0495 133.125 90.4937Z" fill="#A1AD92"/>
<path d="M108.515 207.575C113.123 209.255 117.817 210.641 122.668 211.347C127.108 211.992 131.609 212.064 136.07 212.537C149.764 213.983 162.752 219.136 176.089 222.574C185.796 225.074 196.151 226.602 205.95 225.164C205.995 224.93 206.026 224.69 206.019 224.448C205.967 222.767 204.589 221.462 203.289 220.396C181.4 202.457 151.664 194.462 123.73 199.004C118.699 199.823 110.309 203.009 108.515 207.575Z" fill="#A1AD92"/>
<path d="M86.701 91.442C85.5497 90.2304 84.0899 88.9763 82.4356 89.2079C81.4583 89.3464 80.6263 89.9974 79.9698 90.7334C79.6504 91.0912 79.364 91.4681 79.1077 91.8615C82.7824 96.1639 85.4647 101.316 86.8189 106.81C87.9222 111.285 88.1662 115.931 89.1503 120.435C90.2592 125.502 92.2905 130.319 93.7872 135.286C97.6702 148.158 97.8827 161.819 95.8487 175.172C100.487 174.155 103.427 163.024 104.03 159.208C107.797 135.345 103.342 108.955 86.701 91.442Z" fill="#A1AD92"/>
<path d="M223.292 74.1844L223.261 74.5202C209.517 105.177 181.833 127.253 153.963 146.543C153.724 146.708 153.397 146.649 153.231 146.409C153.065 146.169 153.125 145.843 153.364 145.676C181.108 126.476 208.662 104.511 222.3 74.0885C222.419 73.824 222.732 73.7061 222.996 73.8253L223.292 74.1844Z" fill="#83A26A"/>
<path d="M227.791 173.844L227.784 174.117C227.7 174.395 227.407 174.554 227.127 174.469C201.72 166.849 174.077 167.866 149.296 177.335C149.024 177.439 148.72 177.302 148.616 177.031C148.517 176.776 148.647 176.456 148.92 176.351C173.918 166.8 201.799 165.775 227.43 173.461L227.791 173.844Z" fill="#83A26A"/>
<path d="M188.54 217.889L188.507 218.232C188.385 218.496 188.071 218.61 187.808 218.487C163.663 207.305 135.847 203.135 109.487 206.751C109.199 206.79 108.934 206.563 108.893 206.3C108.853 206.011 109.055 205.747 109.343 205.708C135.902 202.066 163.923 206.266 188.249 217.533L188.54 217.889Z" fill="#83A26A"/>
<path d="M99.4371 128.455C103.006 143.502 102.222 159.588 96.778 174.119C96.6766 174.391 96.3737 174.529 96.1009 174.426C95.8282 174.323 95.6911 174.016 95.7926 173.751C104.374 150.838 101.215 124.002 87.5468 103.714C87.3837 103.476 87.4481 103.146 87.688 102.983C87.9306 102.82 88.2554 102.884 88.4199 103.126C93.605 110.824 97.3003 119.454 99.4371 128.455Z" fill="#83A26A"/>
<path d="M139.257 86.6695L139.267 86.7312C141.602 106.756 139.657 127.515 133.644 146.76C133.558 147.038 133.263 147.193 132.986 147.105C132.708 147.019 132.556 146.724 132.641 146.447C138.609 127.34 140.54 106.733 138.221 86.8531C138.187 86.5639 138.395 86.3035 138.683 86.2679C138.951 86.2377 139.195 86.4132 139.257 86.6695Z" fill="#83A26A"/>
<path d="M172.211 227.696L172.225 227.795C172.239 228.085 172.013 228.331 171.722 228.344C149.405 229.312 127.136 222.652 109.018 209.588C108.782 209.418 108.729 209.091 108.899 208.855C109.069 208.619 109.396 208.566 109.632 208.736C127.56 221.661 149.594 228.251 171.675 227.292C171.933 227.281 172.154 227.455 172.211 227.696Z" fill="#A1AD92"/>
<path d="M230.036 187.246V187.49C229.967 187.772 229.684 187.946 229.4 187.879C202.582 181.423 175.006 178.524 147.436 179.26C147.145 179.269 146.905 179.042 146.896 178.748C146.889 178.459 147.118 178.216 147.408 178.208C175.069 177.472 202.738 180.379 229.647 186.854C229.847 186.903 229.992 187.059 230.036 187.246Z" fill="#A1AD92"/>
<path d="M87.4181 134.369C90.5678 147.642 92.7553 161.152 93.945 174.724C93.9711 175.013 93.7559 175.269 93.4681 175.294C93.1775 175.318 92.9171 175.102 92.8965 174.815C91.1695 155.133 87.3413 135.581 81.5106 116.699C81.4201 116.397 81.5819 116.126 81.8587 116.041C82.137 115.955 82.4317 116.112 82.518 116.388C84.3478 122.321 85.9844 128.322 87.4181 134.369Z" fill="#A1AD92"/>
<path d="M125.16 94.7577L125.174 94.8482C125.574 101.488 126.81 108.195 128.007 114.68C129.746 124.117 131.547 133.876 130.799 143.605C130.777 143.895 130.525 144.112 130.234 144.09C129.943 144.068 129.728 143.814 129.75 143.524C130.488 133.932 128.7 124.242 126.972 114.871C125.768 108.354 124.527 101.616 124.122 94.9126C124.104 94.6207 124.325 94.3726 124.616 94.3561C124.875 94.3383 125.102 94.5138 125.16 94.7577Z" fill="#A1AD92"/>
<path d="M203.517 82.4327L203.408 82.8919C197.22 90.292 190.276 97.3261 183.562 104.131C170.238 117.631 156.459 131.591 148.229 148.844C148.105 149.106 147.791 149.217 147.529 149.092C147.264 148.968 147.155 148.65 147.279 148.391C155.585 130.978 169.426 116.954 182.813 103.391C189.512 96.6024 196.44 89.5834 202.6 82.2176C202.788 81.9942 203.119 81.964 203.341 82.1504L203.517 82.4327Z" fill="#A1AD92"/>
<path d="M171.947 143C179.063 140.473 186.071 137.478 192.319 133.237C192.343 133.221 192.371 133.201 192.397 133.184C192.371 133.201 192.345 133.219 192.319 133.237C186.071 137.478 179.063 140.473 171.947 143ZM152.497 133.151C152.551 133.078 152.602 133.008 152.655 132.935C152.603 133.007 152.55 133.079 152.497 133.151ZM152.736 132.824C152.776 132.771 152.814 132.716 152.855 132.661C152.815 132.715 152.776 132.771 152.736 132.824ZM152.981 132.489C153.006 132.456 153.031 132.423 153.055 132.387C153.031 132.42 153.005 132.457 152.981 132.489ZM153.224 132.158C153.233 132.146 153.242 132.132 153.251 132.12C153.243 132.134 153.233 132.146 153.224 132.158ZM192.42 133.168C192.438 133.156 192.458 133.141 192.478 133.13C192.457 133.142 192.439 133.155 192.42 133.168ZM192.617 133.034C192.62 133.031 192.627 133.027 192.63 133.025C192.626 133.029 192.622 133.03 192.617 133.034Z" fill="#C0C59E"/>
<path d="M146.919 149.933C147.087 149.178 147.246 148.407 147.404 147.633C148.409 142.697 149.345 137.485 152.245 133.496C152.314 133.403 152.382 133.31 152.449 133.215C152.466 133.193 152.481 133.173 152.497 133.151C152.549 133.079 152.603 133.007 152.655 132.935C152.681 132.898 152.71 132.861 152.736 132.824C152.776 132.771 152.815 132.715 152.855 132.661C152.896 132.604 152.94 132.546 152.981 132.489C153.004 132.457 153.03 132.42 153.055 132.387C153.111 132.312 153.166 132.235 153.224 132.158C153.233 132.146 153.243 132.134 153.251 132.12C161.493 120.896 170.349 110.124 179.755 99.8537C178.108 103.713 176.489 107.585 174.906 111.471C164.197 122.602 153.953 134.403 147.279 148.391C147.181 148.596 147.229 148.836 147.382 148.99C147.423 149.031 147.472 149.067 147.529 149.093C147.79 149.217 148.104 149.106 148.229 148.844C154.456 135.792 163.857 124.625 173.835 114.115C173.317 115.398 172.805 116.684 172.295 117.969C171.313 120.448 170.332 122.997 170.279 125.66C170.27 126.016 170.284 126.376 170.316 126.733C162.858 134.63 155.196 142.335 147.344 149.84C155.689 148.133 163.92 145.851 171.947 143C165.469 145.3 158.86 147.235 152.164 148.794C150.421 149.2 148.672 149.578 146.919 149.933Z" fill="#63824D"/>
<path d="M147.344 149.84C155.196 142.335 162.858 134.63 170.316 126.733C170.486 128.578 171.187 130.404 172.458 131.674C172.483 131.699 172.507 131.724 172.532 131.749C166.269 136.588 159.821 141.209 153.363 145.676C153.125 145.843 153.065 146.169 153.231 146.409C153.248 146.435 153.269 146.461 153.291 146.483C153.468 146.66 153.75 146.69 153.962 146.543C160.503 142.015 167.034 137.334 173.376 132.426C173.439 132.467 173.504 132.506 173.568 132.546C176.361 134.227 179.94 133.269 182.999 132.139C191.1 129.151 198.858 125.242 206.103 120.546C202.164 125.267 197.727 129.517 192.63 133.025C192.627 133.027 192.62 133.031 192.617 133.034C192.601 133.045 192.584 133.056 192.569 133.066C192.55 133.079 192.531 133.093 192.513 133.105C192.499 133.114 192.488 133.122 192.477 133.13C192.458 133.141 192.438 133.156 192.42 133.168C192.412 133.174 192.403 133.179 192.397 133.184C192.371 133.201 192.343 133.221 192.318 133.237C186.071 137.478 179.063 140.473 171.947 143C163.92 145.851 155.689 148.133 147.344 149.84Z" fill="#798B68"/>
<path d="M153.291 146.483C153.269 146.461 153.248 146.435 153.23 146.409C153.065 146.169 153.125 145.843 153.363 145.676C159.821 141.209 166.269 136.588 172.532 131.749C172.791 131.999 173.072 132.225 173.376 132.426C167.034 137.334 160.503 142.015 153.962 146.543C153.75 146.69 153.468 146.66 153.291 146.483Z" fill="#63824D"/>
<path d="M147.382 148.99C147.229 148.836 147.181 148.596 147.279 148.391C153.953 134.404 164.197 122.602 174.906 111.471C174.547 112.351 174.189 113.233 173.836 114.115C163.857 124.625 154.456 135.792 148.229 148.845C148.105 149.106 147.791 149.217 147.529 149.093C147.473 149.067 147.423 149.031 147.382 148.99Z" fill="#798B68"/>
<path d="M144.581 177.159C145.44 175.749 146.467 174.467 147.63 173.306C156.4 164.559 172.949 162.552 184.103 161.631C171.66 162.659 152.508 165.045 144.93 176.629C146.162 176.655 147.396 176.652 148.631 176.629C148.576 176.755 148.566 176.901 148.616 177.03C148.645 177.103 148.684 177.165 148.735 177.215C148.878 177.358 149.096 177.411 149.296 177.335C150.01 177.062 150.724 176.797 151.443 176.538C157.506 176.271 163.611 175.583 169.672 175.202C169.672 175.254 169.673 175.307 169.676 175.36C169.743 176.501 170.312 177.457 171.119 178.264C171.192 178.337 171.267 178.409 171.342 178.479C163.376 178.087 155.392 177.995 147.408 178.208C147.118 178.216 146.889 178.459 146.896 178.748C146.901 178.89 146.959 179.016 147.05 179.108C147.148 179.205 147.286 179.264 147.436 179.26C155.913 179.034 164.389 179.152 172.843 179.61C173.313 179.907 173.797 180.177 174.271 180.424C185.52 186.273 197.715 189.632 210.249 191.687C196.75 191.131 183.416 188.516 170.157 185.89C162.244 184.323 150.598 182.987 144.581 177.159Z" fill="#63824D"/>
<path d="M144.93 176.629C152.508 165.046 171.66 162.659 184.103 161.631C188.48 161.271 192.9 161.02 197.312 160.999C189.15 162.78 181.292 165.492 174.041 169.73C174.029 169.737 174.017 169.744 174.004 169.751C165.457 171.048 157.036 173.252 148.92 176.351C148.786 176.403 148.687 176.507 148.631 176.629C147.396 176.652 146.162 176.655 144.93 176.629ZM151.443 176.538C158.125 174.133 165.005 172.333 171.977 171.145C170.664 172.23 169.644 173.579 169.672 175.202C163.611 175.583 157.506 176.271 151.443 176.538Z" fill="#798B68"/>
<path d="M148.735 177.215C148.684 177.165 148.645 177.103 148.616 177.03C148.567 176.902 148.576 176.755 148.631 176.629C148.687 176.507 148.786 176.403 148.92 176.351C157.036 173.252 165.457 171.048 174.004 169.751C173.316 170.154 172.613 170.619 171.977 171.145C165.005 172.333 158.125 174.133 151.444 176.538C150.724 176.797 150.01 177.062 149.296 177.335C149.096 177.411 148.878 177.358 148.735 177.215Z" fill="#63824D"/>
<path d="M147.05 179.108C146.958 179.016 146.901 178.89 146.895 178.748C146.889 178.459 147.117 178.216 147.408 178.208C155.392 177.995 163.376 178.087 171.342 178.479C171.795 178.896 172.31 179.271 172.843 179.61C164.389 179.152 155.913 179.034 147.435 179.26C147.286 179.265 147.148 179.206 147.05 179.108Z" fill="#798B68"/>
<path d="M130.001 144.633C129.693 144.324 129.381 143.961 129.068 143.543C126.932 140.681 127.426 133.833 126.877 130.335C126.13 125.545 125.257 120.774 124.262 116.029C123.082 110.394 121.737 104.71 121.785 98.971C123.045 102.657 124.469 106.285 126.056 109.84C126.355 111.529 126.665 113.206 126.972 114.87C128.7 124.242 130.488 133.932 129.75 143.524C129.738 143.684 129.799 143.833 129.904 143.938C129.989 144.023 130.104 144.08 130.234 144.09C130.525 144.112 130.777 143.895 130.799 143.605C131.547 133.876 129.746 124.117 128.007 114.68C127.94 114.317 127.872 113.953 127.805 113.588C129.028 116.101 130.334 118.575 131.724 121.001C132.274 121.962 132.929 122.971 133.717 123.759C134.161 124.203 134.647 124.577 135.181 124.834C134.787 131.921 133.577 138.962 131.592 145.78C131.984 145.958 132.369 146.061 132.75 146.094C132.749 146.095 132.748 146.099 132.748 146.102C132.143 146.048 131.522 145.822 130.889 145.384C130.596 145.181 130.3 144.931 130.001 144.633Z" fill="#63824D"/>
<path d="M131.592 145.78C133.577 138.962 134.787 131.921 135.181 124.834C135.655 125.061 136.166 125.194 136.717 125.202C136.997 125.205 137.271 125.175 137.539 125.115C136.466 132.23 134.867 139.257 132.75 146.094C132.369 146.061 131.984 145.958 131.592 145.78Z" fill="#798B68"/>
<path d="M141.161 134.844C141.175 134.781 141.188 134.72 141.204 134.658C141.19 134.719 141.176 134.782 141.161 134.844ZM141.267 134.389C141.269 134.376 141.274 134.358 141.278 134.343C141.274 134.358 141.269 134.373 141.267 134.389Z" fill="#C0C59E"/>
<path d="M133.88 146.003C133.88 146 133.881 145.996 133.881 145.993C137.479 145.046 140.301 138.37 141.132 134.965C140.497 137.565 138.702 142.08 136.285 144.488C135.537 145.234 134.73 145.778 133.88 146.003ZM141.132 134.96C141.133 134.953 141.136 134.947 141.136 134.942C141.136 134.947 141.135 134.954 141.132 134.96ZM141.161 134.843C141.174 134.78 141.189 134.719 141.203 134.655C141.205 134.657 141.205 134.657 141.203 134.658C141.188 134.72 141.174 134.78 141.161 134.843ZM141.218 134.594C141.228 134.551 141.237 134.509 141.248 134.465C141.247 134.469 141.247 134.472 141.246 134.476C141.237 134.514 141.228 134.551 141.22 134.59C141.218 134.591 141.218 134.594 141.218 134.594ZM141.263 134.395C141.276 134.342 141.29 134.287 141.302 134.233C141.292 134.27 141.285 134.307 141.277 134.343C141.273 134.358 141.269 134.376 141.266 134.39C141.265 134.391 141.265 134.394 141.263 134.395Z" fill="#63824D"/>
<path d="M133.881 145.994C136.009 139.047 137.607 131.909 138.668 124.683C139.204 124.394 139.698 124.003 140.125 123.568C141.817 121.854 142.681 119.507 143.435 117.218C143.669 116.507 143.875 115.789 144.097 115.073C143.677 121.466 142.763 127.824 141.339 134.07C141.336 134.081 141.334 134.095 141.331 134.106C141.321 134.148 141.312 134.191 141.302 134.233C141.29 134.287 141.276 134.342 141.264 134.395C141.259 134.418 141.254 134.443 141.249 134.465C141.238 134.509 141.228 134.551 141.218 134.594C141.214 134.614 141.21 134.635 141.203 134.656C141.19 134.719 141.174 134.78 141.161 134.843C141.158 134.852 141.155 134.86 141.155 134.868C141.154 134.872 141.153 134.876 141.151 134.88C141.15 134.884 141.148 134.889 141.148 134.891C141.147 134.898 141.146 134.902 141.146 134.908C141.144 134.912 141.143 134.913 141.143 134.916C141.142 134.923 141.139 134.928 141.139 134.934C141.139 134.937 141.137 134.938 141.136 134.942C141.136 134.947 141.133 134.953 141.132 134.96C141.132 134.963 141.132 134.963 141.132 134.965C140.301 138.37 137.479 145.046 133.881 145.994Z" fill="#798B68"/>
<path d="M132.748 146.102C132.748 146.099 132.749 146.095 132.751 146.094C134.867 139.257 136.466 132.23 137.54 125.115C137.932 125.027 138.309 124.878 138.668 124.683C137.607 131.909 136.009 139.047 133.881 145.994C133.881 145.996 133.88 146.001 133.88 146.003C133.51 146.099 133.133 146.136 132.748 146.102Z" fill="#63824D"/>
<path d="M129.904 143.938C129.8 143.834 129.738 143.684 129.75 143.524C130.488 133.932 128.7 124.242 126.972 114.871C126.665 113.207 126.355 111.529 126.056 109.84C126.62 111.1 127.202 112.349 127.805 113.588C127.872 113.954 127.94 114.317 128.007 114.68C129.746 124.117 131.547 133.876 130.799 143.605C130.777 143.895 130.525 144.112 130.234 144.09C130.104 144.08 129.989 144.023 129.904 143.938Z" fill="#798B68"/>
<path d="M116.082 218.396C115.237 216.479 114.383 214.561 113.523 212.652C124.68 219.793 137.182 224.635 150.173 226.922C155.788 229.826 161.646 232.304 167.606 234.56C157.282 233.993 147.035 231.92 137.309 228.428C137.305 228.427 137.304 228.425 137.301 228.425C137.267 228.413 137.231 228.399 137.197 228.387C137.193 228.385 137.19 228.385 137.186 228.384C137.149 228.369 137.111 228.355 137.074 228.343C130.223 225.865 122.487 222.677 116.082 218.396ZM112.721 210.874C112.392 210.142 112.063 209.419 111.73 208.691C115.305 209.861 118.941 210.806 122.668 211.347C125.511 211.761 128.378 211.939 131.246 212.136C131.294 212.365 131.354 212.59 131.428 212.815C131.847 214.076 132.634 215.142 133.578 216.087C134.332 216.841 135.188 217.518 136.035 218.154C139.545 220.781 143.231 223.124 147.044 225.245C134.848 222.668 123.16 217.804 112.721 210.874Z" fill="#63824D"/>
<path d="M111.73 208.691C111.411 207.988 111.089 207.282 110.767 206.581C118.083 205.649 125.504 205.315 132.923 205.56C131.536 207.449 130.769 209.881 131.246 212.137C128.378 211.939 125.511 211.761 122.668 211.347C118.941 210.806 115.305 209.861 111.73 208.691Z" fill="#798B68"/>
<path d="M110.125 205.189C113.291 201.918 119.598 199.683 123.699 199.011C120.326 199.564 115.457 201.176 112.076 203.551C112.074 203.55 112.073 203.551 112.072 203.552C112.052 203.566 112.033 203.58 112.014 203.593C112.013 203.595 112.011 203.596 112.009 203.596C112.004 203.6 111.998 203.604 111.993 203.608C111.989 203.61 111.987 203.613 111.985 203.614C111.976 203.621 111.966 203.628 111.956 203.635C111.954 203.637 111.95 203.639 111.947 203.641C111.941 203.644 111.939 203.647 111.935 203.651C111.929 203.654 111.926 203.656 111.921 203.659C111.917 203.663 111.913 203.665 111.908 203.669C111.9 203.674 111.893 203.678 111.887 203.685C111.882 203.687 111.881 203.688 111.878 203.691C111.871 203.695 111.866 203.7 111.858 203.706C111.856 203.707 111.852 203.709 111.851 203.71C111.833 203.722 111.817 203.736 111.799 203.748C111.797 203.75 111.795 203.752 111.792 203.752C111.785 203.759 111.777 203.765 111.77 203.769C111.769 203.77 111.767 203.772 111.767 203.772C111.758 203.778 111.748 203.785 111.738 203.792C111.738 203.792 111.738 203.792 111.737 203.793C111.729 203.799 111.719 203.806 111.712 203.813C111.711 203.814 111.711 203.814 111.708 203.814C111.692 203.828 111.673 203.841 111.654 203.855C111.652 203.857 111.652 203.857 111.652 203.857C111.643 203.863 111.636 203.87 111.626 203.877L111.625 203.878C111.072 204.294 110.568 204.73 110.125 205.189ZM123.7 199.01C123.71 199.009 123.721 199.006 123.73 199.004C123.719 199.007 123.71 199.009 123.7 199.01Z" fill="#C0C59E"/>
<path d="M111.626 203.877C111.636 203.87 111.643 203.863 111.652 203.857C111.643 203.863 111.634 203.872 111.626 203.877Z" fill="#63824D"/>
<path d="M110.305 205.579C110.246 205.449 110.184 205.316 110.125 205.189C110.568 204.73 111.072 204.294 111.625 203.878L111.626 203.877C111.634 203.872 111.643 203.863 111.652 203.856C111.652 203.856 111.652 203.856 111.654 203.855C111.673 203.841 111.692 203.828 111.708 203.814C111.711 203.814 111.711 203.814 111.713 203.813C111.719 203.806 111.729 203.799 111.737 203.793C111.739 203.792 111.739 203.792 111.739 203.792C111.748 203.785 111.758 203.778 111.767 203.771C111.767 203.771 111.769 203.77 111.77 203.769C111.777 203.765 111.785 203.759 111.792 203.752C111.795 203.752 111.798 203.75 111.799 203.748C111.817 203.736 111.833 203.722 111.851 203.71C111.852 203.708 111.856 203.707 111.858 203.706C111.866 203.7 111.872 203.695 111.878 203.691C111.881 203.688 111.882 203.687 111.887 203.685C111.893 203.678 111.9 203.674 111.909 203.669C111.913 203.665 111.917 203.663 111.921 203.659C111.926 203.656 111.929 203.654 111.935 203.651C111.939 203.647 111.941 203.644 111.947 203.641C111.95 203.639 111.954 203.637 111.957 203.634C111.966 203.628 111.976 203.621 111.985 203.614C111.987 203.612 111.989 203.61 111.993 203.608C111.998 203.604 112.004 203.6 112.009 203.596C112.011 203.596 112.013 203.595 112.014 203.593C112.033 203.58 112.052 203.566 112.072 203.552C112.073 203.551 112.074 203.549 112.076 203.551C115.457 201.176 120.326 199.564 123.699 199.011C123.7 199.01 123.7 199.01 123.7 199.01C123.71 199.009 123.719 199.007 123.73 199.004C130.875 197.843 138.136 197.508 145.354 197.941C143.481 198.667 141.639 199.47 139.845 200.371C137.642 201.477 135.456 202.748 133.777 204.536C125.921 204.232 118.052 204.573 110.305 205.579Z" fill="#798B68"/>
<path d="M110.767 206.581C110.612 206.245 110.46 205.915 110.305 205.579C118.052 204.573 125.921 204.232 133.777 204.536C133.592 204.735 133.411 204.941 133.238 205.152C133.13 205.285 133.025 205.42 132.923 205.56C125.504 205.315 118.083 205.649 110.767 206.581Z" fill="#63824D"/>
<path d="M113.523 212.652C113.257 212.06 112.99 211.466 112.721 210.874C123.16 217.804 134.848 222.669 147.044 225.245C148.078 225.82 149.12 226.379 150.173 226.922C137.182 224.635 124.68 219.793 113.523 212.652Z" fill="#798B68"/>
<path d="M99.7235 171.722C102.081 167.898 103.575 161.99 104.011 159.323C104.012 159.322 104.012 159.322 104.012 159.322C104.014 159.315 104.014 159.306 104.015 159.3C104.015 159.3 104.016 159.298 104.015 159.297C104.016 159.29 104.018 159.283 104.019 159.276L104.019 159.274C104.02 159.267 104.02 159.261 104.023 159.256C104.022 159.254 104.023 159.253 104.023 159.25C104.025 159.246 104.026 159.239 104.026 159.234L104.026 159.231C103.609 161.852 102.108 167.854 99.7235 171.722ZM104.026 159.228L104.027 159.227C104.027 159.224 104.027 159.224 104.027 159.221C104.027 159.224 104.027 159.227 104.026 159.228ZM104.075 158.916C104.082 158.876 104.088 158.832 104.096 158.791C104.089 158.834 104.082 158.873 104.075 158.916ZM104.166 158.324C104.168 158.302 104.171 158.283 104.175 158.259C104.173 158.281 104.17 158.303 104.166 158.324ZM104.185 158.192C104.188 158.178 104.189 158.163 104.192 158.147C104.189 158.163 104.186 158.177 104.185 158.192Z" fill="#C0C59E"/>
<path d="M95.554 175.228C94.9221 173.996 94.2862 172.768 93.6474 171.537C93.0937 165.961 92.3727 160.399 91.4846 154.859C93.0361 156.147 95.236 156.815 97.074 156.043C97.2481 161.552 96.9288 167.096 96.2133 172.6C96.0762 172.984 95.9364 173.368 95.7925 173.75C95.7171 173.946 95.7719 174.163 95.9145 174.306C95.9323 174.323 95.9501 174.341 95.9707 174.356C95.9309 174.626 95.8898 174.9 95.8487 175.172C100.442 174.164 103.369 163.243 104.011 159.323C103.575 161.99 102.081 167.898 99.7235 171.722C99.2287 172.526 98.6955 173.238 98.1253 173.808C97.3359 174.597 96.4764 175.114 95.554 175.228ZM104.023 159.25C104.023 159.245 104.026 159.239 104.026 159.234C104.026 159.239 104.025 159.246 104.023 159.25ZM104.027 159.227C104.029 159.22 104.029 159.215 104.03 159.208C104.029 159.212 104.029 159.217 104.027 159.222C104.027 159.224 104.027 159.224 104.027 159.227Z" fill="#63824D"/>
<path d="M95.8487 175.172C95.8898 174.9 95.9309 174.626 95.9707 174.356C96.009 174.384 96.0529 174.408 96.1009 174.426C96.3736 174.529 96.6766 174.391 96.778 174.119C99.9085 165.761 101.498 156.89 101.604 147.996C103.068 142.895 104.082 137.664 104.644 132.387C105.643 140.933 105.436 149.687 104.192 158.147C104.189 158.164 104.188 158.179 104.185 158.192C104.182 158.214 104.178 158.238 104.175 158.259C104.171 158.283 104.168 158.302 104.166 158.324C104.163 158.343 104.16 158.362 104.158 158.381C104.152 158.417 104.147 158.455 104.141 158.491C104.138 158.51 104.134 158.528 104.133 158.546C104.127 158.571 104.125 158.595 104.122 158.62C104.119 158.636 104.116 158.653 104.114 158.669C104.108 158.705 104.103 158.738 104.097 158.773C104.097 158.779 104.096 158.786 104.096 158.791C104.088 158.832 104.082 158.876 104.075 158.916C104.074 158.928 104.071 158.939 104.071 158.95C104.066 158.983 104.06 159.016 104.056 159.048C104.053 159.059 104.052 159.071 104.049 159.082C104.042 159.124 104.037 159.165 104.03 159.208C104.029 159.215 104.029 159.22 104.027 159.227L104.026 159.228C104.027 159.23 104.026 159.231 104.026 159.231L104.026 159.234C104.026 159.239 104.023 159.245 104.023 159.25C104.023 159.253 104.022 159.255 104.023 159.256C104.02 159.261 104.02 159.267 104.019 159.274L104.019 159.276C104.018 159.283 104.016 159.29 104.015 159.297C104.016 159.298 104.015 159.3 104.015 159.3C104.014 159.307 104.014 159.315 104.012 159.322C104.012 159.322 104.012 159.322 104.011 159.323C103.369 163.243 100.442 174.164 95.8487 175.172ZM96.2133 172.6C96.9287 167.096 97.2481 161.552 97.074 156.043C97.1179 156.024 97.1618 156.005 97.2056 155.983C98.8572 155.219 99.7715 153.518 100.417 151.771C99.9894 158.86 98.5996 165.888 96.2133 172.6Z" fill="#798B68"/>
<path d="M92.3261 169.009C89.8589 164.311 87.3452 159.642 84.7766 154.999C83.3471 150.957 82.0257 146.878 80.8155 142.764C80.8059 142.727 80.7949 142.692 80.7839 142.656C80.7839 142.65 80.7812 142.645 80.7799 142.638C80.7689 142.602 80.7579 142.567 80.7483 142.53C80.747 142.528 80.7456 142.524 80.7456 142.522C79.2804 137.512 77.9947 132.375 77.8988 127.177C80.943 134.632 84.3668 141.965 87.7783 149.231C88.4746 150.717 89.1956 152.233 90.2002 153.514C91.0528 158.66 91.7628 163.827 92.3261 169.009Z" fill="#63824D"/>
<path d="M95.9147 174.305C95.7721 174.163 95.7173 173.946 95.7927 173.75C95.9366 173.368 96.0764 172.984 96.2135 172.6C98.5998 165.888 99.9896 158.86 100.417 151.771C100.545 151.427 100.661 151.08 100.771 150.737C101.063 149.829 101.341 148.914 101.604 147.996C101.499 156.89 99.9087 165.761 96.7782 174.119C96.6768 174.39 96.3738 174.529 96.1011 174.426C96.0531 174.408 96.0093 174.384 95.9709 174.356C95.9503 174.341 95.9325 174.323 95.9147 174.305Z" fill="#63824D"/>
<path d="M93.6474 171.537C93.2075 170.694 92.7688 169.852 92.3261 169.009C91.7628 163.827 91.0528 158.66 90.2003 153.514C90.4387 153.819 90.6923 154.111 90.9678 154.386C91.0569 154.475 91.1502 154.563 91.2447 154.649C91.3229 154.722 91.4037 154.792 91.4846 154.859C92.3727 160.399 93.0937 165.961 93.6474 171.537Z" fill="#798B68"/>
</svg>
