<svg width="193" height="303" viewBox="0 0 193 303" fill="none" xmlns="http://www.w3.org/2000/svg">
<path d="M152.603 144.208C172.291 159.732 191.061 176.415 208.789 194.143C220.552 205.906 231.855 218.128 242.664 230.774L239.717 233.293C228.974 220.724 217.739 208.576 206.047 196.885C188.428 179.265 169.771 162.68 150.203 147.252L152.603 144.208Z" fill="#8FC9AF"/>
<path d="M155.635 174.754C166.125 173.917 179.787 174.734 190.114 176.537L189.445 180.356C179.497 178.607 165.976 177.805 155.948 178.619L155.635 174.754Z" fill="#8FC9AF"/>
<path d="M174.671 166.481C171.118 158.229 169.254 149.268 169.218 140.285L173.096 140.27C173.129 148.727 174.887 157.182 178.232 164.948L174.671 166.481Z" fill="#8FC9AF"/>
<path d="M202.902 194.496C203.524 185.518 204.145 176.542 204.766 167.562L208.634 167.831C208.013 176.807 207.391 185.785 206.77 194.761L202.902 194.496Z" fill="#8FC9AF"/>
<path d="M151.963 133.411C134.279 109.099 113.743 86.8631 90.9095 67.3055C87.5076 64.3915 84.0262 61.5159 80.0732 59.4078C78.6135 58.6279 76.8276 57.9577 75.3555 58.7143C73.7436 59.5421 73.3351 61.6365 73.2652 63.4471C72.9185 72.3631 76.2066 80.9913 79.7964 89.1617C87.1951 106.007 96.6676 122.821 111.89 133.152C118.137 137.393 125.145 140.388 132.262 142.915C140.425 145.816 148.796 148.133 157.29 149.848C156.045 144.281 155.319 138.025 151.963 133.411Z" fill="#8FC9AF"/>
<path d="M134.052 185.805C120.347 188.521 106.566 191.243 92.601 191.672C78.6355 192.101 64.348 190.13 51.8518 183.881C50.6333 183.271 49.2271 182.051 49.8329 180.831C50.0741 180.346 50.5799 180.06 51.0569 179.799C55.7171 177.269 60.38 174.739 65.0415 172.207C70.0073 169.511 74.9979 166.804 80.3132 164.885C92.9327 160.331 106.734 160.442 120.106 161.546C132.739 162.589 152.298 165.026 159.628 177.074C153.611 182.902 141.965 184.239 134.052 185.805Z" fill="#8FC9AF"/>
<path d="M163.048 134.759C158.785 116.62 158.767 97.498 162.998 79.3493C163.696 76.3572 165.603 72.6496 168.615 73.2527C169.529 73.435 170.307 74.0203 171.022 74.6179C177.688 80.1977 181.904 88.6025 182.392 97.2814C182.742 103.564 181.236 109.783 179.946 115.944C178.951 120.689 178.078 125.46 177.331 130.251C176.783 133.749 177.276 140.596 175.141 143.458C169.38 151.176 164.165 139.508 163.048 134.759Z" fill="#8FC9AF"/>
<path d="M109.979 232.499C106.063 231.676 101.924 230.456 99.4061 227.346C98.7153 226.493 98.1561 225.46 98.189 224.363C98.2411 222.683 99.6199 221.378 100.921 220.313C122.808 202.373 152.544 194.378 180.478 198.92C187.803 200.112 202.248 206.32 193.092 214.5C186.07 220.773 175.881 225.094 167.135 228.259C148.951 234.839 128.934 236.492 109.979 232.499Z" fill="#8FC9AF"/>
<path d="M200.178 159.123C196.412 135.26 200.866 108.87 217.507 91.3574C218.659 90.1458 220.119 88.8917 221.773 89.1233C222.75 89.2617 223.582 89.9128 224.239 90.6488C226.792 93.5066 227.266 97.6816 226.885 101.495C226.504 105.308 225.398 109.037 225.269 112.867C225.131 116.986 226.126 121.056 226.296 125.171C226.541 131.11 225.068 136.978 223.393 142.68C221.814 148.05 220.044 153.364 218.09 158.608C216.767 162.159 214.677 171.659 211.7 174.077C205.146 179.395 200.914 163.788 200.178 159.123Z" fill="#8FC9AF"/>
<path d="M156.865 149.755C148.519 148.049 140.288 145.766 132.262 142.915C125.146 140.388 118.137 137.393 111.89 133.152C96.6677 122.821 87.1952 106.007 79.7965 89.1617C76.2068 80.9913 72.9186 72.3631 73.2654 63.4471C73.3353 61.6365 73.7438 59.5421 75.3556 58.7143C75.5571 58.6115 75.7668 58.5388 75.9792 58.4854C82.5364 64.9603 88.156 72.507 93.8209 79.8276C113.045 104.672 134.152 128.054 156.865 149.755Z" fill="#BBE7D4"/>
<path d="M132.708 175.013C117.224 174.217 101.716 175.97 86.4055 178.421C74.2739 180.36 61.8258 182.715 49.7189 181.688C49.6668 181.409 49.6901 181.119 49.8327 180.832C50.0739 180.346 50.5797 180.06 51.0567 179.799C55.7182 177.268 60.3811 174.738 65.0413 172.207C70.0071 169.511 74.9976 166.804 80.313 164.886C92.9325 160.331 106.733 160.442 120.105 161.547C132.548 162.575 151.7 164.961 159.278 176.544C150.486 176.735 141.542 175.467 132.708 175.013Z" fill="#BBE7D4"/>
<path d="M171.084 90.4091C170.604 99.6252 169.066 108.773 168.899 118C168.73 127.349 170.001 136.717 172.616 145.695C167.918 147.847 163.998 138.801 163.048 134.759C158.785 116.62 158.767 97.498 162.998 79.3493C163.696 76.3572 165.603 72.6497 168.615 73.2527C169.229 73.3761 169.779 73.6872 170.292 74.0546C171.247 79.4097 171.366 84.9649 171.084 90.4091Z" fill="#BBE7D4"/>
<path d="M195.694 207.49C191.086 209.171 186.391 210.556 181.54 211.262C177.101 211.908 172.6 211.979 168.138 212.452C154.444 213.898 141.456 219.052 128.12 222.489C118.413 224.989 108.058 226.518 98.2589 225.08C98.2137 224.845 98.1822 224.606 98.1891 224.363C98.2411 222.683 99.62 221.378 100.919 220.311C122.808 202.372 152.545 194.377 180.478 198.92C185.51 199.738 193.899 202.925 195.694 207.49Z" fill="#BBE7D4"/>
<path d="M217.507 91.3575C218.659 90.1458 220.119 88.8917 221.773 89.1234C222.75 89.2618 223.582 89.9128 224.239 90.6489C224.558 91.0066 224.845 91.3835 225.101 91.7769C221.426 96.0793 218.744 101.232 217.39 106.725C216.286 111.2 216.042 115.847 215.058 120.351C213.949 125.418 211.918 130.234 210.421 135.202C206.538 148.073 206.326 161.734 208.36 175.087C203.722 174.07 200.782 162.939 200.178 159.123C196.412 135.26 200.867 108.87 217.507 91.3575Z" fill="#BBE7D4"/>
<path d="M80.9161 74.0998L80.9477 74.4356C94.6911 105.093 122.375 127.168 150.246 146.459C150.484 146.623 150.812 146.564 150.978 146.324C151.144 146.084 151.083 145.758 150.845 145.591C123.1 126.391 95.5464 104.427 81.9085 74.0039C81.7892 73.7394 81.4768 73.6215 81.2122 73.7407L80.9161 74.0998Z" fill="#8FC9AF"/>
<path d="M76.4178 173.759L76.4246 174.032C76.5082 174.31 76.8015 174.469 77.0811 174.384C102.489 166.765 130.132 167.782 154.913 177.25C155.184 177.354 155.489 177.217 155.593 176.946C155.691 176.691 155.561 176.372 155.289 176.266C130.291 166.715 102.409 165.69 76.7782 173.377L76.4178 173.759Z" fill="#8FC9AF"/>
<path d="M115.669 217.804L115.702 218.147C115.824 218.412 116.138 218.525 116.401 218.402C140.546 207.22 168.362 203.051 194.722 206.667C195.01 206.705 195.274 206.479 195.315 206.216C195.355 205.926 195.154 205.662 194.866 205.623C168.307 201.982 140.285 206.181 115.959 217.448L115.669 217.804Z" fill="#8FC9AF"/>
<path d="M204.771 128.37C201.202 143.417 201.986 159.503 207.43 174.035C207.532 174.306 207.835 174.444 208.108 174.342C208.38 174.239 208.517 173.932 208.416 173.666C199.834 150.753 202.994 123.917 216.662 103.629C216.825 103.392 216.76 103.061 216.521 102.898C216.278 102.735 215.953 102.8 215.789 103.041C210.603 110.74 206.908 119.369 204.771 128.37Z" fill="#8FC9AF"/>
<path d="M164.952 86.5849L164.942 86.6466C162.606 106.672 164.551 127.43 170.564 146.675C170.651 146.953 170.945 147.108 171.222 147.021C171.5 146.934 171.653 146.64 171.568 146.363C165.6 127.256 163.669 106.648 165.988 86.7686C166.022 86.4794 165.814 86.2189 165.526 86.1833C165.257 86.1531 165.013 86.3286 164.952 86.5849Z" fill="#8FC9AF"/>
<path d="M131.997 227.611L131.983 227.71C131.97 228.001 132.196 228.246 132.486 228.26C154.803 229.227 177.072 222.567 195.191 209.504C195.426 209.334 195.48 209.006 195.31 208.77C195.14 208.535 194.812 208.481 194.577 208.651C176.649 221.576 154.614 228.166 132.533 227.207C132.275 227.196 132.055 227.37 131.997 227.611Z" fill="#BBE7D4"/>
<path d="M74.1726 187.161L74.1726 187.405C74.2411 187.687 74.5248 187.861 74.8086 187.794C101.627 181.339 129.202 178.44 156.773 179.176C157.063 179.184 157.303 178.958 157.313 178.663C157.32 178.374 157.091 178.131 156.8 178.123C129.139 177.387 101.47 180.294 74.5619 186.769C74.3618 186.818 74.2165 186.975 74.1726 187.161Z" fill="#BBE7D4"/>
<path d="M216.79 134.285C213.641 147.558 211.453 161.067 210.263 174.639C210.237 174.928 210.453 175.185 210.74 175.209C211.031 175.234 211.291 175.017 211.312 174.731C213.039 155.048 216.867 135.496 222.698 116.614C222.788 116.313 222.627 116.041 222.35 115.956C222.072 115.87 221.777 116.028 221.69 116.303C219.861 122.237 218.224 128.237 216.79 134.285Z" fill="#BBE7D4"/>
<path d="M179.049 94.6732L179.035 94.7636C178.635 101.403 177.398 108.111 176.202 114.595C174.462 124.032 172.661 133.791 173.41 143.52C173.432 143.811 173.684 144.027 173.974 144.005C174.265 143.983 174.48 143.73 174.458 143.439C173.721 133.847 175.508 124.157 177.237 114.786C178.44 108.27 179.682 101.532 180.086 94.8281C180.104 94.5361 179.883 94.288 179.593 94.2715C179.334 94.2537 179.106 94.4292 179.049 94.6732Z" fill="#BBE7D4"/>
<path d="M100.692 82.3482L100.8 82.8073C106.988 90.2074 113.932 97.2416 120.647 104.047C133.971 117.546 147.75 131.506 155.979 148.76C156.104 149.022 156.418 149.133 156.68 149.008C156.944 148.883 157.054 148.565 156.929 148.306C148.623 130.894 134.782 116.869 121.395 103.307C114.697 96.5178 107.768 89.4988 101.609 82.133C101.421 81.9096 101.089 81.8794 100.867 82.0658L100.692 82.3482Z" fill="#BBE7D4"/>
<path d="M132.262 142.915C125.145 140.388 118.137 137.393 111.89 133.152C111.865 133.136 111.838 133.117 111.812 133.099C111.838 133.117 111.864 133.135 111.89 133.152C118.137 137.393 125.145 140.388 132.262 142.915ZM151.711 133.066C151.658 132.993 151.607 132.923 151.553 132.851C151.606 132.922 151.659 132.995 151.711 133.066ZM151.473 132.74C151.433 132.686 151.394 132.632 151.353 132.577C151.393 132.63 151.433 132.686 151.473 132.74ZM151.227 132.404C151.203 132.371 151.178 132.338 151.153 132.303C151.178 132.335 151.204 132.372 151.227 132.404ZM150.985 132.074C150.975 132.061 150.967 132.048 150.957 132.035C150.965 132.049 150.975 132.061 150.985 132.074ZM111.788 133.084C111.771 133.072 111.75 133.056 111.731 133.045C111.751 133.058 111.769 133.07 111.788 133.084ZM111.591 132.95C111.588 132.947 111.581 132.943 111.579 132.94C111.583 132.944 111.587 132.945 111.591 132.95Z" fill="#C0C59E"/>
<path d="M157.29 149.848C157.121 149.093 156.962 148.323 156.804 147.548C155.8 142.613 154.864 137.4 151.963 133.411C151.895 133.318 151.826 133.225 151.759 133.13C151.743 133.109 151.728 133.088 151.711 133.066C151.659 132.995 151.606 132.922 151.554 132.851C151.528 132.814 151.499 132.777 151.473 132.74C151.433 132.686 151.393 132.63 151.353 132.577C151.312 132.519 151.268 132.462 151.227 132.404C151.204 132.373 151.178 132.336 151.153 132.303C151.097 132.227 151.042 132.15 150.985 132.074C150.975 132.061 150.966 132.049 150.957 132.035C142.716 120.811 133.86 110.039 124.453 99.7691C126.101 103.629 127.72 107.501 129.303 111.387C140.011 122.518 150.256 134.319 156.929 148.306C157.028 148.512 156.98 148.752 156.826 148.905C156.785 148.946 156.736 148.982 156.68 149.008C156.418 149.133 156.104 149.022 155.979 148.76C149.753 135.707 140.351 124.541 130.373 114.031C130.891 115.314 131.404 116.599 131.914 117.885C132.895 120.363 133.876 122.912 133.93 125.576C133.938 125.932 133.924 126.291 133.893 126.649C141.351 134.545 149.012 142.251 156.865 149.755C148.519 148.049 140.288 145.766 132.262 142.916C138.739 145.215 145.349 147.151 152.044 148.709C153.788 149.115 155.537 149.493 157.29 149.848Z" fill="#9AD1B8"/>
<path d="M156.865 149.755C149.012 142.251 141.351 134.545 133.893 126.649C133.723 128.494 133.021 130.319 131.751 131.59C131.726 131.615 131.701 131.639 131.677 131.664C137.939 136.504 144.388 141.124 150.845 145.591C151.083 145.758 151.144 146.084 150.978 146.324C150.96 146.35 150.94 146.376 150.918 146.398C150.741 146.575 150.458 146.605 150.246 146.459C143.705 141.93 137.174 137.249 130.832 132.341C130.769 132.382 130.705 132.422 130.64 132.462C127.847 134.142 124.268 133.184 121.209 132.055C113.109 129.067 105.351 125.157 98.1055 120.462C102.045 125.182 106.481 129.432 111.579 132.94C111.582 132.943 111.588 132.947 111.591 132.95C111.608 132.961 111.624 132.971 111.639 132.981C111.658 132.995 111.678 133.008 111.695 133.021C111.709 133.029 111.72 133.037 111.731 133.045C111.75 133.056 111.771 133.072 111.789 133.084C111.797 133.089 111.805 133.095 111.812 133.099C111.838 133.117 111.865 133.136 111.89 133.152C118.137 137.393 125.145 140.388 132.262 142.915C140.288 145.766 148.519 148.049 156.865 149.755Z" fill="#9AD1B8"/>
<path d="M150.918 146.398C150.94 146.376 150.96 146.35 150.978 146.324C151.144 146.084 151.084 145.758 150.845 145.591C144.388 141.124 137.939 136.504 131.677 131.664C131.418 131.915 131.137 132.141 130.832 132.341C137.174 137.249 143.705 141.93 150.246 146.459C150.459 146.605 150.741 146.575 150.918 146.398Z" fill="#9AD1B8"/>
<path d="M156.826 148.905C156.98 148.752 157.028 148.512 156.929 148.306C150.255 134.319 140.011 122.518 129.302 111.387C129.662 112.267 130.019 113.148 130.373 114.031C140.351 124.541 149.752 135.707 155.979 148.76C156.104 149.022 156.418 149.133 156.68 149.008C156.736 148.982 156.785 148.946 156.826 148.905Z" fill="#9AD1B8"/>
<path d="M159.628 177.075C158.768 175.664 157.742 174.383 156.578 173.222C147.809 164.474 131.26 162.468 120.105 161.547C132.548 162.575 151.7 164.961 159.278 176.544C158.046 176.57 156.813 176.567 155.578 176.544C155.632 176.67 155.642 176.817 155.593 176.946C155.564 177.018 155.524 177.08 155.473 177.131C155.331 177.273 155.113 177.327 154.913 177.25C154.199 176.977 153.485 176.713 152.765 176.454C146.703 176.186 140.598 175.498 134.537 175.117C134.537 175.169 134.536 175.223 134.533 175.275C134.466 176.417 133.897 177.372 133.09 178.179C133.017 178.252 132.942 178.325 132.866 178.394C140.832 178.002 148.816 177.911 156.8 178.123C157.091 178.131 157.32 178.374 157.313 178.663C157.307 178.806 157.25 178.932 157.158 179.024C157.061 179.121 156.922 179.18 156.773 179.176C148.295 178.95 139.819 179.068 131.365 179.525C130.895 179.823 130.411 180.093 129.937 180.339C118.688 186.188 106.494 189.547 93.9591 191.602C107.459 191.047 120.792 188.432 134.052 185.806C141.964 184.239 153.611 182.903 159.628 177.075Z" fill="#9AD1B8"/>
<path d="M159.278 176.544C151.7 164.961 132.548 162.575 120.105 161.547C115.729 161.186 111.309 160.935 106.897 160.915C115.059 162.695 122.917 165.408 130.167 169.646C130.18 169.653 130.192 169.659 130.204 169.666C138.752 170.963 147.173 173.167 155.288 176.266C155.423 176.318 155.521 176.422 155.578 176.544C156.813 176.568 158.046 176.57 159.278 176.544ZM152.765 176.454C146.083 174.048 139.204 172.249 132.231 171.06C133.545 172.146 134.564 173.495 134.537 175.117C140.598 175.498 146.703 176.186 152.765 176.454Z" fill="#9AD1B8"/>
<path d="M155.473 177.131C155.524 177.08 155.564 177.018 155.593 176.946C155.642 176.817 155.632 176.67 155.578 176.544C155.521 176.422 155.423 176.318 155.288 176.266C147.173 173.167 138.752 170.963 130.204 169.666C130.892 170.069 131.595 170.534 132.231 171.06C139.204 172.249 146.083 174.048 152.765 176.454C153.485 176.713 154.199 176.977 154.913 177.25C155.113 177.327 155.331 177.273 155.473 177.131Z" fill="#9AD1B8"/>
<path d="M157.158 179.024C157.25 178.932 157.308 178.806 157.313 178.663C157.32 178.374 157.091 178.131 156.8 178.123C148.816 177.911 140.832 178.002 132.866 178.394C132.414 178.811 131.899 179.187 131.365 179.525C139.82 179.068 148.296 178.95 156.773 179.176C156.922 179.18 157.061 179.121 157.158 179.024Z" fill="#9AD1B8"/>
<path d="M174.207 144.548C174.516 144.24 174.827 143.876 175.141 143.458C177.276 140.596 176.783 133.749 177.331 130.251C178.078 125.46 178.951 120.689 179.946 115.944C181.126 110.309 182.471 104.625 182.423 98.8864C181.163 102.572 179.739 106.2 178.152 109.756C177.853 111.444 177.544 113.122 177.237 114.786C175.508 124.157 173.721 133.847 174.458 143.439C174.471 143.599 174.409 143.749 174.305 143.853C174.22 143.938 174.105 143.996 173.974 144.005C173.684 144.027 173.432 143.811 173.41 143.52C172.661 133.791 174.462 124.032 176.202 114.595C176.269 114.232 176.336 113.869 176.403 113.503C175.181 116.017 173.874 118.491 172.485 120.917C171.935 121.878 171.28 122.886 170.492 123.674C170.048 124.119 169.561 124.493 169.028 124.749C169.421 131.837 170.631 138.878 172.616 145.695C172.224 145.873 171.839 145.976 171.458 146.009C171.459 146.01 171.461 146.015 171.461 146.017C172.065 145.964 172.686 145.738 173.319 145.299C173.613 145.096 173.909 144.847 174.207 144.548Z" fill="#9AD1B8"/>
<path d="M172.616 145.695C170.632 138.878 169.421 131.837 169.028 124.749C168.554 124.977 168.042 125.11 167.491 125.118C167.212 125.121 166.938 125.09 166.669 125.03C167.742 132.145 169.342 139.172 171.458 146.009C171.839 145.976 172.224 145.873 172.616 145.695Z" fill="#9AD1B8"/>
<path d="M163.047 134.759C163.034 134.696 163.02 134.635 163.005 134.574C163.019 134.634 163.032 134.697 163.047 134.759ZM162.942 134.305C162.939 134.291 162.935 134.273 162.931 134.258C162.935 134.273 162.939 134.288 162.942 134.305Z" fill="#C0C59E"/>
<path d="M170.329 145.918C170.329 145.916 170.327 145.912 170.327 145.909C166.729 144.962 163.907 138.285 163.077 134.881C163.711 137.481 165.507 141.996 167.923 144.404C168.672 145.149 169.479 145.694 170.329 145.918ZM163.077 134.875C163.075 134.868 163.072 134.863 163.072 134.857C163.072 134.863 163.074 134.87 163.077 134.875ZM163.048 134.759C163.034 134.696 163.019 134.634 163.005 134.571C163.004 134.572 163.004 134.572 163.005 134.574C163.02 134.635 163.034 134.696 163.048 134.759ZM162.99 134.509C162.981 134.467 162.971 134.424 162.96 134.38C162.961 134.384 162.961 134.387 162.963 134.391C162.971 134.43 162.981 134.467 162.989 134.505C162.99 134.506 162.99 134.509 162.99 134.509ZM162.945 134.31C162.933 134.257 162.919 134.202 162.907 134.149C162.916 134.186 162.923 134.223 162.931 134.258C162.935 134.273 162.94 134.291 162.942 134.305C162.944 134.306 162.944 134.309 162.945 134.31Z" fill="#9AD1B8"/>
<path d="M170.327 145.909C168.2 138.963 166.602 131.824 165.541 124.598C165.005 124.309 164.51 123.918 164.084 123.484C162.391 121.769 161.528 119.423 160.774 117.134C160.539 116.422 160.334 115.704 160.112 114.989C160.531 121.381 161.445 127.74 162.87 133.986C162.872 133.997 162.875 134.01 162.878 134.021C162.887 134.064 162.897 134.106 162.907 134.149C162.919 134.202 162.933 134.257 162.945 134.311C162.949 134.334 162.954 134.358 162.96 134.38C162.971 134.424 162.981 134.467 162.99 134.509C162.994 134.53 162.998 134.55 163.005 134.571C163.019 134.634 163.034 134.696 163.048 134.759C163.05 134.767 163.053 134.775 163.053 134.783C163.055 134.788 163.056 134.792 163.057 134.796C163.059 134.8 163.06 134.804 163.06 134.807C163.061 134.814 163.063 134.818 163.063 134.823C163.064 134.827 163.066 134.829 163.066 134.831C163.067 134.838 163.07 134.844 163.07 134.849C163.07 134.852 163.071 134.853 163.072 134.857C163.072 134.863 163.075 134.868 163.077 134.875C163.077 134.878 163.076 134.878 163.076 134.881C163.907 138.285 166.729 144.962 170.327 145.909Z" fill="#9AD1B8"/>
<path d="M171.461 146.017C171.461 146.015 171.459 146.011 171.458 146.009C169.342 139.172 167.742 132.145 166.669 125.03C166.277 124.942 165.9 124.793 165.541 124.598C166.602 131.824 168.2 138.963 170.327 145.909C170.327 145.912 170.329 145.916 170.329 145.919C170.699 146.015 171.076 146.052 171.461 146.017Z" fill="#9AD1B8"/>
<path d="M174.305 143.853C174.409 143.749 174.471 143.6 174.458 143.439C173.721 133.847 175.508 124.157 177.237 114.786C177.544 113.122 177.853 111.444 178.152 109.756C177.589 111.015 177.006 112.264 176.403 113.503C176.336 113.869 176.269 114.232 176.202 114.595C174.462 124.032 172.661 133.791 173.41 143.52C173.432 143.811 173.684 144.027 173.974 144.005C174.105 143.996 174.22 143.938 174.305 143.853Z" fill="#9AD1B8"/>
<path d="M188.126 218.312C188.972 216.394 189.826 214.477 190.685 212.567C179.528 219.708 167.027 224.551 154.036 226.837C148.42 229.741 142.562 232.219 136.603 234.476C146.926 233.908 157.173 231.836 166.899 228.343C166.903 228.342 166.905 228.341 166.907 228.341C166.942 228.328 166.977 228.315 167.012 228.302C167.016 228.301 167.018 228.301 167.023 228.299C167.06 228.284 167.098 228.271 167.135 228.258C173.985 225.78 181.721 222.592 188.126 218.312ZM191.487 210.79C191.816 210.058 192.145 209.334 192.478 208.606C188.903 209.777 185.267 210.721 181.54 211.262C178.698 211.676 175.83 211.854 172.963 212.052C172.915 212.281 172.855 212.506 172.781 212.73C172.361 213.991 171.574 215.058 170.63 216.002C169.876 216.756 169.021 217.433 168.174 218.069C164.664 220.696 160.978 223.039 157.165 225.161C169.361 222.584 181.048 217.719 191.487 210.79Z" fill="#9AD1B8"/>
<path d="M192.478 208.606C192.798 207.903 193.12 207.197 193.442 206.497C186.125 205.565 178.705 205.23 171.285 205.476C172.672 207.364 173.44 209.796 172.963 212.052C175.83 211.855 178.698 211.676 181.54 211.262C185.267 210.721 188.904 209.777 192.478 208.606Z" fill="#9AD1B8"/>
<path d="M194.083 205.104C190.917 201.834 184.611 199.598 180.51 198.927C183.883 199.479 188.751 201.091 192.133 203.466C192.134 203.465 192.136 203.466 192.137 203.468C192.156 203.481 192.175 203.495 192.194 203.509C192.196 203.51 192.197 203.512 192.2 203.512C192.204 203.516 192.211 203.52 192.215 203.524C192.219 203.525 192.222 203.528 192.223 203.529C192.233 203.536 192.242 203.543 192.252 203.55C192.255 203.553 192.259 203.554 192.262 203.557C192.267 203.56 192.27 203.562 192.274 203.566C192.279 203.569 192.282 203.572 192.288 203.575C192.292 203.579 192.296 203.58 192.3 203.584C192.308 203.59 192.315 203.594 192.322 203.601C192.326 203.602 192.327 203.603 192.33 203.606C192.337 203.61 192.343 203.616 192.351 203.621C192.352 203.623 192.356 203.624 192.358 203.625C192.375 203.638 192.392 203.651 192.41 203.664C192.411 203.665 192.414 203.668 192.417 203.668C192.423 203.675 192.432 203.68 192.438 203.684C192.44 203.686 192.441 203.687 192.441 203.687C192.451 203.694 192.46 203.701 192.47 203.708C192.47 203.708 192.47 203.708 192.471 203.709C192.48 203.714 192.489 203.721 192.496 203.728C192.497 203.73 192.497 203.729 192.5 203.729C192.517 203.743 192.536 203.757 192.555 203.771C192.556 203.772 192.556 203.772 192.556 203.772C192.566 203.779 192.573 203.786 192.582 203.793L192.584 203.794C193.136 204.209 193.64 204.645 194.083 205.104ZM180.508 198.925C180.499 198.924 180.488 198.921 180.478 198.92C180.489 198.923 180.499 198.924 180.508 198.925Z" fill="#C0C59E"/>
<path d="M192.582 203.793C192.573 203.786 192.566 203.779 192.556 203.772C192.566 203.779 192.574 203.787 192.582 203.793Z" fill="#9AD1B8"/>
<path d="M193.904 205.495C193.963 205.365 194.024 205.232 194.083 205.104C193.64 204.645 193.136 204.209 192.584 203.794L192.582 203.792C192.574 203.787 192.566 203.779 192.556 203.772C192.556 203.772 192.556 203.772 192.555 203.771C192.536 203.757 192.516 203.743 192.5 203.729C192.497 203.729 192.497 203.729 192.496 203.728C192.489 203.721 192.48 203.714 192.471 203.709C192.47 203.707 192.47 203.707 192.47 203.707C192.46 203.701 192.451 203.694 192.441 203.687C192.441 203.687 192.44 203.686 192.438 203.684C192.432 203.68 192.423 203.675 192.416 203.668C192.414 203.668 192.411 203.665 192.41 203.664C192.392 203.651 192.375 203.638 192.358 203.625C192.356 203.624 192.352 203.622 192.351 203.621C192.342 203.616 192.337 203.61 192.33 203.606C192.327 203.603 192.326 203.602 192.322 203.601C192.315 203.594 192.308 203.59 192.3 203.584C192.296 203.58 192.292 203.579 192.288 203.575C192.282 203.572 192.279 203.569 192.274 203.566C192.27 203.562 192.267 203.559 192.262 203.557C192.259 203.554 192.255 203.553 192.252 203.55C192.242 203.543 192.233 203.536 192.223 203.529C192.222 203.528 192.219 203.525 192.215 203.524C192.211 203.52 192.204 203.516 192.2 203.511C192.197 203.511 192.196 203.51 192.194 203.509C192.175 203.495 192.156 203.481 192.137 203.468C192.135 203.466 192.134 203.465 192.133 203.466C188.751 201.091 183.883 199.479 180.51 198.927C180.508 198.925 180.508 198.925 180.508 198.925C180.499 198.924 180.489 198.923 180.478 198.92C173.333 197.759 166.073 197.423 158.855 197.856C160.727 198.583 162.569 199.386 164.364 200.286C166.566 201.392 168.752 202.663 170.431 204.452C178.288 204.147 186.157 204.489 193.904 205.495Z" fill="#9AD1B8"/>
<path d="M193.442 206.497C193.597 206.161 193.749 205.83 193.904 205.495C186.157 204.489 178.288 204.147 170.431 204.452C170.616 204.65 170.797 204.856 170.97 205.067C171.078 205.2 171.184 205.336 171.285 205.475C178.705 205.23 186.125 205.565 193.442 206.497Z" fill="#9AD1B8"/>
<path d="M190.685 212.567C190.951 211.975 191.218 211.382 191.487 210.79C181.048 217.72 169.361 222.584 157.165 225.161C156.13 225.735 155.088 226.294 154.036 226.837C167.027 224.551 179.528 219.708 190.685 212.567Z" fill="#9AD1B8"/>
<path d="M208.36 175.087C208.319 174.816 208.278 174.542 208.238 174.272C208.199 174.299 208.156 174.324 208.108 174.342C207.835 174.444 207.532 174.306 207.431 174.035C204.3 165.676 202.71 156.806 202.604 147.912C201.141 142.81 200.126 137.58 199.564 132.303C198.565 140.849 198.772 149.603 200.017 158.063C200.019 158.079 200.021 158.094 200.024 158.108C200.026 158.13 200.03 158.153 200.033 158.175C200.037 158.198 200.04 158.217 200.043 158.239C200.046 158.258 200.048 158.278 200.051 158.297C200.056 158.333 200.062 158.371 200.067 158.407C200.07 158.426 200.074 158.444 200.076 158.461C200.081 158.486 200.084 158.511 200.087 158.535C200.089 158.552 200.092 158.568 200.095 158.585C200.1 158.62 200.106 158.653 200.111 158.689C200.111 158.694 200.113 158.701 200.113 158.707C200.121 158.748 200.126 158.792 200.133 158.831C200.135 158.844 200.137 158.855 200.137 158.866C200.143 158.899 200.148 158.931 200.152 158.963C200.155 158.974 200.157 158.986 200.159 158.997C200.166 159.04 200.172 159.081 200.178 159.123C200.18 159.13 200.18 159.136 200.181 159.143L200.183 159.144C200.181 159.145 200.183 159.147 200.183 159.147L200.183 159.149C200.183 159.155 200.185 159.16 200.185 159.166C200.185 159.169 200.187 159.17 200.185 159.171C200.188 159.177 200.188 159.182 200.189 159.189L200.189 159.192C200.191 159.199 200.192 159.206 200.194 159.212C200.192 159.214 200.194 159.215 200.194 159.215C200.195 159.222 200.195 159.23 200.196 159.237C200.196 159.237 200.196 159.237 200.198 159.238C200.839 163.159 203.767 174.08 208.36 175.087ZM207.995 172.516C207.28 167.011 206.96 161.467 207.134 155.959C207.091 155.939 207.047 155.92 207.003 155.898C205.351 155.135 204.437 153.434 203.791 151.686C204.219 158.775 205.609 165.804 207.995 172.516Z" fill="#9AD1B8"/>
<path d="M208.294 174.221C208.436 174.078 208.491 173.862 208.416 173.666C208.272 173.283 208.132 172.9 207.995 172.516C205.609 165.804 204.219 158.775 203.791 151.686C203.664 151.342 203.547 150.995 203.438 150.653C203.146 149.744 202.867 148.83 202.604 147.911C202.71 156.806 204.3 165.676 207.43 174.034C207.532 174.306 207.835 174.444 208.107 174.342C208.155 174.324 208.199 174.299 208.238 174.272C208.258 174.257 208.276 174.239 208.294 174.221Z" fill="#9AD1B8"/>
</svg>
