<svg width="304" height="304" viewBox="0 0 304 304" fill="none" xmlns="http://www.w3.org/2000/svg">
<path d="M152.142 144.285C171.83 159.809 190.599 176.493 208.327 194.221C220.09 205.983 231.393 218.205 242.202 230.851L239.255 233.37C228.512 220.801 217.277 208.653 205.586 196.962C187.966 179.342 169.309 162.757 149.742 147.33L152.142 144.285Z" fill="#83A26A"/>
<path d="M155.174 174.831C165.663 173.994 179.326 174.811 189.652 176.615L188.983 180.433C179.035 178.684 165.514 177.883 155.486 178.697L155.174 174.831Z" fill="#83A26A"/>
<path d="M194.618 206.375C202.143 205.04 209.815 204.539 217.451 204.883L217.277 208.755C209.926 208.424 202.539 208.907 195.295 210.191L194.618 206.375Z" fill="#83A26A"/>
<path d="M174.209 166.558C170.656 158.307 168.792 149.346 168.757 140.362L172.634 140.347C172.667 148.804 174.426 157.26 177.77 165.026L174.209 166.558Z" fill="#83A26A"/>
<path d="M202.44 194.573C203.062 185.595 203.683 176.619 204.304 167.64L208.172 167.908C207.551 176.885 206.929 185.862 206.308 194.839L202.44 194.573Z" fill="#83A26A"/>
<path d="M151.502 133.489C133.818 109.176 113.281 86.9404 90.4477 67.3827C87.0458 64.4688 83.5644 61.5931 79.6114 59.4851C78.1517 58.7052 76.3658 58.035 74.8937 58.7915C73.2818 59.6194 72.8733 61.7138 72.8034 63.5244C72.4567 72.4404 75.7449 81.0686 79.3346 89.239C86.7333 106.084 96.2058 122.898 111.428 133.23C117.676 137.47 124.684 140.465 131.8 142.993C139.963 145.893 148.334 148.211 156.828 149.925C155.583 144.358 154.857 138.102 151.502 133.489Z" fill="#83A26A"/>
<path d="M133.59 185.883C119.885 188.598 106.105 191.32 92.1392 191.749C78.1737 192.178 63.8862 190.207 51.39 183.958C50.1715 183.348 48.7653 182.128 49.3711 180.909C49.6123 180.423 50.1181 180.137 50.5951 179.877C55.2553 177.346 59.9182 174.816 64.5797 172.285C69.5455 169.588 74.5361 166.881 79.8514 164.963C92.4709 160.408 106.272 160.519 119.644 161.624C132.277 162.667 151.836 165.104 159.166 177.152C153.149 182.98 141.503 184.316 133.59 185.883Z" fill="#83A26A"/>
<path d="M162.586 134.836C158.323 116.697 158.305 97.5752 162.537 79.4266C163.234 76.4345 165.141 72.7269 168.153 73.33C169.068 73.5123 169.845 74.0975 170.56 74.6951C177.226 80.275 181.442 88.6798 181.93 97.3586C182.281 103.642 180.774 109.86 179.485 116.021C178.489 120.766 177.616 125.538 176.869 130.328C176.321 133.826 176.815 140.674 174.679 143.536C168.918 151.254 163.703 139.585 162.586 134.836Z" fill="#83A26A"/>
<path d="M109.517 232.577C105.602 231.753 101.462 230.533 98.9443 227.423C98.2535 226.57 97.6943 225.537 97.7272 224.44C97.7793 222.76 99.1581 221.455 100.459 220.39C122.347 202.45 152.083 194.455 180.016 198.997C187.341 200.19 201.786 206.397 192.63 214.577C185.609 220.851 175.419 225.171 166.673 228.336C148.489 234.916 128.472 236.569 109.517 232.577Z" fill="#83A26A"/>
<path d="M199.717 159.201C195.95 135.338 200.405 108.947 217.046 91.4347C218.197 90.223 219.657 88.9689 221.311 89.2006C222.288 89.339 223.12 89.99 223.777 90.7261C226.33 93.5839 226.805 97.7588 226.424 101.572C226.043 105.385 224.936 109.115 224.808 112.944C224.669 117.063 225.664 121.134 225.834 125.248C226.08 131.187 224.606 137.055 222.931 142.757C221.352 148.127 219.583 153.441 217.628 158.685C216.305 162.236 214.215 171.736 211.238 174.154C204.684 179.472 200.453 163.865 199.717 159.201Z" fill="#83A26A"/>
<path d="M156.403 149.832C148.057 148.126 139.827 145.844 131.8 142.993C124.684 140.465 117.676 137.47 111.428 133.23C96.2059 122.898 86.7334 106.084 79.3347 89.239C75.745 81.0686 72.4568 72.4404 72.8036 63.5244C72.8735 61.7138 73.282 59.6194 74.8938 58.7915C75.0953 58.6887 75.305 58.6161 75.5174 58.5627C82.0746 65.0376 87.6942 72.5843 93.3591 79.9049C112.584 104.749 133.69 128.131 156.403 149.832Z" fill="#A1AD92"/>
<path d="M132.247 175.091C116.763 174.294 101.254 176.047 85.9437 178.498C73.8121 180.437 61.364 182.792 49.2571 181.766C49.205 181.486 49.2283 181.197 49.3709 180.909C49.6121 180.424 50.1179 180.137 50.5949 179.877C55.2564 177.345 59.9193 174.815 64.5795 172.285C69.5453 169.589 74.5358 166.882 79.8512 164.963C92.4707 160.408 106.272 160.519 119.644 161.624C132.086 162.652 151.238 165.038 158.817 176.622C150.024 176.812 141.08 175.544 132.247 175.091Z" fill="#A1AD92"/>
<path d="M170.622 90.4863C170.142 99.7025 168.604 108.85 168.437 118.077C168.269 127.426 169.539 136.795 172.154 145.772C167.456 147.924 163.536 138.878 162.586 134.836C158.323 116.697 158.305 97.5753 162.537 79.4266C163.234 76.4345 165.141 72.7269 168.153 73.33C168.768 73.4534 169.317 73.7645 169.83 74.1318C170.785 79.4869 170.904 85.0421 170.622 90.4863Z" fill="#A1AD92"/>
<path d="M195.232 207.568C190.624 209.248 185.929 210.634 181.079 211.34C176.639 211.985 172.138 212.057 167.677 212.529C153.982 213.975 140.994 219.129 127.658 222.567C117.951 225.067 107.596 226.595 97.7971 225.157C97.7519 224.923 97.7204 224.683 97.7273 224.44C97.7794 222.76 99.1582 221.455 100.458 220.389C122.347 202.45 152.083 194.455 180.016 198.997C185.048 199.815 193.438 203.002 195.232 207.568Z" fill="#A1AD92"/>
<path d="M217.046 91.4348C218.197 90.2231 219.657 88.969 221.311 89.2006C222.288 89.3391 223.12 89.9901 223.777 90.7261C224.096 91.0839 224.383 91.4608 224.639 91.8542C220.964 96.1566 218.282 101.309 216.928 106.802C215.824 111.278 215.581 115.924 214.596 120.428C213.488 125.495 211.456 130.312 209.959 135.279C206.076 148.15 205.864 161.812 207.898 175.164C203.26 174.147 200.32 163.016 199.717 159.201C195.95 135.338 200.405 108.947 217.046 91.4348Z" fill="#A1AD92"/>
<path d="M80.4544 74.1771L80.4859 74.5129C94.2293 105.17 121.913 127.246 149.784 146.536C150.023 146.7 150.35 146.641 150.516 146.402C150.682 146.162 150.622 145.836 150.383 145.668C122.639 126.468 95.0846 104.504 81.4467 74.0812C81.3275 73.8166 81.015 73.6987 80.7504 73.818L80.4544 74.1771Z" fill="#83A26A"/>
<path d="M75.956 173.836L75.9628 174.109C76.0465 174.387 76.3397 174.546 76.6194 174.461C102.027 166.842 129.67 167.859 154.451 177.327C154.723 177.432 155.027 177.295 155.131 177.023C155.23 176.768 155.099 176.449 154.827 176.343C129.829 166.793 101.947 165.768 76.3165 173.454L75.956 173.836Z" fill="#83A26A"/>
<path d="M115.207 217.882L115.24 218.224C115.362 218.489 115.676 218.603 115.939 218.479C140.084 207.298 167.9 203.128 194.26 206.744C194.548 206.782 194.812 206.556 194.854 206.293C194.893 206.004 194.692 205.739 194.404 205.701C167.845 202.059 139.824 206.259 115.498 217.525L115.207 217.882Z" fill="#83A26A"/>
<path d="M204.31 128.448C200.74 143.495 201.524 159.58 206.969 174.112C207.07 174.383 207.373 174.522 207.646 174.419C207.919 174.316 208.056 174.009 207.954 173.743C199.373 150.83 202.532 123.994 216.2 103.706C216.363 103.469 216.299 103.139 216.059 102.976C215.816 102.813 215.491 102.877 215.327 103.118C210.142 110.817 206.446 119.447 204.31 128.448Z" fill="#83A26A"/>
<path d="M164.49 86.6622L164.48 86.7239C162.145 106.749 164.089 127.507 170.102 146.752C170.189 147.031 170.484 147.186 170.76 147.098C171.039 147.011 171.191 146.717 171.106 146.44C165.138 127.333 163.207 106.726 165.526 86.8458C165.56 86.5566 165.352 86.2962 165.064 86.2606C164.795 86.2304 164.551 86.4059 164.49 86.6622Z" fill="#83A26A"/>
<path d="M131.535 227.689L131.522 227.787C131.508 228.078 131.734 228.323 132.025 228.337C154.341 229.305 176.61 222.645 194.729 209.581C194.965 209.411 195.018 209.084 194.848 208.848C194.678 208.612 194.35 208.559 194.115 208.729C176.187 221.654 154.152 228.244 132.071 227.284C131.814 227.273 131.593 227.447 131.535 227.689Z" fill="#A1AD92"/>
<path d="M73.7108 187.238V187.482C73.7793 187.765 74.0631 187.939 74.3468 187.872C101.165 181.416 128.741 178.517 156.311 179.253C156.602 179.261 156.842 179.035 156.851 178.74C156.858 178.451 156.629 178.209 156.339 178.2C128.678 177.464 101.008 180.371 74.1001 186.846C73.9 186.896 73.7547 187.052 73.7108 187.238Z" fill="#A1AD92"/>
<path d="M216.329 134.362C213.179 147.635 210.991 161.144 209.802 174.716C209.776 175.006 209.991 175.262 210.279 175.286C210.569 175.311 210.83 175.095 210.85 174.808C212.577 155.126 216.405 135.574 222.236 116.692C222.327 116.39 222.165 116.119 221.888 116.034C221.61 115.947 221.315 116.105 221.229 116.38C219.399 122.314 217.762 128.315 216.329 134.362Z" fill="#A1AD92"/>
<path d="M178.587 94.7504L178.573 94.8409C178.173 101.48 176.937 108.188 175.74 114.673C174.001 124.11 172.2 133.869 172.948 143.597C172.97 143.888 173.222 144.104 173.513 144.083C173.803 144.061 174.018 143.807 173.997 143.516C173.259 133.925 175.046 124.234 176.775 114.863C177.978 108.347 179.22 101.609 179.624 94.9053C179.642 94.6134 179.422 94.3653 179.131 94.3488C178.872 94.331 178.644 94.5065 178.587 94.7504Z" fill="#A1AD92"/>
<path d="M100.23 82.4254L100.338 82.8846C106.527 90.2847 113.47 97.3188 120.185 104.124C133.509 117.623 147.288 131.583 155.517 148.837C155.642 149.099 155.956 149.21 156.218 149.085C156.482 148.96 156.592 148.642 156.467 148.383C148.161 130.971 134.32 116.946 120.933 103.384C114.235 96.5951 107.307 89.5761 101.147 82.2103C100.959 81.9869 100.627 81.9567 100.405 82.1431L100.23 82.4254Z" fill="#A1AD92"/>
<path d="M131.8 142.993C124.684 140.465 117.675 137.47 111.428 133.23C111.403 133.213 111.376 133.194 111.35 133.176C111.376 133.194 111.402 133.212 111.428 133.23C117.675 137.47 124.684 140.465 131.8 142.993ZM151.249 133.143C151.196 133.071 151.145 133.001 151.092 132.928C151.144 132.999 151.197 133.072 151.249 133.143ZM151.011 132.817C150.971 132.764 150.933 132.709 150.892 132.654C150.931 132.707 150.971 132.764 151.011 132.817ZM150.765 132.481C150.741 132.448 150.716 132.415 150.691 132.38C150.716 132.413 150.742 132.45 150.765 132.481ZM150.523 132.151C150.513 132.139 150.505 132.125 150.495 132.113C150.504 132.126 150.513 132.139 150.523 132.151ZM111.327 133.161C111.309 133.149 111.288 133.134 111.269 133.123C111.29 133.135 111.307 133.147 111.327 133.161ZM111.129 133.027C111.126 133.024 111.12 133.02 111.117 133.017C111.121 133.021 111.125 133.023 111.129 133.027Z" fill="#C0C59E"/>
<path d="M156.828 149.925C156.659 149.17 156.5 148.4 156.343 147.626C155.338 142.69 154.402 137.477 151.502 133.489C151.433 133.396 151.365 133.302 151.297 133.208C151.281 133.186 151.266 133.165 151.249 133.143C151.197 133.072 151.144 132.999 151.092 132.928C151.066 132.891 151.037 132.854 151.011 132.817C150.971 132.764 150.931 132.707 150.892 132.654C150.851 132.596 150.807 132.539 150.766 132.481C150.742 132.45 150.716 132.413 150.692 132.38C150.635 132.305 150.581 132.228 150.523 132.151C150.513 132.139 150.504 132.126 150.496 132.113C142.254 120.888 133.398 110.117 123.991 99.8464C125.639 103.706 127.258 107.578 128.841 111.464C139.55 122.595 149.794 134.396 156.467 148.383C156.566 148.589 156.518 148.829 156.365 148.982C156.324 149.024 156.274 149.059 156.218 149.085C155.956 149.21 155.642 149.099 155.518 148.837C149.291 135.785 139.89 124.618 129.911 114.108C130.429 115.391 130.942 116.676 131.452 117.962C132.433 120.44 133.415 122.99 133.468 125.653C133.476 126.009 133.463 126.368 133.431 126.726C140.889 134.622 148.551 142.328 156.403 149.832C148.057 148.126 139.826 145.844 131.8 142.993C138.278 145.293 144.887 147.228 151.582 148.786C153.326 149.192 155.075 149.57 156.828 149.925Z" fill="#63824D"/>
<path d="M156.403 149.832C148.551 142.328 140.889 134.622 133.431 126.726C133.261 128.571 132.559 130.397 131.289 131.667C131.264 131.692 131.239 131.717 131.215 131.741C137.477 136.581 143.926 141.201 150.383 145.668C150.622 145.835 150.682 146.162 150.516 146.402C150.498 146.428 150.478 146.454 150.456 146.476C150.279 146.652 149.997 146.683 149.784 146.536C143.244 142.007 136.712 137.327 130.37 132.418C130.307 132.459 130.243 132.499 130.179 132.539C127.385 134.219 123.807 133.261 120.747 132.132C112.647 129.144 104.889 125.235 97.6437 120.539C101.583 125.259 106.02 129.51 111.117 133.017C111.12 133.02 111.127 133.024 111.129 133.027C111.146 133.038 111.162 133.049 111.177 133.058C111.197 133.072 111.216 133.086 111.234 133.098C111.247 133.106 111.258 133.115 111.269 133.123C111.288 133.134 111.309 133.149 111.327 133.161C111.335 133.167 111.343 133.172 111.35 133.176C111.376 133.194 111.404 133.213 111.428 133.23C117.676 137.47 124.684 140.465 131.8 142.993C139.827 145.844 148.057 148.126 156.403 149.832Z" fill="#798B68"/>
<path d="M150.456 146.476C150.478 146.454 150.498 146.428 150.516 146.402C150.682 146.162 150.622 145.835 150.383 145.668C143.926 141.201 137.477 136.581 131.215 131.741C130.956 131.992 130.675 132.218 130.371 132.418C136.713 137.327 143.244 142.007 149.784 146.536C149.997 146.683 150.279 146.652 150.456 146.476Z" fill="#63824D"/>
<path d="M156.364 148.983C156.518 148.829 156.566 148.589 156.467 148.384C149.794 134.396 139.549 122.595 128.841 111.464C129.2 112.344 129.557 113.225 129.911 114.108C139.889 124.618 149.291 135.785 155.517 148.837C155.642 149.099 155.956 149.21 156.218 149.085C156.274 149.059 156.323 149.024 156.364 148.983Z" fill="#798B68"/>
<path d="M159.166 177.152C158.307 175.741 157.28 174.46 156.116 173.299C147.347 164.552 130.798 162.545 119.644 161.624C132.086 162.652 151.238 165.038 158.817 176.621C157.584 176.647 156.351 176.645 155.116 176.621C155.171 176.748 155.18 176.894 155.131 177.023C155.102 177.096 155.062 177.157 155.012 177.208C154.869 177.351 154.651 177.404 154.451 177.327C153.737 177.055 153.023 176.79 152.303 176.531C146.241 176.264 140.136 175.576 134.075 175.195C134.075 175.247 134.074 175.3 134.071 175.352C134.004 176.494 133.435 177.449 132.628 178.257C132.555 178.329 132.48 178.402 132.404 178.472C140.37 178.08 148.354 177.988 156.338 178.2C156.629 178.209 156.858 178.451 156.851 178.74C156.846 178.883 156.788 179.009 156.696 179.101C156.599 179.198 156.46 179.257 156.311 179.253C147.834 179.027 139.358 179.145 130.903 179.603C130.433 179.9 129.95 180.17 129.475 180.417C118.226 186.265 106.032 189.625 93.4973 191.679C106.997 191.124 120.33 188.509 133.59 185.883C141.503 184.316 153.149 182.98 159.166 177.152Z" fill="#63824D"/>
<path d="M158.817 176.622C151.238 165.038 132.086 162.652 119.644 161.624C115.267 161.263 110.847 161.013 106.435 160.992C114.597 162.773 122.455 165.485 129.705 169.723C129.718 169.73 129.73 169.737 129.742 169.744C138.29 171.04 146.711 173.244 154.827 176.343C154.961 176.395 155.06 176.5 155.116 176.622C156.351 176.645 157.584 176.648 158.817 176.622ZM152.303 176.531C145.621 174.126 138.742 172.326 131.77 171.138C133.083 172.223 134.103 173.572 134.075 175.195C140.136 175.576 146.241 176.264 152.303 176.531Z" fill="#798B68"/>
<path d="M155.012 177.208C155.062 177.157 155.102 177.096 155.131 177.023C155.18 176.894 155.171 176.748 155.116 176.621C155.06 176.499 154.961 176.395 154.827 176.343C146.711 173.244 138.29 171.04 129.742 169.744C130.431 170.147 131.134 170.611 131.77 171.138C138.742 172.326 145.621 174.125 152.303 176.531C153.023 176.79 153.737 177.055 154.451 177.327C154.651 177.404 154.869 177.351 155.012 177.208Z" fill="#63824D"/>
<path d="M156.696 179.101C156.788 179.009 156.846 178.883 156.851 178.74C156.858 178.451 156.629 178.209 156.339 178.2C148.355 177.988 140.371 178.08 132.405 178.472C131.952 178.888 131.437 179.264 130.904 179.603C139.358 179.145 147.834 179.027 156.311 179.253C156.461 179.257 156.599 179.198 156.696 179.101Z" fill="#798B68"/>
<path d="M173.746 144.625C174.054 144.317 174.365 143.954 174.679 143.536C176.815 140.674 176.321 133.826 176.869 130.328C177.616 125.538 178.489 120.766 179.485 116.021C180.665 110.387 182.009 104.703 181.961 98.9637C180.702 102.649 179.278 106.277 177.69 109.833C177.392 111.521 177.082 113.199 176.775 114.863C175.046 124.234 173.259 133.925 173.996 143.516C174.009 143.677 173.947 143.826 173.843 143.93C173.758 144.015 173.643 144.073 173.513 144.082C173.222 144.104 172.97 143.888 172.948 143.597C172.2 133.868 174.001 124.109 175.74 114.673C175.807 114.309 175.874 113.946 175.941 113.58C174.719 116.094 173.413 118.568 172.023 120.994C171.473 121.955 170.818 122.964 170.03 123.752C169.586 124.196 169.099 124.57 168.566 124.826C168.959 131.914 170.17 138.955 172.154 145.772C171.762 145.951 171.377 146.053 170.996 146.086C170.998 146.088 170.999 146.092 170.999 146.095C171.603 146.041 172.224 145.815 172.858 145.376C173.151 145.173 173.447 144.924 173.746 144.625Z" fill="#63824D"/>
<path d="M172.154 145.772C170.17 138.955 168.959 131.914 168.566 124.826C168.092 125.054 167.581 125.187 167.03 125.195C166.75 125.198 166.476 125.168 166.207 125.107C167.28 132.222 168.88 139.25 170.996 146.086C171.377 146.053 171.762 145.951 172.154 145.772Z" fill="#798B68"/>
<path d="M162.586 134.836C162.572 134.773 162.558 134.713 162.543 134.651C162.557 134.711 162.571 134.775 162.586 134.836ZM162.48 134.382C162.477 134.368 162.473 134.35 162.469 134.335C162.473 134.35 162.477 134.366 162.48 134.382Z" fill="#C0C59E"/>
<path d="M169.867 145.996C169.867 145.993 169.865 145.989 169.865 145.986C166.268 145.039 163.445 138.363 162.615 134.958C163.249 137.558 165.045 142.073 167.461 144.481C168.21 145.227 169.017 145.771 169.867 145.996ZM162.615 134.952C162.613 134.946 162.611 134.94 162.611 134.935C162.611 134.94 162.612 134.947 162.615 134.952ZM162.586 134.836C162.572 134.773 162.557 134.711 162.544 134.648C162.542 134.649 162.542 134.649 162.544 134.651C162.559 134.713 162.572 134.773 162.586 134.836ZM162.528 134.586C162.519 134.544 162.509 134.501 162.498 134.458C162.5 134.462 162.5 134.464 162.501 134.469C162.509 134.507 162.519 134.544 162.527 134.582C162.528 134.584 162.528 134.586 162.528 134.586ZM162.483 134.388C162.471 134.334 162.457 134.279 162.445 134.226C162.454 134.263 162.461 134.3 162.47 134.336C162.474 134.351 162.478 134.369 162.48 134.382C162.482 134.384 162.482 134.386 162.483 134.388Z" fill="#63824D"/>
<path d="M169.865 145.986C167.738 139.04 166.14 131.901 165.079 124.675C164.543 124.386 164.048 123.996 163.622 123.561C161.929 121.846 161.066 119.5 160.312 117.211C160.078 116.5 159.872 115.781 159.65 115.066C160.069 121.459 160.984 127.817 162.408 134.063C162.41 134.074 162.413 134.088 162.416 134.099C162.426 134.141 162.435 134.184 162.445 134.226C162.457 134.28 162.471 134.334 162.483 134.388C162.487 134.411 162.493 134.436 162.498 134.458C162.509 134.502 162.519 134.544 162.528 134.587C162.532 134.607 162.537 134.628 162.543 134.648C162.557 134.711 162.572 134.773 162.586 134.836C162.589 134.844 162.591 134.852 162.591 134.861C162.593 134.865 162.594 134.869 162.596 134.873C162.597 134.877 162.598 134.881 162.598 134.884C162.6 134.891 162.601 134.895 162.601 134.9C162.602 134.905 162.604 134.906 162.604 134.909C162.605 134.915 162.608 134.921 162.608 134.926C162.608 134.929 162.609 134.931 162.611 134.935C162.611 134.94 162.613 134.946 162.615 134.953C162.615 134.955 162.615 134.955 162.615 134.958C163.445 138.363 166.267 145.039 169.865 145.986Z" fill="#798B68"/>
<path d="M170.999 146.095C170.999 146.092 170.997 146.088 170.996 146.086C168.88 139.25 167.28 132.222 166.207 125.107C165.815 125.02 165.438 124.87 165.079 124.676C166.14 131.902 167.738 139.04 169.865 145.986C169.865 145.989 169.867 145.993 169.867 145.996C170.237 146.092 170.614 146.129 170.999 146.095Z" fill="#63824D"/>
<path d="M173.843 143.93C173.947 143.826 174.009 143.677 173.996 143.516C173.259 133.925 175.046 124.234 176.775 114.863C177.082 113.199 177.392 111.522 177.69 109.833C177.127 111.093 176.544 112.341 175.941 113.58C175.874 113.946 175.807 114.309 175.74 114.673C174.001 124.11 172.2 133.869 172.948 143.597C172.97 143.888 173.222 144.104 173.513 144.083C173.643 144.073 173.758 144.015 173.843 143.93Z" fill="#798B68"/>
<path d="M187.665 218.389C188.51 216.471 189.364 214.554 190.224 212.645C179.066 219.786 166.565 224.628 153.574 226.914C147.958 229.819 142.1 232.297 136.141 234.553C146.464 233.985 156.711 231.913 166.437 228.421C166.442 228.419 166.443 228.418 166.446 228.418C166.48 228.406 166.516 228.392 166.55 228.379C166.554 228.378 166.557 228.378 166.561 228.377C166.598 228.362 166.636 228.348 166.673 228.336C173.524 225.858 181.26 222.669 187.665 218.389ZM191.025 210.867C191.354 210.135 191.683 209.411 192.016 208.683C188.442 209.854 184.805 210.798 181.079 211.34C178.236 211.754 175.368 211.932 172.501 212.129C172.453 212.358 172.393 212.583 172.319 212.808C171.899 214.069 171.113 215.135 170.168 216.079C169.414 216.833 168.559 217.51 167.712 218.146C164.202 220.774 160.516 223.116 156.703 225.238C168.899 222.661 180.587 217.797 191.025 210.867Z" fill="#63824D"/>
<path d="M192.016 208.683C192.336 207.98 192.658 207.274 192.98 206.574C185.663 205.642 178.243 205.308 170.824 205.553C172.211 207.442 172.978 209.873 172.501 212.129C175.369 211.932 178.236 211.754 181.079 211.34C184.805 210.798 188.442 209.854 192.016 208.683Z" fill="#798B68"/>
<path d="M193.621 205.181C190.455 201.911 184.149 199.676 180.048 199.004C183.421 199.556 188.29 201.168 191.671 203.544C191.672 203.542 191.674 203.544 191.675 203.545C191.694 203.559 191.714 203.572 191.733 203.586C191.734 203.587 191.735 203.589 191.738 203.589C191.742 203.593 191.749 203.597 191.753 203.601C191.757 203.603 191.76 203.605 191.761 203.607C191.771 203.613 191.781 203.62 191.79 203.627C191.793 203.63 191.797 203.631 191.8 203.634C191.805 203.637 191.808 203.64 191.812 203.644C191.818 203.646 191.82 203.649 191.826 203.652C191.83 203.656 191.834 203.657 191.838 203.661C191.846 203.667 191.853 203.671 191.86 203.678C191.864 203.679 191.866 203.681 191.868 203.683C191.875 203.688 191.881 203.693 191.889 203.698C191.89 203.7 191.894 203.701 191.896 203.703C191.914 203.715 191.93 203.729 191.948 203.741C191.949 203.742 191.952 203.745 191.955 203.745C191.962 203.752 191.97 203.757 191.977 203.762C191.978 203.763 191.979 203.764 191.979 203.764C191.989 203.771 191.999 203.778 192.008 203.785C192.008 203.785 192.008 203.785 192.01 203.786C192.018 203.792 192.027 203.799 192.034 203.805C192.036 203.807 192.036 203.807 192.038 203.807C192.055 203.82 192.074 203.834 192.093 203.848C192.095 203.849 192.095 203.849 192.095 203.849C192.104 203.856 192.111 203.863 192.121 203.87L192.122 203.871C192.674 204.286 193.179 204.722 193.621 205.181ZM180.047 199.003C180.037 199.001 180.026 198.999 180.016 198.997C180.027 199 180.037 199.001 180.047 199.003Z" fill="#C0C59E"/>
<path d="M192.121 203.87C192.111 203.863 192.104 203.856 192.095 203.849C192.104 203.856 192.112 203.864 192.121 203.87Z" fill="#63824D"/>
<path d="M193.442 205.572C193.501 205.442 193.562 205.309 193.621 205.181C193.179 204.722 192.674 204.286 192.122 203.871L192.121 203.87C192.112 203.864 192.104 203.856 192.094 203.849C192.094 203.849 192.094 203.849 192.093 203.848C192.074 203.834 192.055 203.82 192.038 203.807C192.036 203.807 192.036 203.807 192.034 203.805C192.027 203.798 192.018 203.792 192.01 203.786C192.008 203.785 192.008 203.785 192.008 203.785C191.999 203.778 191.989 203.771 191.979 203.764C191.979 203.764 191.978 203.763 191.977 203.761C191.97 203.757 191.962 203.752 191.955 203.745C191.952 203.745 191.949 203.742 191.948 203.741C191.93 203.729 191.914 203.715 191.896 203.703C191.894 203.701 191.89 203.7 191.889 203.698C191.881 203.693 191.875 203.687 191.868 203.683C191.866 203.681 191.864 203.679 191.86 203.678C191.853 203.671 191.846 203.667 191.838 203.661C191.834 203.657 191.83 203.656 191.826 203.652C191.82 203.649 191.818 203.646 191.812 203.644C191.808 203.639 191.805 203.637 191.8 203.634C191.797 203.631 191.793 203.63 191.79 203.627C191.781 203.62 191.771 203.613 191.761 203.607C191.76 203.605 191.757 203.602 191.753 203.601C191.749 203.597 191.742 203.593 191.738 203.589C191.735 203.589 191.734 203.587 191.733 203.586C191.713 203.572 191.694 203.559 191.675 203.545C191.674 203.544 191.672 203.542 191.671 203.544C188.29 201.168 183.421 199.556 180.048 199.004C180.047 199.003 180.047 199.003 180.047 199.003C180.037 199.001 180.027 199 180.016 198.997C172.871 197.836 165.611 197.5 158.393 197.933C160.265 198.66 162.108 199.463 163.902 200.364C166.104 201.47 168.291 202.74 169.97 204.529C177.826 204.225 185.695 204.566 193.442 205.572Z" fill="#798B68"/>
<path d="M192.98 206.574C193.135 206.238 193.287 205.908 193.442 205.572C185.695 204.566 177.826 204.225 169.97 204.529C170.155 204.728 170.336 204.933 170.508 205.144C170.617 205.277 170.722 205.413 170.824 205.553C178.243 205.307 185.663 205.642 192.98 206.574Z" fill="#63824D"/>
<path d="M190.223 212.645C190.489 212.053 190.757 211.459 191.025 210.867C180.586 217.797 168.899 222.661 156.703 225.238C155.668 225.812 154.627 226.372 153.574 226.914C166.565 224.628 179.066 219.786 190.223 212.645Z" fill="#798B68"/>
<path d="M204.023 171.714C201.666 167.89 200.172 161.983 199.736 159.316C199.734 159.314 199.734 159.314 199.734 159.314C199.733 159.307 199.733 159.299 199.732 159.292C199.732 159.292 199.73 159.291 199.732 159.29C199.73 159.283 199.729 159.276 199.728 159.269L199.728 159.266C199.726 159.259 199.726 159.254 199.724 159.248C199.725 159.247 199.724 159.246 199.724 159.243C199.722 159.239 199.721 159.232 199.721 159.226L199.721 159.224C200.137 161.844 201.638 167.846 204.023 171.714ZM199.721 159.221L199.719 159.22C199.719 159.217 199.719 159.217 199.719 159.214C199.719 159.217 199.719 159.22 199.721 159.221ZM199.671 158.908C199.665 158.869 199.659 158.825 199.651 158.784C199.658 158.826 199.665 158.866 199.671 158.908ZM199.581 158.316C199.578 158.294 199.575 158.275 199.571 158.252C199.574 158.274 199.577 158.296 199.581 158.316ZM199.562 158.185C199.559 158.171 199.558 158.156 199.555 158.14C199.558 158.156 199.56 158.17 199.562 158.185Z" fill="#C0C59E"/>
<path d="M208.193 175.221C208.825 173.988 209.461 172.76 210.099 171.529C210.653 165.954 211.374 160.392 212.262 154.852C210.711 156.14 208.511 156.807 206.673 156.036C206.499 161.544 206.818 167.089 207.533 172.593C207.67 172.977 207.81 173.361 207.954 173.743C208.03 173.939 207.975 174.156 207.832 174.298C207.814 174.316 207.797 174.334 207.776 174.349C207.816 174.619 207.857 174.893 207.898 175.164C203.305 174.157 200.377 163.236 199.736 159.316C200.172 161.983 201.666 167.89 204.023 171.715C204.518 172.519 205.051 173.23 205.621 173.801C206.411 174.59 207.27 175.107 208.193 175.221ZM199.723 159.243C199.723 159.238 199.721 159.232 199.721 159.227C199.721 159.232 199.722 159.239 199.723 159.243ZM199.719 159.22C199.718 159.213 199.718 159.207 199.717 159.201C199.718 159.205 199.718 159.21 199.719 159.214C199.719 159.217 199.719 159.217 199.719 159.22Z" fill="#63824D"/>
<path d="M207.898 175.164C207.857 174.893 207.816 174.619 207.776 174.349C207.738 174.376 207.694 174.401 207.646 174.419C207.373 174.522 207.07 174.383 206.969 174.112C203.838 165.754 202.248 156.883 202.143 147.989C200.679 142.887 199.665 137.657 199.103 132.38C198.103 140.926 198.31 149.68 199.555 158.14C199.558 158.156 199.559 158.171 199.562 158.185C199.565 158.207 199.569 158.23 199.571 158.252C199.575 158.275 199.578 158.295 199.581 158.317C199.584 158.336 199.586 158.355 199.589 158.374C199.595 158.41 199.6 158.448 199.606 158.484C199.608 158.503 199.612 158.521 199.614 158.539C199.619 158.563 199.622 158.588 199.625 158.613C199.628 158.629 199.63 158.646 199.633 158.662C199.639 158.698 199.644 158.731 199.65 158.766C199.65 158.772 199.651 158.778 199.651 158.784C199.659 158.825 199.665 158.869 199.671 158.909C199.673 158.921 199.676 158.932 199.676 158.943C199.681 158.976 199.687 159.009 199.691 159.04C199.693 159.051 199.695 159.064 199.697 159.075C199.704 159.117 199.71 159.158 199.717 159.201C199.718 159.207 199.718 159.213 199.719 159.22L199.721 159.221C199.719 159.223 199.721 159.224 199.721 159.224L199.721 159.227C199.721 159.232 199.724 159.238 199.724 159.243C199.724 159.246 199.725 159.247 199.724 159.249C199.726 159.254 199.726 159.26 199.728 159.266L199.728 159.269C199.729 159.276 199.73 159.283 199.732 159.29C199.73 159.291 199.732 159.292 199.732 159.292C199.733 159.299 199.733 159.308 199.734 159.314C199.734 159.314 199.734 159.314 199.736 159.316C200.377 163.236 203.305 174.157 207.898 175.164ZM207.533 172.593C206.818 167.089 206.499 161.544 206.673 156.036C206.629 156.017 206.585 155.997 206.541 155.976C204.889 155.212 203.975 153.511 203.33 151.764C203.757 158.853 205.147 165.881 207.533 172.593Z" fill="#798B68"/>
<path d="M211.421 169.002C213.888 164.303 216.401 159.635 218.97 154.991C220.4 150.949 221.721 146.87 222.931 142.757C222.941 142.72 222.952 142.684 222.963 142.649C222.963 142.643 222.965 142.638 222.967 142.631C222.978 142.595 222.989 142.56 222.998 142.523C223 142.521 223.001 142.517 223.001 142.514C224.466 137.505 225.752 132.367 225.848 127.17C222.804 134.625 219.38 141.958 215.968 149.224C215.272 150.709 214.551 152.225 213.546 153.507C212.694 158.652 211.984 163.82 211.421 169.002Z" fill="#63824D"/>
<path d="M207.832 174.298C207.975 174.156 208.029 173.939 207.954 173.743C207.81 173.361 207.67 172.977 207.533 172.593C205.147 165.881 203.757 158.852 203.329 151.763C203.202 151.419 203.085 151.073 202.976 150.73C202.684 149.821 202.406 148.907 202.142 147.989C202.248 156.883 203.838 165.754 206.969 174.112C207.07 174.383 207.373 174.522 207.646 174.419C207.694 174.401 207.737 174.376 207.776 174.349C207.796 174.334 207.814 174.316 207.832 174.298Z" fill="#63824D"/>
<path d="M210.099 171.53C210.539 170.687 210.978 169.845 211.421 169.002C211.984 163.82 212.694 158.652 213.546 153.507C213.308 153.811 213.054 154.103 212.779 154.379C212.69 154.468 212.597 154.556 212.502 154.642C212.424 154.715 212.343 154.784 212.262 154.852C211.374 160.392 210.653 165.954 210.099 171.53Z" fill="#798B68"/>
</svg>
