<svg width="179" height="304" viewBox="0 0 179 304" fill="none" xmlns="http://www.w3.org/2000/svg">
<path d="M26.6166 144.692C6.9287 160.216 -11.8409 176.9 -29.5687 194.628C-41.3316 206.39 -52.6352 218.612 -63.4441 231.258L-60.4972 233.777C-49.7541 221.208 -38.519 209.06 -26.8274 197.369C-9.20787 179.749 9.44931 163.164 29.0166 147.737L26.6166 144.692Z" fill="#8FC9AF"/>
<path d="M23.5846 175.238C13.095 174.401 -0.56748 175.218 -10.8939 177.022L-10.225 180.84C-0.27692 179.091 13.2445 178.29 23.2721 179.104L23.5846 175.238Z" fill="#8FC9AF"/>
<path d="M4.54924 166.965C8.10194 158.714 9.96601 149.752 10.0016 140.769L6.12407 140.754C6.09117 149.211 4.33264 157.667 0.988281 165.433L4.54924 166.965Z" fill="#8FC9AF"/>
<path d="M27.2567 133.896C44.9407 109.583 65.477 87.3474 88.3105 67.7898C91.7124 64.8758 95.1939 62.0002 99.1468 59.8921C100.607 59.1122 102.392 58.442 103.865 59.1986C105.476 60.0264 105.885 62.1208 105.955 63.9314C106.302 72.8474 103.013 81.4756 99.4237 89.646C92.025 106.491 82.5524 123.305 67.3301 133.637C61.0827 137.877 54.0747 140.872 46.9583 143.4C38.7948 146.3 30.4243 148.618 21.9304 150.332C23.175 144.765 23.9014 138.509 27.2567 133.896Z" fill="#8FC9AF"/>
<path d="M45.1681 186.29C58.8732 189.005 72.6536 191.727 86.6191 192.156C100.585 192.585 114.872 190.614 127.368 184.365C128.587 183.755 129.993 182.535 129.387 181.316C129.146 180.83 128.64 180.544 128.163 180.283C123.503 177.753 118.84 175.223 114.179 172.691C109.213 169.995 104.222 167.288 98.9068 165.37C86.2873 160.815 72.4864 160.926 59.1144 162.031C46.4812 163.074 26.9222 165.511 19.592 177.559C25.6091 183.387 37.2554 184.723 45.1681 186.29Z" fill="#8FC9AF"/>
<path d="M16.1723 135.243C20.435 117.104 20.4528 97.9822 16.2217 79.8336C15.524 76.8415 13.6174 73.1339 10.6048 73.737C9.69056 73.9192 8.9134 74.5045 8.19792 75.1021C1.53249 80.682 -2.68359 89.0867 -3.17154 97.7656C-3.52242 104.049 -2.01611 110.267 -0.726337 116.428C0.268747 121.173 1.14186 125.945 1.88885 130.735C2.43711 134.233 1.94371 141.081 4.07917 143.943C9.83997 151.661 15.0552 139.992 16.1723 135.243Z" fill="#8FC9AF"/>
<path d="M69.2408 232.983C73.1567 232.16 77.2961 230.94 79.814 227.83C80.5048 226.977 81.0639 225.944 81.031 224.847C80.979 223.167 79.6001 221.862 78.2994 220.797C56.4116 202.857 26.6756 194.862 -1.25808 199.404C-8.58279 200.597 -23.028 206.804 -13.8721 214.984C-6.8503 221.258 3.33906 225.578 12.0851 228.743C30.2694 235.323 50.2862 236.976 69.2408 232.983Z" fill="#8FC9AF"/>
<path d="M-20.9584 159.608C-17.1919 135.745 -21.6465 109.354 -38.2875 91.8417C-39.4388 90.63 -40.8985 89.3759 -42.5529 89.6076C-43.5302 89.746 -44.3621 90.397 -45.0187 91.1331C-47.5722 93.9908 -48.0464 98.1658 -47.6654 101.979C-47.2844 105.792 -46.1782 109.522 -46.0494 113.351C-45.9109 117.47 -46.9061 121.541 -47.076 125.655C-47.3214 131.594 -45.8479 137.462 -44.173 143.164C-42.594 148.534 -40.8245 153.848 -38.87 159.092C-37.5473 162.643 -35.4571 172.143 -32.4801 174.561C-25.9257 179.879 -21.6945 164.272 -20.9584 159.608Z" fill="#8FC9AF"/>
<path d="M22.3552 150.239C30.701 148.533 38.9317 146.251 46.9582 143.4C54.0745 140.872 61.0826 137.877 67.33 133.637C82.5523 123.305 92.0248 106.491 99.4235 89.646C103.013 81.4756 106.301 72.8474 105.955 63.9314C105.885 62.1207 105.476 60.0264 103.864 59.1985C103.663 59.0957 103.453 59.0231 103.241 58.9696C96.6836 65.4445 91.064 72.9913 85.3992 80.3119C66.1746 105.156 45.0681 128.538 22.3552 150.239Z" fill="#BBE7D4"/>
<path d="M46.5115 175.497C61.9956 174.701 77.5044 176.454 92.8145 178.905C104.946 180.844 117.394 183.199 129.501 182.173C129.553 181.893 129.53 181.604 129.387 181.316C129.146 180.831 128.64 180.544 128.163 180.284C123.502 177.752 118.839 175.222 114.179 172.692C109.213 169.996 104.222 167.289 98.907 165.37C86.2875 160.815 72.4866 160.926 59.1146 162.031C46.6719 163.059 27.5199 165.445 19.9417 177.028C28.7343 177.219 37.6777 175.951 46.5115 175.497Z" fill="#BBE7D4"/>
<path d="M8.13623 90.8933C8.61595 100.11 10.1538 109.257 10.321 118.484C10.4896 127.833 9.21904 137.202 6.60386 146.179C11.3024 148.331 15.2224 139.285 16.1723 135.243C20.435 117.104 20.4528 97.9823 16.2216 79.8336C15.524 76.8415 13.6174 73.1339 10.6048 73.737C9.99071 73.8604 9.44108 74.1715 8.92846 74.5389C7.97312 79.8939 7.85387 85.4492 8.13623 90.8933Z" fill="#BBE7D4"/>
<path d="M-16.4736 207.975C-11.8655 209.655 -7.17106 211.041 -2.32036 211.747C2.11914 212.392 6.62029 212.463 11.0817 212.936C24.7758 214.382 37.764 219.536 51.1003 222.973C60.8072 225.474 71.1624 227.002 80.9611 225.564C81.0063 225.33 81.0378 225.09 81.031 224.847C80.9789 223.167 79.6 221.862 78.3007 220.796C56.4115 202.857 26.6755 194.862 -1.25815 199.404C-6.28977 200.222 -14.6795 203.409 -16.4736 207.975Z" fill="#BBE7D4"/>
<path d="M-38.2875 91.8417C-39.4388 90.6301 -40.8985 89.3759 -42.5529 89.6076C-43.5302 89.746 -44.3621 90.3971 -45.0187 91.1331C-45.338 91.4908 -45.6245 91.8678 -45.8808 92.2611C-42.2061 96.5636 -39.5238 101.716 -38.1696 107.209C-37.0662 111.684 -36.8223 116.331 -35.8381 120.835C-34.7293 125.902 -32.698 130.719 -31.2013 135.686C-27.3182 148.557 -27.1058 162.219 -29.1398 175.571C-24.5016 174.554 -21.5615 163.423 -20.9584 159.608C-17.1919 135.745 -21.6465 109.354 -38.2875 91.8417Z" fill="#BBE7D4"/>
<path d="M98.3038 74.5841L98.2723 74.9199C84.5289 105.577 56.8447 127.653 28.9741 146.943C28.7356 147.107 28.408 147.048 28.2421 146.809C28.0763 146.569 28.1366 146.243 28.3751 146.075C56.1196 126.875 83.6736 104.911 97.3115 74.4881C97.4307 74.2236 97.7432 74.1057 98.0077 74.225L98.3038 74.5841Z" fill="#8FC9AF"/>
<path d="M102.802 174.243L102.795 174.516C102.712 174.794 102.418 174.953 102.139 174.868C76.7313 167.249 49.0883 168.266 24.3071 177.734C24.0357 177.839 23.7314 177.702 23.6272 177.43C23.5285 177.175 23.6587 176.856 23.9315 176.75C48.9292 167.2 76.8108 166.174 102.442 173.861L102.802 174.243Z" fill="#8FC9AF"/>
<path d="M63.5512 218.289L63.5183 218.631C63.3963 218.896 63.0825 219.01 62.8193 218.886C38.6741 207.705 10.8583 203.535 -15.5018 207.151C-15.7897 207.189 -16.0542 206.963 -16.0953 206.7C-16.1351 206.411 -15.9336 206.146 -15.6458 206.108C10.9131 202.466 38.9345 206.666 63.2607 217.932L63.5512 218.289Z" fill="#8FC9AF"/>
<path d="M-25.5514 128.855C-21.9822 143.901 -22.7662 159.987 -28.2104 174.519C-28.3118 174.79 -28.6148 174.929 -28.8875 174.826C-29.1603 174.723 -29.2973 174.416 -29.1959 174.15C-20.6143 151.237 -23.7737 124.401 -37.4417 104.113C-37.6048 103.876 -37.5404 103.546 -37.3005 103.383C-37.0579 103.22 -36.733 103.284 -36.5686 103.525C-31.3834 111.224 -27.6882 119.854 -25.5514 128.855Z" fill="#8FC9AF"/>
<path d="M14.2685 87.0691L14.2781 87.1308C16.6136 107.156 14.6687 127.914 8.65569 147.159C8.56934 147.438 8.27468 147.593 7.99781 147.505C7.71957 147.418 7.56739 147.124 7.65237 146.847C13.6201 127.74 15.5514 107.133 13.2322 87.2528C13.198 86.9636 13.4063 86.7032 13.6942 86.6675C13.9628 86.6374 14.2068 86.8128 14.2685 87.0691Z" fill="#8FC9AF"/>
<path d="M47.2228 228.096L47.2365 228.194C47.2502 228.485 47.024 228.73 46.7335 228.744C24.4167 229.712 2.14791 223.052 -15.9706 209.988C-16.2063 209.818 -16.2598 209.491 -16.0898 209.255C-15.9199 209.019 -15.5923 208.966 -15.3565 209.136C2.57144 222.061 24.6058 228.651 46.6869 227.691C46.9445 227.68 47.1652 227.854 47.2228 228.096Z" fill="#BBE7D4"/>
<path d="M105.047 187.645V187.889C104.979 188.172 104.695 188.346 104.411 188.279C77.5935 181.823 50.0176 178.924 22.4472 179.66C22.1566 179.668 21.9167 179.442 21.9071 179.147C21.9003 178.858 22.1292 178.616 22.4197 178.607C50.0806 177.871 77.7497 180.778 104.658 187.253C104.858 187.303 105.004 187.459 105.047 187.645Z" fill="#BBE7D4"/>
<path d="M0.171374 95.1574L0.185061 95.2478C0.585288 101.887 1.8216 108.595 3.01816 115.08C4.75751 124.516 6.55855 134.275 5.81018 144.004C5.78825 144.295 5.53607 144.511 5.24549 144.489C4.95491 144.468 4.73972 144.214 4.76165 143.923C5.49906 134.332 3.71174 124.641 1.98336 115.27C0.779936 108.754 -0.46187 102.016 -0.866209 95.3123C-0.884028 95.0203 -0.663375 94.7722 -0.3728 94.7558C-0.113749 94.7379 0.113808 94.9134 0.171374 95.1574Z" fill="#BBE7D4"/>
<path d="M78.5283 82.8324L78.42 83.2916C72.2316 90.6917 65.288 97.7258 58.5732 104.531C45.2492 118.03 31.4701 131.99 23.2408 149.244C23.1161 149.506 22.8022 149.617 22.5404 149.492C22.2758 149.367 22.1662 149.049 22.2909 148.79C30.597 131.378 44.4377 117.353 57.8248 103.791C64.5231 97.0021 71.4517 89.983 77.6114 82.6172C77.7991 82.3938 78.1308 82.3637 78.3529 82.5501L78.5283 82.8324Z" fill="#BBE7D4"/>
<path d="M46.9583 143.4C54.0747 140.872 61.0827 137.877 67.3301 133.637C67.3548 133.62 67.3822 133.601 67.4083 133.583C67.3822 133.601 67.3562 133.619 67.3301 133.637C61.0827 137.877 54.0747 140.872 46.9583 143.4ZM27.5089 133.55C27.5624 133.478 27.6131 133.408 27.6665 133.335C27.6145 133.406 27.561 133.479 27.5089 133.55ZM27.7474 133.224C27.7872 133.171 27.8255 133.116 27.8666 133.061C27.8269 133.114 27.7872 133.171 27.7474 133.224ZM27.9928 132.888C28.0174 132.855 28.0421 132.823 28.0668 132.787C28.0421 132.82 28.0161 132.857 27.9928 132.888ZM28.2353 132.558C28.2449 132.546 28.2532 132.532 28.2628 132.52C28.2546 132.533 28.2449 132.546 28.2353 132.558ZM67.4316 133.568C67.4494 133.556 67.4699 133.541 67.4891 133.53C67.4686 133.542 67.4508 133.554 67.4316 133.568ZM67.6289 133.434C67.6317 133.431 67.6385 133.427 67.6413 133.424C67.6372 133.428 67.6331 133.43 67.6289 133.434Z" fill="#C0C59E"/>
<path d="M21.9303 150.332C22.0989 149.577 22.2579 148.807 22.4155 148.033C23.4202 143.097 24.3563 137.884 27.2566 133.896C27.3251 133.803 27.3936 133.709 27.4608 133.615C27.4772 133.593 27.4923 133.572 27.5088 133.55C27.5609 133.479 27.6143 133.406 27.6664 133.335C27.6924 133.298 27.7212 133.261 27.7473 133.224C27.787 133.171 27.8267 133.114 27.8665 133.061C27.9076 133.003 27.9515 132.946 27.9926 132.888C28.0159 132.857 28.042 132.82 28.0666 132.787C28.1228 132.712 28.1776 132.635 28.2352 132.558C28.2448 132.546 28.2544 132.533 28.2626 132.52C36.5043 121.295 45.36 110.524 54.7667 100.253C53.1192 104.113 51.5005 107.985 49.9174 111.871C39.2086 123.002 28.9644 134.803 22.2907 148.79C22.1921 148.996 22.24 149.236 22.3935 149.389C22.4347 149.431 22.484 149.466 22.5402 149.492C22.802 149.617 23.1159 149.506 23.2406 149.244C29.4674 136.192 38.8686 125.025 48.8469 114.515C48.3288 115.798 47.8162 117.083 47.3063 118.369C46.3249 120.847 45.3435 123.397 45.2901 126.06C45.2818 126.416 45.2956 126.775 45.3271 127.133C37.8694 135.029 30.2076 142.735 22.3552 150.239C30.701 148.533 38.9317 146.251 46.9582 143.4C40.4805 145.7 33.8713 147.635 27.1757 149.193C25.4322 149.599 23.6833 149.977 21.9303 150.332Z" fill="#9AD1B8"/>
<path d="M22.3552 150.239C30.2076 142.735 37.8695 135.029 45.3271 127.133C45.4971 128.978 46.1988 130.804 47.4694 132.074C47.4941 132.099 47.5188 132.124 47.5434 132.148C41.281 136.988 34.8321 141.608 28.375 146.075C28.1365 146.242 28.0762 146.569 28.2421 146.809C28.2599 146.835 28.2804 146.861 28.3024 146.883C28.4792 147.059 28.7616 147.09 28.974 146.943C35.5147 142.414 42.0458 137.733 48.3877 132.825C48.4508 132.866 48.5152 132.906 48.5797 132.946C51.373 134.626 54.9517 133.668 58.011 132.539C66.1115 129.551 73.8693 125.642 81.1145 120.946C77.1753 125.666 72.7386 129.917 67.6412 133.424C67.6384 133.427 67.6316 133.431 67.6288 133.434C67.6124 133.445 67.5959 133.456 67.5808 133.465C67.5616 133.479 67.5425 133.493 67.5246 133.505C67.5109 133.513 67.5 133.522 67.489 133.53C67.4698 133.541 67.4493 133.556 67.4314 133.568C67.4232 133.574 67.415 133.579 67.4082 133.583C67.3821 133.601 67.3547 133.62 67.33 133.637C61.0826 137.877 54.0745 140.872 46.9582 143.4C38.9317 146.251 30.701 148.533 22.3552 150.239Z" fill="#9AD1B8"/>
<path d="M28.3023 146.883C28.2804 146.861 28.2598 146.835 28.242 146.809C28.0761 146.569 28.1365 146.242 28.3749 146.075C34.832 141.608 41.2809 136.988 47.5434 132.148C47.8024 132.399 48.0834 132.625 48.3877 132.825C42.0457 137.734 35.5146 142.414 28.9739 146.943C28.7615 147.09 28.4791 147.059 28.3023 146.883Z" fill="#9AD1B8"/>
<path d="M22.3938 149.39C22.2403 149.236 22.1923 148.996 22.291 148.791C28.9646 134.803 39.2088 123.002 49.9176 111.871C49.5585 112.751 49.2008 113.632 48.8471 114.515C38.8689 125.025 29.4677 136.192 23.2409 149.244C23.1161 149.506 22.8022 149.617 22.5404 149.492C22.4842 149.466 22.4349 149.431 22.3938 149.39Z" fill="#9AD1B8"/>
<path d="M19.5922 177.559C20.4515 176.148 21.4782 174.867 22.6418 173.706C31.4112 164.959 47.9603 162.952 59.1146 162.031C46.6719 163.059 27.5199 165.445 19.9417 177.028C21.1739 177.054 22.4075 177.052 23.6424 177.028C23.5876 177.154 23.578 177.301 23.6273 177.43C23.6561 177.503 23.6958 177.564 23.7465 177.615C23.8891 177.758 24.1071 177.811 24.3072 177.734C25.0213 177.461 25.7354 177.197 26.455 176.938C32.5173 176.671 38.6221 175.983 44.6831 175.602C44.6831 175.654 44.6844 175.707 44.6872 175.759C44.7543 176.901 45.3232 177.856 46.1305 178.664C46.2032 178.736 46.2785 178.809 46.3539 178.879C38.3877 178.487 30.4037 178.395 22.4198 178.607C22.1292 178.616 21.9003 178.858 21.9071 179.147C21.9126 179.29 21.9702 179.416 22.062 179.508C22.1593 179.605 22.2978 179.664 22.4472 179.66C30.9246 179.434 39.4006 179.552 47.8547 180.01C48.3249 180.307 48.8087 180.577 49.2829 180.824C60.5318 186.672 72.7264 190.032 85.2609 192.086C71.7615 191.531 58.4279 188.916 45.1683 186.29C37.2556 184.723 25.6093 183.387 19.5922 177.559Z" fill="#9AD1B8"/>
<path d="M19.9417 177.028C27.5199 165.445 46.6719 163.059 59.1146 162.031C63.491 161.67 67.9113 161.42 72.3234 161.399C64.1613 163.18 56.3034 165.892 49.0527 170.13C49.0404 170.137 49.028 170.144 49.0157 170.151C40.4684 171.447 32.0471 173.651 23.9316 176.75C23.7973 176.802 23.6986 176.907 23.6424 177.028C22.4075 177.052 21.1739 177.055 19.9417 177.028ZM26.455 176.938C33.1368 174.533 40.016 172.733 46.9885 171.545C45.6754 172.63 44.6557 173.979 44.6831 175.602C38.6221 175.983 32.5173 176.671 26.455 176.938Z" fill="#9AD1B8"/>
<path d="M23.7466 177.615C23.6959 177.564 23.6562 177.503 23.6274 177.43C23.5781 177.301 23.5877 177.155 23.6425 177.028C23.6987 176.906 23.7974 176.802 23.9317 176.75C32.0472 173.651 40.4685 171.447 49.0158 170.151C48.3277 170.554 47.6246 171.018 46.9886 171.545C40.0161 172.733 33.1369 174.533 26.455 176.938C25.7355 177.197 25.0214 177.462 24.3073 177.734C24.1072 177.811 23.8892 177.758 23.7466 177.615Z" fill="#9AD1B8"/>
<path d="M22.0618 179.508C21.9699 179.416 21.9124 179.29 21.9069 179.147C21.9001 178.858 22.1289 178.616 22.4195 178.607C30.4035 178.395 38.3875 178.487 46.3537 178.879C46.806 179.295 47.3213 179.671 47.8545 180.01C39.4004 179.552 30.9244 179.434 22.447 179.66C22.2976 179.664 22.1591 179.605 22.0618 179.508Z" fill="#9AD1B8"/>
<path d="M5.01248 145.032C4.70409 144.724 4.39298 144.361 4.0791 143.943C1.94365 141.081 2.43705 134.233 1.88879 130.735C1.14179 125.945 0.268682 121.173 -0.726404 116.428C-1.90652 110.794 -3.2511 105.11 -3.20313 99.3706C-1.94351 103.056 -0.519426 106.684 1.06778 110.24C1.36658 111.928 1.67636 113.606 1.98339 115.27C3.71177 124.641 5.49908 134.332 4.76168 143.923C4.74935 144.084 4.811 144.233 4.91518 144.337C5.00015 144.422 5.11531 144.48 5.24552 144.489C5.5361 144.511 5.78828 144.295 5.81021 144.004C6.55858 134.275 4.75754 124.516 3.0182 115.08C2.95103 114.716 2.88388 114.353 2.81671 113.987C4.03933 116.501 5.34556 118.975 6.73539 121.401C7.28501 122.362 7.94019 123.371 8.7283 124.159C9.17239 124.603 9.65899 124.977 10.1922 125.233C9.7988 132.321 8.5885 139.362 6.60381 146.179C6.99581 146.358 7.38096 146.46 7.762 146.493C7.76063 146.495 7.75925 146.499 7.75925 146.502C7.1548 146.448 6.53389 146.222 5.90066 145.783C5.60734 145.58 5.31128 145.331 5.01248 145.032Z" fill="#9AD1B8"/>
<path d="M6.6038 146.179C8.58849 139.362 9.79878 132.321 10.1922 125.233C10.6664 125.461 11.1776 125.594 11.7286 125.602C12.0083 125.605 12.2823 125.575 12.551 125.514C11.4778 132.629 9.87825 139.657 7.76198 146.493C7.38095 146.46 6.9958 146.358 6.6038 146.179Z" fill="#9AD1B8"/>
<path d="M16.1725 135.243C16.1862 135.18 16.2 135.12 16.2151 135.058C16.2013 135.118 16.1876 135.182 16.1725 135.243ZM16.2782 134.789C16.2809 134.775 16.2851 134.757 16.2892 134.742C16.2851 134.757 16.2809 134.773 16.2782 134.789Z" fill="#C0C59E"/>
<path d="M8.89137 146.403C8.89137 146.4 8.89275 146.396 8.89275 146.393C12.4907 145.446 15.3128 138.77 16.1435 135.365C15.5088 137.965 13.7133 142.48 11.2969 144.888C10.5485 145.634 9.74117 146.178 8.89137 146.403ZM16.1434 135.359C16.1448 135.353 16.1475 135.347 16.1475 135.342C16.1475 135.347 16.1462 135.354 16.1434 135.359ZM16.1722 135.243C16.1859 135.18 16.201 135.118 16.2147 135.055C16.2161 135.056 16.2161 135.056 16.2147 135.058C16.1996 135.12 16.1859 135.18 16.1722 135.243ZM16.2298 134.993C16.2394 134.951 16.249 134.908 16.2599 134.865C16.2586 134.869 16.2586 134.871 16.2572 134.876C16.249 134.914 16.2394 134.951 16.2312 134.989C16.2298 134.991 16.2298 134.993 16.2298 134.993ZM16.275 134.795C16.2873 134.741 16.301 134.686 16.3134 134.633C16.3038 134.67 16.2969 134.707 16.2887 134.743C16.2846 134.758 16.2805 134.776 16.2777 134.789C16.2764 134.791 16.2764 134.793 16.275 134.795Z" fill="#9AD1B8"/>
<path d="M8.8928 146.393C11.02 139.447 12.6182 132.308 13.6791 125.082C14.215 124.793 14.7098 124.403 15.1361 123.968C16.8288 122.253 17.6923 119.907 18.4462 117.618C18.6805 116.907 18.8861 116.188 19.1082 115.473C18.6888 121.866 17.7745 128.224 16.3504 134.47C16.3477 134.481 16.345 134.495 16.3422 134.506C16.3326 134.548 16.323 134.591 16.3134 134.633C16.3011 134.687 16.2874 134.741 16.275 134.795C16.2709 134.818 16.2655 134.843 16.26 134.865C16.249 134.909 16.2394 134.951 16.2298 134.994C16.2257 135.014 16.2216 135.035 16.2147 135.055C16.201 135.118 16.186 135.18 16.1722 135.243C16.1695 135.251 16.1668 135.259 16.1668 135.268C16.1654 135.272 16.164 135.276 16.1627 135.28C16.1613 135.284 16.1599 135.288 16.1599 135.291C16.1586 135.298 16.1572 135.302 16.1572 135.307C16.1559 135.312 16.1544 135.313 16.1544 135.316C16.1531 135.322 16.1503 135.328 16.1503 135.333C16.1503 135.336 16.149 135.338 16.1476 135.342C16.1476 135.347 16.1448 135.353 16.1435 135.36C16.1435 135.362 16.1435 135.362 16.1435 135.365C15.3129 138.77 12.4907 145.446 8.8928 146.393Z" fill="#9AD1B8"/>
<path d="M7.75931 146.502C7.75931 146.499 7.76069 146.495 7.76206 146.493C9.87833 139.657 11.4779 132.629 12.5511 125.514C12.9431 125.427 13.32 125.277 13.6791 125.083C12.6182 132.309 11.0201 139.447 8.89284 146.393C8.89284 146.396 8.89147 146.4 8.89146 146.403C8.52139 146.499 8.14446 146.536 7.75931 146.502Z" fill="#9AD1B8"/>
<path d="M4.9153 144.337C4.81113 144.233 4.74947 144.084 4.7618 143.923C5.49921 134.332 3.71189 124.641 1.98351 115.27C1.67649 113.606 1.3667 111.929 1.0679 110.24C1.63123 111.5 2.21376 112.748 2.81684 113.987C2.884 114.353 2.95116 114.716 3.01832 115.08C4.75766 124.517 6.5587 134.276 5.81033 144.004C5.7884 144.295 5.53622 144.511 5.24565 144.49C5.11543 144.48 5.00028 144.422 4.9153 144.337Z" fill="#9AD1B8"/>
<path d="M-8.90629 218.796C-9.75197 216.878 -10.6059 214.961 -11.4653 213.052C-0.30825 220.193 12.1933 225.035 25.1843 227.321C30.7998 230.226 36.6579 232.704 42.6175 234.96C32.2938 234.392 22.0469 232.32 12.3208 228.828C12.3167 228.826 12.3153 228.825 12.3126 228.825C12.2783 228.813 12.2427 228.799 12.2084 228.786C12.2043 228.785 12.2016 228.785 12.1975 228.784C12.1605 228.769 12.1221 228.755 12.0851 228.743C5.23463 226.265 -2.50128 223.076 -8.90629 218.796ZM-12.2671 211.274C-12.596 210.542 -12.925 209.818 -13.2581 209.09C-9.68344 210.261 -6.04709 211.205 -2.32032 211.747C0.522387 212.161 3.38974 212.339 6.25712 212.536C6.3051 212.765 6.36542 212.99 6.43943 213.215C6.85885 214.476 7.64555 215.542 8.58992 216.486C9.34378 217.24 10.1991 217.917 11.0461 218.553C14.5563 221.181 18.242 223.523 22.0551 225.645C9.85917 223.068 -1.82827 218.204 -12.2671 211.274Z" fill="#9AD1B8"/>
<path d="M-13.2581 209.09C-13.5775 208.387 -13.8996 207.681 -14.2217 206.981C-6.90519 206.049 0.515448 205.715 7.93472 205.96C6.54764 207.849 5.78008 210.28 6.25706 212.536C3.38968 212.339 0.522325 212.161 -2.32038 211.747C-6.04715 211.205 -9.6835 210.261 -13.2581 209.09Z" fill="#9AD1B8"/>
<path d="M-14.6836 205.979C-14.7425 205.849 -14.8042 205.716 -14.8631 205.588C-14.4204 205.129 -13.916 204.693 -13.3636 204.278L-13.3623 204.277C-13.354 204.271 -13.3458 204.263 -13.3362 204.256C-13.3362 204.256 -13.3362 204.256 -13.3349 204.255C-13.3157 204.241 -13.2965 204.227 -13.28 204.214C-13.2773 204.214 -13.2773 204.214 -13.2759 204.212C-13.2691 204.205 -13.2595 204.199 -13.2513 204.193C-13.2499 204.192 -13.2499 204.192 -13.2499 204.192C-13.2403 204.185 -13.2307 204.178 -13.2211 204.171C-13.2211 204.171 -13.2197 204.17 -13.2184 204.168C-13.2115 204.164 -13.2033 204.159 -13.1965 204.152C-13.1937 204.152 -13.191 204.149 -13.1896 204.148C-13.1718 204.136 -13.1553 204.122 -13.1375 204.109C-13.1361 204.108 -13.132 204.107 -13.1306 204.105C-13.1224 204.1 -13.1169 204.094 -13.1101 204.09C-13.1073 204.088 -13.106 204.086 -13.1019 204.085C-13.095 204.078 -13.0882 204.074 -13.0799 204.068C-13.0758 204.064 -13.0717 204.063 -13.0676 204.059C-13.0621 204.056 -13.0593 204.053 -13.0539 204.051C-13.0498 204.046 -13.047 204.044 -13.0415 204.041C-13.0388 204.038 -13.0347 204.037 -13.0319 204.034C-13.0224 204.027 -13.0128 204.02 -13.0032 204.014C-13.0018 204.012 -12.9991 204.009 -12.995 204.008C-12.9909 204.004 -12.984 204 -12.9799 203.996C-12.9771 203.996 -12.9758 203.994 -12.9744 203.993C-12.9552 203.979 -12.936 203.966 -12.9168 203.952C-12.9155 203.951 -12.9141 203.949 -12.9127 203.951C-9.53135 201.575 -4.66283 199.963 -1.28968 199.411C-1.28831 199.41 -1.28831 199.41 -1.28831 199.41C-1.27872 199.408 -1.26913 199.407 -1.25816 199.404C5.88698 198.243 13.1473 197.907 20.3651 198.34C18.4928 199.067 16.6506 199.87 14.8565 200.771C12.6538 201.877 10.4677 203.147 8.78864 204.936C0.932129 204.632 -6.93672 204.973 -14.6836 205.979Z" fill="#9AD1B8"/>
<path d="M-14.2217 206.981C-14.3766 206.645 -14.5287 206.315 -14.6836 205.979C-6.93674 204.973 0.932105 204.632 8.78862 204.936C8.60358 205.135 8.42267 205.34 8.24996 205.551C8.14168 205.684 8.03614 205.82 7.93471 205.96C0.515434 205.714 -6.9052 206.049 -14.2217 206.981Z" fill="#9AD1B8"/>
<path d="M-11.4652 213.052C-11.7311 212.459 -11.9984 211.866 -12.267 211.274C-1.82825 218.204 9.85919 223.068 22.0551 225.645C23.09 226.219 24.1316 226.779 25.1843 227.321C12.1934 225.035 -0.308232 220.193 -11.4652 213.052Z" fill="#9AD1B8"/>
</svg>
