<svg width="233" height="469" viewBox="0 0 233 469" fill="none" xmlns="http://www.w3.org/2000/svg">
<path d="M8.33659 13.4526L11.3453 0.122475C11.3791 -0.0408249 11.6158 -0.0408249 11.6563 0.122475L14.6583 13.4526L14.7598 13.5655L22.8935 16.5108C23.0355 16.5606 23.0355 16.7531 22.8935 16.8029L14.7598 19.7482L14.6583 19.8611L11.7239 32.8779C11.6901 33.0398 11.4535 33.0411 11.4129 32.8792L8.33659 19.8597L8.2419 19.7489L0.101419 16.8029C-0.0338062 16.7531 -0.0338062 16.5606 0.101419 16.5108L8.2419 13.5655L8.33659 13.4526Z" fill="#FCD2C1"/>
<path d="M139.732 182.051L145.042 158.062C145.106 157.769 145.516 157.769 145.58 158.062L150.89 182.051L151.07 182.252L165.44 187.553C165.696 187.643 165.696 187.99 165.44 188.08L151.07 193.38L150.89 193.584L145.708 217.006C145.657 217.298 145.234 217.301 145.158 217.01L139.732 193.581L139.553 193.381L125.182 188.08C124.939 187.99 124.939 187.643 125.182 187.553L139.553 182.252L139.732 182.051Z" fill="#FCD2C1"/>
<path d="M220.328 451.495L222.853 440.096C222.885 439.957 223.08 439.957 223.112 440.096L225.638 451.495L225.722 451.592L232.551 454.11C232.668 454.153 232.668 454.317 232.551 454.36L225.722 456.879L225.638 456.975L223.171 468.105C223.145 468.244 222.944 468.245 222.911 468.107L220.328 456.974L220.25 456.879L213.414 454.36C213.304 454.317 213.304 454.153 213.414 454.11L220.25 451.592L220.328 451.495Z" fill="#FCD2C1"/>
</svg>
